<svg viewBox="0 0 24 24" fill="currentColor" xmlns="http://www.w3.org/2000/svg">
<path d="M8.36327 5.36339C8.69283 5.03383 9.21485 5.01341 9.56835 5.30186L9.63671 5.36339L14.9297 10.6564C15.0783 10.805 15.2552 10.9791 15.3838 11.1476C15.5282 11.3368 15.6934 11.6206 15.6934 12.0001C15.6934 12.3796 15.5282 12.6634 15.3838 12.8526C15.2552 13.0211 15.0783 13.1952 14.9297 13.3439L9.63671 18.6368C9.28524 18.9883 8.71475 18.9883 8.36327 18.6368C8.0118 18.2854 8.0118 17.7149 8.36327 17.3634L13.6562 12.0704C13.6813 12.0454 13.704 12.0218 13.7256 12.0001C13.704 11.9784 13.6813 11.9548 13.6562 11.9298L8.36327 6.63682L8.30175 6.56846C8.0133 6.21497 8.03372 5.69294 8.36327 5.36339Z" fill="currentColor"/>
</svg>
