<svg viewBox="0 0 24 24" fill="currentColor" xmlns="http://www.w3.org/2000/svg">
<path d="M14.3848 13.5311C14.7474 13.1912 15.3163 13.2095 15.6563 13.5721C15.9962 13.9348 15.9779 14.5037 15.6152 14.8436L12.6152 17.6561C12.2907 17.9604 11.7969 17.9801 11.4512 17.7137L11.3848 17.6561L8.38478 14.8436L8.32032 14.7772C8.02105 14.4332 8.02515 13.912 8.34376 13.5721C8.66246 13.2322 9.18233 13.1948 9.54493 13.4716L9.61524 13.5311L12 15.7665L14.3848 13.5311ZM11.4512 7.28601C11.7969 7.01969 12.2907 7.03933 12.6152 7.34363L15.6152 10.1561L15.6797 10.2225C15.979 10.5666 15.9749 11.0878 15.6563 11.4276C15.3376 11.7676 14.8177 11.8049 14.4551 11.5282L14.3848 11.4686L12 9.2323L9.61524 11.4686C9.25262 11.8086 8.68372 11.7902 8.34376 11.4276C8.0038 11.065 8.02216 10.4961 8.38478 10.1561L11.3848 7.34363L11.4512 7.28601Z" fill="currentColor"/>
</svg>
