<svg viewBox="0 0 24 24" fill="currentColor" xmlns="http://www.w3.org/2000/svg">
<path d="M12.1376 15.8926C12.4487 15.859 12.6868 15.7172 12.8525 15.5908C13.0209 15.4623 13.195 15.2854 13.3437 15.1367L18.6366 9.84375L18.6982 9.77539C18.9866 9.42189 18.9662 8.89985 18.6366 8.57031C18.3071 8.24081 17.785 8.22038 17.4316 8.50879L17.3632 8.57031L11.9999 13.9336L6.63663 8.57031C6.28517 8.21889 5.71466 8.21889 5.36319 8.57031C5.01174 8.92177 5.01176 9.49228 5.36319 9.84375L10.6562 15.1367L10.8944 15.3711C10.9776 15.45 11.0631 15.5265 11.1474 15.5908C11.3367 15.7352 11.6205 15.9004 11.9999 15.9004L12.1376 15.8926Z" fill="currentColor"/>
</svg>
