<svg viewBox="0 0 24 24" fill="currentColor" xmlns="http://www.w3.org/2000/svg">
<path d="M12.1376 8.31445C12.4487 8.348 12.6868 8.48984 12.8525 8.61621C13.0209 8.74476 13.195 8.92168 13.3437 9.07031L18.6366 14.3633L18.6982 14.4316C18.9866 14.7851 18.9662 15.3072 18.6366 15.6367C18.3071 15.9662 17.785 15.9867 17.4316 15.6982L17.3632 15.6367L11.9999 10.2734L6.63663 15.6367C6.28517 15.9881 5.71466 15.9881 5.36319 15.6367C5.01174 15.2853 5.01176 14.7148 5.36319 14.3633L10.6562 9.07031L10.8944 8.83594C10.9776 8.75707 11.0631 8.68049 11.1474 8.61621C11.3367 8.4718 11.6205 8.30664 11.9999 8.30664L12.1376 8.31445Z" fill="currentColor"/>
</svg>
