<svg viewBox="0 0 24 24" fill="currentColor" xmlns="http://www.w3.org/2000/svg">
<path d="M8.57031 5.36339C8.89987 5.03383 9.42188 5.01341 9.77539 5.30186L9.84375 5.36339L15.1367 10.6564C15.2854 10.805 15.4623 10.9791 15.5908 11.1476C15.7352 11.3368 15.9004 11.6206 15.9004 12.0001C15.9004 12.3796 15.7352 12.6634 15.5908 12.8526C15.4623 13.0211 15.2854 13.1952 15.1367 13.3439L9.84375 18.6368C9.49228 18.9883 8.92177 18.9883 8.57031 18.6368C8.21886 18.2854 8.21886 17.7149 8.57031 17.3634L13.8633 12.0704C13.8883 12.0454 13.911 12.0218 13.9326 12.0001C13.911 11.9784 13.8883 11.9548 13.8633 11.9298L8.57031 6.63682L8.50879 6.56846C8.22038 6.21497 8.24081 5.69294 8.57031 5.36339Z" fill="currentColor"/>
</svg>
