<svg viewBox="0 0 24 24" fill="currentColor" xmlns="http://www.w3.org/2000/svg">
<path d="M15.4297 5.36339C15.1001 5.03383 14.5781 5.01341 14.2246 5.30186L14.1562 5.36339L8.86328 10.6564C8.71464 10.805 8.53772 10.9791 8.40918 11.1476C8.26477 11.3368 8.09961 11.6206 8.09961 12.0001C8.09961 12.3796 8.26477 12.6634 8.40918 12.8526C8.53772 13.0211 8.71464 13.1952 8.86328 13.3439L14.1562 18.6368C14.5077 18.9883 15.0782 18.9883 15.4297 18.6368C15.7812 18.2854 15.7812 17.7149 15.4297 17.3634L10.1367 12.0704C10.1117 12.0454 10.089 12.0218 10.0674 12.0001C10.089 11.9784 10.1117 11.9548 10.1367 11.9298L15.4297 6.63682L15.4912 6.56846C15.7797 6.21497 15.7592 5.69294 15.4297 5.36339Z" fill="currentColor"/>
</svg>
