<svg width="16" height="16" viewBox="0 0 16 16" fill="none" xmlns="http://www.w3.org/2000/svg">
<path d="M11.6462 3.6464C11.8414 3.45117 12.1579 3.45123 12.3532 3.6464C12.5485 3.84167 12.5485 4.15817 12.3532 4.35344L5.27019 11.4355C5.28497 11.4373 5.29989 11.4405 5.31511 11.4423C5.71717 11.4892 6.21646 11.5028 6.71355 11.4989C7.20749 11.4951 7.68581 11.4745 8.04167 11.454C8.21924 11.4438 8.36579 11.4331 8.46746 11.4257C8.51823 11.422 8.55795 11.419 8.58464 11.4169C8.59799 11.4159 8.60824 11.4155 8.61492 11.415C8.61824 11.4147 8.62114 11.4141 8.62273 11.414H8.62468L8.72527 11.4159C8.95632 11.4431 9.14436 11.6292 9.16472 11.87C9.18501 12.1107 9.03118 12.3258 8.80828 12.3915L8.70867 12.4101H8.70769C8.70713 12.4101 8.70577 12.411 8.70476 12.4111C8.70275 12.4112 8.69959 12.4108 8.69597 12.4111C8.68848 12.4117 8.67769 12.4129 8.66374 12.414C8.63514 12.4162 8.59271 12.4199 8.53972 12.4237C8.4338 12.4314 8.28239 12.4415 8.09929 12.4521C7.73327 12.4731 7.2373 12.4949 6.72136 12.4989C6.20832 12.503 5.66132 12.4894 5.1989 12.4355C4.96851 12.4086 4.74482 12.3701 4.55046 12.3134C4.3933 12.2675 4.20397 12.1962 4.05046 12.0702L3.98699 12.0126C3.82464 11.8502 3.73864 11.6288 3.68621 11.4491C3.62951 11.2548 3.59104 11.0311 3.56414 10.8007C3.51015 10.3383 3.49664 9.79128 3.50066 9.27824C3.5047 8.7623 3.52647 8.26633 3.54753 7.90031C3.55807 7.7172 3.56816 7.56581 3.57585 7.45988C3.57971 7.40689 3.58337 7.36446 3.58562 7.33586C3.58672 7.32191 3.58794 7.31112 3.58855 7.30363C3.58885 7.29999 3.58838 7.29686 3.58855 7.29484L3.58953 7.29191V7.29094L3.60808 7.19133C3.67383 6.96844 3.88895 6.8146 4.12957 6.83488C4.37036 6.85526 4.55648 7.0433 4.58367 7.27433L4.58562 7.37492V7.37687C4.58549 7.37846 4.58491 7.38137 4.58464 7.38469C4.5841 7.39136 4.58374 7.40161 4.58269 7.41496C4.58059 7.44165 4.57759 7.48137 4.5739 7.53215C4.56651 7.63381 4.5558 7.78035 4.54558 7.95793C4.5251 8.31379 4.50453 8.79211 4.50066 9.28605C4.49677 9.78314 4.51036 10.2824 4.5573 10.6845C4.55903 10.6993 4.56135 10.714 4.56316 10.7284L11.6462 3.6464Z" fill="#DC3412"/>
</svg>
