<svg viewBox="0 0 24 24" fill="currentColor" xmlns="http://www.w3.org/2000/svg">
<path d="M18.4322 4.30162C18.7857 4.01316 19.3077 4.03359 19.6373 4.36314C19.9668 4.6927 19.9872 5.21472 19.6988 5.56822L19.6373 5.63658L13.274 11.9999L19.6373 18.3631L19.6988 18.4315C19.9872 18.785 19.9668 19.307 19.6373 19.6366C19.3077 19.9661 18.7857 19.9866 18.4322 19.6981L18.3638 19.6366L12.0005 13.2733L5.63726 19.6366C5.28578 19.9881 4.71529 19.9881 4.36382 19.6366C4.01236 19.2851 4.01235 18.7146 4.36382 18.3631L10.7271 11.9999L4.36382 5.63658L4.30229 5.56822C4.01384 5.21472 4.03426 4.6927 4.36382 4.36314C4.69337 4.03359 5.2154 4.01317 5.5689 4.30162L5.63726 4.36314L12.0005 10.7264L18.3638 4.36314L18.4322 4.30162Z" fill="currentColor"/>
</svg>
