<svg viewBox="0 0 24 24" fill="currentColor" xmlns="http://www.w3.org/2000/svg">
<path d="M17.1982 2.74609C18.3304 1.82277 20.0004 1.88906 21.0557 2.94434L21.2539 3.16309C22.1156 4.21972 22.1157 5.74514 21.2539 6.80176L21.0557 7.02051L14.4199 13.6563C13.5356 14.5406 12.9498 15.1343 12.3008 15.5576L12.0176 15.7295C11.5935 15.9664 10.9608 16.1685 10.3311 16.3438C9.67618 16.526 8.92271 16.7058 8.20801 16.876C7.90413 16.9481 7.58415 16.8576 7.36328 16.6367C7.14241 16.4159 7.05187 16.0959 7.12402 15.792L7.38574 14.708C7.4746 14.3485 7.56511 13.9964 7.65625 13.6689C7.83151 13.0392 8.03364 12.4065 8.27051 11.9824L8.44238 11.6992C8.86568 11.0502 9.45943 10.4644 10.3438 9.58008L16.9795 2.94434L17.1982 2.74609ZM11.6162 10.8525C10.6716 11.7972 10.2373 12.241 9.95508 12.6738L9.8418 12.8604C9.72288 13.0733 9.56884 13.511 9.39063 14.1514C9.33587 14.3481 9.28326 14.556 9.22852 14.7705C9.44323 14.7157 9.65165 14.6642 9.84863 14.6094C10.489 14.4312 10.9267 14.2771 11.1396 14.1582L11.3262 14.0449C11.759 13.7627 12.2028 13.3284 13.1475 12.3838L17.7441 7.78516L16.2139 6.25488L11.6162 10.8525ZM19.7832 4.2168C19.3869 3.82045 18.7591 3.79565 18.334 4.14258L18.252 4.2168L17.4863 4.98145L19.0176 6.5127L19.7832 5.74805L19.8574 5.66602C20.1813 5.26916 20.1812 4.6957 19.8574 4.29883L19.7832 4.2168Z" fill="currentColor"/>
<path d="M2.09961 12C2.09961 9.90416 2.09778 8.2417 2.27246 6.94238C2.45063 5.61717 2.82754 4.53574 3.68164 3.68164C4.53574 2.82754 5.61717 2.45063 6.94238 2.27246C8.2417 2.09778 9.90416 2.09961 12 2.09961C12.4971 2.09961 12.9004 2.50294 12.9004 3C12.9004 3.49706 12.4971 3.90039 12 3.90039C9.8535 3.90039 8.33407 3.90188 7.18262 4.05664C6.05701 4.20798 5.41802 4.49018 4.9541 4.9541C4.49018 5.41802 4.20798 6.05701 4.05664 7.18262C3.90188 8.33407 3.90039 9.8535 3.90039 12C3.90039 14.1465 3.90188 15.6659 4.05664 16.8174C4.20798 17.943 4.49018 18.582 4.9541 19.0459C5.41802 19.5098 6.05701 19.792 7.18262 19.9434C8.33407 20.0981 9.8535 20.0996 12 20.0996C14.1465 20.0996 15.6659 20.0981 16.8174 19.9434C17.943 19.792 18.582 19.5098 19.0459 19.0459C19.5098 18.582 19.792 17.943 19.9434 16.8174C20.0981 15.6659 20.0996 14.1465 20.0996 12C20.0996 11.5029 20.5029 11.0996 21 11.0996C21.4971 11.0996 21.9004 11.5029 21.9004 12C21.9004 14.0958 21.9022 15.7583 21.7275 17.0576C21.5494 18.3828 21.1725 19.4643 20.3184 20.3184C19.4643 21.1725 18.3828 21.5494 17.0576 21.7275C15.7583 21.9022 14.0958 21.9004 12 21.9004C9.90416 21.9004 8.2417 21.9022 6.94238 21.7275C5.61717 21.5494 4.53574 21.1725 3.68164 20.3184C2.82754 19.4643 2.45063 18.3828 2.27246 17.0576C2.09778 15.7583 2.09961 14.0958 2.09961 12Z" fill="currentColor"/>
</svg>
