<svg viewBox="0 0 24 24" fill="currentColor" xmlns="http://www.w3.org/2000/svg">
<path d="M12.281 4.25C14.852 4.25 17.055 5.381 18.761 6.713C20.468 8.046 21.73 9.62 22.436 10.609L22.489 10.684C22.742 11.036 23.031 11.438 23.031 12C23.031 12.562 22.742 12.964 22.489 13.316L22.436 13.391C21.73 14.38 20.468 15.954 18.761 17.287C17.055 18.619 14.852 19.75 12.281 19.75C9.71101 19.75 7.50701 18.619 5.80201 17.287C4.09401 15.954 2.83301 14.38 2.12701 13.391L2.07301 13.316C1.82001 12.964 1.53101 12.562 1.53101 12C1.53101 11.438 1.82001 11.036 2.07301 10.684L2.12701 10.609C2.83301 9.62 4.09401 8.046 5.80201 6.713C7.50701 5.381 9.71101 4.25 12.281 4.25ZM3.34801 11.481C3.18501 11.71 3.10701 11.821 3.06101 11.91C3.03101 11.967 3.03101 11.982 3.03101 11.998V12V12.002C3.03101 12.018 3.03101 12.033 3.06101 12.09C3.10701 12.179 3.18501 12.29 3.34801 12.519C4.00801 13.445 5.17401 14.894 6.72501 16.105C8.27701 17.317 10.163 18.25 12.281 18.25C14.4 18.25 16.285 17.317 17.838 16.105C19.389 14.894 20.554 13.445 21.215 12.519C21.378 12.29 21.456 12.179 21.502 12.09C21.531 12.033 21.531 12.018 21.531 12.003V12.002V12V11.998V11.997C21.531 11.982 21.531 11.967 21.502 11.91C21.456 11.821 21.378 11.71 21.215 11.481C20.554 10.555 19.389 9.106 17.838 7.895C16.285 6.683 14.4 5.75 12.281 5.75C10.163 5.75 8.27701 6.683 6.72501 7.895C5.17401 9.106 4.00801 10.555 3.34801 11.481ZM12.281 15.75C10.21 15.75 8.53101 14.071 8.53101 12C8.53101 9.929 10.21 8.25 12.281 8.25C14.352 8.25 16.031 9.929 16.031 12C16.031 14.071 14.352 15.75 12.281 15.75ZM10.031 12C10.031 13.243 11.039 14.25 12.281 14.25C13.524 14.25 14.531 13.243 14.531 12C14.531 10.757 13.524 9.75 12.281 9.75C11.039 9.75 10.031 10.757 10.031 12Z" fill="currentColor" opacity="0.4"/>
<path d="M4.5 4.5L19.5 19.5" stroke="currentColor" stroke-width="2" stroke-linecap="round"/>
</svg>

