<svg width="24" height="24" viewBox="0 0 24 24" fill="none" xmlns="http://www.w3.org/2000/svg">
<path d="M20.652 9.348C21.254 9.95 21.513 10.708 21.633 11.608C21.75 12.475 21.75 13.578 21.75 14.945V15.055C21.75 16.423 21.75 17.525 21.633 18.392C21.513 19.292 21.254 20.05 20.652 20.652C20.05 21.254 19.292 21.513 18.392 21.633C17.525 21.75 16.423 21.75 15.055 21.75H14.945C13.578 21.75 12.475 21.75 11.608 21.633C10.708 21.513 9.95 21.254 9.348 20.652C8.794 20.097 8.531 19.41 8.398 18.602C7.59 18.469 6.903 18.206 6.348 17.652C5.794 17.097 5.531 16.41 5.398 15.602C4.59 15.469 3.903 15.206 3.348 14.652C2.746 14.05 2.488 13.292 2.367 12.392C2.25 11.525 2.25 10.423 2.25 9.055V8.945C2.25 7.577 2.25 6.475 2.367 5.608C2.488 4.708 2.746 3.95 3.348 3.348C3.95 2.746 4.708 2.488 5.608 2.367C6.475 2.25 7.577 2.25 8.945 2.25H9.055C10.423 2.25 11.525 2.25 12.392 2.367C13.292 2.488 14.05 2.746 14.652 3.348C15.206 3.903 15.469 4.59 15.602 5.398C16.41 5.531 17.097 5.794 17.652 6.348C18.206 6.903 18.469 7.59 18.602 8.398C19.41 8.531 20.097 8.794 20.652 9.348ZM11.808 9.853C11.074 9.952 10.686 10.132 10.409 10.409C10.132 10.686 9.952 11.074 9.853 11.808C9.752 12.564 9.75 13.565 9.75 15C9.75 16.435 9.752 17.437 9.853 18.192C9.952 18.926 10.132 19.314 10.409 19.591C10.686 19.868 11.074 20.048 11.808 20.147C12.564 20.248 13.565 20.25 15 20.25C16.435 20.25 17.437 20.248 18.192 20.147C18.926 20.048 19.314 19.868 19.591 19.591C19.868 19.314 20.048 18.926 20.147 18.192C20.248 17.437 20.25 16.435 20.25 15C20.25 13.565 20.248 12.564 20.147 11.808C20.048 11.074 19.868 10.686 19.591 10.409C19.314 10.132 18.926 9.952 18.192 9.853C17.437 9.752 16.435 9.75 15 9.75C13.565 9.75 12.564 9.752 11.808 9.853ZM5.268 14.045C5.25 13.456 5.25 12.794 5.25 12.055V11.945C5.25 10.577 5.25 9.475 5.367 8.608C5.488 7.708 5.746 6.95 6.348 6.348C6.95 5.746 7.708 5.488 8.608 5.367C9.475 5.25 10.577 5.25 11.945 5.25H12.055C12.794 5.25 13.456 5.25 14.045 5.268C13.94 4.866 13.79 4.608 13.591 4.409C13.314 4.132 12.926 3.952 12.192 3.853C11.436 3.752 10.435 3.75 9 3.75C7.565 3.75 6.563 3.752 5.808 3.853C5.074 3.952 4.686 4.132 4.409 4.409C4.132 4.686 3.952 5.074 3.853 5.808C3.752 6.563 3.75 7.565 3.75 9C3.75 10.435 3.752 11.436 3.853 12.192C3.952 12.926 4.132 13.314 4.409 13.591C4.608 13.79 4.866 13.94 5.268 14.045ZM15.055 8.25C15.794 8.25 16.456 8.25 17.045 8.268C16.94 7.866 16.79 7.608 16.591 7.409C16.314 7.132 15.926 6.952 15.192 6.853C14.436 6.752 13.435 6.75 12 6.75C10.565 6.75 9.563 6.752 8.808 6.853C8.074 6.952 7.686 7.132 7.409 7.409C7.132 7.686 6.952 8.074 6.853 8.808C6.752 9.563 6.75 10.565 6.75 12C6.75 13.435 6.752 14.436 6.853 15.192C6.952 15.926 7.132 16.314 7.409 16.591C7.608 16.79 7.866 16.94 8.268 17.045C8.25 16.456 8.25 15.794 8.25 15.055V14.945C8.25 13.577 8.25 12.475 8.367 11.608C8.488 10.708 8.746 9.95 9.348 9.348C9.95 8.746 10.708 8.488 11.608 8.367C12.475 8.25 13.577 8.25 14.945 8.25H15.055Z" fill="#1E1E1E"/>
</svg>
