<svg viewBox="0 0 24 24" fill="currentColor" xmlns="http://www.w3.org/2000/svg">
<path d="M19.0996 15.5C19.0996 14.6922 19.0359 13.8882 18.9424 13.082L18.8398 12.2754C18.6815 11.0996 17.7595 10.1771 16.6279 10.0195L16.3994 9.99805C14.997 9.93358 13.5713 9.90039 12 9.90039C10.8216 9.90039 9.72529 9.91939 8.65918 9.95605L7.60059 9.99805C6.44371 10.0514 5.45878 10.9042 5.20117 12.0439L5.16016 12.2754C5.01506 13.353 4.90039 14.423 4.90039 15.5C4.90039 16.577 5.01506 17.647 5.16016 18.7246L5.20117 18.9561C5.45878 20.0958 6.44371 20.9486 7.60059 21.002L8.65918 21.0439C9.7253 21.0806 10.8216 21.0996 12 21.0996C13.5713 21.0996 14.997 21.0664 16.3994 21.002L16.6279 20.9805C17.7595 20.8229 18.6815 19.9004 18.8398 18.7246L18.9424 17.918C19.0359 17.1118 19.0996 16.3078 19.0996 15.5ZM11.0996 16.5V14.5C11.0996 14.0029 11.5029 13.5996 12 13.5996C12.4971 13.5996 12.9004 14.0029 12.9004 14.5V16.5C12.9004 16.9971 12.4971 17.4004 12 17.4004C11.5029 17.4004 11.0996 16.9971 11.0996 16.5ZM15.5996 6.5C15.5996 4.51177 13.9882 2.90039 12 2.90039C10.0118 2.9004 8.40039 4.51178 8.40039 6.5V8.16406C9.54971 8.12209 10.7289 8.09961 12 8.09961C13.2711 8.09961 14.4503 8.12209 15.5996 8.16406V6.5ZM17.4004 8.34277C19.0954 8.79756 20.3847 10.2582 20.624 12.0352L20.7295 12.873C20.8279 13.7217 20.9004 14.6013 20.9004 15.5C20.9004 16.3987 20.8279 17.2783 20.7295 18.127L20.624 18.9648C20.3519 20.9859 18.7214 22.5981 16.6807 22.7861L16.4814 22.7998C15.0507 22.8655 13.598 22.9004 12 22.9004C10.8015 22.9004 9.68471 22.8811 8.59766 22.8438L7.51855 22.7998C5.45227 22.7048 3.76507 21.1529 3.40625 19.1592L3.37598 18.9648C3.22755 17.8625 3.09961 16.6982 3.09961 15.5C3.09961 14.3018 3.22755 13.1375 3.37598 12.0352L3.40625 11.8408C3.71014 10.1523 4.96684 8.78087 6.59961 8.34277V6.5C6.59961 3.51767 9.01767 1.09961 12 1.09961C14.9824 1.09961 17.4004 3.51767 17.4004 6.5V8.34277Z" fill="currentColor"/>
</svg>
