<svg viewBox="0 0 24 24" fill="currentColor" xmlns="http://www.w3.org/2000/svg">
<path d="M15.749 6.34502C15.766 6.75902 15.444 7.10802 15.03 7.12402C14.616 7.14102 14.267 6.81902 14.251 6.40502C14.193 4.95602 12.986 3.71102 11.334 3.75102C10.972 3.76002 10.493 3.88902 9.255 4.23802C6.455 5.02702 4.355 6.26502 3.846 8.86302C3.753 9.33302 3.75 9.87302 3.75 11.163V12.837C3.75 14.127 3.753 14.667 3.846 15.137C4.355 17.735 6.455 18.973 9.255 19.762C10.493 20.111 10.972 20.24 11.334 20.249C12.986 20.289 14.193 19.044 14.251 17.595C14.267 17.181 14.616 16.859 15.03 16.876C15.444 16.892 15.766 17.241 15.749 17.655C15.66 19.91 13.781 21.809 11.297 21.749C10.72 21.735 10.042 21.543 8.978 21.243L8.848 21.206C5.924 20.381 3.056 18.906 2.374 15.426C2.25 14.795 2.25 14.099 2.25 12.931V12.837V11.163V11.069C2.25 9.90102 2.25 9.20502 2.374 8.57402C3.056 5.09402 5.924 3.61902 8.848 2.79402L8.978 2.75702C10.042 2.45702 10.72 2.26602 11.297 2.25102C13.781 2.19102 15.66 4.09002 15.749 6.34502ZM19.023 8.96202C19.114 9.05102 19.296 9.19702 19.567 9.41002L19.627 9.45702C19.869 9.64702 20.153 9.87002 20.424 10.099C20.715 10.346 21.017 10.621 21.251 10.897C21.369 11.035 21.485 11.19 21.575 11.358C21.661 11.519 21.75 11.742 21.75 12C21.75 12.258 21.661 12.481 21.575 12.642C21.485 12.81 21.369 12.965 21.251 13.103C21.017 13.379 20.715 13.654 20.424 13.901C20.153 14.13 19.869 14.353 19.627 14.543L19.567 14.59C19.296 14.804 19.114 14.949 19.023 15.038C18.726 15.326 18.251 15.32 17.962 15.023C17.674 14.726 17.68 14.251 17.977 13.962C18.139 13.805 18.396 13.603 18.641 13.411L18.698 13.366C18.943 13.173 19.206 12.967 19.455 12.756L19.462 12.75H10C9.586 12.75 9.25 12.414 9.25 12C9.25 11.586 9.586 11.25 10 11.25H19.462L19.455 11.244C19.206 11.033 18.943 10.827 18.698 10.634L18.641 10.589C18.396 10.397 18.139 10.195 17.977 10.038C17.68 9.74902 17.674 9.27402 17.962 8.97702C18.251 8.68002 18.726 8.67302 19.023 8.96202Z" fill="currentColor"/>
</svg>
