<svg viewBox="0 0 24 24" fill="currentColor" xmlns="http://www.w3.org/2000/svg">
<path d="M10.54 2.60939C12.0013 2.59096 13.4572 2.59988 14.9238 2.63673L16.0312 2.667C17.0851 2.6999 17.9824 2.74906 18.7392 2.88087C19.7888 3.06368 20.6575 3.41749 21.3926 4.15528L21.5254 4.29493C22.1674 4.99773 22.4879 5.81046 22.6562 6.77931C22.8283 7.77007 22.8517 8.99958 22.8838 10.5049L22.8965 11.2529C22.9018 11.7512 22.9018 12.2488 22.8965 12.7471L22.8838 13.4951C22.8517 15.0004 22.8283 16.2299 22.6562 17.2207C22.4879 18.1896 22.1674 19.0023 21.5254 19.7051L21.3926 19.8447C20.6575 20.5826 19.7888 20.9363 18.7392 21.1192C17.9824 21.251 17.0851 21.3001 16.0312 21.333L14.9238 21.3633C13.4572 21.4002 12.0013 21.4091 10.54 21.3906L9.07615 21.3633C7.52884 21.3244 6.26996 21.2949 5.26072 21.1192C4.27683 20.9478 3.45197 20.626 2.74705 19.9785L2.6074 19.8447C1.87591 19.1105 1.52326 18.2542 1.34373 17.2207C1.21466 16.4775 1.16892 15.5997 1.1406 14.5723L1.11619 13.4951C1.0949 12.4966 1.0949 11.5034 1.11619 10.5049L1.1406 9.42774C1.16891 8.40029 1.21466 7.52254 1.34373 6.77931C1.52326 5.74578 1.87592 4.88954 2.6074 4.15528L2.74705 4.02149C3.45197 3.37408 4.27682 3.05225 5.26072 2.88087C6.26996 2.70511 7.52883 2.6756 9.07615 2.63673L10.54 2.60939ZM10.5625 4.40919L9.12107 4.43653C7.52011 4.47676 6.41704 4.50667 5.56931 4.65431C4.86303 4.77736 4.40404 4.97122 4.03513 5.28419L3.88279 5.42579C3.48323 5.82687 3.25312 6.30499 3.11717 7.0879C3.00963 7.70728 2.96922 8.46408 2.94138 9.46192L2.91599 10.544C2.89526 11.5166 2.89526 12.4834 2.91599 13.4561L2.94138 14.5381C2.96923 15.5359 3.00963 16.2927 3.11717 16.9121C3.25312 17.695 3.48324 18.1732 3.88279 18.5742L4.03611 18.7158C4.40492 19.0285 4.86339 19.2227 5.56931 19.3457C6.41704 19.4933 7.5201 19.5233 9.12107 19.5635L10.5625 19.5908C12.0012 19.609 13.4348 19.5998 14.8789 19.5635L15.9902 19.5332C17.0154 19.5009 17.7949 19.4564 18.4306 19.3457C19.2376 19.2051 19.7213 18.9716 20.1172 18.5742L20.2597 18.4199C20.5732 18.0491 20.7638 17.5972 20.8828 16.9121C21.0262 16.0864 21.0507 15.016 21.084 13.4561L21.0957 12.7275C21.1009 12.2423 21.1009 11.7577 21.0957 11.2725L21.084 10.544C21.0507 8.98399 21.0262 7.91367 20.8828 7.0879C20.7638 6.40287 20.5732 5.95095 20.2597 5.58009L20.1172 5.42579C19.7213 5.02844 19.2376 4.7949 18.4306 4.65431C17.7949 4.54359 17.0154 4.49913 15.9902 4.46681L14.8789 4.43653C13.4348 4.40025 12.0012 4.39105 10.5625 4.40919ZM16.542 7.7256C16.9698 7.47265 17.5214 7.61424 17.7744 8.042C18.0273 8.46983 17.8858 9.02142 17.458 9.27442L14.5156 11.0137C13.6421 11.5301 12.8608 11.9004 12 11.9004C11.2467 11.9004 10.5542 11.6169 9.8076 11.2002L9.48435 11.0137L6.54197 9.27442L6.46482 9.22364C6.09787 8.95294 5.98848 8.44301 6.22556 8.042C6.46284 7.64083 6.96277 7.49103 7.37693 7.68263L7.45799 7.7256L10.4004 9.46485L10.6963 9.63478C11.3451 9.99462 11.7028 10.0996 12 10.0996C12.3395 10.0996 12.7581 9.96235 13.5996 9.46485L16.542 7.7256Z" fill="currentColor"/>
</svg>
