<svg width="24" height="24" viewBox="0 0 24 24" fill="none" xmlns="http://www.w3.org/2000/svg">
<path d="M17.0122 12.0034L17.0171 11.9009C17.0683 11.3966 17.4945 11.0034 18.0122 11.0034C18.53 11.0034 18.9561 11.3966 19.0073 11.9009L19.0122 12.0034V12.0122C19.0122 12.5645 18.5645 13.0122 18.0122 13.0122C17.4599 13.0122 17.0122 12.5645 17.0122 12.0122V12.0034ZM11.0122 11.9956L11.0171 11.8931C11.0683 11.3888 11.4945 10.9956 12.0122 10.9956C12.53 10.9956 12.9561 11.3888 13.0073 11.8931L13.0122 11.9956V12.0044C13.0122 12.5567 12.5645 13.0044 12.0122 13.0044C11.4599 13.0044 11.0122 12.5567 11.0122 12.0044V11.9956ZM5.01221 11.9878L5.01709 11.8853C5.06834 11.381 5.49447 10.9878 6.01221 10.9878C6.52995 10.9878 6.95608 11.381 7.00732 11.8853L7.01221 11.9878V11.9966C7.01221 12.5489 6.56449 12.9966 6.01221 12.9966C5.45992 12.9966 5.01221 12.5489 5.01221 11.9966V11.9878Z" fill="#1E1E1E"/>
</svg>
