<svg width="24" height="24" viewBox="0 0 24 24" fill="none" xmlns="http://www.w3.org/2000/svg">
<path d="M11.9929 17L12.0955 17.0049C12.5997 17.0561 12.9929 17.4823 12.9929 18C12.9929 18.5177 12.5997 18.9439 12.0955 18.9951L11.9929 19H11.9841C11.4318 19 10.9841 18.5523 10.9841 18C10.9841 17.4477 11.4318 17 11.9841 17H11.9929ZM12.0007 11L12.1033 11.0049C12.6075 11.0561 13.0007 11.4823 13.0007 12C13.0007 12.5177 12.6075 12.9439 12.1033 12.9951L12.0007 13H11.9919C11.4397 13 10.9919 12.5523 10.9919 12C10.9919 11.4477 11.4397 11 11.9919 11H12.0007ZM12.0085 5L12.1111 5.00488C12.6153 5.05613 13.0085 5.48226 13.0085 6C13.0085 6.51774 12.6153 6.94387 12.1111 6.99512L12.0085 7H11.9998C11.4475 7 10.9998 6.55228 10.9998 6C10.9998 5.44772 11.4475 5 11.9998 5H12.0085Z" fill="currentColor"/>
</svg>
