<svg viewBox="0 0 24 24" fill="currentColor" xmlns="http://www.w3.org/2000/svg">
<path d="M18.2002 11C18.2002 7.02355 14.9765 3.7998 11 3.7998C7.02355 3.7998 3.7998 7.02355 3.7998 11C3.7998 14.9765 7.02355 18.2002 11 18.2002C14.9765 18.2002 18.2002 14.9765 18.2002 11ZM19.7998 11C19.7998 13.1421 19.0329 15.1039 17.7607 16.6299L21.5654 20.4346L21.6201 20.4951C21.8766 20.8093 21.8584 21.2725 21.5654 21.5654C21.2725 21.8584 20.8093 21.8766 20.4951 21.6201L20.4346 21.5654L16.6299 17.7607C15.1039 19.0329 13.1421 19.7998 11 19.7998C6.13989 19.7998 2.2002 15.8601 2.2002 11C2.2002 6.13989 6.13989 2.2002 11 2.2002C15.8601 2.2002 19.7998 6.13989 19.7998 11Z" fill="currentColor"/>
</svg>
