<svg width="24" height="24" viewBox="0 0 24 24" fill="none" xmlns="http://www.w3.org/2000/svg">
<path d="M6.531 2.25C7.117 2.25 7.602 2.25 7.998 2.282C8.409 2.316 8.789 2.388 9.146 2.57C9.699 2.852 10.148 3.301 10.43 3.854C10.612 4.211 10.684 4.591 10.718 5.002C10.75 5.398 10.75 5.883 10.75 6.469V6.531C10.75 7.117 10.75 7.602 10.718 7.998C10.684 8.409 10.612 8.789 10.43 9.146C10.148 9.699 9.699 10.148 9.146 10.43C8.789 10.612 8.409 10.684 7.998 10.718C7.602 10.75 7.117 10.75 6.531 10.75H6.469C5.883 10.75 5.398 10.75 5.002 10.718C4.591 10.684 4.211 10.612 3.854 10.43C3.301 10.148 2.852 9.699 2.57 9.146C2.388 8.789 2.316 8.409 2.282 7.998C2.25 7.602 2.25 7.117 2.25 6.531V6.469C2.25 5.883 2.25 5.398 2.282 5.002C2.316 4.591 2.388 4.211 2.57 3.854C2.852 3.301 3.301 2.852 3.854 2.57C4.211 2.388 4.591 2.316 5.002 2.282C5.398 2.25 5.883 2.25 6.469 2.25H6.531ZM6.531 13.25C7.117 13.25 7.602 13.25 7.998 13.282C8.409 13.316 8.789 13.388 9.146 13.57C9.699 13.852 10.148 14.301 10.43 14.854C10.612 15.211 10.684 15.591 10.718 16.002C10.75 16.398 10.75 16.883 10.75 17.469V17.531C10.75 18.117 10.75 18.602 10.718 18.998C10.684 19.409 10.612 19.789 10.43 20.146C10.148 20.699 9.699 21.148 9.146 21.43C8.789 21.612 8.409 21.684 7.998 21.718C7.602 21.75 7.117 21.75 6.531 21.75H6.469C5.883 21.75 5.398 21.75 5.002 21.718C4.591 21.684 4.211 21.612 3.854 21.43C3.301 21.148 2.852 20.699 2.57 20.146C2.388 19.789 2.316 19.409 2.282 18.998C2.25 18.602 2.25 18.117 2.25 17.531V17.469C2.25 16.883 2.25 16.398 2.282 16.002C2.316 15.591 2.388 15.211 2.57 14.854C2.852 14.301 3.301 13.852 3.854 13.57C4.211 13.388 4.591 13.316 5.002 13.282C5.398 13.25 5.883 13.25 6.469 13.25H6.531ZM18.75 17.609C18.839 17.516 18.937 17.413 19.047 17.297L20.456 15.811C20.741 15.51 21.215 15.497 21.516 15.782C21.817 16.067 21.829 16.542 21.544 16.843L20.135 18.329L20.103 18.363C19.756 18.729 19.445 19.058 19.159 19.288C18.849 19.537 18.476 19.75 18 19.75C17.524 19.75 17.151 19.537 16.841 19.288C16.555 19.058 16.244 18.729 15.897 18.363L15.865 18.329L14.456 16.843C14.171 16.542 14.183 16.067 14.484 15.782C14.785 15.497 15.259 15.51 15.544 15.811L16.953 17.297C17.063 17.413 17.161 17.516 17.25 17.609V14.538C17.25 12.237 17.234 11.315 16.87 10.513C16.506 9.71 15.823 9.092 14.091 7.576L13.506 7.064C13.194 6.792 13.163 6.318 13.436 6.006C13.708 5.694 14.182 5.663 14.494 5.936L15.079 6.447L15.215 6.567C16.765 7.922 17.722 8.759 18.236 9.893C18.751 11.027 18.75 12.298 18.75 14.356V17.609ZM4.535 14.907C4.264 15.045 4.044 15.264 3.907 15.535C3.85 15.646 3.803 15.806 3.777 16.124C3.751 16.451 3.75 16.875 3.75 17.5C3.75 18.125 3.751 18.549 3.777 18.876C3.803 19.194 3.85 19.354 3.907 19.465C4.044 19.736 4.264 19.955 4.535 20.093C4.646 20.15 4.806 20.197 5.124 20.223C5.451 20.249 5.875 20.25 6.5 20.25C7.125 20.25 7.549 20.249 7.876 20.223C8.194 20.197 8.354 20.15 8.465 20.093C8.736 19.955 8.955 19.736 9.093 19.465C9.15 19.354 9.197 19.194 9.223 18.876C9.249 18.549 9.25 18.125 9.25 17.5C9.25 16.875 9.249 16.451 9.223 16.124C9.197 15.806 9.15 15.646 9.093 15.535C8.955 15.264 8.736 15.045 8.465 14.907C8.354 14.85 8.194 14.803 7.876 14.777C7.549 14.751 7.125 14.75 6.5 14.75C5.875 14.75 5.451 14.751 5.124 14.777C4.806 14.803 4.646 14.85 4.535 14.907ZM5.124 3.777C4.806 3.803 4.646 3.85 4.535 3.907C4.264 4.044 4.044 4.264 3.907 4.535C3.85 4.646 3.803 4.806 3.777 5.124C3.751 5.451 3.75 5.875 3.75 6.5C3.75 7.125 3.751 7.549 3.777 7.876C3.803 8.194 3.85 8.354 3.907 8.465C4.044 8.736 4.264 8.955 4.535 9.093C4.646 9.15 4.806 9.197 5.124 9.223C5.451 9.249 5.875 9.25 6.5 9.25C7.125 9.25 7.549 9.249 7.876 9.223C8.194 9.197 8.354 9.15 8.465 9.093C8.736 8.955 8.955 8.736 9.093 8.465C9.15 8.354 9.197 8.194 9.223 7.876C9.249 7.549 9.25 7.125 9.25 6.5C9.25 5.875 9.249 5.451 9.223 5.124C9.197 4.806 9.15 4.646 9.093 4.535C8.955 4.264 8.736 4.044 8.465 3.907C8.354 3.85 8.194 3.803 7.876 3.777C7.549 3.751 7.125 3.75 6.5 3.75C5.875 3.75 5.451 3.751 5.124 3.777Z" fill="#1E1E1E"/>
</svg>
