<svg width="24" height="24" viewBox="0 0 24 24" fill="none" xmlns="http://www.w3.org/2000/svg">
<path d="M14.399 3.112L16.162 6.665C16.215 6.775 16.342 6.93 16.532 7.072C16.722 7.213 16.909 7.291 17.031 7.312L20.221 7.846C21.373 8.04 22.339 8.604 22.652 9.588C22.965 10.571 22.506 11.592 21.678 12.422L19.199 14.921C19.101 15.02 18.991 15.206 18.922 15.449C18.853 15.691 18.847 15.911 18.878 16.053L18.879 16.055L19.588 19.145C19.882 20.432 19.784 21.707 18.877 22.374C17.967 23.043 16.723 22.747 15.592 22.074L12.603 20.289C12.477 20.214 12.261 20.153 12.001 20.153C11.743 20.153 11.523 20.213 11.389 20.291L11.387 20.292L8.40302 22.073C7.27402 22.749 6.03202 23.04 5.12102 22.37C4.21402 21.703 4.11202 20.43 4.40702 19.145L5.11602 16.055V16.053C5.14702 15.911 5.14102 15.691 5.07302 15.449C5.00402 15.206 4.89402 15.02 4.79602 14.921L2.31602 12.421C1.49302 11.591 1.03502 10.57 1.34602 9.589C1.65802 8.605 2.62102 8.04 3.77402 7.846L6.96102 7.312C7.07802 7.292 7.26302 7.215 7.45202 7.073C7.64302 6.931 7.77002 6.775 7.82302 6.665L7.82602 6.66L9.58602 3.111V3.11C10.119 2.041 10.948 1.25 11.996 1.25C13.045 1.25 13.872 2.043 14.399 3.112ZM10.929 3.779L9.17102 7.324C8.98402 7.706 8.67202 8.034 8.35102 8.274C8.02802 8.515 7.62802 8.72 7.21402 8.791H7.21202L4.02302 9.325C3.13602 9.474 2.84402 9.826 2.77602 10.042C2.70702 10.261 2.74402 10.722 3.38102 11.364L5.86102 13.865C6.18202 14.189 6.39702 14.622 6.51602 15.04C6.63402 15.458 6.67902 15.938 6.58002 16.38L6.57902 16.385L5.86902 19.48C5.60402 20.635 5.87202 21.06 6.01002 21.162C6.14402 21.261 6.62202 21.391 7.63302 20.786L10.628 18.998C11.044 18.754 11.543 18.653 12.001 18.653C12.458 18.653 12.957 18.754 13.372 19.001L16.361 20.785C17.38 21.392 17.857 21.263 17.989 21.166C18.124 21.066 18.391 20.643 18.125 19.48L17.414 16.38C17.316 15.938 17.36 15.458 17.479 15.04C17.597 14.622 17.812 14.189 18.134 13.865L20.614 11.364L20.616 11.363C21.257 10.721 21.292 10.26 21.223 10.043C21.154 9.827 20.86 9.475 19.972 9.325L16.783 8.791C16.365 8.721 15.962 8.517 15.637 8.275C15.313 8.034 15.001 7.706 14.814 7.324L13.054 3.776C12.632 2.92 12.204 2.75 11.996 2.75C11.787 2.75 11.356 2.922 10.929 3.779Z" fill="#1E1E1E"/>
</svg>
