<svg viewBox="0 0 24 24" fill="currentColor" xmlns="http://www.w3.org/2000/svg">
<path d="M12.0342 1.09961C12.5379 1.09961 12.9747 1.09938 13.3379 1.13184C13.7179 1.16583 14.0836 1.24017 14.4414 1.42578L14.6455 1.54297C14.712 1.58462 14.7769 1.62879 14.8398 1.67578L14.957 1.76856C15.2193 1.99107 15.4142 2.25391 15.5859 2.54004C15.7736 2.85272 15.9629 3.24595 16.1826 3.69922L16.6191 4.59961H21L21.0918 4.60449C21.5457 4.65047 21.9004 5.03393 21.9004 5.5C21.9004 5.96607 21.5457 6.34953 21.0918 6.39551L21 6.40039H20.3457L19.7783 15.5811C19.7002 16.844 19.6389 17.8553 19.5107 18.6631C19.3966 19.3825 19.2209 20.0088 18.8906 20.5674L18.7393 20.8027C18.3989 21.2907 17.9728 21.7122 17.4824 22.0469L17.2686 22.1846C16.6264 22.5757 15.9145 22.7438 15.0859 22.8232C14.2717 22.9013 13.2586 22.9004 11.9932 22.9004C10.7261 22.9004 9.71166 22.9004 8.89648 22.8223C8.06669 22.7427 7.35278 22.5757 6.70996 22.1836V22.1826C6.20172 21.8726 5.7547 21.4731 5.39062 21.0039L5.24023 20.7988C4.81021 20.1809 4.5992 19.4796 4.46973 18.6562C4.37433 18.0495 4.31681 17.3279 4.26172 16.4717L4.20605 15.5693L3.65234 6.40039H3C2.50294 6.40039 2.09961 5.99706 2.09961 5.5C2.09961 5.00294 2.50294 4.59961 3 4.59961H7.47461L7.83984 3.79785L8.14258 3.14258C8.23866 2.94146 8.33137 2.75875 8.42383 2.59668C8.61722 2.25772 8.84288 1.95011 9.16992 1.69922L9.36621 1.56055C9.43342 1.51733 9.50263 1.477 9.57324 1.43945L9.70996 1.37207C10.0305 1.22708 10.3591 1.16377 10.6992 1.13281C11.0707 1.09901 11.5178 1.09961 12.0342 1.09961ZM6.00293 15.4609L6.11328 17.1416C6.15092 17.62 6.19271 18.0239 6.24805 18.376C6.35646 19.0655 6.50607 19.4663 6.71777 19.7705L6.8125 19.9004C7.01009 20.1551 7.24666 20.3767 7.5127 20.5586L7.64746 20.6465L7.77148 20.7158C8.07121 20.8698 8.46062 20.9729 9.06836 21.0312C9.77767 21.0993 10.6911 21.0996 11.9932 21.0996C13.2936 21.0996 14.2057 21.0992 14.9141 21.0312C15.6075 20.9647 16.0159 20.84 16.332 20.6475H16.333L16.4678 20.5596C16.7776 20.348 17.0474 20.0821 17.2627 19.7734L17.3389 19.6543C17.5109 19.3648 17.6378 18.9833 17.7334 18.3809C17.8449 17.6779 17.9021 16.7678 17.9824 15.4697L18.543 6.40039H5.45605L6.00293 15.4609ZM8.59961 16.5V10.5C8.59961 10.0029 9.00294 9.59961 9.5 9.59961C9.99706 9.59961 10.4004 10.0029 10.4004 10.5V16.5C10.4004 16.9971 9.99706 17.4004 9.5 17.4004C9.00294 17.4004 8.59961 16.9971 8.59961 16.5ZM13.5996 16.5V10.5C13.5996 10.0029 14.0029 9.59961 14.5 9.59961C14.9971 9.59961 15.4004 10.0029 15.4004 10.5V16.5C15.4004 16.9971 14.9971 17.4004 14.5 17.4004C14.0029 17.4004 13.5996 16.9971 13.5996 16.5ZM12.0342 2.90039C11.4854 2.90039 11.1335 2.9011 10.8623 2.92578C10.6718 2.94313 10.5604 2.96974 10.4844 2.99902L10.418 3.02832C10.3911 3.04259 10.3654 3.05877 10.3398 3.0752L10.2646 3.12695C10.1961 3.17958 10.1137 3.26681 9.9873 3.48828C9.91977 3.60665 9.84869 3.74583 9.7666 3.91797L9.47754 4.54492L9.45215 4.59961H14.6191L14.5635 4.48438C14.3298 4.0024 14.1788 3.69373 14.042 3.46582C13.9459 3.30575 13.8753 3.21894 13.8174 3.16406L13.7637 3.11816L13.6123 3.02344C13.537 2.98442 13.4255 2.94696 13.1777 2.92481C12.913 2.90115 12.5697 2.90039 12.0342 2.90039Z" fill="currentColor"/>
</svg>
