<svg viewBox="0 0 24 24" fill="currentColor" xmlns="http://www.w3.org/2000/svg">
<path d="M17.5497 9.10742C18.0046 9.12019 18.3871 9.15326 18.7304 9.24414L18.9071 9.29492C20.6503 9.83568 21.8684 11.4111 21.8993 13.2266L21.8983 13.4092C21.8863 13.8562 21.758 14.3584 21.5614 15.0137L21.3437 15.7236C20.5287 18.3693 19.0772 20.9807 15.7665 21.7197L15.4403 21.7852C14.9479 21.8736 14.4169 21.8939 13.6669 21.8984L12.8368 21.9004H11.163C10.0942 21.9004 9.40495 21.9026 8.80947 21.8242L8.55947 21.7852C5.23834 21.1886 3.69522 18.7831 2.82217 16.2344L2.65615 15.7236C2.38013 14.8275 2.1748 14.1839 2.11709 13.6377L2.10146 13.4092C2.0493 11.4565 3.37328 9.74622 5.26943 9.24414L5.44424 9.20312C5.86117 9.11845 6.33904 9.10399 6.93057 9.09961C7.42755 9.09593 7.83402 9.4962 7.83779 9.99316C7.84147 10.4901 7.4412 10.8966 6.94424 10.9004C6.41527 10.9043 6.11194 10.9192 5.90713 10.9492L5.73037 10.9844C4.6122 11.2805 3.87136 12.2716 3.90029 13.3604L3.90908 13.4736C3.94051 13.7557 4.06501 14.1841 4.37588 15.1934L4.52627 15.6562C5.30365 17.9299 6.50114 19.5868 8.87783 20.0137L9.05459 20.041C9.48259 20.0971 10.0315 20.0996 11.163 20.0996H12.8368L13.6747 20.0986C14.3912 20.0938 14.7767 20.0757 15.122 20.0137L15.3563 19.9668C17.7317 19.4416 18.875 17.6248 19.6239 15.1934L19.8466 14.4609C20.0285 13.8498 20.0938 13.574 20.0995 13.3604L20.0956 13.1582C20.0384 12.2181 19.4111 11.3812 18.4755 11.0479L18.2694 10.9844C18.1161 10.9438 17.907 10.9189 17.5146 10.9072L17.0556 10.9004L16.9638 10.8945C16.5103 10.8451 16.1586 10.4591 16.162 9.99316C16.1658 9.4962 16.5723 9.09593 17.0692 9.09961L17.5497 9.10742ZM11.0995 14V4.95801L10.1981 6.06738C9.88468 6.45312 9.31826 6.51169 8.93252 6.19824C8.54678 5.88477 8.48821 5.31836 8.80166 4.93262L9.76455 3.74707L10.2548 3.15332C10.4122 2.96993 10.5646 2.80433 10.7118 2.66797C11.0233 2.37959 11.4395 2.09961 11.9999 2.09961L12.203 2.1123C12.6626 2.16968 13.0154 2.41557 13.288 2.66797C13.5826 2.94077 13.8968 3.33054 14.2353 3.74707L15.1981 4.93262L15.2528 5.00684C15.5032 5.38809 15.4289 5.90438 15.0673 6.19824C14.7056 6.49214 14.1851 6.45898 13.8632 6.13574L13.8017 6.06738L12.9003 4.95801V14C12.9003 14.4971 12.497 14.9004 11.9999 14.9004C11.5028 14.9004 11.0995 14.4971 11.0995 14Z" fill="currentColor"/>
</svg>
