<svg xmlns="http://www.w3.org/2000/svg" width="128" height="109" fill="none" viewBox="0 0 128 109"><path fill="#b3b3b3" d="M19.068 36.228v-.017l-.002.008-.003-.008v.017q-.33 1.196-1.524 1.71 1.195.516 1.524 1.711v.017l.003-.008.002.008v-.017q.33-1.195 1.525-1.71-1.195-.515-1.525-1.711m90.294-13.342v-.017l-.003.008-.002-.008v.017q-.33 1.196-1.525 1.71 1.195.516 1.525 1.711v.017l.002-.008.003.008v-.017q.33-1.196 1.524-1.71-1.195-.515-1.524-1.711M89.64 9.845v-.017l-.003.008-.002-.008v.017q-.33 1.196-1.525 1.71 1.195.516 1.525 1.711v.017l.002-.008.003.008v-.017q.33-1.196 1.524-1.71-1.195-.515-1.524-1.711M43.116 2.513v-.016l-.002.008-.002-.008v.016q-.33 1.197-1.525 1.711 1.195.515 1.525 1.711v.017l.002-.009.002.009v-.017q.33-1.196 1.525-1.71-1.195-.515-1.525-1.712M107.837.034V0l-.005.017-.004-.017v.034q-.66 2.393-3.05 3.422 2.39 1.03 3.05 3.421v.034l.004-.017.005.017v-.034q.66-2.392 3.049-3.421-2.39-1.03-3.049-3.422m-96.797 10.1V10.1l-.005.018-.004-.018v.035q-.66 2.392-3.05 3.421 2.39 1.03 3.05 3.422v.034l.004-.017.005.017v-.034q.66-2.393 3.05-3.422-2.39-1.03-3.05-3.421"/><path fill="#e6e6e6" d="M53.375 36.336c5.495 0 9.95-4.455 9.95-9.95 0-5.496-4.455-9.95-9.95-9.95-5.496 0-9.95 4.454-9.95 9.95s4.454 9.95 9.95 9.95"/><path fill="#b3b3b3" d="M38.311 35.24c-.891 0-1.414-.199-1.592-.604-.253-.575.282-1.397 1.635-2.51 1.2-.987 3.022-2.18 5.27-3.451a.233.233 0 0 1 .23.406c-5.733 3.24-6.914 4.898-6.708 5.367.186.423 1.73.566 5.467-.42 3.378-.89 7.702-2.463 12.174-4.43s8.554-4.09 11.494-5.978c1.42-.913 2.494-1.719 3.19-2.396.89-.866.865-1.232.814-1.35-.204-.464-2.197-.717-8.369 1.277a.233.233 0 1 1-.143-.444c2.425-.784 4.508-1.309 6.022-1.518 1.712-.237 2.666-.074 2.917.497.204.463-.096 1.076-.916 1.873-.718.698-1.815 1.524-3.263 2.453-2.96 1.902-7.064 4.037-11.558 6.013s-8.842 3.558-12.243 4.455c-1.663.438-3.014.69-4.013.746q-.216.013-.408.013"/><path fill="#d9d9d9" d="M73 108.495a36 36 0 0 0 3.28-15.054c0-19.944-16.169-36.112-36.113-36.112-19.945 0-36.113 16.168-36.113 36.112a36 36 0 0 0 3.279 15.054z"/><path fill="#757575" d="M70.407 73.695c-3.114.865-7.646 1.49-14.008 1.058-12.483-.848-27.44-8.023-39.195-9.184-7.297 6.019-12.19 14.848-13.022 24.83 3.544-2.954 8.738-6.145 15.917-7.997 15.998-4.126 33.834.59 43.272 0 4.017-.25 7.515-1.424 10.207-2.69a36 36 0 0 0-3.171-6.017m-3.25 23.115c-5.916-.262-26.742-10.927-43.672-6.783-9.464 2.317-15.602 5.427-19.176 7.72a35.9 35.9 0 0 0 3.024 10.748h65.668a36 36 0 0 0 3.275-14.61c-2.787 1.563-6.241 3.053-9.12 2.925"/><path fill="#e6e6e6" d="M19.066 67.403a8.03 8.03 0 1 0 0-16.062 8.03 8.03 0 0 0 0 16.062m84.706 14.831 11.453-4.56a8.9 8.9 0 0 0 4.108-3.322l8.025-11.992a1.66 1.66 0 0 0-.715-2.445l-6.576-2.873a1.66 1.66 0 0 0-1.865.375l-5.495 5.748-7.948 1.27z"/><path fill="#757575" d="M103.772 82.468a.233.233 0 0 1-.233-.246l.987-17.799a.23.23 0 0 1 .196-.218l7.871-1.258 5.441-5.692a1.9 1.9 0 0 1 2.126-.427l6.577 2.873c.515.225.901.663 1.059 1.203s.069 1.118-.244 1.585l-8.025 11.993a9.1 9.1 0 0 1-4.215 3.408l-11.453 4.56a.2.2 0 0 1-.087.017m1.209-17.832-.956 17.246 11.114-4.425a8.64 8.64 0 0 0 4-3.235l8.025-11.992a1.42 1.42 0 0 0-.114-1.737 1.4 1.4 0 0 0-.5-.365l-6.576-2.872a1.43 1.43 0 0 0-1.603.321l-5.495 5.748a.23.23 0 0 1-.132.07z"/><path fill="#e6e6e6" d="m75.819 70.024-4.437-11.5a8.9 8.9 0 0 1-.355-5.272l3.344-14.037a1.66 1.66 0 0 1 2.28-1.137l6.576 2.872a1.66 1.66 0 0 1 .992 1.622l-.482 7.938 4.469 6.695z"/><path fill="#757575" d="M75.819 70.258a.23.23 0 0 1-.218-.15l-4.437-11.5a9.1 9.1 0 0 1-.364-5.41l3.344-14.037a1.89 1.89 0 0 1 .997-1.256 1.89 1.89 0 0 1 1.603-.04l6.576 2.872a1.9 1.9 0 0 1 1.133 1.85l-.478 7.86 4.425 6.628a.234.234 0 0 1-.026.292l-12.387 12.82a.23.23 0 0 1-.168.07m.166-32.086a1.43 1.43 0 0 0-1.388 1.097l-3.344 14.037a8.64 8.64 0 0 0 .346 5.133l4.306 11.16 12.002-12.42-4.364-6.539a.23.23 0 0 1-.04-.144l.483-7.937a1.43 1.43 0 0 0-.853-1.394l-6.576-2.873a1.4 1.4 0 0 0-.571-.12"/><path fill="#fff" d="M86.985 108.495a73 73 0 0 0 3.382-3.512c8.615-9.513 18.14-27.498 20.956-46.857l-11.475-5.012-11.474-5.012C76.086 63.324 69.364 82.534 68.24 95.32c-.48 5.461-.386 9.632.455 13.176z"/><path fill="#757575" d="M86.985 108.728H68.696a.23.23 0 0 1-.227-.18c-.82-3.457-.963-7.544-.461-13.25.593-6.739 2.687-14.822 5.896-22.762 3.646-9.019 8.587-17.519 14.288-24.581a.23.23 0 0 1 .275-.067l22.95 10.024a.23.23 0 0 1 .137.247c-1.306 8.982-4.185 18.383-8.323 27.187-3.643 7.75-8.15 14.78-12.691 19.793a72 72 0 0 1-3.393 3.523.23.23 0 0 1-.162.066m-18.103-.467H86.89a72 72 0 0 0 3.303-3.435c4.51-4.98 8.99-11.97 12.615-19.679 4.092-8.705 6.946-17.996 8.258-26.88l-22.623-9.88c-5.626 6.998-10.502 15.406-14.107 24.324-3.193 7.898-5.275 15.934-5.864 22.627-.488 5.556-.363 9.554.409 12.923"/><path fill="#fff" d="M84.112 98.173a9.032 9.032 0 1 0 0-18.064 9.032 9.032 0 0 0 0 18.064"/><path fill="#757575" d="M84.11 98.411c-1.26 0-2.517-.26-3.707-.78-4.681-2.045-6.826-7.517-4.781-12.199s7.517-6.827 12.199-4.782a9.2 9.2 0 0 1 4.918 5.11 9.2 9.2 0 0 1-.136 7.09 9.2 9.2 0 0 1-5.109 4.917 9.3 9.3 0 0 1-3.384.644m.005-18.073a8.8 8.8 0 0 0-3.214.611 8.74 8.74 0 0 0-4.852 4.67 8.74 8.74 0 0 0-.129 6.733 8.74 8.74 0 0 0 4.67 4.852 8.74 8.74 0 0 0 6.733.129 8.74 8.74 0 0 0 4.852-4.67 8.74 8.74 0 0 0 .129-6.733 8.74 8.74 0 0 0-4.67-4.851 8.8 8.8 0 0 0-3.52-.74z"/><path fill="#fff" d="M84.112 94.884a5.743 5.743 0 1 0 0-11.487 5.743 5.743 0 0 0 0 11.487"/><path fill="#757575" d="M84.11 95.121a6 6 0 0 1-2.39-.503 5.94 5.94 0 0 1-3.173-3.296 5.94 5.94 0 0 1 .088-4.573 5.983 5.983 0 0 1 7.87-3.085 5.983 5.983 0 0 1 3.084 7.87 5.94 5.94 0 0 1-3.296 3.172 6 6 0 0 1-2.183.415m.01-11.49a5.52 5.52 0 0 0-5.057 3.304 5.48 5.48 0 0 0-.081 4.217 5.47 5.47 0 0 0 2.924 3.038 5.47 5.47 0 0 0 4.217.08 5.47 5.47 0 0 0 3.038-2.924 5.517 5.517 0 0 0-2.844-7.255 5.5 5.5 0 0 0-2.198-.46M95.105 38.73l18.52 8.088a1.825 1.825 0 0 1 .815 2.643l-4.942 7.868-19.3-8.43 2.415-8.972a1.825 1.825 0 0 1 2.492-1.198"/><path fill="#757575" d="M109.498 57.562a.2.2 0 0 1-.093-.02l-19.3-8.43a.23.23 0 0 1-.132-.274l2.414-8.972a2.057 2.057 0 0 1 2.812-1.352l18.519 8.09a2.056 2.056 0 0 1 .919 2.98l-4.941 7.868a.24.24 0 0 1-.198.11m-19.022-8.797 18.932 8.27 4.834-7.699a1.59 1.59 0 0 0-.71-2.304l-18.52-8.09a1.59 1.59 0 0 0-2.174 1.045z"/><path fill="#e6e6e6" d="M89.82 76.18a1.9 1.9 0 0 0 2.503-.98l10.322-23.639a1.9 1.9 0 0 0-.981-2.502h-.001a1.9 1.9 0 0 0-2.502.981L88.84 73.678a1.9 1.9 0 0 0 .981 2.502"/><path fill="#757575" d="M90.556 76.523a2.137 2.137 0 0 1-1.956-2.99l10.33-23.649a2.12 2.12 0 0 1 1.177-1.133 2.12 2.12 0 0 1 1.633.031c.523.229.925.647 1.133 1.178a2.12 2.12 0 0 1-.031 1.633L92.513 75.241a2.12 2.12 0 0 1-1.178 1.133 2.1 2.1 0 0 1-.78.148zm10.33-27.453a1.68 1.68 0 0 0-1.528 1l-10.33 23.65a1.67 1.67 0 0 0 .861 2.196 1.67 1.67 0 0 0 2.197-.861l10.329-23.648c.178-.408.187-.861.024-1.276a1.66 1.66 0 0 0-.885-.92 1.7 1.7 0 0 0-.667-.14z"/><path fill="#e6e6e6" d="M86.985 108.495q.507-.49 1.026-1.015-8.192-8.042-20.007-8.634c-.163 3.795.041 6.909.691 9.648h18.29z"/><path fill="#757575" d="M86.985 108.728h-18.29a.23.23 0 0 1-.227-.179c-.643-2.713-.865-5.799-.697-9.712a.233.233 0 0 1 .245-.223c3.948.198 7.645 1.03 10.99 2.473 3.345 1.444 6.43 3.539 9.168 6.227a.233.233 0 0 1 .003.33c-.347.352-.694.695-1.03 1.019a.23.23 0 0 1-.162.065m-18.104-.466h18.01q.388-.377.788-.779c-2.655-2.569-5.634-4.576-8.858-5.968-3.227-1.392-6.79-2.207-10.594-2.423-.143 3.672.065 6.598.654 9.169z"/><path fill="#b3b3b3" d="M124.209 108.728H.233a.233.233 0 1 1 0-.467H124.21a.233.233 0 0 1 0 .467"/></svg>