<svg xmlns="http://www.w3.org/2000/svg" width="130" height="123" fill="none" viewBox="0 0 130 123"><path fill="#b3b3b3" d="M95.016 8.212v-.016l-.003.008-.002-.008v.016q-.33 1.197-1.525 1.711 1.195.514 1.525 1.711v.017l.002-.009.003.009v-.017q.33-1.197 1.524-1.71-1.195-.515-1.524-1.712m16.417 23.911v-.016l-.002.008-.003-.008v.017q-.33 1.195-1.524 1.71 1.194.514 1.524 1.711v.017l.003-.008.002.008v-.017q.33-1.196 1.525-1.71-1.195-.516-1.525-1.712m-90.977 20.67v-.018l-.003.009-.002-.009v.017q-.33 1.197-1.524 1.71 1.194.516 1.524 1.712v.017l.002-.009.003.008v-.016q.33-1.197 1.524-1.711-1.194-.514-1.524-1.71m7.2 25.972v-.016l-.003.008-.002-.008v.016q-.33 1.197-1.525 1.711 1.195.514 1.525 1.711v.017l.002-.009.003.009v-.017q.33-1.196 1.524-1.71-1.195-.516-1.524-1.712m-14.457-8.678v-.034l-.005.017-.005-.017v.034q-.66 2.393-3.049 3.422 2.39 1.03 3.05 3.421v.034l.004-.017.005.017v-.034q.66-2.391 3.049-3.421-2.39-1.03-3.05-3.422M114.49 6.502v-.034l-.005.017-.005-.017v.034q-.659 2.392-3.049 3.421 2.39 1.03 3.049 3.422v.034l.005-.017.005.017v-.034q.659-2.393 3.049-3.422-2.39-1.03-3.049-3.421"/><path fill="#fff" d="M128.815 122.129c-16.969-15.295-39.438-24.605-64.081-24.605S17.62 106.834.652 122.13"/><path fill="#757575" d="M128.815 122.362a.23.23 0 0 1-.156-.06 96 96 0 0 0-13.673-10.272 95.5 95.5 0 0 0-15.42-7.722c-11.093-4.346-22.812-6.55-34.833-6.55s-23.74 2.204-34.833 6.55a95.5 95.5 0 0 0-15.42 7.722A96 96 0 0 0 .809 122.302a.2.2 0 0 1-.078.047.23.23 0 0 1-.178-.01.23.23 0 0 1-.12-.132.24.24 0 0 1 .01-.179.3.3 0 0 1 .054-.073 96.5 96.5 0 0 1 13.74-10.321 96 96 0 0 1 15.494-7.76c11.148-4.368 22.925-6.583 35.004-6.583s23.856 2.215 35.004 6.583a96 96 0 0 1 15.494 7.76 96.5 96.5 0 0 1 13.74 10.321.24.24 0 0 1 .064.252.24.24 0 0 1-.125.135.24.24 0 0 1-.096.02"/><path fill="#fff" d="M10.034 114.677v-3.906s5.196-5.667 11.43-9.161c10.702-6 16.194-5.277 16.194-5.277l7.614 3.172s-5.037 7.093-15.214 12.24c-7.425 3.755-13.702 5.189-13.702 5.189"/><path fill="#757575" d="M16.356 117.166a.233.233 0 0 1-.052-.461c.062-.014 6.337-1.472 13.648-5.169a48.1 48.1 0 0 0 11.358-8.001c1.964-1.874 3.168-3.373 3.596-3.931l-7.307-3.044c-.209-.02-1.57-.12-4.015.397-4.441.94-8.98 3.159-12.006 4.856-5.768 3.233-10.708 8.407-11.311 9.05v3.813a.234.234 0 1 1-.467 0v-3.905c0-.059.022-.115.061-.158.053-.057 5.294-5.735 11.488-9.208 3.065-1.719 7.667-3.966 12.176-4.913 2.718-.571 4.105-.4 4.162-.392q.03.004.06.016l7.614 3.172a.23.23 0 0 1 .14.255.24.24 0 0 1-.04.095c-.012.018-1.301 1.82-3.82 4.224a48.6 48.6 0 0 1-11.48 8.09c-7.364 3.724-13.692 5.194-13.755 5.208a.2.2 0 0 1-.052.006z"/><path fill="#757575" d="M13.194 111.086a.234.234 0 0 1-.085-.451c.015-.006 1.638-.647 9.392-4.228 7.718-3.564 10.678-6.787 10.707-6.819a.234.234 0 0 1 .347.312c-.03.034-.765.843-2.477 2.107-1.571 1.16-4.301 2.939-8.382 4.823-7.78 3.593-9.355 4.214-9.418 4.239a.2.2 0 0 1-.085.016z"/><path fill="#fff" d="M82.089 99.097s5.706-1.573 6.523-1.573c2.407 0 6.215.438 14.923 4.477 8.708 4.038 13.902 8.471 13.902 8.471l3.106 4.99s-8.318 1.067-19.72-3.35c-11.403-4.417-17.082-9.213-17.082-9.213"/><path fill="#757575" d="M118.087 115.81c-.854 0-1.911-.033-3.148-.133-3.213-.262-8.285-1.055-14.201-3.347-3.26-1.263-8.137-3.378-12.855-6.282-2.827-1.74-4.278-2.958-4.292-2.97a.24.24 0 0 1-.082-.159.23.23 0 0 1 .054-.17.234.234 0 0 1 .329-.028c.014.012 1.447 1.213 4.249 2.937 2.585 1.59 6.9 3.964 12.766 6.236 5.864 2.272 10.888 3.057 14.071 3.317 2.606.212 4.429.115 5.168.055l-2.887-4.64c-.418-.349-5.566-4.585-13.822-8.414-3.913-1.815-7.114-3.038-9.786-3.738-2.419-.635-3.964-.717-5.04-.717-.643 0-4.881 1.13-6.46 1.565a.233.233 0 1 1-.124-.45c.587-.162 5.76-1.581 6.584-1.581 2.632 0 6.475.534 15.022 4.498a75 75 0 0 1 10.249 5.768c2.371 1.602 3.693 2.726 3.706 2.737a.3.3 0 0 1 .047.055l3.105 4.99a.24.24 0 0 1 .013.224.23.23 0 0 1-.181.131c-.056.007-.933.116-2.486.116z"/><path fill="#757575" d="m113.919 110.667-.026-.001c-.064-.007-6.53-.738-13.659-3.903-2.056-.912-5.057-2.38-7.679-4.187-1.576-1.088-2.261-1.777-2.29-1.805a.233.233 0 1 1 .333-.328c.027.027 2.782 2.767 9.825 5.894 7.06 3.135 13.457 3.858 13.521 3.865a.233.233 0 0 1-.025.466zm-49.131-7.841c-1.325.899-2.76 1.029-4.305.241l-4.65-83.288 4.306-.24z"/><path fill="#757575" d="M62.482 103.82q-1.034 0-2.105-.545a.23.23 0 0 1-.127-.195L55.6 19.792a.235.235 0 0 1 .22-.246l4.306-.24a.233.233 0 0 1 .246.22l4.65 83.288a.23.23 0 0 1-.103.206q-1.183.801-2.437.801zm-1.773-.902c1.348.649 2.607.579 3.839-.212l-4.63-82.921-3.839.214z"/><path fill="#d9d9d9" d="M113.919 78.339c7.129 0 12.908-5.78 12.908-12.908s-5.779-12.907-12.908-12.907-12.907 5.779-12.907 12.907 5.779 12.908 12.907 12.908"/><path fill="#b3b3b3" d="M116.463 52.775c.077 1.938-.053 3.961-.7 5.325-1.619 3.418-4.137 4.498-9.894 7.331-2.358 1.161-3.323 3.324-3.641 5.475a12.96 12.96 0 0 0 4.029 4.912c.388-1.624 1.122-3.432 2.49-4.945 3.418-3.778 8.636-.18 14.67-3.238 1.6-.81 2.648-2.152 3.325-3.686-.639-5.586-4.842-10.087-10.279-11.174"/><path fill="#e6e6e6" d="M17.956 21.397c5.908 0 10.698-4.79 10.698-10.699S23.864 0 17.956 0 7.257 4.79 7.257 10.698s4.79 10.699 10.699 10.699"/><path fill="#b3b3b3" d="M1.758 20.2c-.95 0-1.506-.21-1.694-.638-.269-.611.305-1.487 1.753-2.679 1.289-1.06 3.248-2.343 5.665-3.709a.233.233 0 0 1 .23.406c-2.395 1.353-4.33 2.62-5.598 3.663C.37 18.677.43 19.237.492 19.373c.073.167.702.93 5.898-.44 3.633-.958 8.283-2.65 13.092-4.765s9.2-4.399 12.36-6.43c4.522-2.903 4.385-3.881 4.312-4.048-.06-.136-.426-.555-2.626-.25-1.602.221-3.812.78-6.393 1.613a.233.233 0 1 1-.144-.444c2.607-.842 4.845-1.406 6.473-1.632 1.83-.253 2.85-.082 3.117.525.215.49-.106 1.142-.981 1.994-.771.75-1.95 1.637-3.506 2.636-3.18 2.043-7.594 4.339-12.424 6.463-4.831 2.125-9.505 3.825-13.161 4.789-1.787.471-3.238.741-4.312.802a8 8 0 0 1-.438.013z"/><path fill="#e6e6e6" d="m77.837 70.053-42.98-3.748 7.162-8.212-5.633-9.328 42.981 3.748L85 61.841z"/><path fill="#757575" d="M77.837 70.286h-.02l-42.98-3.749a.23.23 0 0 1-.197-.145.23.23 0 0 1 .041-.24l7.05-8.085-5.544-9.182a.234.234 0 0 1 .22-.354l42.98 3.749a.23.23 0 0 1 .18.112l5.634 9.328a.23.23 0 0 1-.024.274l-7.163 8.212a.23.23 0 0 1-.176.08m-42.503-4.174L77.74 69.81l6.973-7.995-5.484-9.08-42.405-3.698 5.396 8.935a.23.23 0 0 1-.024.274z"/><path fill="#e6e6e6" d="m40.192 45.46 42.981-3.748-7.163-8.213 5.633-9.328-42.98 3.748-5.634 9.328z"/><path fill="#757575" d="M40.192 45.693a.24.24 0 0 1-.176-.08l-7.163-8.212a.23.23 0 0 1-.023-.274l5.633-9.328a.23.23 0 0 1 .18-.112l42.98-3.748a.234.234 0 0 1 .22.353l-5.545 9.182 7.051 8.085a.234.234 0 0 1-.155.386l-42.981 3.748zm-6.875-8.47 6.973 7.994 42.405-3.698-6.861-7.866a.23.23 0 0 1-.024-.274l5.396-8.935-42.405 3.698z"/></svg>