<svg xmlns="http://www.w3.org/2000/svg" width="129" height="117" fill="none" viewBox="0 0 129 117"><path fill="#fff" d="M104.424 46.078c6.365-5.241 7.044-14.931 1.517-21.643s-15.167-7.904-21.531-2.663c-6.365 5.241-7.044 14.93-1.517 21.643 5.527 6.712 15.167 7.904 21.531 2.663"/><path fill="#757575" d="M95.225 49.61q-.957 0-1.927-.12c-4.127-.51-7.893-2.605-10.604-5.898s-4.045-7.39-3.754-11.537c.29-4.152 2.174-7.858 5.302-10.434s7.126-3.713 11.257-3.202c4.127.51 7.893 2.604 10.604 5.897s4.044 7.39 3.754 11.538c-.291 4.152-2.174 7.857-5.303 10.433-2.638 2.173-5.895 3.322-9.33 3.322m-1.652-30.844c-3.326 0-6.48 1.112-9.034 3.215-3.028 2.494-4.851 6.083-5.133 10.106-.282 4.028 1.013 8.009 3.648 11.208 2.635 3.2 6.293 5.236 10.3 5.731q.942.117 1.87.116c3.326 0 6.48-1.112 9.034-3.215 3.028-2.494 4.851-6.083 5.133-10.106.282-4.028-1.014-8.009-3.648-11.209s-6.293-5.235-10.3-5.73a15 15 0 0 0-1.87-.116"/><path fill="#757575" d="M84.39 21.8c-6.299 5.188-7.027 14.733-1.683 21.436 5.212 2.31 11.221 1.41 17.114-2.2 4.195-2.57 7.738-6.683 9.443-9.804a16.4 16.4 0 0 0-3.341-6.768c-5.527-6.712-15.167-7.904-21.532-2.663"/><path fill="#757575" d="M88.779 44.741c-2.16 0-4.227-.432-6.166-1.291a.24.24 0 0 1-.088-.068c-2.624-3.291-3.894-7.357-3.575-11.45.32-4.101 2.199-7.763 5.293-10.31 3.128-2.577 7.126-3.714 11.257-3.203 4.126.51 7.892 2.604 10.603 5.897a16.7 16.7 0 0 1 3.388 6.865.23.23 0 0 1-.023.164c-.9 1.649-2.258 3.48-3.821 5.156-1.769 1.896-3.741 3.532-5.704 4.735-2.994 1.834-5.99 2.962-8.903 3.352q-1.147.154-2.262.154m-5.924-1.695c2.512 1.102 5.245 1.465 8.123 1.08 2.849-.383 5.783-1.489 8.722-3.288 1.927-1.181 3.866-2.791 5.606-4.656 1.513-1.622 2.828-3.388 3.71-4.983a16.2 16.2 0 0 0-3.273-6.587c-2.635-3.2-6.293-5.234-10.3-5.73-4.003-.495-7.875.606-10.903 3.1-2.995 2.466-4.815 6.012-5.124 9.987-.308 3.956.913 7.887 3.439 11.077"/><path fill="#fff" d="M100.795 44.033a3.83 3.83 0 0 0 1.394-3.111l.445-.366s-1.17-1.748-1.317-1.926a3.84 3.84 0 0 0-5.402-.523c-1.637 1.348-1.797 3.708-.524 5.403.35.466 1.317 1.926 1.317 1.926l.765-.63a3.83 3.83 0 0 0 3.322-.773"/><path fill="#757575" d="m96.709 45.669-.035-.002a.23.23 0 0 1-.16-.102c-.01-.014-.966-1.459-1.308-1.914a4.35 4.35 0 0 1-.876-2.992 3.96 3.96 0 0 1 1.437-2.731 4.05 4.05 0 0 1 2.98-.91 4.04 4.04 0 0 1 2.751 1.465c.149.18 1.21 1.764 1.331 1.944a.235.235 0 0 1-.046.31l-.357.293a4.04 4.04 0 0 1-1.483 3.184 4.04 4.04 0 0 1-3.409.845l-.677.557a.23.23 0 0 1-.148.053m1.64-8.203c-.834 0-1.634.286-2.285.822a3.5 3.5 0 0 0-1.269 2.412c-.082.94.196 1.888.784 2.67.273.363.898 1.296 1.181 1.722l.566-.466a.23.23 0 0 1 .202-.047 3.58 3.58 0 0 0 3.119-.725 3.58 3.58 0 0 0 1.31-2.923.23.23 0 0 1 .085-.189l.282-.231c-.465-.692-1.092-1.618-1.186-1.732a3.58 3.58 0 0 0-2.789-1.314"/><path fill="#fff" d="M99.671 46.834a3.839 3.839 0 1 0 0-7.678 3.839 3.839 0 0 0 0 7.678"/><path fill="#757575" d="M99.675 47.065a4.07 4.07 0 0 1-3.147-1.482 4.076 4.076 0 0 1 .555-5.73 4.04 4.04 0 0 1 2.981-.91 4.04 4.04 0 0 1 2.75 1.464 4.075 4.075 0 0 1-.555 5.731 4.05 4.05 0 0 1-2.584.927m-.01-7.675c-.833 0-1.634.286-2.286.822a3.61 3.61 0 0 0-.49 5.075 3.61 3.61 0 0 0 5.074.491 3.61 3.61 0 0 0 .491-5.074 3.58 3.58 0 0 0-2.79-1.314"/><path fill="#e6e6e6" d="M64.24 68.077s3.166 2.115 6.695 2.279c3.528.163 14.767-10.457 14.767-10.457l-5.087-8.56z"/><path fill="#757575" d="m71.014 70.59-.09-.001c-3.553-.165-6.683-2.23-6.814-2.318a.234.234 0 0 1-.037-.357l16.375-16.737a.234.234 0 0 1 .367.044l5.087 8.558a.234.234 0 0 1-.04.29c-.028.026-2.853 2.691-6.073 5.301-4.276 3.465-7.227 5.221-8.775 5.221m-6.404-2.558c.796.48 3.462 1.957 6.336 2.09.965.043 3.232-.806 8.549-5.115 2.806-2.275 5.31-4.59 5.91-5.15L80.57 51.72z"/><path fill="#b3b3b3" d="M110.417 8.097V8.08l-.002.008-.003-.008v.017q-.33 1.196-1.524 1.71 1.194.515 1.524 1.711v.017l.003-.008.002.008v-.017q.33-1.196 1.524-1.71-1.194-.516-1.524-1.711M14.576 35.493v-.017l-.003.009-.002-.009v.017q-.33 1.197-1.525 1.711 1.195.515 1.525 1.71v.018l.002-.009.003.009v-.017q.33-1.197 1.524-1.711-1.195-.514-1.524-1.71m52.913 72.521v-.017l-.003.009-.002-.009v.017q-.33 1.197-1.525 1.711 1.195.514 1.525 1.711v.017l.002-.009.003.009v-.017q.33-1.197 1.524-1.711-1.195-.514-1.524-1.711m45.464-43.12v-.018l-.002.009-.002-.009v.017q-.33 1.197-1.525 1.711 1.195.515 1.525 1.71v.018l.002-.009.002.009v-.017q.33-1.197 1.525-1.711-1.195-.515-1.525-1.71m-53.85-48.071v-.017l-.003.008-.002-.008v.017q-.33 1.196-1.525 1.71 1.195.516 1.525 1.711v.017l.002-.008.003.008v-.017q.33-1.196 1.524-1.71-1.195-.515-1.524-1.711M33.11 34.467v-.035l-.004.018-.005-.018v.035q-.66 2.392-3.05 3.421 2.39 1.03 3.05 3.422v.034l.005-.017.004.017v-.034q.66-2.393 3.05-3.422-2.39-1.03-3.05-3.421m54.63 72.398v-.034l-.004.017-.005-.017v.034q-.66 2.391-3.05 3.421 2.39 1.03 3.05 3.422v.034l.005-.017.004.017v-.034q.66-2.393 3.05-3.422-2.39-1.03-3.05-3.421"/><path fill="#d9d9d9" d="M114.948 112.969c7.587 0 13.737-6.151 13.737-13.738s-6.15-13.738-13.737-13.738-13.738 6.151-13.738 13.738 6.151 13.738 13.738 13.738"/><path fill="#b3b3b3" d="M117.655 85.76c.082 2.064-.057 4.217-.745 5.669-1.723 3.638-4.404 4.787-10.53 7.802-2.51 1.235-3.537 3.538-3.876 5.827a13.8 13.8 0 0 0 4.289 5.228c.413-1.729 1.194-3.653 2.65-5.263 3.638-4.021 9.191-.191 15.614-3.446 1.702-.863 2.818-2.29 3.538-3.924-.68-5.945-5.154-10.736-10.94-11.892"/><path fill="#e6e6e6" d="M28.524 22.773c6.289 0 11.387-5.098 11.387-11.386C39.911 5.098 34.813 0 28.524 0c-6.288 0-11.386 5.098-11.386 11.387 0 6.288 5.098 11.386 11.386 11.386"/><path fill="#b3b3b3" d="M11.313 21.485q-1.52 0-1.817-.67c-.283-.643.326-1.57 1.861-2.833 1.372-1.128 3.456-2.493 6.027-3.946a.233.233 0 0 1 .23.406c-2.549 1.44-4.61 2.788-5.96 3.9-1.864 1.533-1.796 2.136-1.73 2.285.061.14.361.46 1.8.377 1.111-.063 2.623-.346 4.494-.838 3.868-1.02 8.817-2.821 13.937-5.073 5.12-2.25 9.792-4.681 13.157-6.843 1.629-1.046 2.858-1.97 3.656-2.745 1.033-1.006 1-1.442.94-1.583-.065-.147-.46-.601-2.812-.275-1.705.236-4.059.83-6.806 1.718a.233.233 0 1 1-.143-.444c2.773-.896 5.154-1.496 6.886-1.736 1.94-.269 3.02-.09 3.302.55.42.954-1.185 2.606-4.77 4.908-3.385 2.175-8.08 4.617-13.221 6.878s-10.115 4.071-14.006 5.097q-3.291.867-5.024.867"/><path fill="#fff" d="M56.549 41.278s-19.312 9.184-25.026 13.903c-4.35 3.593-7.536 8.503-9.457 14.987-1.612 5.444-4.368 18.58-4.368 18.58l9.31 2.07s5.81-16.927 6.552-18.161c2.041-3.393 10.3-6.053 10.3-6.053s-5.117 8.316-5.462 10.615.959 21.665.959 21.665l10.12-.49s.175-14.358 1.899-18.036 6.896-5.977 11.034-8.046 8.046-7.356 10.46-9.425c2.413-2.069-9.08-21.954-16.322-21.609"/><path fill="#757575" d="M39.357 99.117a.233.233 0 0 1-.233-.217c-.053-.792-1.3-19.418-.956-21.715.3-1.997 3.999-8.235 5.156-10.15-1.933.688-7.91 2.993-9.563 5.743-.578.96-4.525 12.27-6.531 18.116a.234.234 0 0 1-.271.152l-9.31-2.069a.234.234 0 0 1-.179-.276c.028-.131 2.777-13.208 4.373-18.598.951-3.216 2.245-6.122 3.843-8.637A27.5 27.5 0 0 1 31.375 55c5.67-4.683 24.88-13.841 25.073-13.933a.2.2 0 0 1 .09-.023c1.332-.064 2.86.518 4.543 1.729 1.471 1.058 3.025 2.566 4.62 4.483 2.796 3.362 5.49 7.768 6.863 11.224.673 1.693 1.298 3.863.457 4.584-.758.65-1.658 1.613-2.7 2.729-2.205 2.36-4.949 5.298-7.807 6.727q-.52.26-1.058.525c-3.902 1.929-8.324 4.115-9.87 7.411-1.682 3.591-1.873 17.797-1.875 17.94a.233.233 0 0 1-.222.23l-10.121.49zm4.502-32.746a.23.23 0 0 1 .233.22.23.23 0 0 1-.034.135c-.05.083-5.095 8.302-5.429 10.528-.316 2.114.8 19.2.946 21.386l9.673-.468c.03-1.89.288-14.438 1.917-17.913 1.615-3.445 6.115-5.67 10.085-7.632q.537-.264 1.056-.524c2.783-1.391 5.495-4.295 7.674-6.628 1.051-1.125 1.96-2.098 2.738-2.765.478-.41.258-1.927-.588-4.057-1.356-3.414-4.02-7.77-6.789-11.098-3.312-3.982-6.412-6.127-8.736-6.045-1.022.488-19.437 9.311-24.934 13.85a27 27 0 0 0-5.591 6.356c-1.575 2.479-2.85 5.345-3.79 8.52-1.476 4.98-3.943 16.572-4.316 18.335l8.88 1.974c.685-1.99 5.794-16.825 6.506-18.008.87-1.447 2.895-2.924 6.016-4.39a42 42 0 0 1 4.412-1.764.2.2 0 0 1 .07-.011z"/><path fill="#fff" d="M54.035 41.125s4.26 2.22 8.166 6.337c8.54 9 9.608 17.602 9.608 17.602l7.068-5.165s1.291 6.456 1.36 9.31c.068 2.855-3.738 13.662-3.738 13.662l6.32 2.242s5.641-10.738 7.272-16.107 1.564-16.04.816-18.35-6.3-7.696-8.598-10.223c-4.965-5.458-10.636-5.952-11.248-5.952-.611 0-3.169-.526-9.033 1.923-4.602 1.921-7.994 4.721-7.994 4.721"/><path fill="#757575" d="M82.82 85.346a.2.2 0 0 1-.078-.013L76.42 83.09a.233.233 0 0 1-.142-.297c.038-.108 3.791-10.798 3.725-13.578-.057-2.417-1.014-7.516-1.285-8.911l-6.771 4.948a.235.235 0 0 1-.325-.048.23.23 0 0 1-.045-.111c-.002-.022-.281-2.172-1.593-5.386-1.21-2.965-3.573-7.469-7.952-12.085-3.832-4.037-8.063-6.268-8.105-6.29a.234.234 0 0 1-.04-.387c.033-.029 3.47-2.844 8.051-4.757 5.278-2.204 7.887-2.023 8.87-1.954q.165.012.253.013c.444 0 2.04.17 4.074.945 2.763 1.054 5.235 2.764 7.346 5.085a125 125 0 0 0 1.89 2.005c2.743 2.872 6.157 6.447 6.757 8.302.779 2.406.825 13.095-.814 18.49-1.619 5.329-7.232 16.04-7.289 16.148a.23.23 0 0 1-.206.125m-6.024-2.618 5.91 2.097c.743-1.426 5.671-10.979 7.162-15.888.713-2.344 1.183-6.084 1.29-10.26.091-3.538-.103-6.807-.473-7.95-.567-1.754-4.083-5.436-6.65-8.124-.748-.783-1.393-1.458-1.899-2.014-2.061-2.266-4.472-3.935-7.166-4.962-1.958-.746-3.517-.914-3.908-.914q-.11-.002-.287-.015c-3.48-.242-7.241 1.328-8.657 1.92-3.782 1.579-6.773 3.781-7.663 4.47 1.06.6 4.634 2.753 7.916 6.212 4.436 4.676 6.827 9.241 8.053 12.249 1.02 2.503 1.42 4.34 1.556 5.1l6.76-4.94a.232.232 0 0 1 .366.143c.053.265 1.296 6.509 1.364 9.351.063 2.672-3.12 11.931-3.674 13.524"/><path fill="#757575" d="M78.878 60.132a.233.233 0 0 1-.231-.267c.024-.166.601-4.1 2.165-6.209 1.557-2.098 3.637-3.343 3.725-3.395a.234.234 0 0 1 .238.401c-.02.012-2.09 1.252-3.589 3.273-.615.828-1.169 2.127-1.602 3.754a22 22 0 0 0-.475 2.243.234.234 0 0 1-.23.2zM43.86 66.837a.233.233 0 0 1-.224-.3.2.2 0 0 1 .043-.08l4.768-5.842a.234.234 0 1 1 .362.296l-4.768 5.84a.23.23 0 0 1-.181.086"/><path fill="#e6e6e6" d="M77.16 78.205s-1.513 3.419-1.872 3.578c-.359.16-3.391 1.676-3.87 2.314s-1.995 4.27-1.995 4.828.718.958 1.197.958 3.032-3.033 3.032-3.033.08 3.87-.04 4.549c-.119.678-1.545 2.647-1.578 3.007-.097 1.063 2.831 2.68 4.212 3.337 1.321.629 4.389.32 4.948 0 .558-.319 2.154-3.55 2.513-4.947s.24-5.267.2-5.906 1.692-4.388 1.795-4.947c-.16-.479-1.397-1.676-3.471-2.514-2.075-.837-5.07-1.224-5.07-1.224"/><path fill="#757575" d="M78.55 98.344c-.896 0-1.805-.106-2.404-.39-.359-.171-1.612-.786-2.693-1.536-1.163-.806-1.703-1.472-1.652-2.034.018-.194.206-.52.663-1.275.383-.63.86-1.417.918-1.75.08-.455.067-2.593.048-3.89-.25.287-.59.672-.943 1.056-1.466 1.591-1.727 1.591-1.867 1.591-.57 0-1.43-.475-1.43-1.19 0-.428.64-2.002.835-2.474.38-.916.924-2.119 1.206-2.495.528-.704 3.601-2.222 3.95-2.381.232-.196 1.077-1.908 1.766-3.465a.234.234 0 0 1 .243-.137c.124.016 3.05.4 5.128 1.24 1.192.48 2.023 1.04 2.51 1.424.58.458.99.918 1.095 1.231a.23.23 0 0 1 .008.117c-.043.232-.288.835-.683 1.8-.423 1.03-1.13 2.756-1.11 3.09.033.519.168 4.523-.206 5.977-.349 1.357-1.946 4.705-2.624 5.092-.358.205-1.546.4-2.76.4zm-4.897-11.727a.233.233 0 0 1 .233.229c.003.159.078 3.9-.044 4.594-.074.42-.534 1.178-.978 1.911-.257.423-.576.95-.598 1.079-.032.355.497.942 1.453 1.605 1.052.73 2.277 1.33 2.627 1.497 1.273.606 4.279.267 4.731.008.168-.096.627-.754 1.24-1.972.543-1.081 1-2.192 1.164-2.831.359-1.397.224-5.323.192-5.833-.025-.409.458-1.624 1.143-3.296.28-.68.567-1.382.641-1.647-.201-.403-1.316-1.51-3.314-2.316-1.743-.704-4.18-1.09-4.841-1.185-.13.29-.421.93-.734 1.575-.883 1.826-1.072 1.91-1.186 1.96-.512.228-3.366 1.692-3.778 2.242-.455.607-1.948 4.199-1.948 4.687 0 .396.57.718.952.724.317-.096 1.729-1.6 2.865-2.949a.23.23 0 0 1 .179-.083"/><path fill="#e6e6e6" d="M38.365 93.395s.182 8.031.052 8.484c-.129.452-4.711 4.516-6.867 7.767-1.071 1.616-1.518 3.746-.883 4.948.539 1.022 5.82 1.604 8.278 1.345 2.458-.258 6.72-3.552 7.947-4.376 1.716-1.152 4.308-3.338 4.696-4.179s.566-2.127.239-3.716c-.255-1.235-1.724-2.584-1.724-3.053s-.077-7.488-.077-7.488-2.531-.321-6.163-.212c-3.157.095-5.498.479-5.498.479"/><path fill="#757575" d="M37.57 116.235c-1.077 0-2.339-.09-3.517-.257-1.44-.204-3.233-.592-3.593-1.275-.653-1.238-.276-3.418.896-5.186 1.403-2.116 3.799-4.547 5.384-6.155.704-.714 1.37-1.39 1.455-1.554.083-.414.006-5.367-.063-8.408a.23.23 0 0 1 .195-.236c.023-.003 2.392-.386 5.53-.48 3.608-.11 6.173.21 6.198.213a.233.233 0 0 1 .204.23c.004.286.077 7.024.077 7.489.003.124.31.541.535.847.457.621 1.026 1.394 1.185 2.159.41 1.99.016 3.273-.255 3.861-.43.929-3.16 3.188-4.779 4.275-.183.123-.444.309-.746.523-1.803 1.281-5.16 3.666-7.305 3.891-.404.043-.88.063-1.4.063m1.032-22.64c.039 1.715.166 7.905.04 8.347-.06.208-.45.611-1.57 1.747-1.572 1.596-3.949 4.006-5.328 6.086-1.066 1.607-1.44 3.632-.871 4.71.15.284 1.09.725 3.246 1.031 1.684.239 3.614.316 4.802.191 2.024-.213 5.441-2.641 7.084-3.807.305-.217.568-.404.757-.53 1.744-1.171 4.266-3.329 4.614-4.084.421-.912.502-2.213.222-3.571-.137-.666-.673-1.393-1.103-1.977-.411-.558-.626-.862-.626-1.123 0-.417-.062-6.115-.075-7.279-.667-.07-2.93-.278-5.924-.187a48 48 0 0 0-5.268.445"/><path fill="#e6e6e6" d="m17.699 84.238 11.216 2.645s-1.186 5.19-1.186 5.924.006 3.497-.04 4.899c-.045 1.402-1.266 4.388-1.583 4.75-.317.361-7.645-.407-9.228-.498-1.583-.09-16.42-1.854-16.6-1.945-.182-.09.18-3.302.995-4.071.814-.77 5.82-2.127 7.87-2.547 2.579-.529 5.89-1.028 6.114-1.254s1.905-7.213 2.442-7.903"/><path fill="#757575" d="M25.266 102.785c-.399 0-.965-.019-1.775-.069a188 188 0 0 1-4.49-.352 96 96 0 0 0-2.136-.173c-.84-.048-5.288-.555-8.84-.974-2-.236-3.893-.465-5.33-.644-2.421-.302-2.468-.325-2.522-.352-.133-.066-.154-.211-.162-.265-.08-.541.27-3.4 1.1-4.184.908-.857 6.147-2.23 7.985-2.607.933-.191 1.98-.382 2.903-.55 1.317-.24 2.803-.51 3.085-.64.111-.253.459-1.518.767-2.641.77-2.807 1.34-4.826 1.663-5.24a.23.23 0 0 1 .237-.084l11.217 2.645c.124.03.202.154.174.279-.328 1.436-1.18 5.292-1.18 5.872v.23c0 .927.002 3.39-.04 4.677-.046 1.433-1.276 4.479-1.64 4.896-.074.084-.154.176-1.016.176M.464 99.811c1.444.219 14.702 1.815 16.428 1.914.41.023 1.178.09 2.15.174 1.316.114 2.956.256 4.321.342 1.973.124 2.466.072 2.588.035.313-.426 1.463-3.261 1.505-4.578.041-1.28.04-3.737.04-4.662v-.23c0-.67.909-4.729 1.14-5.75L17.81 84.503c-.332.666-1.033 3.22-1.509 4.955-.64 2.332-.763 2.73-.879 2.847-.172.174-.827.312-3.34.77-.92.168-1.964.358-2.892.548-2.299.471-7.044 1.815-7.757 2.488-.659.622-1 3.113-.969 3.7m72.891-3.515a.233.233 0 0 1-.192-.365c.613-.898 2.245-3.363 2.434-3.978.233-.755.442-2.593.443-2.612a.233.233 0 1 1 .464.053c-.009.077-.216 1.9-.46 2.696-.25.809-2.404 3.97-2.496 4.104a.23.23 0 0 1-.192.102m2.25 1.36a.23.23 0 0 1-.227-.18.23.23 0 0 1 .029-.176c.674-1.085 2.464-4.034 2.654-4.654a127 127 0 0 0 .76-2.677.233.233 0 0 1 .45.123c-.005.019-.524 1.912-.764 2.69-.247.804-2.604 4.602-2.705 4.763a.23.23 0 0 1-.198.11zm2.96.48q-.06 0-.117-.032a.233.233 0 0 1-.085-.319c.66-1.14 1.957-3.453 2.141-4.053.235-.761.512-2.309.515-2.324a.233.233 0 1 1 .46.082c-.013.064-.286 1.591-.529 2.38-.246.8-2.105 4.013-2.184 4.15a.23.23 0 0 1-.202.116"/></svg>