<svg xmlns="http://www.w3.org/2000/svg" width="129" height="129" fill="none" viewBox="0 0 129 129"><path fill="#d9d9d9" d="M44.796 121.083a.234.234 0 0 1-.233-.226l-2.371-73.061a.23.23 0 0 1 .17-.232l30.881-8.788a.234.234 0 0 1 .267.108l46.337 80.921a.233.233 0 0 1-.2.349l-74.848.928zm-2.132-73.12 2.358 72.65 74.223-.92-46.05-80.418z"/><path fill="#757575" d="M45.943 70.498a3.77 3.77 0 0 0-1.756-2.15l1.428-10.376-2.692-.37-1.426 10.359a3.785 3.785 0 1 0 4.445 2.537z"/><path fill="#757575" d="M42.34 75.67a4.025 4.025 0 0 1-3.83-2.796 4.023 4.023 0 0 1 2.778-5.101l1.404-10.203a.233.233 0 0 1 .263-.2l2.693.371a.235.235 0 0 1 .199.263L44.44 68.227a4 4 0 0 1 1.726 2.2 4.023 4.023 0 0 1-3.825 5.242m.782-17.806-1.394 10.129a.23.23 0 0 1-.18.196q-.16.036-.292.078a3.555 3.555 0 0 0-2.301 4.465 3.56 3.56 0 0 0 4.464 2.301 3.555 3.555 0 0 0 2.301-4.464 3.54 3.54 0 0 0-1.647-2.017.23.23 0 0 1-.118-.235l1.397-10.146zm46.56-1.343a3.785 3.785 0 0 0-5.06-2.342l-7.17-7.613-1.978 1.863 7.182 7.626a3.785 3.785 0 1 0 7.026.466"/><path fill="#757575" d="M86.08 61.69a4.025 4.025 0 0 1-3.83-2.795 4 4 0 0 1 .13-2.794l-7.075-7.512a.234.234 0 0 1 .01-.33l1.978-1.863a.235.235 0 0 1 .33.01l7.061 7.497q.088-.032.17-.059a4.023 4.023 0 0 1 5.051 2.605 4.023 4.023 0 0 1-3.825 5.241M75.805 48.44l7.02 7.455c.067.07.083.173.042.26a3.54 3.54 0 0 0-.173 2.599 3.555 3.555 0 0 0 4.464 2.302 3.556 3.556 0 0 0 2.302-4.465 3.555 3.555 0 0 0-4.749-2.196.23.23 0 0 1-.26-.055l-7.008-7.443z"/><path fill="#757575" d="M62.231 58.567C76.857 53.9 87.026 44.83 84.945 38.31s-15.624-8.023-30.25-3.355S29.901 48.69 31.982 55.212s15.624 8.023 30.25 3.355"/><path fill="#757575" d="M46.162 61.488a34 34 0 0 1-3.767-.199c-2.809-.31-5.15-.972-6.96-1.966-1.9-1.044-3.132-2.412-3.66-4.064s-.318-3.48.625-5.433c.898-1.86 2.422-3.756 4.53-5.638 4.312-3.85 10.599-7.22 17.702-9.49s14.18-3.17 19.925-2.535c2.808.31 5.15.972 6.96 1.966 1.9 1.044 3.13 2.411 3.66 4.064.527 1.652.317 3.48-.625 5.432-.898 1.86-2.422 3.757-4.53 5.64-4.313 3.849-10.6 7.218-17.702 9.489-5.617 1.795-11.219 2.733-16.158 2.734M70.787 32.43c-4.89 0-10.44.93-16.013 2.712-7.042 2.25-13.269 5.587-17.533 9.393-2.063 1.841-3.55 3.69-4.421 5.493-.889 1.841-1.09 3.553-.6 5.088s1.648 2.812 3.44 3.797c1.755.964 4.039 1.608 6.786 1.911a34 34 0 0 0 3.72.196c4.888 0 10.439-.93 16.011-2.712 7.042-2.25 13.27-5.587 17.534-9.393 2.062-1.841 3.55-3.69 4.42-5.493.89-1.841 1.091-3.553.6-5.088-.49-1.535-1.647-2.812-3.438-3.797-1.757-.964-4.04-1.607-6.788-1.911a34 34 0 0 0-3.718-.196"/><path fill="#b3b3b3" d="M107.295 22.485 4.647 55.29l-1.991.636.717 2.247c1.46 4.567 26.513.64 55.958-8.77s52.132-20.74 50.673-25.308l-.718-2.246z"/><path fill="#757575" d="M9.862 60.311q-.67 0-1.28-.026c-3.213-.135-5.04-.822-5.43-2.041l-.718-2.247a.233.233 0 0 1 .152-.293l106.63-34.077a.233.233 0 0 1 .293.151l.717 2.247c.39 1.219-.7 2.838-3.24 4.812-2.382 1.852-5.957 3.973-10.625 6.305-9.58 4.784-22.706 9.928-36.958 14.483s-27.928 7.976-38.508 9.635c-4.46.699-8.162 1.051-11.032 1.051M2.95 56.078l.646 2.023c.32 1 2.05 1.593 5.006 1.718 2.985.125 7.096-.218 12.22-1.02 10.557-1.656 24.208-5.071 38.438-9.619 14.23-4.547 27.332-9.682 36.893-14.456 4.64-2.318 8.188-4.422 10.547-6.255 2.336-1.816 3.401-3.303 3.082-4.303l-.647-2.024-1.768.566z"/><path fill="#e6e6e6" d="M58.6 47.19c29.45-9.399 52.141-20.72 50.683-25.287s-26.512-.651-55.961 8.747S1.182 51.37 2.639 55.937s26.512.65 55.961-8.748"/><path fill="#757575" d="M9.144 58.065q-.67 0-1.28-.026c-3.213-.136-5.04-.822-5.43-2.042s.7-2.838 3.24-4.813c2.383-1.852 5.958-3.973 10.625-6.304 9.581-4.785 22.707-9.929 36.959-14.483s27.927-7.976 38.508-9.635c5.154-.808 9.297-1.153 12.312-1.026 3.214.136 5.041.822 5.43 2.042.39 1.22-.7 2.838-3.24 4.813-2.383 1.852-5.957 3.973-10.625 6.304-9.581 4.785-22.706 9.929-36.958 14.483s-27.928 7.977-38.509 9.635c-4.46.7-8.162 1.052-11.032 1.052m93.651-37.888c-2.844 0-6.52.351-10.957 1.046-10.557 1.655-24.208 5.07-38.438 9.618s-27.332 9.682-36.893 14.456c-4.64 2.318-8.188 4.422-10.547 6.256-2.336 1.815-3.401 3.303-3.082 4.302s2.05 1.593 5.006 1.717c2.984.126 7.096-.217 12.22-1.02 10.557-1.655 24.208-5.07 38.438-9.618s27.332-9.682 36.892-14.457c4.64-2.317 8.189-4.421 10.547-6.255 2.336-1.816 3.402-3.303 3.083-4.302-.32-1-2.051-1.593-5.006-1.718a30 30 0 0 0-1.263-.025"/><path fill="#757575" d="M18.458 52.5q-.475 0-.911-.017c-2.679-.099-4.138-.64-4.462-1.654-.325-1.015.55-2.302 2.675-3.936 1.952-1.501 4.877-3.223 8.694-5.118 7.833-3.888 18.558-8.078 30.198-11.798s22.808-6.526 31.444-7.902c4.208-.67 7.59-.964 10.05-.873 2.679.1 4.138.64 4.463 1.655.324 1.015-.551 2.302-2.675 3.935-1.953 1.502-4.878 3.223-8.695 5.118-7.832 3.888-18.557 8.078-30.198 11.799-11.64 3.72-22.807 6.526-31.443 7.901-3.711.591-6.78.89-9.14.89m76.775-30.847c-2.334 0-5.377.297-9.064.884-8.613 1.371-19.755 4.172-31.374 7.885s-22.32 7.894-30.133 11.772c-3.79 1.88-6.689 3.587-8.617 5.07-1.322 1.016-2.831 2.435-2.516 3.423.316.988 2.369 1.269 4.035 1.33 2.43.09 5.782-.202 9.96-.867 8.614-1.371 19.756-4.172 31.375-7.885s22.32-7.894 30.132-11.772c3.79-1.881 6.69-3.587 8.618-5.07 1.322-1.016 2.831-2.435 2.515-3.423s-2.368-1.27-4.034-1.33q-.429-.017-.897-.017"/><path fill="#fff" d="M85.306 29.11Q58.182 45.807 26.402 47.936a1.788 1.788 0 0 1-1.903-1.872l.432-8.78A31.05 31.05 0 0 1 80.326 19.58l5.443 6.902a1.787 1.787 0 0 1-.464 2.629"/><path fill="#757575" d="M26.285 48.173a2.02 2.02 0 0 1-2.017-2.122l.431-8.78a31.25 31.25 0 0 1 6.443-17.528 31.24 31.24 0 0 1 15.28-10.735 31.24 31.24 0 0 1 18.674-.117A31.26 31.26 0 0 1 80.51 19.435l5.443 6.902a2.03 2.03 0 0 1 .085 2.388 2 2 0 0 1-.61.583c-9.015 5.55-18.55 9.95-28.339 13.078-9.79 3.128-20.108 5.073-30.67 5.78q-.068.006-.135.006M55.942 7.989h-.086a30.8 30.8 0 0 0-9.292 1.464 30.77 30.77 0 0 0-15.052 10.575 30.8 30.8 0 0 0-6.347 17.267l-.431 8.78a1.557 1.557 0 0 0 1.654 1.628c10.524-.706 20.806-2.644 30.56-5.76C66.7 38.826 76.2 34.44 85.182 28.913a1.552 1.552 0 0 0 .404-2.286l-5.444-6.902A30.8 30.8 0 0 0 64.96 9.339a30.8 30.8 0 0 0-9.018-1.35"/><path fill="#757575" d="M81.849 21.51Q55.513 37.456 24.81 39.74l-.31 6.324a1.788 1.788 0 0 0 1.902 1.872q31.779-2.13 58.902-18.824c.91-.56 1.126-1.79.464-2.63z"/><path fill="#757575" d="M26.285 48.173a2.02 2.02 0 0 1-2.017-2.122l.31-6.324a.233.233 0 0 1 .216-.22c10.168-.758 20.112-2.671 29.556-5.69 9.445-3.018 18.656-7.226 27.378-12.506a.234.234 0 0 1 .305.055l3.92 4.971a2.025 2.025 0 0 1 .085 2.389 2 2 0 0 1-.61.583c-9.015 5.55-18.55 9.949-28.339 13.077-9.79 3.129-20.108 5.074-30.67 5.782zm-1.25-8.216-.302 6.118a1.56 1.56 0 0 0 1.654 1.628c10.525-.705 20.807-2.643 30.56-5.76s19.253-7.501 28.236-13.03a1.553 1.553 0 0 0 .403-2.286l-3.793-4.81c-8.7 5.25-17.885 9.437-27.3 12.446-9.416 3.009-19.326 4.925-29.46 5.695z"/><path fill="#b3b3b3" d="M93.065 7.772v-.016l-.002.008-.003-.008v.016q-.33 1.197-1.524 1.711 1.194.515 1.524 1.71v.018l.002-.009.003.009v-.017q.33-1.197 1.525-1.71-1.195-.515-1.525-1.712m26.582 17.433v-.017l-.002.008-.003-.008v.017q-.33 1.196-1.524 1.71 1.195.516 1.524 1.711v.017l.003-.008.002.008v-.017q.33-1.196 1.525-1.71-1.195-.515-1.525-1.711M19.625 71.51v-.017l-.003.008-.002-.008v.017q-.33 1.195-1.525 1.71 1.195.515 1.525 1.711v.017l.002-.008.003.008v-.017q.33-1.196 1.524-1.71-1.195-.516-1.524-1.711M28.31 1.745v-.017l-.002.008-.002-.008v.017q-.33 1.196-1.525 1.71 1.195.516 1.525 1.711v.017l.002-.008.002.008v-.017q.33-1.195 1.525-1.71-1.195-.515-1.525-1.711M9.085 35.132v-.017l-.002.009-.002-.009v.017q-.33 1.197-1.525 1.71 1.195.516 1.525 1.712v.017l.002-.009.002.009v-.017q.33-1.197 1.525-1.711-1.195-.514-1.525-1.71M14.3 11.085v-.034l-.004.017-.005-.017v.034q-.66 2.393-3.05 3.422 2.39 1.03 3.05 3.421v.034l.005-.017.004.017v-.034q.66-2.392 3.05-3.421-2.39-1.03-3.05-3.422M113.13.035V0l-.004.017Q113.122.01 113.12 0v.034q-.66 2.393-3.049 3.422 2.39 1.03 3.049 3.421v.034l.005-.017.004.017v-.034q.66-2.392 3.049-3.421-2.39-1.03-3.049-3.422m-5.598 48.483v-.034l-.005.017-.004-.017v.034q-.66 2.392-3.049 3.422 2.39 1.03 3.049 3.421v.034l.004-.017.005.017v-.034q.66-2.392 3.049-3.421-2.39-1.03-3.049-3.422"/><path fill="#d9d9d9" d="M82.349 128.133c20.868 0 37.785-3.261 37.785-7.284s-16.917-7.283-37.785-7.283c-20.869 0-37.786 3.261-37.786 7.283s16.917 7.284 37.786 7.284"/><path fill="#b3b3b3" d="m9.237 113.244-1.68-5.26 6.538-21.079 7.28-2.327 5.385 16.848 3.126-.999 1.802 5.642-3.125.999 1.584 4.955-6.519 2.084-1.584-4.956zm8.368-19.563-3.31 11.729 6.404-2.047zm86.867-16.419.561-5.494 14.418-16.71 7.604.777-1.797 17.596 3.264.333-.601 5.892-3.265-.333-.528 5.176-6.808-.695.529-5.176zm15.488-14.589-7.72 9.429 6.688.683zm-53.242 9.769q4.089-2.46 9.453.052 5.364 2.51 6.094 7.228.73 4.716-2.188 10.95-2.954 6.305-7.043 8.765-4.091 2.459-9.454-.052t-6.094-7.228 2.223-11.022q2.918-6.234 7.009-8.693m9.111 9.37q.127-2.349-2.372-3.52-2.501-1.17-4.223.431-1.723 1.602-3.436 5.262-1.155 2.464-1.62 4.213t-.044 3.16q.42 1.414 2.161 2.228 1.739.814 3.094.234 1.354-.582 2.4-2.058 1.044-1.476 2.199-3.942 1.713-3.66 1.841-6.009"/></svg>