<svg xmlns="http://www.w3.org/2000/svg" width="129" height="122" fill="none" viewBox="0 0 129 122"><path fill="#e6e6e6" d="M70.877 63.748s11.582-1.576 16.192-.585c3.134.675 11.922 45.842 10.18 46.426-4.051 3.324-10.034 7.032-16.398 8.231z"/><path fill="#757575" d="M80.85 118.053a.23.23 0 0 1-.23-.191L70.648 63.79a.234.234 0 0 1 .199-.274c.474-.064 11.674-1.57 16.272-.582.265.057.695.31 1.382 1.85.446 1.002.954 2.436 1.508 4.262 1.002 3.3 2.153 7.862 3.328 13.193 2.238 10.154 4.106 21.047 4.345 25.339.091 1.629-.048 2.084-.31 2.212a46 46 0 0 1-7.344 4.916c-3.118 1.663-6.19 2.788-9.133 3.342a.2.2 0 0 1-.044.004zm-9.699-54.106 9.886 53.599c2.826-.56 5.775-1.653 8.77-3.25a45.4 45.4 0 0 0 7.294-4.887.2.2 0 0 1 .04-.027c.073-.119.306-.889-.334-5.705-.428-3.221-1.159-7.574-2.058-12.258-2.433-12.684-4.71-21.133-6.03-24.812-1.03-2.866-1.56-3.186-1.699-3.216-4.151-.893-14.18.339-15.869.556"/><path fill="#fff" d="M58.248 66.937c-8.224 1.163-19.389 6.005-20.33 9.198-1.58 5.371-1.373 28.523-1.373 28.523s6.443 2.142 27.153-.505 26.955-6.81 26.955-6.81-6.09-27.136-6.713-28.07-10.277-4.516-25.692-2.336"/><path fill="#757575" d="M45.748 105.709a70 70 0 0 1-3.404-.078c-4.183-.203-5.805-.729-5.872-.751a.23.23 0 0 1-.16-.219c0-.058-.05-5.866.095-12.255.194-8.593.627-14.09 1.29-16.336.653-2.22 5.505-4.592 7.56-5.508 4.163-1.855 9.007-3.297 12.959-3.856 8.27-1.17 14.606-.645 18.464.001 4.054.679 7.026 1.793 7.455 2.437.102.153.413.619 3.623 14.462a2262 2262 0 0 1 3.123 13.686.23.23 0 0 1-.098.245c-.065.043-1.636 1.074-5.768 2.44-6.878 2.273-15.372 3.651-21.287 4.407-4.978.636-11.797 1.326-17.98 1.326zm-8.97-1.227c.499.133 2.213.522 5.637.685 6.918.331 15.376-.495 21.254-1.246 5.88-.751 14.323-2.121 21.16-4.375 3.428-1.13 5.1-2.043 5.56-2.315-2.437-10.858-6.191-27.112-6.642-27.83-.23-.343-2.61-1.475-7.144-2.234-3.826-.64-10.11-1.16-18.322.001-3.911.553-8.709 1.981-12.833 3.82-4.159 1.853-6.89 3.803-7.304 5.213-1.482 5.032-1.38 26.136-1.366 28.281"/><path fill="#fff" d="m44.567 120.148-2.535-20.352 44.556-5.61 4.065 26.752"/><path fill="#757575" d="M90.653 121.172a.234.234 0 0 1-.23-.198L86.39 94.447l-44.1 5.552 2.507 20.12a.233.233 0 0 1-.375.213.23.23 0 0 1-.088-.155L41.8 99.826a.234.234 0 0 1 .202-.26l44.556-5.61a.233.233 0 0 1 .26.196l4.066 26.752a.233.233 0 0 1-.231.268"/><path fill="#b3b3b3" d="M100.921 19.206v-.017l-.002.009-.002-.009v.017q-.33 1.197-1.525 1.71 1.195.516 1.525 1.712v.017l.002-.009.002.009v-.017q.33-1.197 1.525-1.711-1.195-.514-1.525-1.71m-77.797 46.09v-.017l-.002.008-.003-.008v.017q-.33 1.196-1.524 1.71 1.196.515 1.524 1.711v.017l.003-.008.002.008v-.017q.33-1.196 1.525-1.71-1.195-.516-1.525-1.712m84.768 20.739v-.017l-.002.008-.002-.008v.017q-.33 1.196-1.525 1.71 1.195.515 1.525 1.711v.017l.002-.008.002.008v-.017q.33-1.196 1.525-1.71-1.195-.515-1.525-1.711M70.499 10.732v-.017l-.002.008-.002-.008v.017q-.33 1.196-1.525 1.71 1.195.514 1.525 1.711v.017l.002-.008.002.008v-.017q.33-1.197 1.525-1.71-1.195-.516-1.525-1.711M7.59 78.494v-.034l-.004.017-.005-.017v.034q-.66 2.391-3.05 3.421 2.39 1.03 3.05 3.422v.034l.005-.017.004.017v-.034q.66-2.393 3.05-3.422-2.39-1.03-3.05-3.421M99.05.034V0l-.005.017L99.04 0v.034q-.66 2.393-3.05 3.422 2.39 1.03 3.05 3.421v.034l.005-.017.004.017v-.034q.66-2.392 3.05-3.421-2.39-1.03-3.05-3.422M15.035 47.826v-.034l-.004.017-.005-.017v.034q-.66 2.393-3.05 3.422 2.39 1.03 3.05 3.422v.034l.005-.018.004.018v-.035q.66-2.392 3.05-3.421-2.39-1.03-3.05-3.422"/><path fill="#d9d9d9" d="M112.041 70.195c9.02 0 16.332-7.312 16.332-16.331 0-9.02-7.312-16.332-16.332-16.332S95.71 44.844 95.71 53.864s7.312 16.331 16.331 16.331"/><path fill="#b3b3b3" d="M115.26 37.85c.097 2.453-.068 5.012-.886 6.738-2.048 4.325-5.235 5.69-12.519 9.276-2.983 1.468-4.204 4.205-4.606 6.926a16.4 16.4 0 0 0 5.097 6.216c.492-2.055 1.42-4.343 3.152-6.257 4.324-4.78 10.925-.227 18.561-4.097 2.024-1.026 3.351-2.723 4.207-4.664-.809-7.067-6.126-12.763-13.006-14.138"/><path fill="#e6e6e6" d="M22.657 27.707c7.476 0 13.537-6.061 13.537-13.537S30.134.633 22.657.633c-7.476 0-13.536 6.06-13.536 13.537 0 7.476 6.06 13.536 13.536 13.536"/><path fill="#b3b3b3" d="M2.16 26.131c-1.173 0-1.856-.253-2.083-.77-.328-.744.392-1.83 2.2-3.317 1.628-1.34 4.103-2.96 7.159-4.687a.233.233 0 0 1 .23.406c-3.033 1.714-5.485 3.319-7.093 4.64C.394 24.197.4 24.938.503 25.174c.097.218.508.57 2.185.475 1.323-.076 3.123-.412 5.35-1 4.601-1.212 10.487-3.354 16.575-6.031 6.088-2.678 11.645-5.568 15.648-8.14 1.938-1.245 3.402-2.344 4.352-3.268 1.204-1.172 1.223-1.713 1.126-1.932-.102-.233-.637-.734-3.388-.353-2.03.282-4.83.988-8.099 2.044a.233.233 0 1 1-.143-.444c4.15-1.34 11.234-3.309 12.058-1.435.26.594-.14 1.396-1.228 2.454-.972.946-2.461 2.066-4.425 3.327-4.023 2.584-9.603 5.487-15.713 8.174S12.782 23.88 8.159 25.1c-2.257.595-4.089.936-5.443 1.013a10 10 0 0 1-.556.017z"/><path fill="#fff" d="m86.588 94.187-23.662 2.685-.27 11.163s19.424.286 26.275-.181c6.852-.467 10.114-3.079 10.114-9.619s-4.198-26.116-8.392-28.65c-3.089-1.868-8.713-3.832-19.792-3.34"/><path fill="#757575" d="M74.975 108.354c-6.377 0-12.216-.084-12.323-.086a.233.233 0 0 1-.23-.239l.27-11.162a.233.233 0 0 1 .208-.227l23.662-2.685a.233.233 0 1 1 .053.463l-23.46 2.663-.26 10.723c2.234.031 19.665.25 26.021-.183 3.525-.24 5.903-1.026 7.484-2.472 1.623-1.484 2.412-3.745 2.412-6.914 0-3.331-1.1-9.963-2.615-15.768-1.824-6.987-3.889-11.61-5.664-12.683-1.846-1.116-4.143-1.966-6.827-2.526-3.54-.739-7.859-1.001-12.835-.78a.233.233 0 1 1-.021-.466c5.015-.223 9.373.043 12.95.79 2.737.57 5.082 1.439 6.974 2.582 1.025.62 2.093 2.213 3.174 4.734.922 2.15 1.855 4.997 2.7 8.23 1.523 5.84 2.63 12.52 2.63 15.887 0 3.366-.839 5.682-2.563 7.259-1.663 1.521-4.131 2.345-7.767 2.593-3.068.209-8.704.267-13.973.267"/><path fill="#757575" d="M81.826 94.74c-.105 0-.2-.07-.227-.176l-4.03-16.047a.233.233 0 0 1 .453-.114l4.03 16.047a.233.233 0 0 1-.226.29"/><path fill="#fff" d="M58.284 117.82H34.079a1.785 1.785 0 0 1-1.69-1.21l-9.171-26.924a1.785 1.785 0 0 1 1.69-2.36h24.205c.764 0 1.443.486 1.69 1.209l9.17 26.924a1.785 1.785 0 0 1-1.69 2.361"/><path fill="#757575" d="M58.283 118.053H34.078a2.02 2.02 0 0 1-1.91-1.367l-9.17-26.925a2 2 0 0 1 .268-1.825 2 2 0 0 1 1.642-.844h24.205c.864 0 1.632.55 1.91 1.368l9.171 26.924c.213.624.115 1.29-.269 1.826a2 2 0 0 1-1.641.844zM24.908 87.559c-.507 0-.967.236-1.262.649-.295.412-.37.923-.207 1.403l9.17 26.924a1.55 1.55 0 0 0 1.469 1.052h24.205c.507 0 .966-.236 1.262-.649.295-.412.37-.923.207-1.403L50.58 88.611a1.55 1.55 0 0 0-1.469-1.052z"/><path fill="#e6e6e6" d="M40.072 89.704h-7.053a1.958 1.958 0 1 1 0-3.917h7.053a1.958 1.958 0 1 1 0 3.917"/><path fill="#757575" d="M40.072 89.937h-7.053a2.19 2.19 0 0 1-2.075-1.485 2.17 2.17 0 0 1 .293-1.983 2.17 2.17 0 0 1 1.782-.915h7.053a2.192 2.192 0 0 1 1.782 3.467 2.17 2.17 0 0 1-1.782.916m-7.053-3.917c-.563 0-1.075.263-1.403.721a1.7 1.7 0 0 0-.23 1.56 1.725 1.725 0 0 0 1.633 1.17h7.053c.563 0 1.075-.264 1.403-.722a1.7 1.7 0 0 0 .23-1.56 1.725 1.725 0 0 0-1.633-1.169z"/><path fill="#e6e6e6" d="M52.93 94.78s-1.622.008-2.276.1c-.654.094-4.296 2.663-4.436 3.363s.14 3.736 1.774 7.892c1.635 4.157 3.877 5.278 4.95 5.184 1.075-.093 6.867-2.03 6.867-2.03s2.099.45 5.135.443c1.028-.003 2.848-.561 3.129-.981.28-.42.851-3.227.42-7.145-.475-4.314-1.375-6.598-1.375-6.598-.794-.186-4.553.396-5.247.3-.463-.064-4.306-2.252-5.046-2.314-.739-.062-4.534-.089-4.534-.089l.64 1.876z"/><path fill="#757575" d="M52.823 111.557c-.413 0-1.25-.141-2.3-1.062-1.065-.933-2.015-2.412-2.748-4.275-.905-2.301-1.35-4.144-1.564-5.284-.227-1.204-.314-2.28-.222-2.74.097-.481 1.204-1.38 2.117-2.05.714-.525 2.047-1.43 2.515-1.497.488-.07 1.472-.092 1.984-.1l-.535-1.57a.23.23 0 0 1 .114-.283.23.23 0 0 1 .107-.026h.002c.155 0 3.813.027 4.553.09.437.036 1.605.616 3.207 1.432.75.382 1.683.856 1.85.883.279.039 1.22-.055 2.132-.145 1.306-.13 2.656-.264 3.138-.15a.23.23 0 0 1 .163.14c.038.095.917 2.363 1.39 6.659.439 3.987-.15 6.838-.459 7.3-.22.332-.977.607-1.408.741-.69.214-1.405.343-1.914.344h-.073c-2.697 0-4.674-.361-5.047-.435-.65.216-5.82 1.931-6.862 2.022a2 2 0 0 1-.14.006m-.205-18.417.533 1.565a.234.234 0 0 1-.113.283.23.23 0 0 1-.107.026c-.015 0-1.613.008-2.243.098-.23.032-1.176.581-2.306 1.41-1.36.999-1.902 1.604-1.935 1.767-.116.58.086 3.497 1.763 7.761.706 1.794 1.612 3.21 2.622 4.095 1.081.949 1.874.96 2.09.942 1.035-.09 6.756-2 6.813-2.02a.24.24 0 0 1 .123-.007c.02.005 2.08.438 5.014.438h.072c1.084-.003 2.738-.582 2.935-.877.086-.129.307-.826.44-2.155.102-1.035.176-2.714-.057-4.835-.355-3.22-.988-5.526-1.313-6.415-.517-.055-1.811.074-2.868.178-1.024.102-1.908.19-2.241.144-.225-.031-.84-.34-1.999-.93-1.12-.57-2.654-1.351-3.034-1.383-.595-.05-3.252-.077-4.189-.085"/><path fill="#e6e6e6" d="M22.617 96.023c-.784.623.787 5.443 1.564 8.012.778 2.568 2.802 7.226 3.362 7.966s3.784.33 4.496.017 2.75-1.608 3.057-2.567c.746-2.33-3.552-13.375-4.626-13.836-.565-.242-2.188.032-3.946.333-1.587.271-3.554-.206-3.907.074"/><path fill="#757575" d="M29.262 112.653c-.846 0-1.617-.13-1.905-.511-.597-.789-2.626-5.488-3.399-8.039l-.223-.731c-.412-1.344-.923-3.016-1.248-4.441-.42-1.841-.424-2.766-.015-3.091.227-.18.657-.16 1.53-.1.745.053 1.673.117 2.482-.022 2.143-.366 3.487-.57 4.077-.317.118.05.475.204 1.4 2.142.555 1.164 1.168 2.659 1.724 4.21.51 1.424 2.138 6.193 1.633 7.768-.338 1.056-2.443 2.384-3.186 2.71-.4.177-1.707.422-2.87.422m-6.5-16.446c-.085.068-.313.459.18 2.62.321 1.409.83 3.072 1.24 4.408l.223.733c.794 2.624 2.81 7.212 3.324 7.892.146.193.746.375 1.993.312.97-.05 1.91-.229 2.223-.368.766-.336 2.665-1.601 2.929-2.424.306-.955-.318-3.817-1.628-7.469-1.324-3.691-2.536-5.939-2.868-6.081-.507-.218-2.264.083-3.815.349-.865.147-1.823.081-2.593.028-.459-.032-1.088-.076-1.209 0"/><path fill="#fff" d="M65.377 73.058c11.187-4.023 17.163-15.884 13.348-26.493S62.748 30.62 51.56 34.643 34.398 50.526 38.213 61.135 54.19 77.08 65.377 73.058"/><path fill="#757575" d="M57.765 74.645q-.413 0-.827-.015a21.8 21.8 0 0 1-8.004-1.824 20.6 20.6 0 0 1-6.608-4.6 19.6 19.6 0 0 1-4.329-6.989 19.6 19.6 0 0 1-1.106-8.145 20.6 20.6 0 0 1 2.174-7.754 21.8 21.8 0 0 1 5.014-6.498 22.6 22.6 0 0 1 7.42-4.387 22.6 22.6 0 0 1 8.515-1.336 21.8 21.8 0 0 1 8.004 1.825 20.6 20.6 0 0 1 6.609 4.6 19.6 19.6 0 0 1 4.328 6.988 19.6 19.6 0 0 1 1.106 8.146 20.6 20.6 0 0 1-2.173 7.753 21.8 21.8 0 0 1-5.015 6.499 22.6 22.6 0 0 1-7.42 4.386 22.7 22.7 0 0 1-7.688 1.35zm1.423-41.096c-2.553 0-5.083.444-7.532 1.323a22.2 22.2 0 0 0-7.267 4.296 21.3 21.3 0 0 0-4.908 6.36 20.1 20.1 0 0 0-2.125 7.578 19.2 19.2 0 0 0 1.08 7.954 19.15 19.15 0 0 0 4.226 6.823 20.1 20.1 0 0 0 6.46 4.496 21.3 21.3 0 0 0 7.833 1.785 22.2 22.2 0 0 0 8.34-1.309 22.2 22.2 0 0 0 7.268-4.296 21.3 21.3 0 0 0 4.908-6.36 20.1 20.1 0 0 0 2.125-7.578 19.2 19.2 0 0 0-1.08-7.953 19.2 19.2 0 0 0-4.226-6.824 20.1 20.1 0 0 0-6.46-4.495 21.3 21.3 0 0 0-8.642-1.8"/><path fill="#757575" d="M38.217 61.139c3.77 10.501 15.72 15.842 26.813 12.055 5.379-5.642 6.991-13.792 5.064-23.042-1.372-6.585-5.033-13.044-8.263-16.677a22.4 22.4 0 0 0-10.254 1.177C40.39 38.67 34.408 50.528 38.218 61.14"/><path fill="#757575" d="M57.765 74.644q-.542-.001-1.085-.026a21.8 21.8 0 0 1-7.898-1.881 20.5 20.5 0 0 1-6.514-4.592c-1.901-2-3.338-4.33-4.27-6.928a19.6 19.6 0 0 1-1.107-8.146 20.6 20.6 0 0 1 2.174-7.753 21.8 21.8 0 0 1 5.014-6.499 22.6 22.6 0 0 1 7.42-4.387c3.327-1.194 6.91-1.605 10.36-1.189a.24.24 0 0 1 .147.077c1.702 1.915 3.428 4.5 4.861 7.28 1.62 3.143 2.816 6.43 3.456 9.504.977 4.687 1.046 9.052.207 12.97-.858 4.012-2.652 7.471-5.33 10.28a.23.23 0 0 1-.094.06 22.7 22.7 0 0 1-7.34 1.23zm1.452-41.092c-2.554 0-5.127.446-7.56 1.32a22.2 22.2 0 0 0-7.268 4.296 21.3 21.3 0 0 0-4.908 6.36 20.1 20.1 0 0 0-2.125 7.578 19.2 19.2 0 0 0 1.08 7.953c1.8 5.014 5.542 9.01 10.537 11.252 2.43 1.09 5.03 1.71 7.729 1.84 2.772.134 5.53-.256 8.198-1.16 2.597-2.74 4.337-6.108 5.173-10.015.825-3.855.755-8.154-.208-12.778-.632-3.033-1.813-6.279-3.414-9.385-1.398-2.714-3.078-5.238-4.736-7.117a22 22 0 0 0-2.499-.145z"/><path fill="#fff" d="M74.4 50.281a5.24 5.24 0 0 0-3.36-3.23l-.267-.742s-2.79.7-3.085.806a5.25 5.25 0 0 0-3.166 6.713c.98 2.728 3.944 4.023 6.713 3.166.761-.236 3.085-.806 3.085-.806l-.458-1.276a5.24 5.24 0 0 0 .538-4.63"/><path fill="#757575" d="M69.513 57.49c-.83 0-1.65-.175-2.403-.523a5.33 5.33 0 0 1-2.808-3.06 5.49 5.49 0 0 1 3.307-7.011c.298-.107 2.82-.742 3.107-.814a.233.233 0 0 1 .277.148l.227.634a5.44 5.44 0 0 1 3.4 3.338 5.44 5.44 0 0 1-.5 4.739l.42 1.168a.232.232 0 0 1-.164.305c-.023.005-2.326.572-3.072.803a6 6 0 0 1-1.79.273m1.112-10.903c-.88.222-2.643.67-2.859.748a5.02 5.02 0 0 0-3.025 6.415 4.87 4.87 0 0 0 2.564 2.794c1.19.549 2.561.63 3.86.227.62-.191 2.223-.593 2.848-.748l-.37-1.032a.23.23 0 0 1 .023-.205 4.98 4.98 0 0 0 .515-4.426 4.98 4.98 0 0 0-3.212-3.087.23.23 0 0 1-.15-.144z"/><path fill="#fff" d="M72.547 56.496a5.248 5.248 0 1 0 0-10.496 5.248 5.248 0 0 0 0 10.496"/><path fill="#757575" d="M72.552 56.73a5.49 5.49 0 0 1-5.165-3.63 5.45 5.45 0 0 1 .202-4.19 5.45 5.45 0 0 1 3.105-2.821 5.45 5.45 0 0 1 4.19.201 5.45 5.45 0 0 1 2.821 3.105 5.45 5.45 0 0 1-.201 4.191 5.45 5.45 0 0 1-3.105 2.821 5.5 5.5 0 0 1-1.847.323m-.002-10.5c-.571 0-1.144.1-1.698.299a4.98 4.98 0 0 0-2.842 2.58 4.98 4.98 0 0 0-.183 3.834 5.02 5.02 0 0 0 4.724 3.32c.562 0 1.132-.095 1.69-.295a4.98 4.98 0 0 0 2.841-2.58 4.98 4.98 0 0 0 .184-3.834 4.98 4.98 0 0 0-2.58-2.842 5 5 0 0 0-2.136-.481m12.376 62.025a.23.23 0 0 1-.136-.044.23.23 0 0 1-.085-.115c-.014-.043-.355-1.084-.086-2.765.246-1.532 1.072-3.916 3.612-6.574 2.535-2.654 5.253-3.818 7.088-4.328 1.993-.554 3.373-.478 3.43-.475a.233.233 0 0 1-.028.466c-.013-.001-1.374-.073-3.298.464-1.772.495-4.4 1.625-6.855 4.195-1.349 1.411-3.048 3.649-3.483 6.293-.26 1.577.06 2.566.063 2.576a.23.23 0 0 1-.147.294.2.2 0 0 1-.075.013M56.027 95.103h-.007l-3.097-.09a.233.233 0 1 1 .013-.465l3.097.088a.233.233 0 0 1-.007.467z"/></svg>