<svg width="37" height="37" viewBox="0 0 37 37" fill="none" xmlns="http://www.w3.org/2000/svg">
<path d="M18.5916 0.0119476C8.21757 -0.342969 -0.343409 8.21809 0.0115088 18.5921C0.341559 28.2245 8.25374 35.9333 17.9676 35.9333C18.2728 35.9333 18.578 35.9265 18.8809 35.9107H35.7203C35.7746 35.9107 35.8198 35.8654 35.8198 35.8112V35.6869H35.8446V19.7654C35.8446 19.7654 35.8446 19.7586 35.8446 19.7563C35.9034 19.1685 35.9328 18.5717 35.9328 17.9659C35.9328 8.25426 28.2263 0.339821 18.5916 0.0119476Z" fill="#004179"/>
<path d="M26.4425 22.9141C29.1817 22.9141 31.4023 20.6935 31.4023 17.9543C31.4023 15.2151 29.1817 12.9945 26.4425 12.9945C23.7033 12.9945 21.4827 15.2151 21.4827 17.9543C21.4827 20.6935 23.7033 22.9141 26.4425 22.9141Z" fill="white"/>
<path d="M17.7572 27.2298C12.1396 27.2298 7.64547 22.1727 8.59945 16.3878C9.20982 12.6962 12.0853 9.70318 15.7453 8.921C18.7745 8.27222 21.6161 9.1335 23.6936 10.8832C23.9152 11.0709 24.2407 11.0663 24.4464 10.8606L26.1148 9.19224C26.3363 8.97074 26.3318 8.60227 26.0967 8.39654C23.4224 6.06584 19.7647 4.8338 15.8493 5.41027C10.1683 6.24669 5.68551 10.9081 5.10453 16.6207C4.3314 24.2209 10.3108 30.6658 17.7595 30.6658C20.8724 30.6658 23.7298 29.5356 25.9452 27.6616C26.1871 27.4559 26.1939 27.0851 25.9701 26.8613L24.2995 25.1907C24.096 24.9872 23.7773 24.9827 23.5557 25.1635C21.9665 26.4544 19.9546 27.2321 17.7595 27.2321L17.7572 27.2298Z" fill="white"/>
</svg>
