<svg width="216" height="37" viewBox="0 0 216 37" fill="none" xmlns="http://www.w3.org/2000/svg">
<g clip-path="url(#clip0_37_1975)">
<path d="M128.72 21.5417C128.72 14.9249 132.319 11.604 137.412 11.604C141.122 11.604 143.697 13.3198 144.526 16.4756H142.865C142.089 14.371 140.317 13.0983 137.412 13.0983C133.205 13.0983 130.409 15.8947 130.409 21.5417C130.409 27.1887 133.232 30.0122 137.439 30.0122C141.287 30.0122 143.667 27.7155 143.667 22.9523H138.436V21.5123H145.302V22.6743C145.302 28.4592 142.394 31.5043 137.439 31.5043C132.484 31.5043 128.72 28.154 128.72 21.5394V21.5417Z" fill="#808285"/>
<path d="M148.292 11.8525H155.131C159.476 11.8525 161.775 14.0114 161.775 17.6669C161.775 20.6554 160.17 22.6764 157.179 23.2596L161.913 31.2328H160.17L155.547 23.4541H149.983V31.2328H148.295V11.8548L148.292 11.8525ZM160.057 17.6669C160.057 14.8433 158.341 13.3762 155.074 13.3762H149.981V21.9304H155.074C158.341 21.9304 160.057 20.4361 160.057 17.6669Z" fill="#808285"/>
<path d="M164.074 21.5417C164.074 14.9814 167.867 11.604 172.739 11.604C177.61 11.604 181.377 14.9814 181.377 21.5417C181.377 28.102 177.583 31.5065 172.739 31.5065C167.894 31.5065 164.074 28.1292 164.074 21.5417ZM179.659 21.5417C179.659 15.8675 176.67 13.0983 172.739 13.0983C168.808 13.0983 165.79 15.8653 165.79 21.5417C165.79 27.2181 168.78 30.0123 172.739 30.0123C176.697 30.0123 179.659 27.243 179.659 21.5417Z" fill="#808285"/>
<path d="M184.227 23.922V11.8525H185.943V23.8384C185.943 27.7967 187.991 29.985 191.506 29.985C195.022 29.985 197.099 27.799 197.099 23.8384V11.8525H198.815V23.922C198.815 28.71 196.019 31.5064 191.506 31.5064C186.994 31.5064 184.225 28.71 184.225 23.922H184.227Z" fill="#808285"/>
<path d="M202.084 11.8525H208.922C213.269 11.8525 215.566 14.0114 215.566 17.6669C215.566 21.3223 213.269 23.4518 208.922 23.4518H203.773V31.2306H202.084V11.8525ZM213.848 17.6669C213.848 14.8433 212.132 13.3762 208.866 13.3762H203.773V21.9304H208.866C212.132 21.9304 213.848 20.4361 213.848 17.6669Z" fill="#808285"/>
<path d="M18.8223 0.852938C8.44828 0.49802 -0.112697 9.059 0.24222 19.433C0.572271 29.0655 8.48445 36.7742 18.1983 36.7742C18.5035 36.7742 18.8087 36.7674 19.1116 36.7516H35.951C36.0053 36.7516 36.0505 36.7064 36.0505 36.6522V36.5278H36.0753V20.6063C36.0753 20.6063 36.0753 20.5995 36.0753 20.5972C36.1341 20.0094 36.1635 19.4126 36.1635 18.8068C36.1635 9.09517 28.457 1.18073 18.8223 0.852938Z" fill="#004179"/>
<path d="M26.6732 23.7551C29.4124 23.7551 31.633 21.5345 31.633 18.7953C31.633 16.056 29.4124 13.8354 26.6732 13.8354C23.934 13.8354 21.7134 16.056 21.7134 18.7953C21.7134 21.5345 23.934 23.7551 26.6732 23.7551Z" fill="white"/>
<path d="M17.9879 28.0707C12.3703 28.0707 7.87618 23.0137 8.83016 17.2288C9.44053 13.5372 12.316 10.5441 15.976 9.76192C19.0052 9.11313 21.8468 9.97442 23.9243 11.7241C24.1459 11.9118 24.4714 11.9073 24.6771 11.7015L26.3455 10.0332C26.567 9.81166 26.5625 9.44318 26.3274 9.23746C23.6531 6.90676 19.9954 5.67472 16.08 6.25118C10.399 7.08761 5.91622 11.749 5.33524 17.4616C4.56211 25.0618 10.5415 31.5068 17.9902 31.5068C21.1031 31.5068 23.9605 30.3765 26.1759 28.5025C26.4178 28.2968 26.4246 27.926 26.2008 27.7022L24.5302 26.0316C24.3267 25.8282 24.008 25.8236 23.7864 26.0045C22.1972 27.2953 20.1853 28.073 17.9902 28.073L17.9879 28.0707Z" fill="white"/>
<path d="M98.0976 31.224C95.3035 31.224 92.5998 30.01 90.6805 27.8941C88.6663 25.6719 87.6807 22.6517 87.9791 19.6111C88.4402 14.9249 92.0527 11.023 96.5694 10.3336C99.5376 9.88143 102.524 10.7834 104.771 12.8089C104.952 12.974 105.058 13.2 105.065 13.4487C105.074 13.6974 104.979 13.9438 104.807 14.1224L103.537 15.4403C103.209 15.7817 102.669 15.7997 102.307 15.4855C100.743 14.1201 98.6854 13.5934 96.6666 14.041C94.0624 14.6197 92.021 16.8306 91.5893 19.5478C91.2615 21.6095 91.8334 23.6848 93.1604 25.2378C94.4173 26.7118 96.2168 27.5572 98.0976 27.5572C99.6054 27.5572 101.027 27.0305 102.207 26.0358C102.574 25.7284 103.096 25.751 103.424 26.0923L104.696 27.4103C104.87 27.5911 104.963 27.8376 104.954 28.0907C104.943 28.3371 104.832 28.5723 104.651 28.7328C102.82 30.3401 100.492 31.224 98.0999 31.224H98.0976Z" fill="#004179"/>
<path d="M114.272 10.2183C108.664 10.2183 104.102 14.9226 104.102 20.703C104.102 26.4834 108.664 31.224 114.272 31.224C119.881 31.224 124.407 26.5038 124.407 20.703C124.407 14.9023 119.861 10.2183 114.272 10.2183ZM114.272 27.5595C110.633 27.5595 107.674 24.4828 107.674 20.703C107.674 16.9233 110.635 13.885 114.272 13.885C117.91 13.885 120.837 16.9436 120.837 20.703C120.837 24.4624 117.892 27.5595 114.272 27.5595Z" fill="#004179"/>
<path d="M52.4601 10.2592C49.4693 10.0015 46.535 11.0979 44.4145 13.2726C42.1923 15.549 41.1253 18.7117 41.4847 21.9466C42.0092 26.6577 45.6895 30.5234 50.2379 31.1383C50.6787 31.1971 51.1172 31.2265 51.5558 31.2265C53.9656 31.2265 56.3122 30.3403 58.15 28.733V30.1368C58.15 30.6387 58.5524 31.0456 59.0453 31.0456H60.8266C61.3194 31.0456 61.7218 30.6364 61.7218 30.1368V20.9293C61.7218 15.5807 57.4809 10.6978 52.4601 10.2615V10.2592ZM58.132 21.2096C57.9082 24.4785 55.3898 27.1935 52.2747 27.5258C50.3464 27.7315 48.4362 27.0511 47.0323 25.6585C45.5426 24.1801 44.8101 22.1116 45.0204 19.9866C45.3414 16.7517 47.9569 14.1362 51.1014 13.9056C51.2665 13.8943 51.4292 13.8875 51.592 13.8875C53.2942 13.8875 54.8902 14.5499 56.1268 15.7796C57.5419 17.188 58.2721 19.166 58.132 21.2096Z" fill="#808285"/>
<path d="M66.6591 31.224H64.8777C64.3849 31.224 63.9825 30.8149 63.9825 30.3153V20.8862C63.9825 15.2753 68.2348 10.6592 73.6603 10.3788C73.9044 10.3653 74.1305 10.4512 74.3068 10.6207C74.4877 10.7925 74.5939 11.0367 74.5939 11.2899V13.1391C74.5939 13.616 74.2209 14.0162 73.7462 14.0478C70.2739 14.2807 67.5521 17.2873 67.5521 20.8885V30.3175C67.5521 30.8194 67.1497 31.2263 66.6569 31.2263L66.6591 31.224Z" fill="#808285"/>
<path d="M85.4516 31.2239C85.4222 31.2239 85.3928 31.2239 85.3657 31.2193C80.1482 30.6836 76.2147 26.1827 76.2147 20.7504V8.50008C76.2147 7.99822 76.6171 7.59131 77.1099 7.59131H78.8913C79.3841 7.59131 79.7865 7.99822 79.7865 8.50008V16.2065H85.4471C85.9399 16.2065 86.3423 16.6157 86.3423 17.1153V18.9622C86.3423 19.4641 85.9399 19.871 85.4471 19.871H79.7865V20.7504C79.7865 24.1978 82.2642 27.1208 85.5511 27.5503C86.001 27.6091 86.34 27.9957 86.34 28.4523V30.3151C86.34 30.5773 86.2293 30.826 86.0371 31C85.8744 31.147 85.6641 31.2261 85.4516 31.2261V31.2239Z" fill="#808285"/>
</g>
<defs>
<clipPath id="clip0_37_1975">
<rect width="215.336" height="35.9326" fill="white" transform="translate(0.230713 0.841309)"/>
</clipPath>
</defs>
</svg>
