<svg viewBox="0 0 24 24" fill="currentColor" xmlns="http://www.w3.org/2000/svg">
<path d="M21.0996 12C21.0996 6.97421 17.0257 2.90039 12 2.90039C6.97421 2.90039 2.90039 6.97421 2.90039 12C2.90039 17.0257 6.97421 21.0996 12 21.0996C17.0257 21.0996 21.0996 17.0257 21.0996 12ZM11.3418 17V12C11.3418 11.9643 11.3409 11.9312 11.3408 11.9004H11.2422L11.1504 11.8955C10.6965 11.8495 10.3418 11.4661 10.3418 11C10.3418 10.5029 10.7451 10.0996 11.2422 10.0996L11.5762 10.1025C11.6909 10.1056 11.806 10.1118 11.9111 10.126C12.1176 10.1538 12.3862 10.2217 12.6299 10.418L12.7324 10.5098L12.8242 10.6123C13.0205 10.8559 13.0884 11.1245 13.1162 11.3311C13.1445 11.5411 13.1426 11.7897 13.1426 12V17C13.1426 17.4971 12.7392 17.9004 12.2422 17.9004C11.7451 17.9004 11.3418 17.4971 11.3418 17ZM12.001 7.09961L12.0928 7.10449C12.5467 7.15046 12.9014 7.53392 12.9014 8C12.9014 8.46608 12.5467 8.84954 12.0928 8.89551L12.001 8.90039H11.9922C11.4951 8.90039 11.0918 8.49706 11.0918 8C11.0918 7.50294 11.4951 7.09961 11.9922 7.09961H12.001ZM22.9004 12C22.9004 18.0199 18.0199 22.9004 12 22.9004C5.98009 22.9004 1.09961 18.0199 1.09961 12C1.09961 5.98009 5.98009 1.09961 12 1.09961C18.0199 1.09961 22.9004 5.98009 22.9004 12Z" fill="currentColor"/>
</svg>
