<svg xmlns="http://www.w3.org/2000/svg" width="48" height="48" fill="none" viewBox="0 0 48 48"><g clip-path="url(#a)"><rect width="48" height="48" fill="#3538cd" rx="4"/><path fill="url(#b)" d="M0 0h48v48H0z"/><g filter="url(#c)"><path fill="url(#d)" d="M24 9C15.716 9 9 15.716 9 24s6.716 15 15 15c7.433 0 13.603-5.406 14.793-12.5h-.108C37.575 30.813 33.66 34 29 34c-5.523 0-10-4.477-10-10s4.477-10 10-10c4.66 0 8.575 3.187 9.685 7.5h.108C37.603 14.406 31.433 9 24 9" opacity=".5"/><path fill="url(#e)" d="M9 24c0-8.284 6.716-15 15-15 7.433 0 13.603 5.406 14.793 12.5H28.685C27.575 17.187 23.66 14 19 14c-5.523 0-10 4.477-10 10"/><path fill="url(#f)" d="M9 24c0 8.285 6.716 15 15 15 7.433 0 13.603-5.406 14.793-12.5H28.685C27.575 30.813 23.66 34 19 34c-5.523 0-10-4.477-10-10"/></g></g><rect width="46" height="46" x="1" y="1" stroke="url(#g)" stroke-width="2" rx="3"/><defs><linearGradient id="b" x1="24" x2="26" y1="0" y2="48" gradientUnits="userSpaceOnUse"><stop stop-color="#fff" stop-opacity="0"/><stop offset="1" stop-color="#fff" stop-opacity=".12"/></linearGradient><linearGradient id="d" x1="23.896" x2="23.896" y1="9" y2="39" gradientUnits="userSpaceOnUse"><stop stop-color="#fff" stop-opacity=".8"/><stop offset="1" stop-color="#fff" stop-opacity=".5"/></linearGradient><linearGradient id="e" x1="23.896" x2="23.896" y1="9" y2="24" gradientUnits="userSpaceOnUse"><stop stop-color="#fff" stop-opacity=".8"/><stop offset="1" stop-color="#fff" stop-opacity=".5"/></linearGradient><linearGradient id="f" x1="23.896" x2="23.896" y1="39" y2="24" gradientUnits="userSpaceOnUse"><stop stop-color="#fff" stop-opacity=".8"/><stop offset="1" stop-color="#fff" stop-opacity=".5"/></linearGradient><linearGradient id="g" x1="24" x2="24" y1="0" y2="48" gradientUnits="userSpaceOnUse"><stop stop-color="#fff" stop-opacity=".12"/><stop offset="1" stop-color="#fff" stop-opacity="0"/></linearGradient><clipPath id="a"><rect width="48" height="48" fill="#fff" rx="4"/></clipPath><filter id="c" width="36" height="42" x="6" y="5.25" color-interpolation-filters="sRGB" filterUnits="userSpaceOnUse"><feFlood flood-opacity="0" result="BackgroundImageFix"/><feColorMatrix in="SourceAlpha" result="hardAlpha" values="0 0 0 0 0 0 0 0 0 0 0 0 0 0 0 0 0 0 127 0"/><feMorphology in="SourceAlpha" radius="1.5" result="effect1_dropShadow_21_27805"/><feOffset dy="2.25"/><feGaussianBlur stdDeviation="2.25"/><feComposite in2="hardAlpha" operator="out"/><feColorMatrix values="0 0 0 0 0.141176 0 0 0 0 0.141176 0 0 0 0 0.141176 0 0 0 0.1 0"/><feBlend in2="BackgroundImageFix" result="effect1_dropShadow_21_27805"/><feBlend in="SourceGraphic" in2="effect1_dropShadow_21_27805" result="shape"/></filter></defs></svg>