<svg xmlns="http://www.w3.org/2000/svg" width="54" height="54" fill="none" viewBox="0 0 54 54"><g filter="url(#a)"><g clip-path="url(#b)"><rect width="48" height="48" x="3" fill="#dd7c0e" rx="4"/><path fill="url(#c)" d="M0 0h48v48H0z" transform="translate(3)"/><g filter="url(#d)"><path fill="url(#e)" fill-rule="evenodd" d="M22.286 9a6.38 6.38 0 0 0-4.512 1.869L12 16.643v2.643c0 1.867.802 3.547 2.08 4.714A6.36 6.36 0 0 0 12 28.714v2.643l5.774 5.774A6.38 6.38 0 0 0 27 36.92a6.38 6.38 0 0 0 9.226.212L42 31.357v-2.643A6.36 6.36 0 0 0 39.92 24 6.36 6.36 0 0 0 42 19.286v-2.643l-5.774-5.774A6.38 6.38 0 0 0 27 11.08 6.36 6.36 0 0 0 22.286 9m9.033 15a6 6 0 0 1-.211-.202L27 19.69l-4.107 4.108a7 7 0 0 1-.212.202q.108.099.212.202L27 28.31l4.108-4.108q.104-.103.211-.202m-2.652 7.357v1.262a3.047 3.047 0 0 0 5.202 2.155l4.798-4.798v-1.262a3.047 3.047 0 0 0-5.203-2.155zm-3.334 0-4.797-4.798a3.047 3.047 0 0 0-5.203 2.155v1.262l4.798 4.798a3.047 3.047 0 0 0 5.202-2.155zm0-15.976v1.262l-4.797 4.798a3.047 3.047 0 0 1-5.203-2.155v-1.262l4.798-4.798a3.047 3.047 0 0 1 5.202 2.155m8.132 6.06-4.798-4.798V15.38a3.047 3.047 0 0 1 5.202-2.155l4.798 4.798v1.262a3.047 3.047 0 0 1-5.203 2.155" clip-rule="evenodd"/></g></g></g><defs><linearGradient id="c" x1="24" x2="26" y1="0" y2="48" gradientUnits="userSpaceOnUse"><stop stop-color="#fff" stop-opacity="0"/><stop offset="1" stop-color="#fff" stop-opacity=".12"/></linearGradient><linearGradient id="e" x1="27" x2="27" y1="9" y2="39" gradientUnits="userSpaceOnUse"><stop stop-color="#fff" stop-opacity=".8"/><stop offset="1" stop-color="#fff" stop-opacity=".5"/></linearGradient><filter id="a" width="54" height="57" x="0" y="-3" color-interpolation-filters="sRGB" filterUnits="userSpaceOnUse"><feFlood flood-opacity="0" result="BackgroundImageFix"/><feColorMatrix in="SourceAlpha" result="hardAlpha" values="0 0 0 0 0 0 0 0 0 0 0 0 0 0 0 0 0 0 127 0"/><feOffset dy="1"/><feGaussianBlur stdDeviation=".5"/><feComposite in2="hardAlpha" operator="out"/><feColorMatrix values="0 0 0 0 0.162923 0 0 0 0 0.162923 0 0 0 0 0.162923 0 0 0 0.08 0"/><feBlend in2="BackgroundImageFix" result="effect1_dropShadow_21_27742"/><feColorMatrix in="SourceAlpha" result="hardAlpha" values="0 0 0 0 0 0 0 0 0 0 0 0 0 0 0 0 0 0 127 0"/><feMorphology in="SourceAlpha" radius="1" result="effect2_dropShadow_21_27742"/><feOffset dy="3"/><feGaussianBlur stdDeviation="2"/><feComposite in2="hardAlpha" operator="out"/><feColorMatrix values="0 0 0 0 0.164706 0 0 0 0 0.164706 0 0 0 0 0.164706 0 0 0 0.14 0"/><feBlend in2="effect1_dropShadow_21_27742" result="effect2_dropShadow_21_27742"/><feBlend in="SourceGraphic" in2="effect2_dropShadow_21_27742" result="shape"/><feColorMatrix in="SourceAlpha" result="hardAlpha" values="0 0 0 0 0 0 0 0 0 0 0 0 0 0 0 0 0 0 127 0"/><feOffset dy="-3"/><feGaussianBlur stdDeviation="1.5"/><feComposite in2="hardAlpha" k2="-1" k3="1" operator="arithmetic"/><feColorMatrix values="0 0 0 0 0 0 0 0 0 0 0 0 0 0 0 0 0 0 0.1 0"/><feBlend in2="shape" result="effect3_innerShadow_21_27742"/><feColorMatrix in="SourceAlpha" result="hardAlpha" values="0 0 0 0 0 0 0 0 0 0 0 0 0 0 0 0 0 0 127 0"/><feOffset dy="3"/><feGaussianBlur stdDeviation="1.5"/><feComposite in2="hardAlpha" k2="-1" k3="1" operator="arithmetic"/><feColorMatrix values="0 0 0 0 1 0 0 0 0 1 0 0 0 0 1 0 0 0 0.1 0"/><feBlend in2="effect3_innerShadow_21_27742" result="effect4_innerShadow_21_27742"/><feColorMatrix in="SourceAlpha" result="hardAlpha" values="0 0 0 0 0 0 0 0 0 0 0 0 0 0 0 0 0 0 127 0"/><feMorphology in="SourceAlpha" radius=".5" result="effect5_innerShadow_21_27742"/><feOffset/><feComposite in2="hardAlpha" k2="-1" k3="1" operator="arithmetic"/><feColorMatrix values="0 0 0 0 0 0 0 0 0 0 0 0 0 0 0 0 0 0 0.2 0"/><feBlend in2="effect4_innerShadow_21_27742" result="effect5_innerShadow_21_27742"/></filter><filter id="d" width="36" height="42" x="9" y="5.25" color-interpolation-filters="sRGB" filterUnits="userSpaceOnUse"><feFlood flood-opacity="0" result="BackgroundImageFix"/><feColorMatrix in="SourceAlpha" result="hardAlpha" values="0 0 0 0 0 0 0 0 0 0 0 0 0 0 0 0 0 0 127 0"/><feMorphology in="SourceAlpha" radius="1.5" result="effect1_dropShadow_21_27742"/><feOffset dy="2.25"/><feGaussianBlur stdDeviation="2.25"/><feComposite in2="hardAlpha" operator="out"/><feColorMatrix values="0 0 0 0 0.141176 0 0 0 0 0.141176 0 0 0 0 0.141176 0 0 0 0.1 0"/><feBlend in2="BackgroundImageFix" result="effect1_dropShadow_21_27742"/><feBlend in="SourceGraphic" in2="effect1_dropShadow_21_27742" result="shape"/></filter><clipPath id="b"><rect width="48" height="48" x="3" fill="#fff" rx="4"/></clipPath></defs></svg>