<svg xmlns="http://www.w3.org/2000/svg" width="48" height="48" fill="none" viewBox="0 0 48 48"><path fill="#007be5" fill-rule="evenodd" d="M38.587 8.654 28.9 6.058c-.669-.179-1.21.237-1.21.93v10.028c0 .692.541 1.399 1.21 1.578l9.687 2.596c.668.179 1.21-.237 1.21-.93V10.233c0-.692-.541-1.399-1.21-1.578M28.9 2.298c-2.675-.717-4.843.947-4.843 3.716v10.029c0 2.769 2.168 5.595 4.843 6.312l9.687 2.595c2.675.717 4.843-.947 4.843-3.716V11.205c0-2.769-2.168-5.595-4.843-6.312z" clip-rule="evenodd"/><path fill="#0087a8" fill-rule="evenodd" d="M30.981 16.824 18.873 13.58c-.669-.18-1.211.237-1.211.93v12.535c0 .692.542 1.398 1.21 1.578l12.11 3.244c.668.18 1.21-.237 1.21-.929V18.402c0-.692-.542-1.398-1.21-1.578M18.873 9.82c-2.675-.716-4.844.947-4.844 3.717V26.07c0 2.77 2.169 5.596 4.844 6.312l12.108 3.245c2.675.717 4.843-.947 4.843-3.717V19.376c0-2.77-2.168-5.596-4.843-6.312z" clip-rule="evenodd"/><path fill="#443deb" fill-rule="evenodd" d="M23.374 24.995 8.844 21.1c-.67-.179-1.211.237-1.211.93v15.042c0 .692.542 1.399 1.21 1.578l14.53 3.893c.67.18 1.211-.236 1.211-.929V26.573c0-.693-.542-1.4-1.21-1.579M8.844 17.34C6.167 16.624 4 18.289 4 21.057V36.1c0 2.769 2.168 5.595 4.843 6.312l14.53 3.893c2.675.717 4.844-.947 4.844-3.716V27.546c0-2.77-2.168-5.595-4.843-6.312z" clip-rule="evenodd"/></svg>