<svg xmlns="http://www.w3.org/2000/svg" width="54" height="54" fill="none" viewBox="0 0 54 54"><g filter="url(#a)"><g clip-path="url(#b)"><rect width="48" height="48" x="3" fill="#ea10ac" rx="4"/><path fill="url(#c)" d="M0 0h48v48H0z" transform="translate(3)"/><g filter="url(#d)"><path fill="url(#e)" fill-rule="evenodd" d="M42 24c0 8.284-6.716 15-15 15-7.356 0-13.475-5.295-14.754-12.282l-.012-.063a15.1 15.1 0 0 1-.084-4.786c.936-6.579 6.14-11.783 12.72-12.719l.032-.004a15.1 15.1 0 0 1 4.816.1C36.706 10.525 42 16.644 42 24m-3.75 0c0 6.213-5.037 11.25-11.25 11.25-4.682 0-8.696-2.86-10.39-6.929q1.044.178 2.14.179c7.042 0 12.75-5.708 12.75-12.75q-.001-1.095-.179-2.14C35.39 15.304 38.25 19.318 38.25 24M27.239 12.753c.33.937.511 1.946.511 2.997a9 9 0 0 1-9 9c-1.051 0-2.06-.18-2.998-.511L15.75 24c0-6.213 5.037-11.25 11.25-11.25q.12 0 .239.002" clip-rule="evenodd"/></g></g></g><defs><linearGradient id="c" x1="24" x2="26" y1="0" y2="48" gradientUnits="userSpaceOnUse"><stop stop-color="#fff" stop-opacity="0"/><stop offset="1" stop-color="#fff" stop-opacity=".12"/></linearGradient><linearGradient id="e" x1="27" x2="27" y1="9" y2="39" gradientUnits="userSpaceOnUse"><stop stop-color="#fff" stop-opacity=".8"/><stop offset="1" stop-color="#fff" stop-opacity=".5"/></linearGradient><filter id="a" width="54" height="57" x="0" y="-3" color-interpolation-filters="sRGB" filterUnits="userSpaceOnUse"><feFlood flood-opacity="0" result="BackgroundImageFix"/><feColorMatrix in="SourceAlpha" result="hardAlpha" values="0 0 0 0 0 0 0 0 0 0 0 0 0 0 0 0 0 0 127 0"/><feOffset dy="1"/><feGaussianBlur stdDeviation=".5"/><feComposite in2="hardAlpha" operator="out"/><feColorMatrix values="0 0 0 0 0.162923 0 0 0 0 0.162923 0 0 0 0 0.162923 0 0 0 0.08 0"/><feBlend in2="BackgroundImageFix" result="effect1_dropShadow_21_27701"/><feColorMatrix in="SourceAlpha" result="hardAlpha" values="0 0 0 0 0 0 0 0 0 0 0 0 0 0 0 0 0 0 127 0"/><feMorphology in="SourceAlpha" radius="1" result="effect2_dropShadow_21_27701"/><feOffset dy="3"/><feGaussianBlur stdDeviation="2"/><feComposite in2="hardAlpha" operator="out"/><feColorMatrix values="0 0 0 0 0.164706 0 0 0 0 0.164706 0 0 0 0 0.164706 0 0 0 0.14 0"/><feBlend in2="effect1_dropShadow_21_27701" result="effect2_dropShadow_21_27701"/><feBlend in="SourceGraphic" in2="effect2_dropShadow_21_27701" result="shape"/><feColorMatrix in="SourceAlpha" result="hardAlpha" values="0 0 0 0 0 0 0 0 0 0 0 0 0 0 0 0 0 0 127 0"/><feOffset dy="-3"/><feGaussianBlur stdDeviation="1.5"/><feComposite in2="hardAlpha" k2="-1" k3="1" operator="arithmetic"/><feColorMatrix values="0 0 0 0 0 0 0 0 0 0 0 0 0 0 0 0 0 0 0.1 0"/><feBlend in2="shape" result="effect3_innerShadow_21_27701"/><feColorMatrix in="SourceAlpha" result="hardAlpha" values="0 0 0 0 0 0 0 0 0 0 0 0 0 0 0 0 0 0 127 0"/><feOffset dy="3"/><feGaussianBlur stdDeviation="1.5"/><feComposite in2="hardAlpha" k2="-1" k3="1" operator="arithmetic"/><feColorMatrix values="0 0 0 0 1 0 0 0 0 1 0 0 0 0 1 0 0 0 0.1 0"/><feBlend in2="effect3_innerShadow_21_27701" result="effect4_innerShadow_21_27701"/><feColorMatrix in="SourceAlpha" result="hardAlpha" values="0 0 0 0 0 0 0 0 0 0 0 0 0 0 0 0 0 0 127 0"/><feMorphology in="SourceAlpha" radius="1" result="effect5_innerShadow_21_27701"/><feOffset/><feComposite in2="hardAlpha" k2="-1" k3="1" operator="arithmetic"/><feColorMatrix values="0 0 0 0 0 0 0 0 0 0 0 0 0 0 0 0 0 0 0.2 0"/><feBlend in2="effect4_innerShadow_21_27701" result="effect5_innerShadow_21_27701"/></filter><filter id="d" width="36" height="42" x="9" y="5.25" color-interpolation-filters="sRGB" filterUnits="userSpaceOnUse"><feFlood flood-opacity="0" result="BackgroundImageFix"/><feColorMatrix in="SourceAlpha" result="hardAlpha" values="0 0 0 0 0 0 0 0 0 0 0 0 0 0 0 0 0 0 127 0"/><feMorphology in="SourceAlpha" radius="1.5" result="effect1_dropShadow_21_27701"/><feOffset dy="2.25"/><feGaussianBlur stdDeviation="2.25"/><feComposite in2="hardAlpha" operator="out"/><feColorMatrix values="0 0 0 0 0.141176 0 0 0 0 0.141176 0 0 0 0 0.141176 0 0 0 0.1 0"/><feBlend in2="BackgroundImageFix" result="effect1_dropShadow_21_27701"/><feBlend in="SourceGraphic" in2="effect1_dropShadow_21_27701" result="shape"/></filter><clipPath id="b"><rect width="48" height="48" x="3" fill="#fff" rx="4"/></clipPath></defs></svg>