<svg xmlns="http://www.w3.org/2000/svg" width="48" height="48" fill="none" viewBox="0 0 48 48"><path fill="#1e1e1e" fill-rule="evenodd" d="M24.766 4.076a3.9 3.9 0 0 0-1.531 0c-.584.116-1.106.4-1.52.625l-.114.06-14.06 7.575-.12.064c-.439.235-.99.53-1.415.976a3.7 3.7 0 0 0-.813 1.34c-.197.577-.194 1.188-.193 1.674v15.22c-.001.486-.004 1.097.193 1.673.17.498.447.956.813 1.341.424.447.976.741 1.416.976l.12.064L21.6 43.238l.113.061c.415.226.937.509 1.52.626.506.1 1.026.1 1.531 0 .584-.117 1.106-.4 1.52-.626l.114-.06 14.06-7.575.052-.028.067-.036c.44-.235.992-.53 1.416-.976.366-.385.644-.843.813-1.34.197-.577.194-1.188.193-1.674V16.39c.002-.486.004-1.097-.193-1.673a3.7 3.7 0 0 0-.813-1.341c-.424-.446-.976-.741-1.416-.976h-.001l-.118-.064-14.06-7.574-.113-.061c-.415-.226-.937-.509-1.52-.625m-1.32 3.907c.288-.155.435-.234.545-.285l.01-.004.01.004a13 13 0 0 1 .544.285l12.633 6.806L24 21.892 10.813 14.79zM8.801 17.919 22.1 25.085v14.208l-12.713-6.85a13 13 0 0 1-.568-.315l-.01-.006v-.01a12 12 0 0 1-.008-.635z" clip-rule="evenodd"/></svg>