<svg xmlns="http://www.w3.org/2000/svg" width="48" height="48" fill="none" viewBox="0 0 48 48"><path fill="#dd7c0e" d="M29.093 5.054 25.16 4l-3.315 12.37-2.992-11.168-3.933 1.054 3.233 12.066-8.053-8.053-2.88 2.88 8.834 8.832-11-2.947L4 22.967l12.019 3.22a8.144 8.144 0 1 1 15.87-.011l10.921 2.926 1.054-3.933-12.066-3.233 11-2.948-1.054-3.932-12.065 3.233 8.052-8.053-2.88-2.88-8.71 8.711z"/><path fill="#dd7c0e" d="M31.876 26.221a8.1 8.1 0 0 1-2.026 3.733l7.913 7.913 2.88-2.88zm-2.106 3.816a8.14 8.14 0 0 1-3.639 2.151l2.88 10.746 3.933-1.054zm-3.785 2.19a8.2 8.2 0 0 1-2.034.256 8.2 8.2 0 0 1-2.172-.293l-2.882 10.756L22.83 44zm-4.345-.077a8.14 8.14 0 0 1-3.575-2.183L10.132 37.9l2.88 2.88zM18 29.897a8.1 8.1 0 0 1-1.976-3.686L5.066 29.147 6.12 33.08z"/></svg>