<svg xmlns="http://www.w3.org/2000/svg" width="48" height="48" fill="none" viewBox="0 0 48 48"><g clip-path="url(#a)"><path fill="#1e1e1e" d="m36.487 37.196-2.258 1.976-8.587-7.516V45h-3.194V31.656l-8.588 7.516-2.258-1.976L24.045 26.31zM21.454 24.042 9.012 34.929l-2.258-1.976 8.589-7.515H0v-2.793h15.343l-8.59-7.515 2.259-1.976zm19.882-8.912-8.589 7.515H48v2.794H32.747l8.589 7.514-2.258 1.976-12.442-10.887 12.442-10.888zm-15.694 1.296 8.588-7.514 2.257 1.975-12.442 10.887-12.443-10.887 2.258-1.975 8.588 7.515V3l1.597.001L25.642 3z"/></g><defs><clipPath id="a"><rect width="48" height="48" fill="#fff" rx="4"/></clipPath></defs></svg>