<svg xmlns="http://www.w3.org/2000/svg" width="48" height="48" fill="none" viewBox="0 0 48 48"><g clip-path="url(#a)"><rect width="48" height="48" fill="#8638e5" rx="4"/><path fill="url(#b)" d="M0 0h48v48H0z"/><g filter="url(#c)"><path fill="url(#d)" d="M33.226 33h-.076l-.06.09a13.06 13.06 0 0 1-7.215 2.16c-7.249 0-13.125-5.876-13.125-13.125 0-2.665.794-5.145 2.16-7.216l.09-.059v-.076l-.09.136A13.11 13.11 0 0 0 9 25.874C9 33.124 14.876 39 22.125 39c4.583 0 8.618-2.35 10.965-5.91z"/><g opacity=".5"><path fill="url(#e)" d="M39.001 22.125c0 4.583-2.35 8.618-5.91 10.965a13.07 13.07 0 0 0 2.16-7.215c0-7.249-5.876-13.125-13.125-13.125-2.665 0-5.145.794-7.215 2.16A13.11 13.11 0 0 1 25.876 9c7.249 0 13.125 5.876 13.125 13.125"/><path fill="url(#f)" d="m33.001 33.15.09-.06-.09.136z"/><path fill="url(#g)" d="m14.852 15 .059-.09-.136.09z"/></g></g></g><rect width="46" height="46" x="1" y="1" stroke="url(#h)" stroke-width="2" rx="3"/><defs><linearGradient id="b" x1="24" x2="26" y1="0" y2="48" gradientUnits="userSpaceOnUse"><stop stop-color="#fff" stop-opacity="0"/><stop offset="1" stop-color="#fff" stop-opacity=".12"/></linearGradient><linearGradient id="d" x1="21.113" x2="21.113" y1="14.774" y2="39" gradientUnits="userSpaceOnUse"><stop stop-color="#fff" stop-opacity=".8"/><stop offset="1" stop-color="#fff" stop-opacity=".5"/></linearGradient><linearGradient id="e" x1="26.888" x2="26.888" y1="9" y2="33.226" gradientUnits="userSpaceOnUse"><stop stop-color="#fff" stop-opacity=".8"/><stop offset="1" stop-color="#fff" stop-opacity=".5"/></linearGradient><linearGradient id="f" x1="26.888" x2="26.888" y1="9" y2="33.226" gradientUnits="userSpaceOnUse"><stop stop-color="#fff" stop-opacity=".8"/><stop offset="1" stop-color="#fff" stop-opacity=".5"/></linearGradient><linearGradient id="g" x1="26.888" x2="26.888" y1="9" y2="33.226" gradientUnits="userSpaceOnUse"><stop stop-color="#fff" stop-opacity=".8"/><stop offset="1" stop-color="#fff" stop-opacity=".5"/></linearGradient><linearGradient id="h" x1="24" x2="24" y1="0" y2="48" gradientUnits="userSpaceOnUse"><stop stop-color="#fff" stop-opacity=".12"/><stop offset="1" stop-color="#fff" stop-opacity="0"/></linearGradient><clipPath id="a"><rect width="48" height="48" fill="#fff" rx="4"/></clipPath><filter id="c" width="36.001" height="42" x="6" y="5.25" color-interpolation-filters="sRGB" filterUnits="userSpaceOnUse"><feFlood flood-opacity="0" result="BackgroundImageFix"/><feColorMatrix in="SourceAlpha" result="hardAlpha" values="0 0 0 0 0 0 0 0 0 0 0 0 0 0 0 0 0 0 127 0"/><feMorphology in="SourceAlpha" radius="1.5" result="effect1_dropShadow_21_27817"/><feOffset dy="2.25"/><feGaussianBlur stdDeviation="2.25"/><feComposite in2="hardAlpha" operator="out"/><feColorMatrix values="0 0 0 0 0.141176 0 0 0 0 0.141176 0 0 0 0 0.141176 0 0 0 0.1 0"/><feBlend in2="BackgroundImageFix" result="effect1_dropShadow_21_27817"/><feBlend in="SourceGraphic" in2="effect1_dropShadow_21_27817" result="shape"/></filter></defs></svg>