<svg xmlns="http://www.w3.org/2000/svg" width="48" height="48" fill="none" viewBox="0 0 48 48"><g clip-path="url(#a)"><rect width="48" height="48" fill="#007be5" rx="4"/><path fill="url(#b)" d="M0 0h48v48H0z"/><path fill="#fff" d="M9 9h7.5v7.5H9z"/><path fill="#fff" d="M24 9h7.5v7.5H24zm-7.5 7.5H24V24h-7.5z" opacity=".6"/><path fill="#fff" d="M24 16.5h7.5V24H24z" opacity=".45"/><path fill="#fff" d="M31.5 16.5H39V24h-7.5z" opacity=".3"/><path fill="#fff" d="M9 24h7.5v7.5H9z" opacity=".6"/><path fill="#fff" d="M16.5 24H24v7.5h-7.5z" opacity=".45"/><path fill="#fff" d="M24 24h7.5v7.5H24z" opacity=".3"/><path fill="#fff" d="M31.5 24H39v7.5h-7.5z" opacity=".15"/><path fill="#fff" d="M16.5 31.5H24V39h-7.5z" opacity=".3"/><path fill="#fff" d="M24 31.5h7.5V39H24z" opacity=".15"/></g><rect width="46" height="46" x="1" y="1" stroke="url(#c)" stroke-width="2" rx="3"/><defs><linearGradient id="b" x1="24" x2="26" y1="0" y2="48" gradientUnits="userSpaceOnUse"><stop stop-color="#fff" stop-opacity="0"/><stop offset="1" stop-color="#fff" stop-opacity=".12"/></linearGradient><linearGradient id="c" x1="24" x2="24" y1="0" y2="48" gradientUnits="userSpaceOnUse"><stop stop-color="#fff" stop-opacity=".12"/><stop offset="1" stop-color="#fff" stop-opacity="0"/></linearGradient><clipPath id="a"><rect width="48" height="48" fill="#fff" rx="4"/></clipPath></defs></svg>