<svg xmlns="http://www.w3.org/2000/svg" width="48" height="48" fill="none" viewBox="0 0 48 48"><path fill="#009951" fill-rule="evenodd" d="M22.031 5h14.996v5.761h-5.3a11 11 0 0 1 1.338 5.271c0 6.093-4.94 11.032-11.033 11.032S11 22.126 11 16.032C11 9.94 15.939 5.001 22.031 5m.001 16.303a5.27 5.27 0 0 0 0-10.542 5.27 5.27 0 0 0 0 10.542" clip-rule="evenodd"/><path fill="#009951" d="M22.032 43q-3.084 0-5.588-1.154-2.505-1.106-3.999-3.125Q11 36.702 11 34.107q0-2.02.578-3.317.578-1.299 1.734-2.5l4.77 3.077a2.8 2.8 0 0 0-.723 1.01q-.24.576-.241 1.441 0 1.587 1.3 2.5 1.335.952 3.614.961 2.28-.01 3.614-.961 1.3-.913 1.3-2.5 0-.865-.24-1.442a2.8 2.8 0 0 0-.723-1.01l4.77-3.076q1.155 1.201 1.733 2.5.579 1.297.579 3.317 0 2.595-1.446 4.614-1.493 2.02-3.998 3.125-2.505 1.155-5.59 1.154" opacity=".7"/></svg>