<svg xmlns="http://www.w3.org/2000/svg" width="48" height="48" fill="none" viewBox="0 0 48 48"><g clip-path="url(#a)"><rect width="48" height="48" fill="#087443" rx="4"/><path fill="url(#b)" d="M0 0h48v48H0z"/><g filter="url(#c)"><path fill="url(#d)" d="M18.58 20.742c4.124-1.972 7.352-5.32 9.204-9.503-1.195-1.256-2.75-2.152-4.423-2.69l-.896-.299c-.06.12-.12.299-.12.418-1.434 4.065-4.363 7.352-8.308 9.205-2.75 1.315-4.782 3.706-5.738 6.575L8 25.345c.12.06.299.12.418.12 1.136.418 2.272.956 3.348 1.613 1.494-2.69 3.885-4.96 6.814-6.336"/><path fill="url(#e)" d="M35.913 20.981a22.1 22.1 0 0 1-9.025 7.83c-3.049 1.435-5.38 4.125-6.456 7.353l-.299 1.016a11.1 11.1 0 0 0 4.005 2.271l.897.299c.06-.12.12-.299.12-.419 1.434-4.064 4.362-7.351 8.307-9.204 2.75-1.315 4.842-3.706 5.738-6.575l.3-.897c-1.256-.359-2.451-.956-3.587-1.674"/><path fill="url(#f)" d="M17.743 34.071a15.75 15.75 0 0 1 7.77-8.188c3.228-1.555 5.917-3.945 7.77-6.874-1.374-1.315-2.51-2.81-3.347-4.603-2.212 4.065-5.678 7.352-9.922 9.385-2.45 1.135-4.423 3.108-5.618 5.499 1.314 1.255 2.39 2.809 3.227 4.542z"/></g></g><rect width="46" height="46" x="1" y="1" stroke="url(#g)" stroke-width="2" rx="3"/><defs><linearGradient id="b" x1="24" x2="26" y1="0" y2="48" gradientUnits="userSpaceOnUse"><stop stop-color="#fff" stop-opacity="0"/><stop offset="1" stop-color="#fff" stop-opacity=".12"/></linearGradient><linearGradient id="d" x1="17.892" x2="17.892" y1="8.25" y2="27.078" gradientUnits="userSpaceOnUse"><stop stop-color="#fff" stop-opacity=".8"/><stop offset="1" stop-color="#fff" stop-opacity=".5"/></linearGradient><linearGradient id="e" x1="29.816" x2="29.816" y1="20.981" y2="39.75" gradientUnits="userSpaceOnUse"><stop stop-color="#fff" stop-opacity=".8"/><stop offset="1" stop-color="#fff" stop-opacity=".5"/></linearGradient><linearGradient id="f" x1="23.839" x2="23.839" y1="14.406" y2="34.071" gradientUnits="userSpaceOnUse"><stop stop-color="#fff" stop-opacity=".8"/><stop offset="1" stop-color="#fff" stop-opacity=".5"/></linearGradient><linearGradient id="g" x1="24" x2="24" y1="0" y2="48" gradientUnits="userSpaceOnUse"><stop stop-color="#fff" stop-opacity=".12"/><stop offset="1" stop-color="#fff" stop-opacity="0"/></linearGradient><clipPath id="a"><rect width="48" height="48" fill="#fff" rx="4"/></clipPath><filter id="c" width="37.5" height="42" x="5" y="5.25" color-interpolation-filters="sRGB" filterUnits="userSpaceOnUse"><feFlood flood-opacity="0" result="BackgroundImageFix"/><feColorMatrix in="SourceAlpha" result="hardAlpha" values="0 0 0 0 0 0 0 0 0 0 0 0 0 0 0 0 0 0 127 0"/><feMorphology in="SourceAlpha" radius="1.5" result="effect1_dropShadow_21_27828"/><feOffset dy="2.25"/><feGaussianBlur stdDeviation="2.25"/><feComposite in2="hardAlpha" operator="out"/><feColorMatrix values="0 0 0 0 0.141176 0 0 0 0 0.141176 0 0 0 0 0.141176 0 0 0 0.1 0"/><feBlend in2="BackgroundImageFix" result="effect1_dropShadow_21_27828"/><feBlend in="SourceGraphic" in2="effect1_dropShadow_21_27828" result="shape"/></filter></defs></svg>