<svg viewBox="0 0 24 24" fill="currentColor" xmlns="http://www.w3.org/2000/svg">
<path d="M13.1895 21.0234C13.6822 20.9592 14.1338 21.3061 14.1982 21.7988C14.2625 22.2916 13.9155 22.7431 13.4229 22.8076C12.9569 22.8684 12.4817 22.9004 12 22.9004C11.5183 22.9004 11.0431 22.8684 10.5771 22.8076C10.0845 22.7431 9.73748 22.2916 9.80176 21.7988C9.86618 21.3061 10.3178 20.9592 10.8105 21.0234C11.1994 21.0742 11.5965 21.0996 12 21.0996C12.4035 21.0996 12.8006 21.0742 13.1895 21.0234ZM5.19824 19.3857C5.48218 19.0163 5.99683 18.928 6.38477 19.168L6.46094 19.2207L6.69824 19.3975C7.17993 19.7434 7.69702 20.0425 8.24219 20.29L8.5166 20.4102L8.59961 20.4492C9.00143 20.6655 9.18237 21.1554 9.00391 21.5859C8.82539 22.0164 8.35095 22.2348 7.91406 22.1035L7.82715 22.0723L7.49805 21.9297C6.84429 21.6329 6.22518 21.2735 5.64844 20.8594L5.36426 20.6475L5.29395 20.5879C4.96209 20.2749 4.91445 19.7553 5.19824 19.3857ZM17.6152 19.168C18.0032 18.928 18.5178 19.0163 18.8018 19.3857C19.1044 19.7799 19.0298 20.3447 18.6357 20.6475L18.3516 20.8594C17.6789 21.3424 16.9485 21.7506 16.1729 22.0723C15.7137 22.2627 15.1865 22.0451 14.9961 21.5859C14.8058 21.1268 15.0243 20.6005 15.4834 20.4102C16.2225 20.1036 16.9127 19.702 17.5391 19.2207L17.6152 19.168ZM2.41406 14.9961C2.84463 14.8176 3.33451 14.9986 3.55078 15.4004L3.58984 15.4834L3.70996 15.7578C3.95752 16.303 4.25664 16.8201 4.60254 17.3018L4.7793 17.5391L4.83203 17.6152C5.07202 18.0032 4.98375 18.5178 4.61426 18.8018C4.24471 19.0855 3.7251 19.0379 3.41211 18.7061L3.35254 18.6357L3.14062 18.3516C2.72647 17.7748 2.36715 17.1557 2.07031 16.502L1.92773 16.1729L1.89648 16.0859C1.76516 15.649 1.98359 15.1746 2.41406 14.9961ZM20.4102 15.4834C20.6005 15.0243 21.1268 14.8058 21.5859 14.9961C22.0451 15.1865 22.2627 15.7137 22.0723 16.1729C21.7046 17.0593 21.2235 17.8861 20.6475 18.6357L20.5879 18.7061C20.2749 19.0379 19.7553 19.0855 19.3857 18.8018C18.9916 18.4989 18.9178 17.9332 19.2207 17.5391L19.3975 17.3018C19.801 16.7398 20.1419 16.1302 20.4102 15.4834ZM1.09961 12C1.09961 11.5183 1.1316 11.0431 1.19238 10.5771L1.20898 10.4873C1.31325 10.0431 1.73898 9.74147 2.20117 9.80176C2.69391 9.86618 3.04084 10.3178 2.97656 10.8105L2.94336 11.1035C2.91458 11.3982 2.90039 11.6973 2.90039 12C2.90039 12.4035 2.92585 12.8006 2.97656 13.1895C3.04084 13.6822 2.69391 14.1338 2.20117 14.1982C1.70842 14.2625 1.25686 13.9155 1.19238 13.4229C1.1316 12.9569 1.09961 12.4817 1.09961 12ZM22.8076 13.4229C22.7431 13.9155 22.2916 14.2625 21.7988 14.1982C21.3061 14.1338 20.9592 13.6822 21.0234 13.1895L22.8076 13.4229ZM21.0996 12C21.0996 11.5965 21.0742 11.1994 21.0234 10.8105L22.8076 10.5771C22.8684 11.0431 22.9004 11.5183 22.9004 12C22.9004 12.4817 22.8684 12.9569 22.8076 13.4229L21.0234 13.1895C21.0742 12.8006 21.0996 12.4035 21.0996 12ZM21.7988 9.80176C22.2916 9.73748 22.7431 10.0845 22.8076 10.5771L21.0234 10.8105C20.9592 10.3178 21.3061 9.86618 21.7988 9.80176ZM3.41211 5.29395C3.7251 4.96209 4.24471 4.91445 4.61426 5.19824C5.00838 5.50111 5.08217 6.06681 4.7793 6.46094L4.60254 6.69824C4.19902 7.26017 3.85809 7.86975 3.58984 8.5166C3.39947 8.97569 2.87317 9.19419 2.41406 9.00391C1.95492 8.81351 1.73734 8.28629 1.92773 7.82715C2.29539 6.94063 2.77644 6.11296 3.35254 5.36328L3.41211 5.29395ZM19.3857 5.19824C19.7553 4.91445 20.2749 4.96209 20.5879 5.29395L20.6475 5.36426L20.8594 5.64844C21.2735 6.22518 21.6329 6.84429 21.9297 7.49805L22.0723 7.82715L22.1035 7.91406C22.2348 8.35095 22.0164 8.8254 21.5859 9.00391C21.1554 9.18237 20.6655 9.00143 20.4492 8.59961L20.4102 8.5166L20.29 8.24219C20.0425 7.69702 19.7434 7.17993 19.3975 6.69824L19.2207 6.46094L19.168 6.38477C18.928 5.99683 19.0163 5.48218 19.3857 5.19824ZM7.82715 1.92773C8.28629 1.73734 8.81351 1.95492 9.00391 2.41406C9.19419 2.87317 8.97569 3.39947 8.5166 3.58984C7.77749 3.89635 7.08727 4.29804 6.46094 4.7793L6.38477 4.83203C5.99683 5.07202 5.48218 4.98375 5.19824 4.61426C4.89567 4.22027 4.96957 3.65542 5.36328 3.35254L5.64844 3.14062C6.32108 2.6576 7.05147 2.24942 7.82715 1.92773ZM14.9961 2.41406C15.1746 1.98359 15.649 1.76517 16.0859 1.89648L16.1729 1.92773L16.502 2.07031C17.1557 2.36715 17.7748 2.72647 18.3516 3.14062L18.6357 3.35254L18.7061 3.41211C19.0379 3.7251 19.0855 4.24471 18.8018 4.61426C18.5178 4.98375 18.0032 5.07202 17.6152 4.83203L17.5391 4.7793L17.3018 4.60254C16.8201 4.25664 16.303 3.95752 15.7578 3.70996L15.4834 3.58984L15.4004 3.55078C14.9986 3.33451 14.8176 2.84463 14.9961 2.41406ZM12 1.09961C12.4817 1.09961 12.9569 1.1316 13.4229 1.19238C13.9155 1.25686 14.2625 1.70842 14.1982 2.20117C14.1338 2.69391 13.6822 3.04084 13.1895 2.97656C12.8006 2.92585 12.4035 2.90039 12 2.90039C11.5965 2.90039 11.1994 2.92585 10.8105 2.97656L10.7188 2.98438C10.2627 2.99751 9.86217 2.6632 9.80176 2.20117C9.73748 1.70842 10.0845 1.25686 10.5771 1.19238L10.9287 1.15234C11.2814 1.1179 11.6388 1.09961 12 1.09961Z" fill="currentColor"/>
</svg>
