<svg viewBox="0 0 24 24" fill="currentColor" xmlns="http://www.w3.org/2000/svg">
<path d="M21.0996 12C21.0996 6.97421 17.0258 2.90039 12 2.90039C6.97421 2.90039 2.90039 6.97421 2.90039 12C2.90039 17.0258 6.97421 21.0996 12 21.0996C17.0258 21.0996 21.0996 17.0258 21.0996 12ZM22.9004 12C22.9004 18.0199 18.0199 22.9004 12 22.9004C5.9801 22.9004 1.09961 18.0199 1.09961 12C1.09961 5.9801 5.9801 1.09961 12 1.09961C18.0199 1.09961 22.9004 5.9801 22.9004 12Z" fill="currentColor"/>
<path d="M19.5 12C19.5 11.0151 19.306 10.0398 18.9291 9.12987C18.5522 8.21993 17.9997 7.39314 17.3033 6.6967C16.6069 6.00026 15.7801 5.44781 14.8701 5.0709C13.9602 4.69399 12.9849 4.5 12 4.5V12H19.5Z" fill="currentColor"/>
</svg>
