<svg viewBox="0 0 24 24" fill="currentColor" xmlns="http://www.w3.org/2000/svg">
<path d="M12.057 1.75C14.248 1.75 15.969 1.75 17.312 1.931C18.689 2.116 19.781 2.503 20.639 3.361C21.497 4.219 21.884 5.311 22.069 6.688C22.25 8.031 22.25 9.752 22.25 11.943V12.057C22.25 14.248 22.25 15.969 22.069 17.312C21.884 18.689 21.497 19.781 20.639 20.639C19.781 21.497 18.689 21.884 17.312 22.069C15.969 22.25 14.248 22.25 12.057 22.25H11.943C9.752 22.25 8.031 22.25 6.688 22.069C5.311 21.884 4.219 21.497 3.361 20.639C2.503 19.781 2.116 18.689 1.931 17.312C1.75 15.969 1.75 14.248 1.75 12.057V11.943C1.75 9.752 1.75 8.031 1.931 6.688C2.116 5.311 2.503 4.219 3.361 3.361C4.219 2.503 5.311 2.116 6.688 1.931C8.031 1.75 9.752 1.75 11.943 1.75H12.057ZM6.888 3.417C5.678 3.58 4.955 3.889 4.422 4.422C3.889 4.955 3.58 5.678 3.417 6.888C3.252 8.12 3.25 9.74 3.25 12C3.25 14.26 3.252 15.88 3.417 17.112C3.58 18.322 3.889 19.045 4.422 19.578C4.955 20.111 5.678 20.42 6.888 20.583C8.12 20.748 9.74 20.75 12 20.75C14.26 20.75 15.88 20.748 17.112 20.583C18.322 20.42 19.045 20.111 19.578 19.578C20.111 19.045 20.42 18.322 20.583 17.112C20.748 15.88 20.75 14.26 20.75 12C20.75 9.74 20.748 8.12 20.583 6.888C20.42 5.678 20.111 4.955 19.578 4.422C19.045 3.889 18.322 3.58 17.112 3.417C15.88 3.252 14.26 3.25 12 3.25C9.74 3.25 8.12 3.252 6.888 3.417ZM11.25 13V7C11.25 6.586 11.586 6.25 12 6.25C12.414 6.25 12.75 6.586 12.75 7V13C12.75 13.414 12.414 13.75 12 13.75C11.586 13.75 11.25 13.414 11.25 13ZM11 16C11 15.448 11.448 15 12 15H12.009C12.561 15 13.009 15.448 13.009 16C13.009 16.552 12.561 17 12.009 17H12C11.448 17 11 16.552 11 16Z" fill="currentColor"/>
</svg>
