<svg viewBox="0 0 24 24" fill="currentColor" xmlns="http://www.w3.org/2000/svg">
<path d="M20.3488 15.6362C20.3488 14.5419 20.3475 13.8034 20.2726 13.2517C20.2099 12.7896 20.106 12.5537 19.9761 12.3977L19.9187 12.3347C19.7618 12.1794 19.5266 12.0558 18.9941 11.9849C18.4374 11.9108 17.6921 11.9094 16.5876 11.9094H7.41325C6.30882 11.9094 5.56351 11.9108 5.00676 11.9849C4.47422 12.0559 4.23906 12.1794 4.08216 12.3347C3.92526 12.4901 3.79993 12.7236 3.72826 13.2517C3.65343 13.8034 3.65213 14.5419 3.65211 15.6362L3.653 16.3926C3.65699 17.088 3.67214 17.6069 3.72826 18.0207C3.79986 18.5484 3.92455 18.7814 4.08126 18.9369L4.14487 18.9937C4.30224 19.1225 4.54035 19.2254 5.00676 19.2875C5.56351 19.3617 6.30883 19.363 7.41325 19.363H16.5876C17.6921 19.363 18.4374 19.3617 18.9941 19.2875C19.5266 19.2166 19.7618 19.093 19.9187 18.9378L19.9761 18.8747C20.106 18.7188 20.2099 18.4828 20.2726 18.0207C20.3475 17.469 20.3488 16.7305 20.3488 15.6362ZM22 15.6362C22 16.6844 22.0026 17.553 21.9095 18.2391C21.8193 18.9041 21.6277 19.5041 21.1802 19.9968L21.087 20.0945C20.5722 20.6046 19.9306 20.814 19.2145 20.9094C18.5222 21.0017 17.6455 21 16.5876 21H7.41325C6.35536 21 5.47876 21.0017 4.78636 20.9094C4.11497 20.82 3.50885 20.6306 3.01151 20.1868L2.91386 20.0945C2.399 19.5844 2.18767 18.9486 2.09139 18.2391C2.02156 17.7245 2.00564 17.107 2.00179 16.3881L2 15.6362C2.00002 14.588 1.99829 13.7194 2.09139 13.0333C2.18768 12.3238 2.39903 11.6881 2.91386 11.1779C3.42869 10.6678 4.07031 10.4584 4.78636 10.363C5.47874 10.2708 6.3554 10.2724 7.41325 10.2724H16.5876C17.6455 10.2724 18.5222 10.2708 19.2145 10.363C19.9306 10.4584 20.5722 10.6679 21.087 11.1779L21.1802 11.2756C21.6277 11.7683 21.8193 12.3683 21.9095 13.0333C22.0026 13.7194 22 14.588 22 15.6362Z" fill="currentColor"/>
<path d="M18.5139 11.0909C18.5139 10.4413 18.514 10.0031 18.4861 9.66522C18.4658 9.41901 18.4332 9.26653 18.3947 9.16009L18.3544 9.06688C18.2313 8.82743 18.044 8.6269 17.8142 8.48718L17.7129 8.43125C17.6034 8.37595 17.4405 8.32758 17.1091 8.30075C16.7681 8.27317 16.3259 8.27323 15.6702 8.27323H8.33069C7.67502 8.27323 7.23281 8.27316 6.89181 8.30075C6.64331 8.32087 6.48946 8.35318 6.38203 8.3913L6.28795 8.43125C6.04648 8.55318 5.84481 8.73896 5.7038 8.96656L5.64646 9.06688C5.59066 9.1754 5.54185 9.33689 5.51476 9.66522C5.48691 10.0031 5.48701 10.4413 5.48699 11.0909C5.48697 11.5428 5.11694 11.9094 4.66093 11.9094C4.20492 11.9094 3.83488 11.5428 3.83488 11.0909C3.8349 10.468 3.83427 9.95121 3.86892 9.53117C3.90438 9.10169 3.98115 8.70139 4.17533 8.32383L4.29539 8.11077C4.59502 7.62685 5.02475 7.23279 5.53805 6.97356L5.6823 6.90698C6.02094 6.76304 6.378 6.70067 6.75742 6.66995C7.18124 6.63567 7.70226 6.63622 8.33069 6.63622H15.6702C16.2986 6.63622 16.8197 6.63567 17.2435 6.66995C17.677 6.70505 18.0817 6.78116 18.4628 6.97356L18.677 7.09252C19.1657 7.38946 19.5638 7.81501 19.8256 8.32383L19.8928 8.46676C20.038 8.8023 20.101 9.15611 20.132 9.53206C20.1666 9.95199 20.166 10.4683 20.166 11.0909C20.166 11.5428 19.796 11.9094 19.34 11.9094C18.8839 11.9094 18.5139 11.5428 18.5139 11.0909Z" fill="currentColor"/>
<path d="M16.679 7.45472C16.679 6.80504 16.6791 6.36688 16.6513 6.029C16.6309 5.78279 16.5983 5.63031 16.5599 5.52387L16.5195 5.43066C16.3964 5.19121 16.2092 4.99068 15.9793 4.85096L15.8781 4.79503C15.7685 4.73974 15.6056 4.69136 15.2742 4.66453C14.9332 4.63695 14.491 4.63701 13.8353 4.63701H10.1656C9.5099 4.63701 9.06769 4.63694 8.72669 4.66453C8.4782 4.68465 8.32433 4.71696 8.21691 4.75508L8.12283 4.79503C7.88121 4.91703 7.67881 5.10255 7.53779 5.33034L7.48134 5.43066C7.42554 5.53917 7.37673 5.70063 7.34964 6.029C7.32179 6.36688 7.32188 6.80506 7.32186 7.45472L7.31738 7.53817C7.2752 7.95084 6.9234 8.27323 6.49581 8.27323C6.06823 8.27322 5.71642 7.95082 5.67424 7.53817L5.66976 7.45472C5.66978 6.8318 5.66915 6.31498 5.7038 5.89495C5.73925 5.4655 5.81604 5.06515 6.01021 4.68761L6.13027 4.47455C6.4299 3.99064 6.85962 3.59658 7.37293 3.33735L7.51718 3.27076C7.85582 3.12682 8.21288 3.06445 8.5923 3.03374C9.01611 2.99945 9.53714 3 10.1656 3H13.8353C14.4637 3 14.9848 2.99945 15.4086 3.03374C15.8421 3.06883 16.2468 3.14494 16.628 3.33735L16.8421 3.4563C17.3308 3.75324 17.7289 4.17879 17.9907 4.68761L18.0579 4.83054C18.2031 5.16608 18.2661 5.51989 18.2971 5.89584C18.3317 6.31577 18.3311 6.83204 18.3311 7.45472C18.3311 7.90658 17.9611 8.27323 17.5051 8.27323C17.0491 8.27323 16.679 7.90658 16.679 7.45472Z" fill="currentColor"/>
<path d="M7.83524 14.0729C8.17735 13.8187 8.65362 13.8672 8.93724 14.1723L8.99099 14.2362L9.26605 14.6002L9.63248 15.076C9.92937 15.4522 10.0431 15.5571 10.1718 15.6211C10.344 15.7064 10.5585 15.7268 11.5417 15.7268H12.4592C13.3196 15.7268 13.5904 15.7115 13.7601 15.6504L13.8282 15.6211C14.0001 15.5357 14.1453 15.3789 14.7348 14.6002L15.0099 14.2362L15.0637 14.1723C15.3473 13.8672 15.8235 13.8187 16.1657 14.0729C16.5076 14.3271 16.5941 14.7937 16.378 15.1488L16.3305 15.2181L16.0555 15.5821C15.5957 16.1894 15.2192 16.7168 14.6775 17.0264L14.5664 17.085C13.9637 17.3836 13.2767 17.3638 12.4592 17.3638H11.5417C10.7752 17.3638 10.1234 17.3813 9.54827 17.1374L9.43448 17.085C8.98252 16.8611 8.6467 16.492 8.30023 16.0481L7.94544 15.5821L7.67038 15.2181L7.6229 15.1488C7.4068 14.7937 7.49328 14.3271 7.83524 14.0729Z" fill="currentColor"/>
</svg>
