<svg width="24" height="24" viewBox="0 0 24 24" fill="none" xmlns="http://www.w3.org/2000/svg">
<path d="M15.216 4.224L10.216 20.224C10.092 20.619 9.672 20.84 9.276 20.716C8.881 20.593 8.661 20.172 8.784 19.777L13.784 3.776C13.908 3.381 14.328 3.161 14.724 3.284C15.119 3.408 15.34 3.829 15.216 4.224ZM16.471 7.468C16.765 7.176 17.24 7.177 17.532 7.471L19.372 9.321L19.404 9.354C19.763 9.715 20.083 10.037 20.307 10.332C20.552 10.654 20.75 11.03 20.75 11.5C20.75 11.97 20.552 12.346 20.307 12.668C20.083 12.963 19.763 13.285 19.404 13.646L19.372 13.679L17.532 15.529C17.24 15.823 16.765 15.824 16.471 15.532C16.177 15.24 16.176 14.765 16.468 14.471L18.308 12.621C18.71 12.217 18.957 11.967 19.112 11.761C19.251 11.579 19.25 11.517 19.25 11.501V11.499C19.25 11.483 19.251 11.421 19.112 11.239C18.957 11.033 18.71 10.783 18.308 10.379L16.468 8.529C16.176 8.235 16.177 7.76 16.471 7.468ZM7.529 7.468C7.823 7.76 7.824 8.235 7.532 8.529L5.692 10.379C5.29 10.783 5.043 11.033 4.888 11.239C4.749 11.421 4.75 11.483 4.75 11.499V11.5V11.501C4.75 11.517 4.749 11.579 4.888 11.761C5.043 11.967 5.29 12.217 5.692 12.621L7.532 14.471C7.824 14.765 7.823 15.24 7.529 15.532C7.235 15.824 6.76 15.823 6.468 15.529L4.628 13.679L4.596 13.646C4.237 13.285 3.917 12.963 3.693 12.668C3.448 12.346 3.25 11.97 3.25 11.5C3.25 11.03 3.448 10.654 3.693 10.332C3.917 10.037 4.237 9.715 4.596 9.354L4.628 9.321L6.468 7.471C6.76 7.177 7.235 7.176 7.529 7.468Z" fill="#1E1E1E"/>
</svg>
