<svg width="24" height="24" viewBox="0 0 24 24" fill="none" xmlns="http://www.w3.org/2000/svg">
<path d="M20.0996 11.9997C20.0996 11.381 20.0284 10.7798 19.8974 10.2019C18.811 11.7185 17.4659 13.3255 15.9238 14.9138L15.4258 15.4197C13.6725 17.1731 11.8818 18.694 10.2021 19.8972C10.78 20.0282 11.3813 20.0993 12 20.0993C16.4735 20.0993 20.0996 16.4732 20.0996 11.9997ZM3.90036 11.9997C3.90036 14.0969 4.69575 16.0069 6.00388 17.446L6.27243 17.7273L6.33395 17.7956C6.62232 18.1491 6.6018 18.6702 6.27243 18.9997C5.94305 19.3291 5.42182 19.3502 5.06833 19.0622L4.99997 18.9997L4.67184 18.656C4.37166 18.3257 4.09466 17.9741 3.84079 17.6052C3.43704 18.3822 3.16114 19.0678 3.01657 19.6384C2.78305 20.5603 2.9559 20.8853 3.03513 20.9646L3.06931 20.9929C3.17182 21.0642 3.44305 21.1633 4.07419 21.0456C4.76107 20.9175 5.66929 20.5636 6.74899 19.9695C8.89781 18.7869 11.5437 16.7561 14.1523 14.1472L14.6347 13.6579C17.0114 11.2098 18.8641 8.75868 19.9716 6.74485C20.5652 5.66551 20.9193 4.75819 21.0468 4.072C21.1638 3.44252 21.0644 3.17149 20.9931 3.06907L20.9648 3.03489C20.8847 2.9549 20.5548 2.78172 19.622 3.02122C19.0546 3.16694 18.3751 3.44116 17.6064 3.84055C17.9751 4.09429 18.3261 4.3716 18.6562 4.67161L19 4.99973L19.0625 5.06809C19.3505 5.42158 19.3294 5.9428 19 6.27219C18.6704 6.60154 18.1493 6.6221 17.7959 6.33372L17.7275 6.27219L17.4463 6.00364C16.0071 4.69554 14.0972 3.90012 12 3.90012C7.52648 3.90012 3.90039 7.5262 3.90036 11.9997ZM21.9004 11.9997C21.9004 17.4673 17.4676 21.9001 12 21.9001C10.6815 21.9001 9.42221 21.6391 8.2695 21.1697C8.04831 21.3018 7.8313 21.4288 7.61716 21.5466C6.45506 22.1861 5.35619 22.6376 4.40427 22.8152C3.54408 22.9756 2.59439 22.9458 1.89938 22.363L1.76364 22.239C0.967524 21.4443 1.00633 20.2476 1.27243 19.197C1.53183 18.173 2.07758 16.9886 2.82907 15.7302C2.36014 14.5786 2.09958 13.3195 2.09958 11.9997C2.0996 6.53209 6.53237 2.09934 12 2.09934C13.3194 2.09934 14.5781 2.36013 15.7295 2.82883C16.9797 2.08214 18.1563 1.53956 19.1748 1.27805C20.2318 1.00666 21.4364 0.962147 22.2363 1.76047L22.3603 1.89622C22.9448 2.59042 22.9761 3.53995 22.8164 4.40012C22.6396 5.35177 22.1877 6.45019 21.5488 7.61204C21.4302 7.82769 21.303 8.04645 21.1699 8.26926C21.6393 9.422 21.9004 10.6812 21.9004 11.9997Z" fill="#1E1E1E"/>
</svg>
