<svg width="24" height="24" viewBox="0 0 24 24" fill="none" xmlns="http://www.w3.org/2000/svg">
<path d="M10.453 3.25H13.548C15.387 3.25 16.831 3.25 17.969 3.379C19.132 3.51 20.074 3.784 20.857 4.402C21.092 4.587 21.309 4.792 21.507 5.014C22.173 5.761 22.471 6.667 22.612 7.778C22.75 8.857 22.75 10.223 22.75 11.947V12.053C22.75 13.777 22.75 15.143 22.612 16.222C22.471 17.333 22.173 18.239 21.507 18.986C21.309 19.208 21.092 19.413 20.857 19.598C20.074 20.216 19.132 20.49 17.969 20.621C16.831 20.75 15.387 20.75 13.547 20.75H10.453C8.613 20.75 7.169 20.75 6.031 20.621C4.868 20.49 3.926 20.216 3.143 19.598C2.908 19.413 2.691 19.208 2.493 18.986C1.827 18.239 1.529 17.333 1.388 16.222C1.25 15.143 1.25 13.777 1.25 12.053V11.947C1.25 10.223 1.25 8.857 1.388 7.778C1.529 6.667 1.827 5.761 2.493 5.014C2.691 4.792 2.908 4.587 3.143 4.402C3.926 3.784 4.868 3.51 6.031 3.379C7.169 3.25 8.613 3.25 10.452 3.25H10.453ZM2.765 9.75C2.75 10.396 2.75 11.138 2.75 12C2.75 13.789 2.751 15.059 2.876 16.032C2.997 16.985 3.226 17.554 3.613 17.988C3.752 18.144 3.905 18.289 4.072 18.42C4.544 18.793 5.168 19.014 6.199 19.131C7.244 19.249 8.603 19.25 10.5 19.25H13.5C15.397 19.25 16.757 19.249 17.801 19.131C18.832 19.014 19.456 18.793 19.928 18.42C20.095 18.289 20.248 18.144 20.387 17.988C20.774 17.554 21.003 16.985 21.124 16.032C21.249 15.059 21.25 13.789 21.25 12C21.25 11.138 21.25 10.396 21.235 9.75H2.765ZM4.072 5.579C3.905 5.711 3.752 5.856 3.613 6.012C3.226 6.446 2.997 7.015 2.876 7.968C2.864 8.059 2.853 8.153 2.844 8.25H21.156C21.147 8.153 21.136 8.059 21.124 7.968C21.003 7.015 20.774 6.446 20.387 6.012C20.248 5.856 20.095 5.711 19.928 5.579C19.456 5.207 18.832 4.986 17.801 4.869C16.757 4.751 15.397 4.75 13.5 4.75H10.5C8.603 4.75 7.244 4.751 6.199 4.869C5.168 4.986 4.544 5.207 4.072 5.579ZM13.75 16C13.75 15.586 14.086 15.25 14.5 15.25H18C18.414 15.25 18.75 15.586 18.75 16C18.75 16.414 18.414 16.75 18 16.75H14.5C14.086 16.75 13.75 16.414 13.75 16ZM10 15.25H11.5C11.914 15.25 12.25 15.586 12.25 16C12.25 16.414 11.914 16.75 11.5 16.75H10C9.586 16.75 9.25 16.414 9.25 16C9.25 15.586 9.586 15.25 10 15.25Z" fill="#1E1E1E"/>
</svg>
