<svg width="24" height="24" viewBox="0 0 24 24" fill="none" xmlns="http://www.w3.org/2000/svg">
<path d="M11.501 2.25C12.031 2.25 12.532 2.25 13.004 2.252C13.418 2.254 13.752 2.592 13.75 3.006C13.748 3.42 13.41 3.754 12.996 3.752C12.528 3.75 12.031 3.75 11.5 3.75C9.24 3.75 7.62 3.752 6.388 3.917C5.178 4.08 4.455 4.389 3.922 4.922C3.389 5.455 3.08 6.178 2.917 7.388C2.752 8.62 2.75 10.24 2.75 12.5C2.75 14.76 2.752 16.38 2.917 17.612C3.08 18.822 3.389 19.545 3.922 20.078C4.455 20.611 5.178 20.92 6.388 21.083C7.62 21.248 9.24 21.25 11.5 21.25C13.76 21.25 15.38 21.248 16.612 21.083C17.822 20.92 18.545 20.611 19.078 20.078C19.611 19.545 19.92 18.822 20.083 17.612C20.248 16.38 20.25 14.76 20.25 12.5C20.25 11.969 20.25 11.472 20.248 11.004C20.246 10.59 20.58 10.252 20.994 10.25C21.408 10.248 21.746 10.582 21.748 10.996C21.75 11.468 21.75 11.969 21.75 12.499V12.557C21.75 14.748 21.75 16.469 21.569 17.812C21.384 19.189 20.997 20.281 20.139 21.139C19.281 21.997 18.189 22.384 16.812 22.569C15.469 22.75 13.748 22.75 11.557 22.75H11.443C9.252 22.75 7.531 22.75 6.188 22.569C4.811 22.384 3.719 21.997 2.861 21.139C2.003 20.281 1.616 19.189 1.431 17.812C1.25 16.469 1.25 14.748 1.25 12.557V12.443C1.25 10.252 1.25 8.531 1.431 7.188C1.616 5.811 2.003 4.719 2.861 3.861C3.719 3.003 4.811 2.616 6.188 2.431C7.531 2.25 9.252 2.25 11.443 2.25H11.501ZM11.491 6.75C13.287 6.75 14.745 8.204 14.745 10C14.745 11.796 13.287 13.25 11.491 13.25C9.696 13.25 8.238 11.796 8.238 10C8.238 8.204 9.696 6.75 11.491 6.75ZM18.5 1.25C18.814 1.25 19.094 1.445 19.203 1.74L19.461 2.437C19.823 3.415 19.939 3.681 20.129 3.871C20.319 4.061 20.585 4.177 21.563 4.539L22.26 4.797C22.555 4.906 22.75 5.186 22.75 5.5C22.75 5.814 22.555 6.094 22.26 6.203L21.563 6.461C20.585 6.823 20.319 6.939 20.129 7.129C19.939 7.319 19.823 7.585 19.461 8.563L19.203 9.26C19.094 9.555 18.814 9.75 18.5 9.75C18.186 9.75 17.906 9.555 17.797 9.26L17.539 8.563C17.177 7.585 17.061 7.319 16.871 7.129C16.681 6.939 16.415 6.823 15.437 6.461L14.74 6.203C14.445 6.094 14.25 5.814 14.25 5.5C14.25 5.186 14.445 4.906 14.74 4.797L15.437 4.539C16.415 4.177 16.681 4.061 16.871 3.871C17.061 3.681 17.177 3.415 17.539 2.437L17.797 1.74C17.906 1.445 18.186 1.25 18.5 1.25ZM7.542 18.018C7.256 18.317 6.782 18.329 6.482 18.042C6.182 17.756 6.172 17.282 6.458 16.982C9.071 14.245 13.884 14.097 16.552 16.992C16.832 17.296 16.813 17.771 16.508 18.052C16.204 18.332 15.729 18.313 15.448 18.008C13.402 15.788 9.593 15.87 7.542 18.018ZM9.738 10C9.738 10.965 10.522 11.75 11.491 11.75C12.461 11.75 13.245 10.965 13.245 10C13.245 9.035 12.461 8.25 11.491 8.25C10.522 8.25 9.738 9.035 9.738 10ZM18.5 4.083C18.345 4.412 18.17 4.693 17.932 4.932C17.693 5.17 17.412 5.345 17.083 5.5C17.412 5.655 17.693 5.83 17.932 6.068C18.17 6.307 18.345 6.588 18.5 6.917C18.655 6.588 18.83 6.307 19.068 6.068C19.307 5.83 19.588 5.655 19.917 5.5C19.588 5.345 19.307 5.17 19.068 4.932C18.83 4.693 18.655 4.412 18.5 4.083Z" fill="#1E1E1E"/>
</svg>
