<svg viewBox="0 0 24 24" fill="currentColor" xmlns="http://www.w3.org/2000/svg">
<path d="M9.25 17.5C9.25 16.7821 9.24929 16.3 9.21192 15.9326C9.18484 15.6666 9.14199 15.5079 9.0918 15.3994L9.03906 15.3057C8.9707 15.2033 8.88773 15.112 8.79297 15.0342L8.69434 14.9609C8.58591 14.8885 8.42211 14.8242 8.06738 14.7881C7.69998 14.7507 7.21785 14.75 6.5 14.75C5.78216 14.75 5.30002 14.7507 4.93262 14.7881C4.6666 14.8152 4.50789 14.858 4.39942 14.9082L4.30567 14.9609C4.20335 15.0293 4.11198 15.1123 4.03418 15.207L3.96094 15.3057C3.8885 15.4141 3.82419 15.5779 3.78809 15.9326C3.75071 16.3 3.75 16.7821 3.75 17.5C3.75 18.2179 3.75071 18.7 3.78809 19.0674C3.82419 19.4221 3.8885 19.5859 3.96094 19.6943L4.03418 19.793C4.08602 19.8561 4.14389 19.914 4.20703 19.9658L4.30567 20.0391L4.39942 20.0918C4.50789 20.142 4.6666 20.1848 4.93262 20.2119C5.30002 20.2493 5.78216 20.25 6.5 20.25C7.21785 20.25 7.69998 20.2493 8.06738 20.2119C8.42211 20.1758 8.58591 20.1115 8.69434 20.0391L8.79297 19.9658C8.88773 19.888 8.9707 19.7967 9.03906 19.6943L9.0918 19.6006C9.14199 19.4921 9.18484 19.3334 9.21192 19.0674C9.24929 18.7 9.25 18.2179 9.25 17.5ZM20.25 17.5C20.25 16.7821 20.2493 16.3 20.2119 15.9326C20.1848 15.6666 20.142 15.5079 20.0918 15.3994L20.0391 15.3057C19.9707 15.2033 19.8877 15.112 19.793 15.0342L19.6943 14.9609C19.586 14.8885 19.4221 14.8242 19.0674 14.7881C18.7 14.7507 18.2178 14.75 17.5 14.75C16.7822 14.75 16.3 14.7507 15.9326 14.7881C15.6666 14.8152 15.5079 14.858 15.3994 14.9082L15.3057 14.9609C15.2034 15.0293 15.112 15.1122 15.0342 15.207L14.9609 15.3057C14.8885 15.4141 14.8242 15.5779 14.7881 15.9326C14.7507 16.3 14.75 16.7821 14.75 17.5C14.75 18.2179 14.7507 18.7 14.7881 19.0674C14.8242 19.4221 14.8885 19.5859 14.9609 19.6943L15.0342 19.793C15.112 19.8878 15.2034 19.9707 15.3057 20.0391L15.3994 20.0918C15.5079 20.142 15.6666 20.1848 15.9326 20.2119C16.3 20.2493 16.7822 20.25 17.5 20.25C18.2178 20.25 18.7 20.2493 19.0674 20.2119C19.4221 20.1758 19.586 20.1115 19.6943 20.0391L19.793 19.9658C19.8877 19.888 19.9707 19.7967 20.0391 19.6943L20.0918 19.6006C20.142 19.4921 20.1848 19.3334 20.2119 19.0674C20.2493 18.7 20.25 18.2179 20.25 17.5ZM9.25 6.5C9.25 5.78216 9.24929 5.30002 9.21192 4.93262C9.18484 4.6666 9.14199 4.50789 9.0918 4.39942L9.03906 4.30567C8.9707 4.20335 8.88774 4.11199 8.79297 4.03418L8.69434 3.96094C8.5859 3.88849 8.42213 3.82419 8.06738 3.78809C7.69998 3.75071 7.21785 3.75 6.5 3.75C5.78216 3.75 5.30002 3.75071 4.93262 3.78809C4.6666 3.81516 4.50789 3.85801 4.39942 3.9082L4.30567 3.96094C4.20334 4.02932 4.11198 4.11227 4.03418 4.20703L3.96094 4.30567C3.88849 4.4141 3.82419 4.57789 3.78809 4.93262C3.75071 5.30002 3.75 5.78216 3.75 6.5C3.75 7.21784 3.75071 7.69998 3.78809 8.06738C3.82419 8.42212 3.88849 8.58591 3.96094 8.69434L4.03418 8.79297C4.11198 8.88773 4.20334 8.97069 4.30567 9.03906L4.39942 9.0918C4.50789 9.14199 4.6666 9.18484 4.93262 9.21192C5.30002 9.24929 5.78216 9.25 6.5 9.25C7.21785 9.25 7.69998 9.24929 8.06738 9.21192C8.42213 9.17581 8.5859 9.11152 8.69434 9.03906L8.79297 8.96582C8.88774 8.88801 8.9707 8.79665 9.03906 8.69434L9.0918 8.60059C9.14199 8.49211 9.18484 8.3334 9.21192 8.06738C9.24929 7.69998 9.25 7.21784 9.25 6.5ZM20.25 6.5C20.25 5.78216 20.2493 5.30002 20.2119 4.93262C20.1848 4.66659 20.142 4.50789 20.0918 4.39942L20.0391 4.30567C19.9707 4.20336 19.8878 4.11199 19.793 4.03418L19.6943 3.96094C19.5859 3.88851 19.4221 3.82419 19.0674 3.78809C18.7 3.75071 18.2178 3.75 17.5 3.75C16.7822 3.75 16.3 3.75071 15.9326 3.78809C15.6666 3.81516 15.5079 3.85801 15.3994 3.9082L15.3057 3.96094C15.2034 4.0293 15.112 4.11224 15.0342 4.20703L14.9609 4.30567C14.8885 4.41411 14.8242 4.57786 14.7881 4.93262C14.7507 5.30003 14.75 5.78216 14.75 6.5C14.75 7.21784 14.7507 7.69997 14.7881 8.06738C14.8242 8.42215 14.8885 8.58589 14.9609 8.69434L15.0342 8.79297C15.112 8.88776 15.2034 8.9707 15.3057 9.03906L15.3994 9.0918C15.5079 9.14199 15.6666 9.18484 15.9326 9.21192C16.3 9.24929 16.7822 9.25 17.5 9.25C18.2178 9.25 18.7 9.24929 19.0674 9.21192C19.4221 9.17581 19.5859 9.11149 19.6943 9.03906L19.793 8.96582C19.8878 8.88801 19.9707 8.79665 20.0391 8.69434L20.0918 8.60059C20.142 8.49212 20.1848 8.33341 20.2119 8.06738C20.2493 7.69998 20.25 7.21784 20.25 6.5ZM10.75 17.5C10.75 18.1865 10.751 18.7579 10.7041 19.2188C10.662 19.6329 10.5767 20.0212 10.3789 20.377L10.2861 20.5273C10.0856 20.8276 9.82751 21.0846 9.52735 21.2852L9.52832 21.2861C9.13232 21.5508 8.69224 21.6559 8.21875 21.7041C7.75785 21.751 7.1865 21.75 6.5 21.75C5.8135 21.75 5.24215 21.751 4.78125 21.7041C4.30777 21.6559 3.86768 21.5508 3.47168 21.2861V21.2852C3.24686 21.1348 3.04501 20.9534 2.87402 20.7451L2.71387 20.5273C2.44932 20.1314 2.34406 19.6922 2.2959 19.2188C2.24903 18.7579 2.25 18.1865 2.25 17.5C2.25 16.8135 2.24903 16.2421 2.2959 15.7813C2.34406 15.3078 2.44932 14.8686 2.71387 14.4727L2.87402 14.2549C3.04512 14.0464 3.24668 13.8643 3.47168 13.7139L3.62305 13.6211C3.97878 13.4233 4.36715 13.338 4.78125 13.2959C5.24215 13.249 5.8135 13.25 6.5 13.25C7.1865 13.25 7.75785 13.249 8.21875 13.2959C8.69224 13.3441 9.13232 13.4492 9.52832 13.7139H9.52735C9.82765 13.9145 10.0855 14.1723 10.2861 14.4727L10.3789 14.623C10.5767 14.9788 10.662 15.3671 10.7041 15.7813C10.751 16.2421 10.75 16.8135 10.75 17.5ZM21.75 17.5C21.75 18.1865 21.751 18.7579 21.7041 19.2188C21.6559 19.6922 21.5508 20.1323 21.2861 20.5283L21.2852 20.5273C21.0846 20.8274 20.8274 21.0846 20.5273 21.2852L20.5283 21.2861C20.1323 21.5508 19.6922 21.6559 19.2188 21.7041C18.7578 21.751 18.1865 21.75 17.5 21.75C16.8135 21.75 16.2422 21.751 15.7813 21.7041C15.3671 21.662 14.9788 21.5767 14.623 21.3789L14.4717 21.2861C14.1718 21.0857 13.9144 20.8282 13.7139 20.5283V20.5273C13.4493 20.1314 13.3441 19.6922 13.2959 19.2188C13.249 18.7579 13.25 18.1865 13.25 17.5C13.25 16.8135 13.249 16.2421 13.2959 15.7813C13.3441 15.3078 13.4493 14.8686 13.7139 14.4727V14.4717L13.874 14.2549C14.0451 14.0465 14.2467 13.8643 14.4717 13.7139L14.623 13.6211C14.9788 13.4233 15.3671 13.338 15.7813 13.2959C16.2422 13.249 16.8135 13.25 17.5 13.25C18.1865 13.25 18.7578 13.249 19.2188 13.2959C19.6922 13.3441 20.1323 13.4492 20.5283 13.7139H20.5273C20.8273 13.9143 21.0846 14.1718 21.2852 14.4717H21.2861C21.5508 14.8677 21.6559 15.3078 21.7041 15.7813C21.751 16.2421 21.75 16.8135 21.75 17.5ZM10.75 6.5C10.75 7.18651 10.751 7.75785 10.7041 8.21875C10.662 8.63287 10.5767 9.02122 10.3789 9.37695L10.2861 9.52735C10.0856 9.82746 9.82836 10.0855 9.52832 10.2861H9.52735C9.13139 10.5507 8.69217 10.6559 8.21875 10.7041C7.75785 10.751 7.18651 10.75 6.5 10.75C5.8135 10.75 5.24215 10.751 4.78125 10.7041C4.36714 10.662 3.97878 10.5767 3.62305 10.3789L3.47266 10.2861C3.24745 10.1357 3.04526 9.95373 2.87402 9.74512L2.71387 9.52735C2.44934 9.13139 2.34406 8.69217 2.2959 8.21875C2.24903 7.75785 2.25 7.1865 2.25 6.5C2.25 5.8135 2.24903 5.24215 2.2959 4.78125C2.34406 4.30784 2.44934 3.86862 2.71387 3.47266L2.87402 3.25488C3.04526 3.04628 3.24745 2.86435 3.47266 2.71387L3.62305 2.6211C3.97878 2.42331 4.36714 2.33803 4.78125 2.2959C5.24215 2.24903 5.8135 2.25 6.5 2.25C7.18651 2.25 7.75785 2.24903 8.21875 2.2959C8.69217 2.34406 9.13139 2.44934 9.52735 2.71387H9.52832L9.74512 2.87402C9.95372 3.04526 10.1357 3.24743 10.2861 3.47266L10.3789 3.62305C10.5767 3.97878 10.662 4.36714 10.7041 4.78125C10.751 5.24215 10.75 5.8135 10.75 6.5ZM21.75 6.5C21.75 7.1865 21.751 7.75785 21.7041 8.21875C21.6559 8.69223 21.5508 9.13232 21.2861 9.52832L21.2852 9.52735C21.1347 9.75244 20.9536 9.95483 20.7451 10.126L20.5273 10.2861C20.1314 10.5507 19.6922 10.6559 19.2188 10.7041C18.7579 10.751 18.1865 10.75 17.5 10.75C16.8135 10.75 16.2421 10.751 15.7813 10.7041C15.3078 10.6559 14.8686 10.5506 14.4727 10.2861H14.4717C14.1719 10.0856 13.9144 9.82815 13.7139 9.52832V9.52735C13.4494 9.13137 13.3441 8.69218 13.2959 8.21875C13.249 7.75786 13.25 7.18651 13.25 6.5C13.25 5.81349 13.249 5.24214 13.2959 4.78125C13.3441 4.30782 13.4494 3.86863 13.7139 3.47266V3.47168L13.874 3.25488C14.0451 3.04646 14.2467 2.8643 14.4717 2.71387H14.4727L14.623 2.6211C14.9788 2.42333 15.3671 2.33803 15.7813 2.2959C16.2421 2.24904 16.8135 2.25 17.5 2.25C18.1865 2.25 18.7579 2.24903 19.2188 2.2959C19.6922 2.34406 20.1314 2.44933 20.5273 2.71387L20.7451 2.87402C20.9534 3.045 21.1348 3.24686 21.2852 3.47168H21.2861C21.5508 3.86768 21.6559 4.30777 21.7041 4.78125C21.751 5.24215 21.75 5.8135 21.75 6.5Z" fill="currentColor"/>
</svg>
