<svg width="24" height="24" viewBox="0 0 24 24" fill="none" xmlns="http://www.w3.org/2000/svg">
<path d="M1.25 13.018C1.25 10.232 3.226 7.907 5.853 7.374C6.387 4.46 8.934 2.25 12 2.25C15.387 2.25 18.143 4.948 18.247 8.314C20.794 8.677 22.75 10.87 22.75 13.519C22.75 16.225 20.709 18.455 18.083 18.745C17.671 18.791 17.3 18.494 17.255 18.083C17.209 17.671 17.506 17.3 17.917 17.255C19.791 17.047 21.25 15.454 21.25 13.519C21.25 11.652 19.892 10.105 18.115 9.811C17.903 10.815 17.45 11.731 16.822 12.494C16.558 12.813 16.085 12.859 15.766 12.595C15.446 12.332 15.401 11.859 15.664 11.539C16.257 10.82 16.642 9.925 16.731 8.944C16.743 8.801 16.75 8.656 16.75 8.51C16.75 5.88 14.622 3.75 12 3.75C9.804 3.75 7.955 5.244 7.412 7.274C8.547 7.354 9.593 7.766 10.451 8.412C10.783 8.661 10.849 9.131 10.6 9.462C10.351 9.793 9.88 9.859 9.549 9.61C8.839 9.076 7.957 8.759 7 8.759C6.862 8.759 6.726 8.766 6.592 8.779C4.437 8.984 2.75 10.803 2.75 13.018C2.75 15.079 4.211 16.798 6.149 17.192C6.555 17.275 6.818 17.671 6.735 18.077C6.652 18.483 6.256 18.745 5.851 18.662C3.225 18.128 1.25 15.804 1.25 13.018ZM12 21.75C11.742 21.75 11.519 21.661 11.358 21.575C11.19 21.485 11.035 21.369 10.897 21.251C10.621 21.017 10.346 20.715 10.099 20.424C9.87 20.153 9.647 19.869 9.457 19.627L9.41 19.567C9.197 19.296 9.051 19.114 8.962 19.023C8.673 18.726 8.68 18.251 8.977 17.962C9.274 17.674 9.749 17.68 10.038 17.977C10.195 18.139 10.397 18.396 10.589 18.641L10.634 18.698C10.827 18.943 11.033 19.206 11.244 19.455L11.25 19.462V13C11.25 12.586 11.586 12.25 12 12.25C12.414 12.25 12.75 12.586 12.75 13V19.462L12.756 19.455C12.967 19.206 13.173 18.943 13.366 18.698L13.411 18.641C13.603 18.396 13.805 18.139 13.962 17.977C14.251 17.68 14.726 17.674 15.023 17.962C15.32 18.251 15.326 18.726 15.038 19.023C14.949 19.114 14.804 19.296 14.59 19.567L14.543 19.627C14.353 19.869 14.13 20.153 13.901 20.424C13.654 20.715 13.379 21.017 13.103 21.251C12.965 21.369 12.81 21.485 12.642 21.575C12.481 21.661 12.258 21.75 12 21.75Z" fill="#1E1E1E"/>
</svg>
