<svg viewBox="0 0 24 24" fill="currentColor" xmlns="http://www.w3.org/2000/svg">
<path d="M7.745 2.41301C7.793 2.82401 7.499 3.19701 7.088 3.24501C5.757 3.40101 4.985 3.71601 4.424 4.28201C3.89 4.82001 3.58 5.55101 3.417 6.77201C3.252 8.01501 3.25 9.64801 3.25 11.926C3.25 12.21 3.25 12.485 3.25 12.75H7.426C8.706 12.75 9.561 13.79 9.972 14.612C10.262 15.194 10.825 15.75 12 15.75C13.175 15.75 13.738 15.194 14.028 14.612C14.439 13.79 15.294 12.75 16.574 12.75H20.75C20.75 12.485 20.75 12.21 20.75 11.926C20.75 9.64801 20.748 8.01501 20.583 6.77201C20.42 5.55101 20.111 4.82001 19.576 4.28201C19.015 3.71601 18.243 3.40101 16.913 3.24501C16.501 3.19701 16.207 2.82401 16.255 2.41301C16.303 2.00101 16.676 1.70701 17.087 1.75501C18.572 1.93001 19.737 2.31401 20.641 3.22501C21.498 4.08901 21.885 5.18801 22.069 6.57401C22.25 7.92701 22.25 9.66101 22.25 11.869V11.983C22.25 14.191 22.25 15.925 22.069 17.278C21.885 18.663 21.498 19.762 20.641 20.626C19.783 21.491 18.691 21.881 17.313 22.068C15.969 22.25 14.248 22.25 12.058 22.25H11.942C9.752 22.25 8.031 22.25 6.687 22.068C5.31 21.881 4.217 21.491 3.359 20.626C2.502 19.762 2.115 18.663 1.93 17.278C1.75 15.925 1.75 14.191 1.75 11.983V11.869C1.75 9.66001 1.75 7.92701 1.93 6.57401C2.115 5.18801 2.502 4.08901 3.359 3.22501C4.263 2.31401 5.428 1.93001 6.912 1.75501C7.324 1.70701 7.697 2.00101 7.745 2.41301ZM20.74 14.25H16.574C16.17 14.25 15.702 14.617 15.37 15.282C14.854 16.316 13.803 17.25 12 17.25C10.197 17.25 9.146 16.316 8.629 15.282C8.298 14.617 7.83 14.25 7.426 14.25H3.26C3.275 15.385 3.314 16.308 3.417 17.079C3.58 18.301 3.89 19.031 4.424 19.57C4.957 20.107 5.679 20.418 6.889 20.582C8.12 20.749 9.739 20.75 12 20.75C14.26 20.75 15.88 20.749 17.111 20.582C18.321 20.418 19.043 20.107 19.576 19.57C20.111 19.031 20.42 18.301 20.583 17.079C20.686 16.308 20.725 15.385 20.74 14.25ZM10.589 8.14101L10.634 8.19801C10.827 8.44301 11.033 8.70601 11.244 8.95501L11.25 8.96201V2.50001C11.25 2.08601 11.586 1.75001 12 1.75001C12.414 1.75001 12.75 2.08601 12.75 2.50001V8.96201L12.756 8.95501C12.967 8.70601 13.173 8.44301 13.366 8.19801L13.411 8.14101C13.603 7.89601 13.805 7.63901 13.962 7.47701C14.251 7.18001 14.726 7.17401 15.023 7.46201C15.32 7.75101 15.326 8.22601 15.038 8.52301C14.949 8.61401 14.804 8.79601 14.59 9.06701L14.543 9.12701C14.353 9.36901 14.13 9.65301 13.901 9.92501C13.654 10.215 13.379 10.517 13.103 10.752C12.965 10.869 12.81 10.985 12.642 11.075C12.481 11.161 12.258 11.25 12 11.25C11.742 11.25 11.519 11.161 11.358 11.075C11.19 10.985 11.035 10.869 10.897 10.752C10.621 10.517 10.346 10.215 10.099 9.92501C9.87 9.65301 9.647 9.36901 9.457 9.12701L9.41 9.06701C9.197 8.79601 9.051 8.61401 8.962 8.52301C8.673 8.22601 8.68 7.75101 8.977 7.46201C9.274 7.17401 9.749 7.18001 10.038 7.47701C10.195 7.63901 10.397 7.89601 10.589 8.14101Z" fill="currentColor"/>
</svg>
