<svg width="24" height="24" viewBox="0 0 24 24" fill="none" xmlns="http://www.w3.org/2000/svg">
<path d="M8.653 1.25C9.645 1.25 10.465 1.25 11.114 1.337C11.796 1.429 12.401 1.629 12.886 2.114C13.371 2.599 13.571 3.204 13.663 3.886C13.748 4.522 13.75 5.322 13.75 6.286C16.793 6.602 19.239 8.926 19.74 11.911L19.693 11.918C21.512 12.884 22.75 14.797 22.75 17C22.75 20.176 20.176 22.75 17 22.75C14.797 22.75 12.884 21.512 11.918 19.693L11.911 19.74C8.926 19.239 6.602 16.793 6.286 13.75C5.322 13.75 4.522 13.748 3.886 13.663C3.204 13.571 2.599 13.371 2.114 12.886C1.629 12.401 1.429 11.796 1.337 11.114C1.25 10.465 1.25 9.645 1.25 8.653V6.347C1.25 5.355 1.25 4.535 1.337 3.886C1.429 3.204 1.629 2.599 2.114 2.114C2.599 1.629 3.204 1.429 3.886 1.337C4.535 1.25 5.355 1.25 6.347 1.25H8.653ZM6.296 12.25C6.658 9.132 9.132 6.658 12.25 6.296C12.25 5.294 12.246 4.606 12.176 4.086C12.107 3.57 11.985 3.334 11.825 3.175C11.666 3.015 11.43 2.893 10.914 2.824C10.377 2.752 9.658 2.75 8.6 2.75H6.4C5.342 2.75 4.623 2.752 4.086 2.824C3.57 2.893 3.334 3.015 3.175 3.175C3.015 3.334 2.893 3.57 2.824 4.086C2.752 4.623 2.75 5.342 2.75 6.4V8.6C2.75 9.658 2.752 10.377 2.824 10.914C2.893 11.43 3.015 11.666 3.175 11.825C3.334 11.985 3.57 12.107 4.086 12.176C4.606 12.246 5.294 12.25 6.296 12.25ZM17 12.75C14.653 12.75 12.75 14.653 12.75 17C12.75 19.347 14.653 21.25 17 21.25C19.347 21.25 21.25 19.347 21.25 17C21.25 14.653 19.347 12.75 17 12.75ZM11.347 18.056C11.283 17.714 11.25 17.361 11.25 17C11.25 13.824 13.824 11.25 17 11.25C17.361 11.25 17.714 11.283 18.056 11.347C17.35 9.256 15.371 7.75 13.042 7.75C10.119 7.75 7.75 10.119 7.75 13.042C7.75 15.371 9.256 17.35 11.347 18.056Z" fill="#1E1E1E"/>
</svg>
