<svg viewBox="0 0 24 24" fill="currentColor" xmlns="http://www.w3.org/2000/svg">
<path d="M3.09961 13.9999V9.45595C3.09961 7.85521 3.09853 6.57631 3.2168 5.56337C3.33732 4.53112 3.59273 3.66005 4.18555 2.9247L4.35547 2.72451C4.5303 2.52997 4.72097 2.3498 4.92481 2.18544L5.06348 2.07802C5.76898 1.56087 6.59554 1.32971 7.56348 1.21669C8.57641 1.09843 9.85533 1.09951 11.4561 1.09951C12.0988 1.0995 12.6345 1.08832 13.1367 1.26552L13.2812 1.32021C13.3291 1.34002 13.3762 1.36139 13.4229 1.38369L13.5986 1.47744C13.9975 1.71173 14.3311 2.05753 14.7285 2.45498L19.4648 7.19228L19.8428 7.57216C20.2029 7.94167 20.5021 8.29009 20.6797 8.71865L20.7568 8.93544C20.9123 9.44755 20.9004 10.006 20.9004 10.6571V13.9999C20.9004 15.86 20.9015 17.3455 20.7451 18.5087C20.5952 19.6234 20.2879 20.5602 19.6064 21.3163L19.4648 21.4647C18.684 22.2456 17.6978 22.5851 16.5088 22.745C15.3456 22.9014 13.8601 22.9003 12 22.9003C10.1399 22.9003 8.65435 22.9014 7.49121 22.745C6.37645 22.5951 5.43969 22.2877 4.68359 21.6063L4.53516 21.4647C3.75426 20.6839 3.41475 19.6977 3.25488 18.5087C3.09852 17.3455 3.09961 15.86 3.09961 13.9999ZM16 16.0995C16.4971 16.0995 16.9004 16.5028 16.9004 16.9999C16.9004 17.497 16.4971 17.9003 16 17.9003H8C7.50294 17.9003 7.09961 17.497 7.09961 16.9999C7.09961 16.5028 7.50294 16.0995 8 16.0995H16ZM12 12.0995C12.4971 12.0995 12.9004 12.5028 12.9004 12.9999C12.9004 13.497 12.4971 13.9003 12 13.9003H8C7.50294 13.9003 7.09961 13.497 7.09961 12.9999C7.09961 12.5028 7.50294 12.0995 8 12.0995H12ZM13.9043 4.17763C13.9111 5.00997 13.932 5.65127 14.002 6.17177C14.0984 6.8889 14.2704 7.241 14.5146 7.48525C14.7589 7.7295 15.111 7.90153 15.8281 7.99794C16.3486 8.06792 16.9899 8.08779 17.8223 8.09462L13.9043 4.17763ZM4.90039 13.9999C4.90039 15.9109 4.90158 17.2541 5.03809 18.2694C5.17113 19.2587 5.41699 19.8017 5.80762 20.1923L5.96191 20.3319C6.34102 20.6425 6.86485 20.8454 7.73047 20.9618C8.74581 21.0983 10.0889 21.0995 12 21.0995C13.911 21.0995 15.2542 21.0983 16.2695 20.9618C17.2588 20.8288 17.8018 20.5829 18.1924 20.1923L18.332 20.038C18.6426 19.6589 18.8455 19.1351 18.9619 18.2694C19.0984 17.2541 19.0996 15.9109 19.0996 13.9999V10.6571C19.0996 10.3147 19.0956 10.0748 19.0889 9.90029H19C17.6112 9.90029 16.4787 9.9019 15.5879 9.78212C14.6713 9.65885 13.8765 9.39205 13.2422 8.75771C12.6078 8.12336 12.341 7.3286 12.2178 6.41201C12.098 5.52115 12.0996 4.38867 12.0996 2.9999V2.90712C11.9495 2.90231 11.7452 2.90029 11.4561 2.90029C9.81197 2.90029 8.65674 2.90156 7.77246 3.00478C7.01589 3.09312 6.54632 3.24773 6.19727 3.48134L6.05469 3.58681C5.92575 3.69077 5.80493 3.80458 5.69434 3.92763L5.58691 4.05458C5.29384 4.41816 5.10585 4.90758 5.00488 5.77236C4.90166 6.65664 4.90039 7.81184 4.90039 9.45595V13.9999Z" fill="currentColor"/>
</svg>
