<svg width="24" height="24" viewBox="0 0 24 24" fill="none" xmlns="http://www.w3.org/2000/svg">
<path d="M15.5995 2.20505C15.9525 2.09912 16.2843 2.07451 16.6337 2.12692C16.9815 2.17909 17.3292 2.30796 17.6415 2.42087L17.9814 2.55466C19.658 3.26694 20.955 4.63241 21.579 6.35837L21.749 6.8486C21.802 7.0181 21.8469 7.19218 21.873 7.36618C21.9254 7.71562 21.9008 8.04742 21.7949 8.40036L21.745 8.5527C21.4908 9.26024 20.9824 9.65765 20.4179 9.99411L19.8427 10.3193L18.5058 11.0654C17.9756 11.3611 17.6344 11.5522 17.3935 11.7187C17.277 11.7993 17.2071 11.859 17.165 11.9013L17.1025 11.9804C17.1007 11.9867 17.0577 12.1079 17.0693 12.541C17.0807 12.9705 17.1363 13.5556 17.2177 14.3994L17.2382 14.6591C17.3146 15.8693 17.1037 17.071 16.4628 18.205L16.3183 18.4472C16.1834 18.663 16.0232 18.9249 15.8163 19.1455C15.6391 19.3343 15.4419 19.4806 15.2099 19.6006L14.9658 19.7129C14.6164 19.8543 14.2937 19.913 13.9452 19.8974C13.7923 19.8906 13.6386 19.8695 13.4892 19.8418L13.0595 19.749C11.2748 19.3438 9.56586 18.3947 8.13079 17.1416L3.63665 21.6367C3.28518 21.9882 2.71469 21.9882 2.36321 21.6367C2.01174 21.2852 2.01174 20.7147 2.36321 20.3632L6.85735 15.8681C5.69536 14.5372 4.79511 12.9711 4.34759 11.3271L4.25091 10.9404C4.18923 10.6688 4.11608 10.3603 4.10247 10.0547C4.08697 9.70622 4.1455 9.38341 4.28704 9.03415L4.39935 8.79001C4.51946 8.5579 4.66633 8.36084 4.8554 8.18356C5.07614 7.9766 5.33785 7.81642 5.55364 7.68161L5.79192 7.54001C6.99074 6.86167 8.27302 6.65554 9.56146 6.7695L10.6708 6.86325C10.9834 6.88706 11.2432 6.9026 11.4628 6.9072C11.8949 6.91621 12.0238 6.87517 12.0351 6.87204L12.1132 6.80954C12.1554 6.76731 12.215 6.69731 12.2958 6.58005C12.4627 6.33803 12.6547 5.99513 12.9511 5.46384L13.6806 4.1572L14.0058 3.582C14.3423 3.01746 14.7396 2.50905 15.4472 2.25485L15.5995 2.20505ZM16.3671 3.90622C16.3058 3.89702 16.2473 3.89436 16.1572 3.91696L16.0556 3.94919C15.9563 3.98487 15.8865 4.02948 15.7822 4.1611C15.7146 4.24637 15.6454 4.35104 15.5615 4.49118L15.2519 5.03415L14.5234 6.34079C14.2443 6.84098 14.0049 7.27267 13.7783 7.60153C13.5757 7.89539 13.3367 8.17851 13.0117 8.38473L12.8671 8.46872C12.4334 8.69473 11.9065 8.71702 11.4257 8.707C11.1682 8.70163 10.8711 8.68375 10.5341 8.65817L9.40228 8.56247C8.42294 8.47592 7.51454 8.63238 6.67474 9.10837L6.50774 9.20798C6.24741 9.37061 6.1519 9.43415 6.08587 9.49606C6.05979 9.52051 6.03147 9.55121 5.99505 9.62302L5.95599 9.70993C5.90282 9.84105 5.89731 9.90682 5.90032 9.97458C5.90525 10.0853 5.93299 10.2213 6.00579 10.542L6.08489 10.8564C6.51312 12.4273 7.46888 13.9787 8.74505 15.2549C10.1063 16.6161 11.7808 17.6133 13.4579 17.9941L13.8202 18.0722C13.9082 18.0889 13.9699 18.0971 14.0253 18.0996C14.0932 18.1026 14.1592 18.0978 14.29 18.0449L14.3769 18.0058C14.449 17.9694 14.4793 17.9402 14.5038 17.914C14.5659 17.8479 14.6291 17.7524 14.7919 17.4922L14.8925 17.3242C15.3086 16.5897 15.4761 15.8062 15.4511 14.9648L15.4257 14.5722C15.347 13.7561 15.283 13.0962 15.2695 12.5888C15.2568 12.112 15.2784 11.5905 15.5029 11.1552L15.5859 11.0097C15.7915 10.6825 16.0744 10.442 16.3691 10.2382C16.6981 10.0108 17.1297 9.77149 17.6288 9.49313L18.9658 8.74802L19.5087 8.43845C19.6489 8.35452 19.7535 8.28531 19.8388 8.21774C19.9704 8.11345 20.015 8.0436 20.0507 7.9443L20.0829 7.84274C20.1055 7.75264 20.1029 7.69411 20.0937 7.63278C20.0837 7.56629 20.0648 7.49252 20.0322 7.38962L19.8857 6.97067C19.4321 5.71615 18.4944 4.72802 17.2763 4.21091L17.0292 4.11423C16.6623 3.98157 16.5002 3.92623 16.3671 3.90622Z" fill="#1E1E1E"/>
</svg>
