<svg width="24" height="24" viewBox="0 0 24 24" fill="none" xmlns="http://www.w3.org/2000/svg">
<path d="M12.75 16V18.25H20C20.414 18.25 20.75 18.586 20.75 19C20.75 19.414 20.414 19.75 20 19.75H12.75V22C12.75 22.414 12.414 22.75 12 22.75C11.586 22.75 11.25 22.414 11.25 22V16C11.25 15.586 11.586 15.25 12 15.25C12.414 15.25 12.75 15.586 12.75 16ZM10 1.25C10.414 1.25 10.75 1.586 10.75 2V8C10.75 8.414 10.414 8.75 10 8.75C9.586 8.75 9.25 8.414 9.25 8V5.75H4C3.586 5.75 3.25 5.414 3.25 5C3.25 4.586 3.586 4.25 4 4.25H9.25V2C9.25 1.586 9.586 1.25 10 1.25ZM16.75 9V11.25H20C20.414 11.25 20.75 11.586 20.75 12C20.75 12.415 20.414 12.75 20 12.75H16.75V15C16.75 15.414 16.414 15.75 16 15.75C15.586 15.75 15.25 15.414 15.25 15V9C15.25 8.586 15.586 8.25 16 8.25C16.414 8.25 16.75 8.586 16.75 9ZM4 12.75C3.586 12.75 3.25 12.415 3.25 12C3.25 11.586 3.586 11.25 4 11.25H13C13.414 11.25 13.75 11.586 13.75 12C13.75 12.414 13.414 12.75 13 12.75H4ZM12.25 5C12.25 4.586 12.586 4.25 13 4.25H20C20.414 4.25 20.75 4.586 20.75 5C20.75 5.414 20.414 5.75 20 5.75H13C12.586 5.75 12.25 5.414 12.25 5ZM4 19.75C3.586 19.75 3.25 19.414 3.25 19C3.25 18.586 3.586 18.25 4 18.25H9C9.414 18.25 9.75 18.586 9.75 19C9.75 19.414 9.414 19.75 9 19.75H4Z" fill="#1E1E1E"/>
</svg>
