<svg viewBox="0 0 24 24" fill="currentColor" xmlns="http://www.w3.org/2000/svg">
<path d="M20.5996 12C20.5996 9.73562 20.5985 8.12774 20.4346 6.9082C20.2941 5.86354 20.0456 5.20758 19.6504 4.72461L19.4727 4.52734C18.9721 4.02683 18.2855 3.72591 17.0918 3.56543C15.8722 3.40151 14.2644 3.40039 12 3.40039C9.73562 3.40039 8.12774 3.40151 6.9082 3.56543C5.86355 3.70588 5.20758 3.95442 4.72461 4.34961L4.52734 4.52734C4.02682 5.02788 3.72592 5.71451 3.56543 6.9082C3.40151 8.12774 3.40039 9.73562 3.40039 12C3.40039 14.2644 3.40151 15.8722 3.56543 17.0918C3.72591 18.2855 4.02683 18.9721 4.52734 19.4727L4.72461 19.6504C5.20758 20.0456 5.86354 20.2941 6.9082 20.4346C8.12774 20.5985 9.73562 20.5996 12 20.5996C14.2644 20.5996 15.8722 20.5985 17.0918 20.4346C18.2855 20.2741 18.9721 19.9732 19.4727 19.4727L19.6504 19.2754C20.0456 18.7924 20.2941 18.1364 20.4346 17.0918C20.5985 15.8722 20.5996 14.2644 20.5996 12ZM6.09961 18V16C6.09961 15.5029 6.50294 15.0996 7 15.0996C7.49706 15.0996 7.90039 15.5029 7.90039 16V18C7.90039 18.4971 7.49706 18.9004 7 18.9004C6.50294 18.9004 6.09961 18.4971 6.09961 18ZM11.0996 18V15C11.0996 14.5029 11.5029 14.0996 12 14.0996C12.4971 14.0996 12.9004 14.5029 12.9004 15V18C12.9004 18.4971 12.4971 18.9004 12 18.9004C11.5029 18.9004 11.0996 18.4971 11.0996 18ZM16.0996 18V13C16.0996 12.5029 16.5029 12.0996 17 12.0996C17.4971 12.0996 17.9004 12.5029 17.9004 13V18C17.9004 18.4971 17.4971 18.9004 17 18.9004C16.5029 18.9004 16.0996 18.4971 16.0996 18ZM15.7539 5.09375C16.1204 5.04707 16.4571 5.16592 16.6836 5.29199C16.8774 5.39991 17.1341 5.5934 17.293 5.89453L17.3545 6.03027L17.376 6.0918L17.8721 7.73047L17.8936 7.82031C17.9808 8.26786 17.7172 8.7174 17.2715 8.85254C16.8254 8.98755 16.3552 8.75998 16.1797 8.33887L16.1494 8.25195L16.0781 8.01855C13.1783 11.8997 8.70842 12.4027 6.41406 12.3945L5.96191 12.3857L5.87012 12.3779C5.41823 12.3166 5.07726 11.9217 5.09277 11.4561C5.10947 10.9594 5.52577 10.5704 6.02246 10.5869L6.44043 10.5947C8.49285 10.6002 12.1108 10.1464 14.502 7.11719L14.1357 7.17676L14.0439 7.18652C13.5885 7.21326 13.1777 6.89167 13.1035 6.43164C13.0245 5.9409 13.3589 5.4784 13.8496 5.39941L15.7246 5.09766L15.7539 5.09375ZM22.4004 12C22.4004 14.2137 22.4016 15.9646 22.2178 17.332C22.0422 18.6382 21.6842 19.7121 20.9062 20.5752L20.7451 20.7451C19.8544 21.6358 18.7253 22.0305 17.332 22.2178C15.9646 22.4016 14.2137 22.4004 12 22.4004C9.78627 22.4004 8.03537 22.4016 6.66797 22.2178C5.3618 22.0422 4.28787 21.6842 3.4248 20.9062L3.25488 20.7451C2.36421 19.8544 1.96956 18.7253 1.78223 17.332C1.59839 15.9646 1.59961 14.2137 1.59961 12C1.59961 9.78627 1.59838 8.03537 1.78223 6.66797C1.96956 5.27473 2.3642 4.14558 3.25488 3.25488L3.4248 3.09375C4.28787 2.31578 5.3618 1.95785 6.66797 1.78223C8.03537 1.59838 9.78627 1.59961 12 1.59961C14.2137 1.59961 15.9646 1.59839 17.332 1.78223C18.7253 1.96956 19.8544 2.36421 20.7451 3.25488L20.9062 3.4248C21.6842 4.28787 22.0422 5.3618 22.2178 6.66797C22.4016 8.03537 22.4004 9.78627 22.4004 12Z" fill="currentColor"/>
</svg>
