<svg width="24" height="24" viewBox="0 0 24 24" fill="none" xmlns="http://www.w3.org/2000/svg">
<path d="M6.75 8.459V6.5C6.75 3.601 9.101 1.25 12 1.25C14.899 1.25 17.25 3.601 17.25 6.5V8.459C18.941 8.863 20.239 10.298 20.476 12.055C20.624 13.156 20.75 14.312 20.75 15.5C20.75 16.688 20.624 17.844 20.476 18.945C20.204 20.962 18.533 22.556 16.475 22.65C15.046 22.716 13.596 22.75 12 22.75C10.404 22.75 8.954 22.716 7.525 22.65C5.467 22.556 3.796 20.962 3.525 18.945C3.376 17.844 3.25 16.688 3.25 15.5C3.25 14.312 3.376 13.156 3.525 12.055C3.761 10.298 5.059 8.863 6.75 8.459ZM7.594 9.848C6.285 9.908 5.189 10.932 5.011 12.255C4.866 13.335 4.75 14.413 4.75 15.5C4.75 16.587 4.866 17.665 5.011 18.745C5.189 20.068 6.285 21.091 7.594 21.152C8.999 21.216 10.426 21.25 12 21.25C13.574 21.25 15.001 21.216 16.406 21.152C17.715 21.091 18.811 20.068 18.989 18.745C19.134 17.665 19.25 16.587 19.25 15.5C19.25 14.413 19.134 13.335 18.989 12.255C18.811 10.932 17.715 9.908 16.406 9.848C15.001 9.784 13.574 9.75 12 9.75C10.426 9.75 8.999 9.784 7.594 9.848ZM8.25 6.5V8.319C9.447 8.274 10.673 8.25 12 8.25C13.327 8.25 14.553 8.274 15.75 8.319V6.5C15.75 4.429 14.071 2.75 12 2.75C9.929 2.75 8.25 4.429 8.25 6.5ZM12 12.75C10.205 12.75 8.75 14.205 8.75 16V17.5C8.75 17.914 8.414 18.25 8 18.25C7.586 18.25 7.25 17.914 7.25 17.5V16C7.25 13.377 9.377 11.25 12 11.25C14.623 11.25 16.75 13.377 16.75 16V17.5C16.75 17.914 16.414 18.25 16 18.25C15.586 18.25 15.25 17.914 15.25 17.5V16C15.25 14.205 13.795 12.75 12 12.75ZM11.25 16V19C11.25 19.414 10.914 19.75 10.5 19.75C10.086 19.75 9.75 19.414 9.75 19V16C9.75 14.757 10.757 13.75 12 13.75C13.243 13.75 14.25 14.757 14.25 16C14.25 16.414 13.914 16.75 13.5 16.75C13.086 16.75 12.75 16.414 12.75 16C12.75 15.586 12.414 15.25 12 15.25C11.586 15.25 11.25 15.586 11.25 16ZM14.25 18V19C14.25 19.414 13.914 19.75 13.5 19.75C13.086 19.75 12.75 19.414 12.75 19V18C12.75 17.586 13.086 17.25 13.5 17.25C13.914 17.25 14.25 17.586 14.25 18Z" fill="#1E1E1E"/>
</svg>
