<svg width="24" height="24" viewBox="0 0 24 24" fill="none" xmlns="http://www.w3.org/2000/svg">
<path d="M21.2002 12C21.2002 10.1073 21.1986 8.75176 21.085 7.70313C20.987 6.79893 20.8111 6.19589 20.5264 5.72559L20.3975 5.53125C20.2032 5.26389 19.9783 5.02079 19.7275 4.80664L19.4688 4.60254C18.9708 4.24073 18.3303 4.02704 17.2969 3.91504C16.2482 3.80143 14.8927 3.79981 13 3.79981H11C10.758 3.79981 10.5247 3.80051 10.2998 3.80078V20.1982C10.5247 20.1985 10.758 20.2002 11 20.2002H13C14.8927 20.2002 16.2482 20.1986 17.2969 20.085C18.3303 19.973 18.9708 19.7593 19.4688 19.3975L19.7275 19.1934C19.9783 18.9792 20.2032 18.7361 20.3975 18.4688L20.5264 18.2744C20.8111 17.8041 20.987 17.2011 21.085 16.2969C21.1986 15.2482 21.2002 13.8927 21.2002 12ZM16.4775 9.39356C16.8122 9.10524 17.318 9.14293 17.6064 9.47754C17.8948 9.8122 17.8571 10.318 17.5225 10.6064L16.2959 11.6631C16.1647 11.7761 16.0604 11.8668 15.9727 11.9463C15.9519 11.9651 15.9343 11.9838 15.917 12C15.9343 12.0162 15.9519 12.0349 15.9727 12.0537C16.0604 12.1332 16.1647 12.2239 16.2959 12.3369L17.5225 13.3936L17.582 13.4502C17.8608 13.7446 17.8767 14.2087 17.6064 14.5225C17.3359 14.8363 16.8743 14.8888 16.542 14.6562L16.4775 14.6064L15.251 13.5488C15.011 13.342 14.7681 13.1343 14.5947 12.9385C14.4338 12.7567 14.2518 12.498 14.209 12.1533L14.2002 12L14.209 11.8467C14.2518 11.502 14.4338 11.2433 14.5947 11.0615C14.7681 10.8657 15.011 10.658 15.251 10.4512L16.4775 9.39356ZM6.5 10.2002L6.58203 10.2041C6.98533 10.2452 7.29981 10.5859 7.29981 11C7.29981 11.4141 6.98533 11.7548 6.58203 11.7959L6.5 11.7998H5C4.55817 11.7998 4.2002 11.4418 4.2002 11C4.2002 10.5582 4.55817 10.2002 5 10.2002H6.5ZM6.5 6.2002L6.58203 6.2041C6.98533 6.24518 7.29981 6.58587 7.29981 7C7.29981 7.41413 6.98533 7.75482 6.58203 7.7959L6.5 7.79981H5C4.55817 7.79981 4.2002 7.44183 4.2002 7C4.2002 6.55817 4.55817 6.2002 5 6.2002H6.5ZM2.79981 12C2.79981 13.8927 2.80143 15.2482 2.91504 16.2969C3.02704 17.3303 3.24073 17.9708 3.60254 18.4688L3.80664 18.7275C4.02079 18.9783 4.26389 19.2032 4.53125 19.3975L4.72559 19.5264C5.19589 19.8111 5.79893 19.987 6.70313 20.085C7.26779 20.1461 7.92169 20.1732 8.7002 20.1865V3.8125C7.92168 3.82583 7.26779 3.85386 6.70313 3.91504C5.79893 4.01303 5.19589 4.18888 4.72559 4.47363L4.53125 4.60254C4.26389 4.79682 4.02079 5.02174 3.80664 5.27246L3.60254 5.53125C3.24072 6.02926 3.02704 6.66966 2.91504 7.70313C2.80143 8.75176 2.79981 10.1073 2.79981 12ZM22.7998 12C22.7998 13.857 22.8009 15.314 22.6758 16.4688C22.557 17.5655 22.318 18.4731 21.7998 19.2549L21.6924 19.4092C21.3793 19.8401 21.0085 20.2254 20.5908 20.5547L20.4092 20.6924C19.5929 21.2854 18.6385 21.549 17.4688 21.6758C16.314 21.8009 14.857 21.7998 13 21.7998H11C9.14303 21.7998 7.68605 21.8009 6.53125 21.6758C5.43446 21.557 4.52687 21.318 3.74512 20.7998L3.59082 20.6924C3.15995 20.3793 2.7746 20.0085 2.44531 19.5908L2.30762 19.4092C1.71457 18.5929 1.45096 17.6385 1.32422 16.4688C1.19912 15.3139 1.2002 13.857 1.2002 12C1.2002 10.143 1.19912 8.68605 1.32422 7.53125C1.45096 6.36147 1.71458 5.40708 2.30762 4.59082L2.44531 4.40918C2.77461 3.9915 3.15994 3.62067 3.59082 3.30762L3.74512 3.2002C4.52687 2.68197 5.43446 2.44305 6.53125 2.32422C7.68605 2.19912 9.14303 2.2002 11 2.2002H13C14.857 2.2002 16.3139 2.19912 17.4688 2.32422C18.6385 2.45096 19.5929 2.71457 20.4092 3.30762L20.5908 3.44531C21.0085 3.7746 21.3793 4.15995 21.6924 4.59082L21.7998 4.74512C22.318 5.52687 22.557 6.43446 22.6758 7.53125C22.8009 8.68605 22.7998 10.143 22.7998 12Z" fill="#1E1E1E"/>
</svg>
