<svg viewBox="0 0 24 24" fill="currentColor" xmlns="http://www.w3.org/2000/svg">
<path d="M20.5996 12C20.5996 9.73562 20.5985 8.12774 20.4346 6.9082C20.2941 5.86354 20.0456 5.20758 19.6504 4.72461L19.4727 4.52734C18.9721 4.02683 18.2855 3.72591 17.0918 3.56543C15.8722 3.40151 14.2644 3.40039 12 3.40039C9.73562 3.40039 8.12774 3.40151 6.9082 3.56543C5.86355 3.70588 5.20758 3.95442 4.72461 4.34961L4.52734 4.52734C4.02682 5.02788 3.72592 5.71451 3.56543 6.9082C3.40151 8.12774 3.40039 9.73562 3.40039 12C3.40039 14.2644 3.40151 15.8722 3.56543 17.0918C3.72591 18.2855 4.02683 18.9721 4.52734 19.4727L4.72461 19.6504C5.20758 20.0456 5.86354 20.2941 6.9082 20.4346C8.12774 20.5985 9.73562 20.5996 12 20.5996C14.2644 20.5996 15.8722 20.5985 17.0918 20.4346C18.2855 20.2741 18.9721 19.9732 19.4727 19.4727L19.6504 19.2754C20.0456 18.7924 20.2941 18.1364 20.4346 17.0918C20.5985 15.8722 20.5996 14.2644 20.5996 12ZM15.4023 8.32715C15.743 8.02384 16.2649 8.02206 16.6084 8.33691C16.9515 8.65175 16.995 9.17155 16.7227 9.53711L16.6631 9.6084L11.1631 15.6084C10.9972 15.7892 10.7648 15.8941 10.5195 15.8994C10.3049 15.9041 10.0966 15.8325 9.93164 15.6982L9.86328 15.6367L7.36328 13.1367L7.30176 13.0684C7.01331 12.7149 7.03373 12.1928 7.36328 11.8633C7.69284 11.5337 8.21486 11.5133 8.56836 11.8018L8.63672 11.8633L10.4717 13.6982L15.3369 8.3916L15.4023 8.32715ZM22.4004 12C22.4004 14.2137 22.4016 15.9646 22.2178 17.332C22.0422 18.6382 21.6842 19.7121 20.9062 20.5752L20.7451 20.7451C19.8544 21.6358 18.7253 22.0305 17.332 22.2178C15.9646 22.4016 14.2137 22.4004 12 22.4004C9.78627 22.4004 8.03537 22.4016 6.66797 22.2178C5.3618 22.0422 4.28787 21.6842 3.4248 20.9062L3.25488 20.7451C2.36421 19.8544 1.96956 18.7253 1.78223 17.332C1.59839 15.9646 1.59961 14.2137 1.59961 12C1.59961 9.78627 1.59838 8.03537 1.78223 6.66797C1.96956 5.27473 2.3642 4.14558 3.25488 3.25488L3.4248 3.09375C4.28787 2.31578 5.3618 1.95785 6.66797 1.78223C8.03537 1.59838 9.78627 1.59961 12 1.59961C14.2137 1.59961 15.9646 1.59839 17.332 1.78223C18.7253 1.96956 19.8544 2.36421 20.7451 3.25488L20.9062 3.4248C21.6842 4.28787 22.0422 5.3618 22.2178 6.66797C22.4016 8.03537 22.4004 9.78627 22.4004 12Z" fill="currentColor"/>
</svg>
