<svg viewBox="0 0 24 24" fill="currentColor" xmlns="http://www.w3.org/2000/svg">
<path d="M13.0996 12C13.0996 11.8773 13.0656 11.7156 12.8584 11.4004C12.7477 11.2319 12.6056 11.0463 12.4248 10.8242L11.7578 10.0312L9.45117 7.33105C8.93633 6.72821 8.61041 6.34969 8.33984 6.11035C8.08751 5.88722 8.00788 5.90039 8 5.90039C7.99213 5.90039 7.91249 5.88722 7.66016 6.11035C7.52487 6.23003 7.37589 6.38516 7.19629 6.58496L6.54883 7.33105L4.24219 10.0312C3.70782 10.657 3.36296 11.0637 3.1416 11.4004C2.93445 11.7156 2.90039 11.8773 2.90039 12C2.90039 12.1227 2.93444 12.2844 3.1416 12.5996C3.36296 12.9363 3.70782 13.343 4.24219 13.9688L6.54883 16.6689L7.19629 17.415C7.37589 17.6148 7.52487 17.77 7.66016 17.8896C7.91249 18.1128 7.99213 18.0996 8 18.0996C8.00787 18.0996 8.08751 18.1128 8.33984 17.8896C8.61041 17.6503 8.93633 17.2718 9.45117 16.6689L11.7578 13.9688L12.4248 13.1758C12.6056 12.9537 12.7477 12.7681 12.8584 12.5996C13.0656 12.2844 13.0996 12.1227 13.0996 12ZM14.9004 12C14.9004 12.6057 14.6746 13.1128 14.3623 13.5879C14.2132 13.8147 14.0302 14.0545 13.8213 14.3115L13.126 15.1377L10.8203 17.8379C10.3408 18.3994 9.91986 18.8944 9.53223 19.2373C9.12662 19.5961 8.6359 19.9004 8 19.9004C7.3641 19.9004 6.87338 19.5961 6.46777 19.2373C6.27395 19.0658 6.07186 18.856 5.8584 18.6191L5.17969 17.8379L2.87402 15.1377C2.3698 14.5473 1.93575 14.0413 1.6377 13.5879C1.32542 13.1128 1.09961 12.6057 1.09961 12C1.09961 11.3943 1.32542 10.8872 1.6377 10.4121C1.93575 9.95866 2.3698 9.45272 2.87402 8.8623L5.17969 6.16211L5.8584 5.38086C6.07186 5.14397 6.27395 4.93415 6.46777 4.7627C6.87338 4.40395 7.3641 4.09961 8 4.09961C8.6359 4.09961 9.12662 4.40395 9.53223 4.7627C9.91986 5.10559 10.3408 5.60059 10.8203 6.16211L13.126 8.8623L13.8213 9.68848C14.0302 9.94546 14.2132 10.1853 14.3623 10.4121C14.6746 10.8872 14.9004 11.3943 14.9004 12Z" fill="currentColor"/>
<path d="M17.0996 12C17.0996 11.8566 17.06 11.6812 16.8613 11.3584C16.7551 11.1858 16.6192 10.9956 16.4463 10.7686L15.8086 9.95898L12.2969 5.56152L12.2432 5.4873C11.9956 5.10389 12.0742 4.58779 12.4385 4.29687C12.8026 4.00606 13.3234 4.04321 13.6426 4.36914L13.7031 4.43848L17.2148 8.83496L17.8789 9.67871C18.0781 9.94063 18.2527 10.1846 18.3945 10.415C18.6919 10.8983 18.9004 11.4036 18.9004 12C18.9004 12.5964 18.6919 13.1017 18.3945 13.585C18.2527 13.8154 18.0781 14.0594 17.8789 14.3213L17.2148 15.165L13.7031 19.5615C13.3929 19.9499 12.8269 20.0133 12.4385 19.7031C12.0501 19.3929 11.9867 18.8269 12.2969 18.4385L15.8086 14.041L16.4463 13.2314C16.6192 13.0044 16.7551 12.8142 16.8613 12.6416C17.06 12.3188 17.0996 12.1434 17.0996 12Z" fill="currentColor"/>
<path d="M21.0996 12C21.0996 11.8566 21.06 11.6812 20.8613 11.3584C20.7551 11.1858 20.6192 10.9956 20.4463 10.7686L19.8086 9.95898L16.2969 5.56152L16.2432 5.4873C15.9956 5.10389 16.0742 4.58779 16.4385 4.29687C16.8026 4.00606 17.3234 4.04321 17.6426 4.36914L17.7031 4.43848L21.2148 8.83496L21.8789 9.67871C22.0781 9.94063 22.2527 10.1846 22.3945 10.415C22.6919 10.8983 22.9004 11.4036 22.9004 12C22.9004 12.5964 22.6919 13.1017 22.3945 13.585C22.2527 13.8154 22.0781 14.0594 21.8789 14.3213L21.2148 15.165L17.7031 19.5615C17.3929 19.9499 16.8269 20.0133 16.4385 19.7031C16.0501 19.3929 15.9867 18.8269 16.2969 18.4385L19.8086 14.041L20.4463 13.2314C20.6192 13.0044 20.7551 12.8142 20.8613 12.6416C21.06 12.3188 21.0996 12.1434 21.0996 12Z" fill="currentColor"/>
</svg>
