<svg viewBox="0 0 24 24" fill="currentColor" xmlns="http://www.w3.org/2000/svg">
<path d="M20.0996 20V18.0977C20.0996 17.2535 19.7267 16.5375 19.0879 16.1982L18.957 16.1357C18.7197 16.0343 18.472 15.9399 18.2158 15.8545C17.7443 15.6973 17.4893 15.1874 17.6465 14.7158C17.8037 14.2446 18.3129 13.9897 18.7842 14.1465C19.0862 14.2472 19.3803 14.3592 19.6641 14.4805L19.9434 14.6133C21.2902 15.3295 21.9004 16.7582 21.9004 18.0977V20C21.9004 20.4971 21.4971 20.9004 21 20.9004C20.5029 20.9004 20.0996 20.4971 20.0996 20ZM16.0996 19.999V18.0967C16.0996 17.2525 15.7267 16.5365 15.0879 16.1973L14.957 16.1348C13.6979 15.5967 12.1652 15.2744 10.5 15.2744C9.04305 15.2744 7.68793 15.5213 6.52832 15.9434L6.04297 16.1348C5.32454 16.442 4.90039 17.1964 4.90039 18.0967V19.999C4.90039 20.4961 4.49706 20.8994 4 20.8994C3.50294 20.8994 3.09961 20.4961 3.09961 19.999V18.0967C3.09961 16.668 3.79394 15.1385 5.33594 14.4795L5.62012 14.3623C7.05672 13.7947 8.72753 13.4746 10.5 13.4746C12.3906 13.4746 14.1656 13.8392 15.6641 14.4795L15.9434 14.6123C17.2903 15.3286 17.9004 16.7572 17.9004 18.0967V19.999C17.9004 20.4961 17.4971 20.8994 17 20.8994C16.5029 20.8994 16.0996 20.4961 16.0996 19.999ZM13.0996 8.28125C13.0996 7.02012 11.9916 5.90039 10.5 5.90039C9.00841 5.90039 7.90039 7.02012 7.90039 8.28125C7.90051 9.5423 9.00849 10.6621 10.5 10.6621C11.9915 10.6621 13.0995 9.5423 13.0996 8.28125ZM17.0996 8.28027C17.0994 7.24238 16.3588 6.30914 15.2578 6.00195L15.1709 5.97363C14.746 5.80737 14.5076 5.3425 14.6328 4.89355C14.7664 4.41478 15.2634 4.13497 15.7422 4.26855L16.0723 4.375C17.6976 4.96698 18.9002 6.46676 18.9004 8.28027C18.9004 10.2148 17.5324 11.7934 15.7422 12.293C15.2635 12.4265 14.7664 12.1467 14.6328 11.668C14.4992 11.1893 14.7792 10.6923 15.2578 10.5586C16.3589 10.2514 17.0996 9.31833 17.0996 8.28027ZM14.9004 8.28125C14.9003 10.6442 12.8743 12.4619 10.5 12.4619C8.12567 12.4619 6.09973 10.6442 6.09961 8.28125C6.09961 5.91824 8.1256 4.09961 10.5 4.09961C12.8744 4.09961 14.9004 5.91824 14.9004 8.28125Z" fill="currentColor"/>
</svg>
