<svg xmlns="http://www.w3.org/2000/svg" width="130" height="114" fill="none" viewBox="0 0 130 114"><path fill="#d9d9d9" d="M114.927 104.25a35.3 35.3 0 0 0 6.037-13.832c3.826-19.16-8.604-37.793-27.762-41.619-19.16-3.826-37.792 8.604-41.618 27.762a35.2 35.2 0 0 0 .261 15.09z"/><path fill="#757575" d="M119.111 70.322c-3.157.235-7.63-.035-13.659-1.67-11.83-3.21-24.82-12.972-35.89-16.342-8.164 4.382-14.558 11.924-17.273 21.355 3.972-2.16 9.573-4.228 16.825-4.63 16.16-.894 32.389 7.059 41.568 8.302 3.907.53 7.492.073 10.32-.625a35 35 0 0 0-1.891-6.39m-7.557 21.582c-5.632-1.387-23.592-15.628-40.65-14.894-9.535.41-16.029 2.22-19.902 3.736-.294 3.732.01 7.403.843 10.905l63.082 12.599a35.2 35.2 0 0 0 5.949-13.406c-2.978.967-6.581 1.735-9.322 1.06"/><path fill="#b3b3b3" d="M43.638 20.37v-.017l-.002.008-.002-.008v.016q-.33 1.197-1.525 1.711 1.195.515 1.525 1.711v.017l.002-.009.002.009v-.017q.33-1.196 1.525-1.71-1.195-.516-1.525-1.712m62.047-13.467v-.016l-.002.008-.002-.008v.016q-.33 1.197-1.525 1.711 1.195.515 1.525 1.71v.018l.002-.009.002.009v-.017q.33-1.197 1.525-1.71-1.195-.515-1.525-1.712m8.593 29.973v-.016l-.003.008-.002-.008v.016q-.33 1.197-1.525 1.711 1.195.514 1.525 1.711v.017l.002-.009.003.009v-.017q.33-1.196 1.524-1.71-1.195-.516-1.524-1.712M8.155 69.046v-.016l-.002.008-.002-.008v.016q-.33 1.197-1.525 1.711 1.195.515 1.525 1.711v.017l.002-.008.002.008v-.017q.33-1.196 1.525-1.71-1.195-.515-1.525-1.712m110.247-56.44v-.034l-.004.018-.005-.018v.034q-.659 2.393-3.049 3.422 2.39 1.03 3.049 3.422v.034l.005-.018.004.018v-.034q.66-2.393 3.05-3.422-2.39-1.03-3.05-3.422M39.69 56.916v-.034l-.004.017-.005-.017v.034q-.66 2.392-3.05 3.421 2.39 1.03 3.05 3.422v.034l.005-.017.004.017v-.034q.66-2.393 3.05-3.422-2.39-1.03-3.05-3.422M31.553 5.193v-.035l-.004.018-.005-.018v.035q-.66 2.392-3.05 3.421 2.39 1.03 3.05 3.422v.034l.005-.018.004.018v-.034q.66-2.393 3.05-3.422-2.39-1.03-3.05-3.421"/><path fill="#d9d9d9" d="M81.86 25.992c7.177 0 12.995-5.819 12.995-12.996S89.037 0 81.86 0 68.865 5.818 68.865 12.996c0 7.177 5.818 12.995 12.995 12.995"/><path fill="#b3b3b3" d="M84.421.253c.077 1.952-.054 3.989-.705 5.362-1.63 3.441-4.165 4.528-9.961 7.38-2.374 1.17-3.346 3.347-3.667 5.513a13.05 13.05 0 0 0 4.057 4.946c.39-1.636 1.13-3.456 2.507-4.98 3.441-3.803 8.694-.18 14.77-3.26 1.611-.816 2.666-2.167 3.347-3.711C94.126 5.88 89.895 1.347 84.421.253"/><path fill="#e6e6e6" d="M20.886 55.948c5.95 0 10.772-4.822 10.772-10.771s-4.823-10.772-10.772-10.772-10.771 4.823-10.771 10.772 4.822 10.771 10.771 10.771"/><path fill="#b3b3b3" d="M4.578 54.742c-.955 0-1.514-.211-1.704-.641-.27-.615.307-1.496 1.765-2.696 1.297-1.068 3.269-2.358 5.703-3.734a.233.233 0 0 1 .23.406c-2.411 1.363-4.36 2.638-5.637 3.689C3.178 53.21 3.24 53.774 3.3 53.913c.074.168.708.936 5.94-.444 3.659-.964 8.34-2.668 13.183-4.797 4.842-2.13 9.262-4.429 12.445-6.474 4.553-2.924 4.415-3.91 4.341-4.078-.06-.137-.429-.56-2.646-.253-1.612.223-3.838.785-6.437 1.624a.233.233 0 1 1-.143-.444c2.624-.847 4.877-1.415 6.516-1.642 1.843-.255 2.869-.083 3.137.527.217.492-.106 1.148-.987 2.006-.776.755-1.964 1.648-3.53 2.653-3.202 2.058-7.645 4.369-12.509 6.508-4.863 2.14-9.57 3.851-13.25 4.822-1.8.474-3.26.746-4.342.807a8 8 0 0 1-.441.014"/><path fill="#fff" d="M129.273 112.987c-17.086-15.4-39.708-24.773-64.52-24.773S17.319 97.588.233 112.987"/><path fill="#757575" d="M129.273 113.22a.23.23 0 0 1-.156-.06 97 97 0 0 0-13.767-10.342 96 96 0 0 0-15.525-7.775c-11.169-4.376-22.969-6.595-35.072-6.595s-23.903 2.219-35.072 6.595a96 96 0 0 0-15.525 7.775A96.7 96.7 0 0 0 .39 113.16a.234.234 0 0 1-.312-.347 96.6 96.6 0 0 1 29.434-18.204c11.223-4.398 23.08-6.628 35.242-6.628s24.02 2.23 35.243 6.628a96.5 96.5 0 0 1 15.6 7.812 97.3 97.3 0 0 1 13.834 10.392.24.24 0 0 1 .064.252.235.235 0 0 1-.221.155"/><path fill="#fff" d="M9.68 105.484v-3.932s5.232-5.706 11.508-9.225c10.775-6.04 16.304-5.313 16.304-5.313l7.667 3.193s-5.07 7.142-15.318 12.324c-7.476 3.78-13.796 5.224-13.796 5.224"/><path fill="#757575" d="M16.045 107.99a.234.234 0 0 1-.052-.462c.063-.014 6.38-1.482 13.742-5.205a48.4 48.4 0 0 0 11.436-8.056c1.979-1.888 3.192-3.399 3.622-3.96l-7.36-3.065c-.21-.02-1.579-.122-4.042.4-4.472.946-9.043 3.18-12.089 4.889-5.811 3.257-10.784 8.467-11.389 9.112v3.841a.234.234 0 0 1-.466 0v-3.933c0-.058.022-.114.06-.157.054-.058 5.33-5.774 11.567-9.27 3.086-1.731 7.718-3.994 12.26-4.947 2.736-.575 4.131-.403 4.189-.395q.03.004.06.016l7.666 3.194a.234.234 0 0 1 .1.35c-.012.018-1.31 1.832-3.845 4.252a48.9 48.9 0 0 1-11.557 8.145c-7.416 3.75-13.786 5.229-13.85 5.244a.2.2 0 0 1-.052.006z"/><path fill="#757575" d="M12.861 101.867a.235.235 0 0 1-.214-.327.23.23 0 0 1 .129-.124c.015-.006 1.649-.652 9.456-4.257 7.772-3.588 10.753-6.833 10.782-6.865a.234.234 0 0 1 .346.312c-.03.034-.77.848-2.494 2.121-1.582 1.168-4.33 2.96-8.438 4.856-7.835 3.618-9.42 4.243-9.483 4.268a.3.3 0 0 1-.085.015z"/><path fill="#fff" d="M82.228 89.798s5.745-1.583 6.567-1.583c2.423 0 6.257.44 15.025 4.507 8.767 4.066 13.997 8.529 13.997 8.529l3.127 5.024s-8.375 1.075-19.855-3.373c-11.48-4.447-17.199-9.276-17.199-9.276"/><path fill="#757575" d="M118.471 106.624c-.859 0-1.923-.033-3.168-.135-3.235-.263-8.342-1.061-14.298-3.369-3.282-1.272-8.192-3.401-12.942-6.324-2.847-1.752-4.308-2.979-4.323-2.99a.233.233 0 0 1 .132-.411.23.23 0 0 1 .17.054c.014.012 1.457 1.221 4.278 2.957 2.603 1.602 6.947 3.991 12.854 6.279 5.904 2.288 10.963 3.079 14.167 3.339 2.628.214 4.464.117 5.207.056l-2.909-4.674c-.419-.35-5.602-4.616-13.917-8.472-3.94-1.828-7.163-3.059-9.853-3.764-2.436-.64-3.991-.721-5.074-.721-.648 0-4.916 1.137-6.505 1.575a.234.234 0 0 1-.124-.45c.591-.163 5.8-1.592 6.629-1.592 2.65 0 6.519.538 15.124 4.529a75 75 0 0 1 10.319 5.807c2.386 1.613 3.718 2.745 3.731 2.756a.2.2 0 0 1 .047.054l3.126 5.025a.233.233 0 0 1-.168.354c-.056.007-.939.118-2.503.118z"/><path fill="#757575" d="m114.275 101.446-.025-.002c-.065-.007-6.575-.742-13.753-3.928-2.07-.92-5.09-2.397-7.73-4.217-1.588-1.095-2.277-1.788-2.306-1.817a.233.233 0 1 1 .333-.327c.027.027 2.8 2.786 9.892 5.934 7.109 3.156 13.55 3.885 13.614 3.892a.233.233 0 0 1-.025.465"/></svg>