<svg xmlns="http://www.w3.org/2000/svg" width="110" height="130" fill="none" viewBox="0 0 110 130"><path fill="#757575" d="m89.442 20.204 2.39-1.764 17.515 23.736-2.391 1.763z"/><path fill="#757575" d="m106.903 44.189-.035-.003a.24.24 0 0 1-.153-.092L89.21 20.368a.23.23 0 0 1 .05-.326l2.388-1.764a.233.233 0 0 1 .327.05l17.505 23.725a.233.233 0 0 1-.049.327l-2.389 1.763a.23.23 0 0 1-.139.045m-17.18-23.91 17.229 23.35 2.014-1.486-17.228-23.35z"/><path fill="#757575" d="M85.145 23.694c6.478 0 11.729-5.251 11.729-11.729S91.623.235 85.144.235c-6.477 0-11.729 5.252-11.729 11.73s5.252 11.73 11.73 11.73"/><path fill="#757575" d="M85.17 23.93q-.901 0-1.81-.136a11.88 11.88 0 0 1-7.841-4.727 11.88 11.88 0 0 1-2.203-8.886 11.88 11.88 0 0 1 4.727-7.842A11.88 11.88 0 0 1 86.929.136a11.88 11.88 0 0 1 7.842 4.727 11.88 11.88 0 0 1 2.202 8.887 11.88 11.88 0 0 1-4.726 7.841 11.87 11.87 0 0 1-7.077 2.339M85.12.466a11.4 11.4 0 0 0-6.8 2.248 11.42 11.42 0 0 0-4.543 7.536 11.42 11.42 0 0 0 2.117 8.54 11.42 11.42 0 0 0 7.536 4.542q.872.132 1.739.131a11.4 11.4 0 0 0 6.801-2.248 11.42 11.42 0 0 0 4.542-7.535 11.42 11.42 0 0 0-2.117-8.54A11.42 11.42 0 0 0 86.86.598a12 12 0 0 0-1.74-.132"/><path fill="#b3b3b3" d="M93.723 12.007a8.578 8.578 0 0 0-16.788-2.533z"/><path fill="#757575" d="M93.724 12.24q-.018 0-.035-.002L76.9 9.705a.234.234 0 0 1-.189-.298 8.74 8.74 0 0 1 3.201-4.533 8.76 8.76 0 0 1 6.547-1.623 8.75 8.75 0 0 1 5.775 3.482 8.74 8.74 0 0 1 1.722 5.275.233.233 0 0 1-.233.232M77.24 9.285l16.247 2.45A8.27 8.27 0 0 0 91.86 7.01a8.3 8.3 0 0 0-5.47-3.297 8.3 8.3 0 0 0-6.2 1.537 8.3 8.3 0 0 0-2.949 4.035"/><path fill="#b3b3b3" d="M76.566 11.923a8.578 8.578 0 0 0 16.788 2.533z"/><path fill="#757575" d="M85.163 20.779q-.663 0-1.333-.1a8.75 8.75 0 0 1-5.776-3.482 8.74 8.74 0 0 1-1.721-5.275.233.233 0 0 1 .268-.23l16.788 2.533a.234.234 0 0 1 .188.298 8.74 8.74 0 0 1-3.2 4.533 8.75 8.75 0 0 1-5.214 1.723m-8.36-8.585a8.27 8.27 0 0 0 1.627 4.726 8.3 8.3 0 0 0 5.47 3.297 8.3 8.3 0 0 0 6.2-1.537 8.3 8.3 0 0 0 2.949-4.035z"/><path fill="#b3b3b3" d="M90.84 72.182v-.016l-.002.008-.002-.008v.016q-.33 1.197-1.525 1.711 1.195.514 1.525 1.711v.017l.002-.009.003.009v-.017q.33-1.197 1.524-1.71-1.194-.515-1.524-1.712M2.149 30.646v-.017l-.002.009-.002-.009v.017q-.33 1.197-1.525 1.711 1.195.514 1.525 1.71v.018l.002-.009.002.009v-.017q.33-1.197 1.525-1.71-1.195-.516-1.525-1.712m96.864 69.598v-.016l-.003.008-.002-.008v.016q-.33 1.197-1.525 1.711 1.195.515 1.525 1.711v.017l.002-.009.003.009v-.017q.33-1.196 1.524-1.711-1.195-.514-1.524-1.711m-18.095-10.59v-.034l-.005.018-.005-.018v.034q-.66 2.393-3.049 3.422 2.39 1.03 3.05 3.422v.034l.004-.018.005.018v-.034q.66-2.393 3.049-3.422-2.39-1.03-3.05-3.422M12.923 51.358v-.034l-.005.017-.004-.017v.034q-.66 2.393-3.05 3.421 2.39 1.03 3.05 3.422v.034l.004-.017.005.017v-.034q.66-2.393 3.049-3.422-2.39-1.03-3.05-3.421m14.454-38.546v-.034l-.005.017-.005-.017v.034q-.66 2.391-3.049 3.421 2.39 1.03 3.05 3.422v.034q.001-.009.004-.017l.005.017v-.034q.66-2.393 3.05-3.422-2.39-1.03-3.05-3.421"/><path fill="#fff" d="M64.784 47.072c6.964 0 12.61-5.354 12.61-11.957s-5.646-11.957-12.61-11.957-12.61 5.353-12.61 11.957c0 6.603 5.646 11.957 12.61 11.957"/><path fill="#757575" d="M64.784 47.305c-3.428 0-6.651-1.266-9.077-3.566-2.428-2.303-3.766-5.366-3.766-8.624 0-3.26 1.338-6.322 3.766-8.625 2.425-2.3 5.65-3.566 9.077-3.566 3.428 0 6.652 1.266 9.077 3.566 2.428 2.303 3.766 5.366 3.766 8.625 0 3.258-1.338 6.321-3.766 8.624-2.425 2.3-5.649 3.566-9.077 3.566m-12.376-12.19c0 3.129 1.286 6.072 3.62 8.286 2.339 2.217 5.448 3.438 8.756 3.438s6.418-1.222 8.756-3.438c2.334-2.214 3.62-5.157 3.62-8.286s-1.286-6.072-3.62-8.286c-2.338-2.217-5.448-3.438-8.756-3.438s-6.418 1.221-8.756 3.438c-2.334 2.214-3.62 5.157-3.62 8.286"/><path fill="#757575" d="M77.394 35.115c0 6.536-5.531 11.846-12.397 11.954-4.082-2.045-6.584-6.22-7.353-11.7-.547-3.902.193-8.188 1.254-10.83a13.1 13.1 0 0 1 5.886-1.382c6.964 0 12.61 5.354 12.61 11.957"/><path fill="#757575" d="M64.997 47.303a.2.2 0 0 1-.104-.025c-2.05-1.027-3.736-2.59-5.013-4.647-1.246-2.007-2.076-4.439-2.467-7.23-.257-1.83-.249-3.888.023-5.95.241-1.824.683-3.599 1.245-4.999a.23.23 0 0 1 .112-.122 13.4 13.4 0 0 1 5.99-1.405c3.429 0 6.653 1.266 9.078 3.566 2.428 2.303 3.765 5.366 3.765 8.624 0 3.223-1.312 6.261-3.695 8.556-2.376 2.29-5.548 3.58-8.93 3.633zm-5.915-22.595c-.996 2.528-1.749 6.767-1.207 10.628.382 2.727 1.19 5.098 2.401 7.048 1.22 1.966 2.827 3.463 4.775 4.451 3.242-.065 6.28-1.306 8.557-3.5 2.29-2.206 3.552-5.125 3.552-8.22s-1.286-6.072-3.62-8.286c-2.339-2.217-5.448-3.437-8.756-3.437a12.96 12.96 0 0 0-5.702 1.316"/><path fill="#fff" d="M60.439 35.892a3.07 3.07 0 0 0-1.736-2.108l-.105-.45s-1.67.219-1.85.26a3.074 3.074 0 0 0-2.298 3.691c.385 1.654 2.022 2.609 3.691 2.298.46-.085 1.85-.26 1.85-.26l-.18-.773a3.07 3.07 0 0 0 .628-2.658"/><path fill="#757575" d="M57.51 39.875a3.5 3.5 0 0 1-1.818-.505 3.22 3.22 0 0 1-1.47-2.032 3.31 3.31 0 0 1 2.473-3.971c.185-.043 1.7-.241 1.872-.264a.233.233 0 0 1 .258.178l.079.34a3.28 3.28 0 0 1 1.762 2.218 3.28 3.28 0 0 1-.602 2.768l.154.663a.233.233 0 0 1-.198.284c-.014.002-1.39.175-1.837.258q-.337.063-.673.063m.909-6.282a58 58 0 0 0-1.618.228 2.845 2.845 0 0 0-2.124 3.411 2.76 2.76 0 0 0 1.258 1.74 3.06 3.06 0 0 0 2.163.381 43 43 0 0 1 1.607-.229l-.121-.521a.23.23 0 0 1 .047-.202c.572-.69.783-1.585.58-2.456a2.82 2.82 0 0 0-1.604-1.949.23.23 0 0 1-.132-.16z"/><path fill="#fff" d="M59.295 39.403a3.074 3.074 0 1 0 0-6.149 3.074 3.074 0 0 0 0 6.15"/><path fill="#757575" d="M59.289 39.637c-.61 0-1.21-.17-1.742-.5a3.3 3.3 0 0 1-1.474-2.059 3.31 3.31 0 0 1 2.472-3.97c.86-.2 1.748-.054 2.498.413a3.3 3.3 0 0 1 1.474 2.058c.2.86.053 1.748-.414 2.498a3.3 3.3 0 0 1-2.058 1.474 3.3 3.3 0 0 1-.756.087m.011-6.15q-.324 0-.649.075a2.845 2.845 0 0 0-2.123 3.41c.172.74.621 1.367 1.265 1.769.644.4 1.407.527 2.146.355a2.82 2.82 0 0 0 1.768-1.266c.4-.644.527-1.406.355-2.145a2.82 2.82 0 0 0-1.266-1.768 2.8 2.8 0 0 0-1.496-.43"/><path fill="#fff" d="M16.741 82.917s5.267.642 9.25-1.67 7.322-8.222 9.763-10.277 5.78-4.496 6.937-6.294c1.156-1.8 1.541-4.368 1.541-4.368s6.937-3.468 12.46-3.212c5.525.258 11.562 4.368 11.562 4.368s-2.184 8.735-2.826 12.846c-.642 4.11-1.536 10.447-6.032 19.439-4.495 8.992-21.373 17.108-21.373 17.108l-3.392-8.087s8.004-4.961 9.856-9.177c2.264-5.152 1.796-10.85 1.796-10.85s-3.207 5.955-8.474 8.267-21.067 3.438-21.067 3.438z"/><path fill="#757575" d="M38.023 111.091a.24.24 0 0 1-.216-.144l-3.39-8.086a.235.235 0 0 1 .092-.289c.079-.049 7.963-4.972 9.765-9.073 1.726-3.93 1.842-8.23 1.808-9.957a25 25 0 0 1-1.88 2.615c-1.349 1.642-3.536 3.853-6.3 5.066-2.204.968-6.435 1.844-12.573 2.605-4.562.564-8.531.85-8.571.853a.23.23 0 0 1-.23-.14.2.2 0 0 1-.02-.093v-11.53a.232.232 0 0 1 .262-.232c.052.006 5.238.604 9.104-1.64 2.426-1.41 4.606-4.169 6.529-6.604 1.209-1.53 2.253-2.852 3.2-3.65.572-.481 1.179-.972 1.82-1.492 2.068-1.673 4.206-3.403 5.072-4.75 1.115-1.735 1.503-4.251 1.507-4.276a.23.23 0 0 1 .126-.175 38 38 0 0 1 4.188-1.714c2.231-.768 5.498-1.656 8.388-1.521 2.893.134 5.916 1.326 7.943 2.303 2.19 1.055 3.724 2.094 3.74 2.104a.23.23 0 0 1 .094.25c-.021.087-2.188 8.772-2.822 12.825l-.056.365c-.643 4.133-1.615 10.38-5.997 19.142-1.038 2.077-2.817 4.276-5.287 6.535-1.969 1.801-4.38 3.645-7.166 5.482-4.74 3.126-8.986 5.177-9.028 5.198a.24.24 0 0 1-.102.023m-3.1-8.229 3.219 7.677a88 88 0 0 0 8.758-5.061c2.765-1.824 5.155-3.653 7.105-5.436 2.427-2.22 4.17-4.372 5.183-6.397 4.349-8.698 5.314-14.901 5.952-19.006l.057-.365c.588-3.767 2.49-11.495 2.79-12.706-.92-.6-6.363-4.01-11.306-4.239-2.816-.13-6.022.742-8.214 1.497a39 39 0 0 0-4.024 1.638c-.093.542-.518 2.721-1.556 4.338-.907 1.41-3.074 3.164-5.17 4.86a122 122 0 0 0-1.814 1.486c-.911.768-1.991 2.135-3.135 3.583-1.948 2.467-4.158 5.264-6.66 6.718-2.097 1.216-4.54 1.614-6.22 1.733-1.364.096-2.44.033-2.914-.008v11.023c2.038-.157 15.93-1.29 20.74-3.4 2.679-1.177 4.81-3.334 6.126-4.936 1.429-1.74 2.228-3.214 2.236-3.229a.233.233 0 0 1 .438.092c.005.06.117 1.468-.049 3.531-.152 1.906-.582 4.742-1.765 7.432-.783 1.784-2.699 3.89-5.691 6.26a52 52 0 0 1-4.087 2.916z"/><path fill="#757575" d="M46.282 82.976a.233.233 0 0 1-.199-.356c.752-1.22 1.92-4.3 1.933-4.33a.234.234 0 0 1 .3-.137c.12.046.181.18.136.301-.048.129-1.196 3.153-1.97 4.411a.23.23 0 0 1-.2.111"/><path fill="#fff" d="M43.196 61.627s5.096-2.642 11.064-2.95c7.71-.398 13.793 4.72 14.53 4.5.738-.222 1.549-4.943 1.549-4.943s11.285-1.991 13.793-3.91C86.64 52.408 95.859 38.91 95.859 38.91l-4.204-4.72s-5.68 5.531-8.63 7.301-11.063 3.32-12.833 2.95c-1.77-.368-8.483-1.18-13.277-.959-4.794.222-7.302 1.254-8.04 1.844s-2.42 4.144-3.672 7.831c-1.255 3.688-2.007 8.47-2.007 8.47"/><path fill="#757575" d="M68.737 63.417c-.282 0-.73-.24-1.737-.803-1.198-.668-3.008-1.678-5.194-2.471-2.596-.942-5.13-1.357-7.534-1.233-5.85.303-10.918 2.899-10.968 2.925a.233.233 0 0 1-.338-.243c.007-.048.77-4.844 2.016-8.509 1.272-3.741 2.953-7.302 3.748-7.938.48-.385 1.421-.787 2.583-1.103 1.562-.426 3.444-.693 5.591-.792 4.704-.217 11.48.577 13.335.964.82.17 3.238-.106 5.878-.673 2.965-.637 5.502-1.477 6.788-2.25 2.894-1.735 8.53-7.213 8.588-7.269a.234.234 0 0 1 .337.012l4.204 4.72a.23.23 0 0 1 .018.287c-.377.553-9.27 13.551-11.778 15.47-2.39 1.826-12.29 3.664-13.734 3.925-.066.366-.242 1.3-.472 2.242-.548 2.243-.92 2.635-1.21 2.722a.4.4 0 0 1-.121.017M55.11 58.422c2.206 0 4.508.43 6.855 1.282 2.22.806 4.05 1.827 5.262 2.503.651.363 1.325.739 1.502.743.056-.03.377-.292.893-2.411.286-1.176.486-2.332.487-2.344a.23.23 0 0 1 .19-.19c.112-.02 11.257-2.004 13.691-3.865 2.309-1.765 10.554-13.725 11.574-15.211l-3.921-4.403c-.996.96-5.814 5.555-8.497 7.165-1.914 1.148-5.485 1.995-6.93 2.305-2.74.589-5.18.86-6.072.674-1.838-.383-8.552-1.17-13.218-.954-4.744.218-7.201 1.23-7.905 1.792-.631.505-2.264 3.802-3.597 7.725-1.013 2.978-1.704 6.72-1.923 7.987 1.339-.625 5.765-2.519 10.747-2.776q.428-.022.862-.022"/><path fill="#e6e6e6" d="M41.698 65.805c1.29 1.238 8.463 1.102 10.427-.008s6.32-17.805 6.32-18.637-9.053-.833-11.614-.577c-2.562.257-4.27 3.416-6.063 8.967-1.794 5.55.184 9.54.93 10.255"/><path fill="#757575" d="M46.488 66.916c-1.128 0-4.06-.086-4.952-.943-.468-.45-1.133-1.718-1.484-3.436-.316-1.547-.486-4.027.494-7.06.979-3.03 1.859-5.102 2.769-6.522 1.038-1.622 2.181-2.473 3.493-2.605 1.283-.128 4.044-.184 6.422-.13 1.344.031 2.513.095 3.381.184 1.413.146 1.773.327 1.93.469a.38.38 0 0 1 .137.287c0 .474-1.113 4.914-2.433 9.282-.762 2.521-1.464 4.6-2.087 6.177-.5 1.27-1.244 3-1.918 3.381-1.151.651-3.725.9-5.579.915zm-4.629-1.28c.534.513 2.417.832 4.798.812 2.331-.019 4.483-.362 5.353-.854.357-.201 1.438-1.509 3.788-9.287 1.351-4.474 2.35-8.545 2.41-9.105-.217-.16-1.46-.431-4.921-.514-2.383-.056-5.148-.002-6.433.127-1.16.116-2.19.898-3.147 2.392-.888 1.385-1.751 3.423-2.718 6.414-.949 2.936-.785 5.33-.48 6.822.35 1.72 1.014 2.87 1.35 3.193"/><path fill="#e6e6e6" d="M58.444 47.16c-1.71-.812-3.011-.083-4.5 1.527-1.488 1.608-4.4 10.834-4.465 13.487s1.297 3.735 2.646 3.623c2.054-.17 3.52-6.378 4.813-10.001 1.294-3.624 2.286-8.265 1.506-8.635z"/><path fill="#757575" d="M51.937 66.038a2.38 2.38 0 0 1-1.645-.656c-.501-.473-1.09-1.415-1.046-3.214.065-2.684 3.001-11.99 4.528-13.64.841-.91 1.557-1.46 2.253-1.73.813-.316 1.637-.267 2.518.151.31.147.661.654.154 3.352-.313 1.667-.89 3.75-1.54 5.573-.266.744-.537 1.593-.825 2.49-1.181 3.696-2.404 7.517-4.19 7.665a3 3 0 0 1-.207.009M57.1 47.061c-.94 0-1.858.568-2.983 1.784-.647.7-1.688 3.1-2.716 6.266-.98 3.017-1.658 5.857-1.687 7.07-.04 1.627.467 2.454.9 2.862.405.383.936.569 1.493.522.627-.052 1.3-.853 2-2.38.65-1.418 1.227-3.22 1.784-4.962.288-.902.56-1.754.83-2.506.643-1.8 1.212-3.858 1.521-5.502.486-2.584.108-2.842.104-2.844-.432-.205-.84-.31-1.246-.31"/><path fill="#e6e6e6" d="M89.311 35.526s1.695 1.472 2.721 2.677a551 551 0 0 0 2.81 3.256s2.008-1.784 2.454-2.007 2.052-.848 3.747-2.097c1.696-1.25 3.347-4.283 3.347-5.086s-.982-2.096-1.785-3.658-3.046-3.848-3.448-4.116c-.401-.268-3.61 4.191-3.61 4.191l-1.669-2.384s-1.712 2.13-2.202 3.424c-.491 1.294-.683 3.23-.727 3.505-.045.273-1.638 2.295-1.638 2.295"/><path fill="#757575" d="M94.843 41.693h-.015a.23.23 0 0 1-.16-.08c-.019-.02-1.798-2.067-2.813-3.258-1.003-1.178-2.68-2.637-2.697-2.652a.233.233 0 0 1-.03-.32c.729-.925 1.52-1.994 1.591-2.197.007-.04.016-.113.028-.205.077-.603.281-2.206.71-3.336.498-1.313 2.168-3.4 2.239-3.488a.233.233 0 0 1 .373.012l1.48 2.116c.29-.396.87-1.18 1.469-1.938.499-.633.914-1.127 1.235-1.469.463-.492.78-.744 1.034-.576.434.29 2.692 2.583 3.525 4.203.258.502.531.969.794 1.42.568.972 1.016 1.74 1.016 2.345 0 .958-1.768 4.042-3.44 5.274-1.42 1.046-2.797 1.668-3.458 1.968q-.212.094-.324.15c-.307.153-1.605 1.264-2.403 1.972a.23.23 0 0 1-.154.06m-5.212-6.196c.455.404 1.73 1.559 2.58 2.555.837.983 2.198 2.552 2.654 3.077.521-.46 1.931-1.688 2.327-1.885q.123-.061.34-.158c.647-.292 1.993-.9 3.373-1.918 1.671-1.23 3.251-4.216 3.251-4.898 0-.479-.441-1.235-.952-2.11a31 31 0 0 1-.806-1.441c-.734-1.426-2.786-3.567-3.306-3.982-.402.233-1.837 1.977-3.356 4.087a.233.233 0 0 1-.38-.002l-1.488-2.127c-.457.593-1.598 2.124-1.974 3.115-.409 1.078-.608 2.642-.684 3.23q-.02.162-.03.229c-.014.085-.037.228-.88 1.353-.258.346-.517.68-.67.875"/><path fill="#e6e6e6" d="M38.835 98.207s-3.736 3.047-4.424 3.391-1.871.7-3.382 1.343c-1.223.521-1.74 1.178-1.74 1.178s-.295 9.748-.375 12.64-1.542 11.852-1.542 12.013 2.922.386 4.177-.156c2.393-1.033 4.324-4.578 4.843-6.144.676-2.042 2.188-6.784 2.443-8.283.255-1.5 2.398-3.053 3.389-3.642s2.276-1.098 2.544-1.259.536-3.267-.348-5.624-3.51-5.8-5.585-5.457"/><path fill="#757575" d="M29.078 129.194c-.877 0-1.642-.09-1.817-.205a.26.26 0 0 1-.122-.216c0-.046.017-.162.164-1.132.393-2.576 1.314-8.608 1.377-10.888.08-2.859.372-12.543.375-12.64a.24.24 0 0 1 .05-.138c.023-.029.57-.71 1.833-1.248.745-.317 1.398-.56 1.973-.775.59-.219 1.055-.392 1.395-.562.546-.273 3.348-2.52 4.381-3.364a.23.23 0 0 1 .11-.05c.712-.117 1.888.097 3.448 1.79 1 1.082 1.916 2.545 2.393 3.816.523 1.396.613 2.927.62 3.716a10 10 0 0 1-.077 1.408c-.08.581-.19.72-.294.783a8 8 0 0 1-.613.293c-.516.234-1.295.587-1.931.966a12 12 0 0 0-1.93 1.449c-.78.733-1.246 1.436-1.348 2.032-.254 1.491-1.715 6.092-2.452 8.317-.5 1.513-2.449 5.196-4.972 6.285-.616.266-1.651.363-2.564.363m-1.451-.568c.596.122 2.81.217 3.83-.224 2.248-.971 4.18-4.389 4.715-6.004.852-2.572 2.203-6.891 2.434-8.248.316-1.863 3.174-3.611 3.499-3.804.659-.392 1.452-.751 1.977-.989.232-.106.436-.198.535-.252.175-.362.42-3.131-.416-5.359-.86-2.296-3.385-5.552-5.268-5.318-.466.38-3.75 3.046-4.418 3.379-.362.181-.838.359-1.44.583a42 42 0 0 0-1.954.766c-.946.403-1.452.893-1.601 1.054-.03.961-.297 9.839-.373 12.556-.064 2.308-.988 8.361-1.382 10.945z"/><path fill="#e6e6e6" d="M22.292 81.413s1.144 1.966 1.628 4.831c.483 2.866-.518 8.425-1.002 8.736-.483.31-7.32.829-7.7 1.001-.38.173-2.002 2.383-3.763 5.318s-3.937 4.247-5.249 4.454-4.42-.587-4.42-.587l5.88-24.158s1.838-.634 3.789-.46c1.462.129 4.764.828 6.25 1.035 1.484.207 4.587-.17 4.587-.17"/><path fill="#757575" d="M5.69 106.02c-1.483 0-3.847-.599-3.96-.628a.23.23 0 0 1-.169-.281L7.44 80.953a.23.23 0 0 1 .15-.165c.078-.027 1.908-.648 3.886-.473.879.078 2.367.35 3.807.614.954.175 1.856.34 2.454.423 1.438.201 4.496-.167 4.527-.17a.23.23 0 0 1 .23.113c.047.082 1.17 2.036 1.656 4.91.305 1.81.005 4.378-.137 5.398a23 23 0 0 1-.44 2.341c-.27 1.066-.444 1.178-.528 1.232-.283.182-1.673.35-4.888.68-1.244.13-2.654.274-2.844.338-.275.145-1.727 2.005-3.658 5.224-1.815 3.025-4.05 4.349-5.412 4.565-.162.025-.35.036-.553.036zm-3.621-1.025c.73.174 3.05.694 4.102.527 1.89-.298 3.916-2.396 5.084-4.343 1.481-2.469 3.333-5.167 3.868-5.41.176-.08.959-.166 2.987-.376 1.733-.178 4.343-.447 4.677-.606.16-.183.515-1.43.778-3.349.282-2.07.328-3.949.125-5.154-.4-2.373-1.27-4.137-1.527-4.621-.659.074-3.169.336-4.49.151a69 69 0 0 1-2.474-.426c-1.363-.25-2.907-.532-3.764-.608-1.598-.142-3.14.28-3.572.41z"/><path fill="#757575" d="M1.787 105.166c1.374.296 3.759-2.894 5.397-7.547 1.53-4.352 2.695-12.02 2.35-13.897-.346-1.876-.623-2.464-1.867-2.714-1.245-.249-2.282.64-3.17 2.517C3.606 85.4 1.022 92.1.453 96.779c-.414 3.414-.399 8.014 1.333 8.387"/><path fill="#757575" d="M1.965 105.418q-.116 0-.227-.024c-2.38-.513-1.68-7.29-1.515-8.644.585-4.815 3.22-11.548 4.063-13.326.47-.993.966-1.691 1.516-2.137.585-.474 1.228-.644 1.91-.508 1.432.287 1.712 1.064 2.051 2.9.357 1.94-.824 9.656-2.359 14.017-1.585 4.504-3.872 7.721-5.44 7.722zm5.302-24.217c-.949 0-1.789.797-2.56 2.424-.957 2.021-3.474 8.685-4.02 13.182-.236 1.936-.286 3.861-.139 5.281.18 1.721.625 2.706 1.289 2.85a.7.7 0 0 0 .138.014c1.175 0 3.39-2.868 4.99-7.411.7-1.99 1.38-4.846 1.868-7.836.446-2.741.631-5.072.471-5.94-.352-1.913-.62-2.315-1.682-2.528a2 2 0 0 0-.355-.036m20.105 47.571c1.937.236 3.653-2.626 4.6-6.373.945-3.748 1.018-10.332.436-13.68s-2.237-4.544-3.12-4.6c-.882-.056-2.7 1.668-3.32 5.256-.441 2.559-1.273 9.75-1.055 13.461.219 3.711.951 5.753 2.459 5.936"/><path fill="#757575" d="M27.594 129.019q-.126 0-.25-.015c-.827-.101-1.466-.704-1.9-1.791-.4-.997-.65-2.424-.763-4.364-.212-3.611.576-10.718 1.058-13.514.357-2.067 1.069-3.366 1.603-4.093.652-.885 1.386-1.393 1.962-1.356.588.038 1.275.468 1.838 1.151.716.87 1.233 2.129 1.496 3.643.585 3.363.521 9.969-.44 13.776-.494 1.957-1.172 3.601-1.961 4.755-.813 1.188-1.721 1.808-2.642 1.808zm1.651-24.668c-.337 0-.93.356-1.527 1.168-.505.685-1.178 1.918-1.52 3.895-.9 5.227-1.163 11.507-1.051 13.408.11 1.888.35 3.268.73 4.218.371.93.87 1.421 1.523 1.501q.094.01.189.011c1.58 0 3.194-2.396 4.157-6.21.947-3.752 1.01-10.265.433-13.582-.316-1.812-.934-2.863-1.398-3.426-.567-.689-1.15-.959-1.506-.982zm49.099-47.802-.02-.001a.233.233 0 0 1-.213-.251c.01-.13.274-3.201 2.447-5.04 2.04-1.727 3.98-2.082 5.246-2.075 1.382.007 2.272.425 2.31.443a.233.233 0 0 1 .054.384.23.23 0 0 1-.256.037c-.008-.004-.851-.396-2.135-.398-1.184-.002-2.996.338-4.918 1.965-2.027 1.715-2.282 4.69-2.284 4.72a.234.234 0 0 1-.232.216m20.23-27.46a.234.234 0 0 1-.194-.362l1.977-2.987a.234.234 0 1 1 .389.258l-1.976 2.985a.23.23 0 0 1-.195.105m1.443 1.75a.23.23 0 0 1-.228-.187.23.23 0 0 1 .034-.175l1.976-2.986a.234.234 0 1 1 .389.258l-1.976 2.985a.23.23 0 0 1-.195.105m1.782 1.751a.233.233 0 0 1-.194-.362l1.637-2.454a.24.24 0 0 1 .148-.1.23.23 0 0 1 .24.1.23.23 0 0 1 0 .26l-1.637 2.453a.23.23 0 0 1-.194.104"/></svg>