<svg xmlns="http://www.w3.org/2000/svg" width="129" height="119" fill="none" viewBox="0 0 129 119"><path fill="#b3b3b3" d="M8.791 69.107v-.017l-.002.008-.002-.008v.017q-.33 1.196-1.525 1.71 1.195.516 1.525 1.712v.016l.002-.008.002.008v-.017q.33-1.195 1.525-1.71-1.195-.515-1.525-1.711m8.011-20.028v-.017l-.002.009-.002-.009v.017q-.33 1.196-1.525 1.71 1.195.516 1.525 1.712v.016l.002-.008.002.008v-.016q.33-1.197 1.525-1.711-1.195-.514-1.525-1.711m101.292 24.226v-.016l-.002.008-.003-.008v.016q-.33 1.197-1.524 1.711 1.195.515 1.524 1.711v.017l.003-.008.002.008v-.017q.33-1.196 1.525-1.71-1.195-.516-1.525-1.712m-9.574-39.408v-.016l-.002.008-.002-.008v.016q-.33 1.197-1.525 1.711 1.195.514 1.525 1.711v.017l.002-.009.002.009v-.017q.33-1.197 1.525-1.71-1.195-.516-1.525-1.712m-96.672-7.474v-.034l-.005.017-.004-.017v.034q-.66 2.393-3.05 3.422 2.39 1.03 3.05 3.421v.035l.005-.018q.001.009.004.017v-.034q.66-2.392 3.05-3.421-2.39-1.03-3.05-3.422M96.023 56.95v-.034l-.005.017-.005-.017v.034q-.66 2.393-3.049 3.422 2.39 1.03 3.05 3.421v.035l.004-.018.005.018v-.035q.66-2.392 3.049-3.421-2.39-1.03-3.05-3.422"/><path fill="#fff" d="M128.352 118.694c-16.964-15.289-39.425-24.595-64.06-24.595s-47.096 9.306-64.06 24.595"/><path fill="#757575" d="M128.352 118.928a.23.23 0 0 1-.157-.061 95.5 95.5 0 0 0-29.081-17.987c-11.09-4.345-22.805-6.548-34.822-6.548-12.016 0-23.732 2.203-34.82 6.548A95.5 95.5 0 0 0 .388 118.867a.233.233 0 1 1-.312-.346 96.5 96.5 0 0 1 13.735-10.318 96 96 0 0 1 15.49-7.757c11.143-4.367 22.916-6.58 34.99-6.58 12.076 0 23.849 2.213 34.992 6.58a95.9 95.9 0 0 1 29.225 18.075.234.234 0 0 1-.157.406z"/><path fill="#fff" d="M9.612 111.245v-3.904s5.195-5.665 11.426-9.158c10.699-5.998 16.188-5.276 16.188-5.276l7.613 3.17s-5.035 7.091-15.209 12.237c-7.422 3.753-13.697 5.187-13.697 5.187"/><path fill="#757575" d="M15.932 113.734a.234.234 0 0 1-.052-.461c.063-.015 6.335-1.472 13.644-5.168a48 48 0 0 0 11.364-8.008c1.959-1.87 3.158-3.363 3.584-3.92l-7.305-3.042c-.209-.02-1.568-.121-4.013.396-4.44.94-8.978 3.159-12.003 4.854-5.767 3.234-10.703 8.404-11.306 9.047v3.813a.234.234 0 0 1-.467 0v-3.905a.23.23 0 0 1 .062-.157c.052-.057 5.291-5.733 11.483-9.205 3.065-1.718 7.664-3.965 12.172-4.911 2.718-.571 4.103-.4 4.16-.392a.2.2 0 0 1 .06.016l7.612 3.17a.236.236 0 0 1 .14.255.2.2 0 0 1-.04.096c-.012.017-1.3 1.818-3.818 4.222a48.5 48.5 0 0 1-11.475 8.087c-7.363 3.724-13.688 5.192-13.75 5.206a.2.2 0 0 1-.053.006z"/><path fill="#757575" d="M12.771 107.655a.234.234 0 0 1-.085-.451c.015-.006 1.637-.647 9.389-4.226 7.715-3.563 10.674-6.784 10.704-6.816a.234.234 0 0 1 .346.312c-.03.033-.765.843-2.476 2.106-1.571 1.16-4.3 2.939-8.379 4.822-7.779 3.591-9.351 4.212-9.414 4.237a.2.2 0 0 1-.085.016"/><path fill="#fff" d="M81.642 95.67s5.705-1.571 6.52-1.571c2.407 0 6.214.437 14.918 4.474 8.705 4.038 13.898 8.469 13.898 8.469l3.104 4.988s-8.315 1.067-19.713-3.349c-11.398-4.415-17.075-9.21-17.075-9.21"/><path fill="#757575" d="M117.627 112.378c-.853 0-1.909-.033-3.146-.134-3.212-.261-8.283-1.054-14.197-3.345-3.259-1.262-8.134-3.376-12.85-6.279-2.826-1.74-4.277-2.957-4.291-2.97a.233.233 0 0 1 .131-.41.23.23 0 0 1 .17.054c.014.012 1.447 1.213 4.247 2.936 2.585 1.59 6.898 3.962 12.763 6.234 5.854 2.268 10.871 3.054 14.048 3.314 2.611.214 4.442.117 5.184.056l-2.887-4.638c-.417-.349-5.563-4.583-13.817-8.411-3.912-1.815-7.111-3.037-9.782-3.737-2.418-.635-3.963-.716-5.038-.716-.643 0-4.88 1.129-6.458 1.564a.233.233 0 0 1-.124-.45c.587-.162 5.759-1.58 6.582-1.58 2.631 0 6.473.534 15.017 4.496a75 75 0 0 1 10.245 5.766c2.37 1.601 3.693 2.725 3.706 2.736a.2.2 0 0 1 .046.054l3.105 4.989a.233.233 0 0 1-.169.354c-.055.007-.932.116-2.485.116z"/><path fill="#757575" d="m113.461 107.237-.025-.002c-.065-.007-6.529-.737-13.656-3.9-2.055-.913-5.054-2.38-7.675-4.187-1.576-1.087-2.26-1.775-2.289-1.804a.23.23 0 0 1-.049-.255.235.235 0 0 1 .306-.124.2.2 0 0 1 .076.051c.027.027 2.78 2.766 9.821 5.892 7.057 3.133 13.452 3.857 13.516 3.864a.233.233 0 0 1-.025.465"/><path fill="#e6e6e6" d="m32.61 54.923 8.786-3.295 1.748 4.66-8.786 3.295z"/><path fill="#757575" d="M34.385 59.83a.23.23 0 0 1-.219-.152l-1.748-4.662a.23.23 0 0 1 .136-.3l8.788-3.296a.234.234 0 0 1 .3.136l1.75 4.662a.23.23 0 0 1-.137.3l-8.788 3.297a.2.2 0 0 1-.082.015m-1.448-4.759 1.585 4.226 8.35-3.133-1.584-4.224z"/><path fill="#fff" d="m37.6 50.408 39.599-14.85 3.488 9.302-39.6 14.85z"/><path fill="#757575" d="M41.115 59.954a.23.23 0 0 1-.219-.151l-3.49-9.305a.23.23 0 0 1 .137-.3l39.611-14.859a.233.233 0 0 1 .3.137l3.491 9.305a.23.23 0 0 1-.137.3L41.197 59.94a.2.2 0 0 1-.082.015m-3.19-9.402 3.326 8.868 39.175-14.694-3.327-8.868z"/><path fill="#e6e6e6" d="m71.71 35.001 13.891-5.21 5.21 13.893-13.892 5.21z"/><path fill="#757575" d="M76.955 49.129a.23.23 0 0 1-.219-.152l-5.212-13.896a.23.23 0 0 1 .136-.3l13.897-5.213a.23.23 0 0 1 .252.06q.032.033.048.077L91.07 43.6a.234.234 0 0 1-.137.3l-13.896 5.213a.2.2 0 0 1-.082.015m-4.912-13.993 5.048 13.46 13.46-5.05-5.049-13.458z"/><path fill="#e6e6e6" d="m82.092 29.656 3.541-1.328 6.165 16.44-3.54 1.327z"/><path fill="#757575" d="M88.297 46.328a.23.23 0 0 1-.219-.152L81.91 29.731a.234.234 0 0 1 .137-.3l3.542-1.329a.23.23 0 0 1 .3.137l6.168 16.445a.233.233 0 0 1-.137.3l-3.542 1.329a.2.2 0 0 1-.082.015m-5.868-16.542 6.004 16.008 3.106-1.164-6.005-16.009z"/><path fill="#fff" d="M39.059 41.676 56.41 35.17l1.51 4.026-17.353 6.507z"/><path fill="#757575" d="M40.593 45.943a.23.23 0 0 1-.218-.152l-1.511-4.027a.234.234 0 0 1 .137-.3l17.358-6.511a.23.23 0 0 1 .3.136l1.51 4.027a.234.234 0 0 1-.136.3l-17.358 6.512a.2.2 0 0 1-.082.015m-1.21-4.124 1.346 3.59 16.922-6.347-1.347-3.59z"/><path fill="#e6e6e6" d="m44.294 38.919 6.279-2.354 2.03 5.416-6.278 2.355z"/><path fill="#757575" d="M46.353 44.576a.23.23 0 0 1-.219-.152l-2.032-5.418a.234.234 0 0 1 .137-.3l6.28-2.356a.23.23 0 0 1 .253.059.2.2 0 0 1 .047.077l2.033 5.419a.23.23 0 0 1-.137.3l-6.28 2.356a.2.2 0 0 1-.082.014zm-1.733-5.515 1.869 4.981 5.843-2.192-1.868-4.982z"/><path fill="#fff" d="m48.815 41.372-.154.057c-.57.214-.86.85-.645 1.42l2.184 5.824c.214.57.85.859 1.42.645l.154-.058c.57-.213.858-.849.645-1.419l-2.185-5.824a1.1 1.1 0 0 0-1.42-.645"/><path fill="#757575" d="M51.241 49.607a1.3 1.3 0 0 1-.552-.12 1.33 1.33 0 0 1-.698-.747l-2.185-5.824a1.33 1.33 0 0 1 .035-1.022 1.33 1.33 0 0 1 .747-.698l.154-.058a1.33 1.33 0 0 1 1.022.035c.324.147.572.413.698.747l2.184 5.824a1.33 1.33 0 0 1-.034 1.021 1.33 1.33 0 0 1-.747.698l-.154.058c-.15.057-.31.086-.47.086m-2.029-8.088a.9.9 0 0 0-.306.056l-.154.058a.86.86 0 0 0-.564.784.9.9 0 0 0 .056.335l2.184 5.824c.082.217.243.39.454.486a.86.86 0 0 0 .665.022l.154-.058a.86.86 0 0 0 .486-.454.86.86 0 0 0 .022-.665l-2.184-5.824a.86.86 0 0 0-.813-.564"/><path fill="#e6e6e6" d="m53.683 35.156 3.242-1.216 2.19 5.843-3.241 1.216z"/><path fill="#757575" d="M55.904 41.237a.23.23 0 0 1-.219-.152l-2.192-5.845a.23.23 0 0 1 .137-.3l3.243-1.217a.233.233 0 0 1 .3.137l2.192 5.845a.233.233 0 0 1-.136.3l-3.243 1.217a.2.2 0 0 1-.082.015m-1.892-5.942 2.029 5.408 2.806-1.052-2.029-5.409zm6.194 15.495h2.032v46.095h-2.032z"/><path fill="#757575" d="M62.238 97.119h-2.032a.233.233 0 0 1-.233-.234V50.79c0-.13.104-.234.233-.234h2.032c.129 0 .233.105.233.234v46.095a.233.233 0 0 1-.233.233m-1.799-.467h1.566V51.023h-1.566z"/><path fill="#fff" d="M61.3 95.045h-.26c-.96 0-1.739.778-1.739 1.739v.72c0 .96.779 1.738 1.739 1.738h.26c.96 0 1.738-.778 1.738-1.738v-.72c0-.96-.778-1.739-1.738-1.739"/><path fill="#757575" d="M61.3 99.476h-.26a1.974 1.974 0 0 1-1.972-1.972v-.72c0-1.087.885-1.972 1.972-1.972h.26c1.087 0 1.972.885 1.972 1.972v.72a1.974 1.974 0 0 1-1.972 1.972m-.26-4.198c-.83 0-1.505.676-1.505 1.505v.72c0 .83.675 1.505 1.505 1.505h.26c.83 0 1.505-.675 1.505-1.504v-.72c0-.83-.675-1.506-1.505-1.506zm.919-41.328 1.812.916-20.789 41.118-1.812-.917z"/><path fill="#757575" d="M42.987 96.276a.2.2 0 0 1-.105-.025l-1.813-.917a.233.233 0 0 1-.103-.313l20.798-41.137a.234.234 0 0 1 .313-.103l1.814.916a.233.233 0 0 1 .102.314L43.196 96.148a.23.23 0 0 1-.209.128m-1.5-1.253 1.398.706 20.587-40.72-1.397-.706z"/><path fill="#fff" d="m43.003 93.974-.232-.118a1.74 1.74 0 0 0-2.336.767l-.325.643a1.74 1.74 0 0 0 .767 2.336l.232.117c.857.433 1.903.09 2.336-.767l.325-.643a1.74 1.74 0 0 0-.767-2.335"/><path fill="#757575" d="M41.868 98.144a1.96 1.96 0 0 1-.886-.212l-.232-.118a1.96 1.96 0 0 1-.984-1.144 1.96 1.96 0 0 1 .114-1.505l.325-.643c.49-.97 1.68-1.36 2.65-.87l.232.118c.47.238.82.644.983 1.144.165.5.125 1.035-.113 1.505l-.325.643a1.97 1.97 0 0 1-1.763 1.082m-.675-.628c.74.374 1.647.076 2.022-.665l.325-.642a1.5 1.5 0 0 0 .087-1.149 1.5 1.5 0 0 0-.751-.874l-.233-.117a1.507 1.507 0 0 0-2.022.664l-.325.642a1.5 1.5 0 0 0-.087 1.15c.126.382.392.691.751.873zM81.21 95.14l-1.812.917-20.79-41.117 1.813-.916z"/><path fill="#757575" d="M79.353 96.276a.23.23 0 0 1-.209-.128L58.347 55.01a.234.234 0 0 1 .102-.314l1.814-.916a.233.233 0 0 1 .314.103L81.374 95.02a.234.234 0 0 1-.103.314l-1.813.916a.2.2 0 0 1-.105.025M58.869 55.01l20.587 40.72 1.396-.706-20.587-40.72z"/><path fill="#fff" d="m81.339 97.798.232-.117a1.74 1.74 0 0 0 .767-2.336l-.325-.643a1.74 1.74 0 0 0-2.336-.767l-.232.117a1.74 1.74 0 0 0-.767 2.336l.325.643a1.74 1.74 0 0 0 2.336.767"/><path fill="#757575" d="M80.472 98.144c-.72 0-1.416-.397-1.763-1.083l-.325-.642a1.96 1.96 0 0 1-.114-1.505c.165-.5.514-.907.984-1.144l.232-.118c.97-.49 2.159-.1 2.65.87l.324.642a1.96 1.96 0 0 1 .114 1.505c-.165.5-.514.907-.984 1.145l-.232.117a1.95 1.95 0 0 1-.886.212m-.098-4.237c-.229 0-.46.052-.677.162l-.232.118a1.5 1.5 0 0 0-.751.874c-.126.381-.095.79.087 1.148l.325.643a1.507 1.507 0 0 0 2.022.664l.232-.118a1.5 1.5 0 0 0 .75-.873 1.5 1.5 0 0 0-.086-1.15l-.325-.642a1.51 1.51 0 0 0-1.345-.826"/><path fill="#fff" d="M61.359 51.658h-.378a2.53 2.53 0 0 0-2.529 2.53v3.654a2.53 2.53 0 0 0 2.529 2.529h.378a2.53 2.53 0 0 0 2.529-2.529v-3.655a2.53 2.53 0 0 0-2.529-2.529"/><path fill="#757575" d="M61.36 60.604h-.379a2.765 2.765 0 0 1-2.762-2.762v-3.655a2.765 2.765 0 0 1 2.762-2.763h.378a2.765 2.765 0 0 1 2.763 2.763v3.655a2.765 2.765 0 0 1-2.763 2.762m-.379-8.712a2.3 2.3 0 0 0-2.296 2.295v3.655a2.3 2.3 0 0 0 2.296 2.296h.378a2.3 2.3 0 0 0 2.296-2.296v-3.655a2.3 2.3 0 0 0-2.296-2.295z"/><path fill="#757575" d="M60.8 46.52h.78a5.215 5.215 0 0 1 5.212 5.211v4.548H55.588v-4.548A5.215 5.215 0 0 1 60.8 46.52"/><path fill="#757575" d="M66.792 56.513H55.588a.233.233 0 0 1-.233-.233v-4.548a5.45 5.45 0 0 1 5.445-5.446h.78a5.45 5.45 0 0 1 5.445 5.446v4.548a.233.233 0 0 1-.233.233m-10.97-.467h10.737v-4.314a4.985 4.985 0 0 0-4.98-4.979H60.8a4.984 4.984 0 0 0-4.979 4.979z"/><path fill="#b3b3b3" d="M34.19 18.124V12.86L42.67.768h6.8V12.66h2.049v5.463H49.47v3.13h-6.374v-3.13zm9.42-10.158-3.073 4.695h3.073zm14.269-5.15Q59.968 0 64.323 0c2.902 0 5.026.944 6.43 2.831q2.106 2.832 2.105 7.726c0 3.262-.701 5.866-2.105 7.753q-2.106 2.831-6.43 2.831c-2.883 0-5.05-.943-6.445-2.83q-2.091-2.831-2.091-7.754 0-4.924 2.091-7.74m8.294 4.311q-.456-1.152-1.85-1.152c-.928 0-1.574.384-1.877 1.152q-.456 1.153-.455 3.429c0 1.517.151 2.689.455 3.457q.454 1.152 1.878 1.152c.948 0 1.545-.384 1.849-1.152q.455-1.152.455-3.457c0-1.536-.152-2.66-.455-3.429m11.153 10.997V12.86L85.805.768h6.8V12.66h2.048v5.463h-2.049v3.13h-6.373v-3.13zm9.418-10.158-3.073 4.695h3.073z"/></svg>