<svg xmlns="http://www.w3.org/2000/svg" width="129" height="125" fill="none" viewBox="0 0 129 125"><path fill="#b3b3b3" d="M115.168 26.15v-.017l-.002.008-.002-.008v.017q-.33 1.196-1.525 1.71 1.195.515 1.525 1.711v.017l.002-.008.002.008v-.017q.33-1.196 1.525-1.71-1.195-.516-1.525-1.711M84.52 5.2v-.016l-.003.008-.002-.008V5.2q-.33 1.196-1.525 1.71 1.195.515 1.525 1.711v.017l.002-.008.003.008v-.017q.33-1.196 1.524-1.71Q84.85 6.395 84.52 5.2M37.982 78.77v-.017l-.002.009-.003-.009v.017q-.33 1.197-1.524 1.71 1.194.515 1.524 1.712v.017l.003-.009.002.008v-.016q.33-1.197 1.524-1.711-1.194-.515-1.524-1.71M12.793 56.19v-.017l-.002.008-.003-.008v.017q-.33 1.196-1.524 1.71 1.195.516 1.524 1.712v.016l.003-.008.002.008v-.017q.33-1.196 1.525-1.71-1.195-.515-1.525-1.711m.002 26.659v-.034l-.004.017-.005-.017v.034q-.66 2.391-3.05 3.421 2.39 1.03 3.05 3.422v.034l.005-.017.004.017v-.034q.66-2.393 3.05-3.422-2.39-1.03-3.05-3.421M110.376.034V0l-.004.017-.005-.017v.034q-.66 2.393-3.049 3.422 2.39 1.03 3.049 3.421v.034l.005-.017.004.017v-.034q.66-2.392 3.049-3.421-2.39-1.03-3.049-3.422"/><path fill="#fff" d="M128.553 123.915c-16.99-15.313-39.486-24.635-64.16-24.635-24.675 0-47.17 9.322-64.16 24.635"/><path fill="#757575" d="M128.553 124.148a.23.23 0 0 1-.156-.06 96.3 96.3 0 0 0-13.69-10.284 95.5 95.5 0 0 0-15.437-7.732c-11.107-4.352-22.841-6.558-34.877-6.558s-23.77 2.207-34.876 6.558a95.5 95.5 0 0 0-15.438 7.732A96 96 0 0 0 .39 124.088a.234.234 0 0 1-.312-.347 96.7 96.7 0 0 1 13.757-10.334 96 96 0 0 1 15.513-7.769c11.161-4.374 22.953-6.59 35.047-6.59s23.885 2.217 35.046 6.59a96 96 0 0 1 15.514 7.769 96.7 96.7 0 0 1 13.756 10.334.235.235 0 0 1 .017.33.24.24 0 0 1-.173.077z"/><path fill="#fff" d="M9.626 116.454v-3.91s5.203-5.674 11.444-9.173c10.715-6.007 16.213-5.284 16.213-5.284l7.624 3.176s-5.042 7.102-15.232 12.255c-7.434 3.76-13.72 5.196-13.72 5.196"/><path fill="#757575" d="M15.956 118.946a.233.233 0 0 1-.052-.461c.063-.014 6.345-1.474 13.665-5.176a48.1 48.1 0 0 0 11.382-8.021c1.963-1.873 3.164-3.368 3.59-3.926l-7.316-3.047c-.209-.02-1.571-.121-4.02.397-4.447.941-8.992 3.163-12.021 4.861-5.778 3.239-10.721 8.418-11.325 9.062v3.818a.234.234 0 1 1-.466 0v-3.91c0-.058.022-.115.06-.157.053-.057 5.3-5.742 11.502-9.219 3.07-1.721 7.676-3.971 12.191-4.92 2.722-.571 4.11-.4 4.167-.392q.03.004.06.016l7.623 3.176a.23.23 0 0 1 .135.151.24.24 0 0 1-.034.199c-.013.018-1.303 1.822-3.825 4.229a48.6 48.6 0 0 1-11.493 8.1c-7.374 3.729-13.71 5.2-13.772 5.214a.2.2 0 0 1-.053.006z"/><path fill="#757575" d="M12.79 112.858a.234.234 0 0 1-.085-.451c.016-.006 1.64-.648 9.404-4.233 7.727-3.568 10.692-6.795 10.721-6.827a.233.233 0 1 1 .347.312c-.03.034-.766.843-2.48 2.11-1.573 1.161-4.307 2.942-8.392 4.829-7.791 3.597-9.366 4.219-9.43 4.243a.2.2 0 0 1-.085.016z"/><path fill="#fff" d="M81.77 100.855s5.713-1.575 6.53-1.575c2.411 0 6.224.439 14.942 4.482s13.92 8.481 13.92 8.481l3.109 4.997s-8.328 1.068-19.744-3.354-17.103-9.224-17.103-9.224"/><path fill="#757575" d="M117.812 117.588c-.854 0-1.913-.033-3.151-.134-3.218-.262-8.295-1.055-14.219-3.35-3.264-1.265-8.146-3.382-12.87-6.29-2.83-1.742-4.284-2.962-4.298-2.974a.23.23 0 0 1-.082-.158.24.24 0 0 1 .054-.171.234.234 0 0 1 .329-.028c.014.012 1.449 1.215 4.254 2.941 2.589 1.592 6.908 3.968 12.782 6.244 5.864 2.271 10.888 3.059 14.071 3.319 2.616.214 4.45.117 5.192.057l-2.891-4.647c-.417-.349-5.572-4.59-13.839-8.424-3.918-1.817-7.123-3.042-9.797-3.743-2.422-.636-3.969-.717-5.046-.717-.644 0-4.888 1.131-6.469 1.567a.234.234 0 0 1-.124-.45c.588-.162 5.768-1.583 6.593-1.583 2.635 0 6.483.535 15.04 4.503a75 75 0 0 1 10.261 5.775c2.374 1.604 3.698 2.729 3.711 2.741a.2.2 0 0 1 .047.054l3.109 4.996a.24.24 0 0 1 .013.224.23.23 0 0 1-.181.131c-.056.007-.934.116-2.489.116z"/><path fill="#757575" d="m113.64 112.439-.026-.001c-.064-.007-6.538-.738-13.677-3.908-2.058-.913-5.062-2.382-7.687-4.193-1.579-1.088-2.264-1.778-2.293-1.807a.23.23 0 0 1 .002-.329.24.24 0 0 1 .166-.068q.046.001.09.019a.2.2 0 0 1 .075.051c.033.034 2.794 2.774 9.837 5.901 7.068 3.138 13.474 3.863 13.538 3.869a.234.234 0 0 1-.025.466m-45.646-12.195q-2.046 2.079-4.31.241L60.736 47.72l4.31-.24z"/><path fill="#757575" d="M65.762 101.581c-.73 0-1.477-.307-2.226-.915a.24.24 0 0 1-.086-.168l-2.946-52.765a.23.23 0 0 1 .22-.246l4.31-.24a.234.234 0 0 1 .247.22l2.945 52.764a.23.23 0 0 1-.067.177c-.72.732-1.478 1.126-2.254 1.169a2 2 0 0 1-.144.004zm-1.852-1.214c1.356 1.06 2.616.989 3.845-.214l-2.927-52.428-3.845.215z"/><path fill="#e6e6e6" d="m88.015 50.88-.187-10.403c-.021-4.54-3.34-12.104-8.02-12.718l-29.45-3.866-3.636 27.704 23.815 3.126 5.636.74 5.635.739c3.366.442 6.224-2.057 6.207-5.323"/><path fill="#757575" d="M82.566 56.485a6 6 0 0 1-.789-.051l-35.086-4.606a.234.234 0 0 1-.2-.262l3.636-27.703a.233.233 0 0 1 .261-.201l29.45 3.866c2.18.286 4.286 2.063 5.93 5.004 1.403 2.51 2.282 5.553 2.293 7.944l.187 10.4v.002a5.54 5.54 0 0 1-1.87 4.19 5.75 5.75 0 0 1-3.812 1.417m-35.582-5.09 34.854 4.576c1.555.205 3.098-.253 4.232-1.253a5.08 5.08 0 0 0 1.712-3.836l-.187-10.401c-.011-2.32-.867-5.277-2.234-7.722-1.57-2.809-3.553-4.502-5.583-4.769L50.56 24.155z"/><path fill="#757575" d="m52.357 52.337-11.27-1.48c-3.366-.441-5.483-3.593-4.624-6.744l2.865-10.002c1.193-4.381 6.35-10.831 11.03-10.217s7.998 8.177 8.019 12.718l.187 10.402c.018 3.266-2.842 5.765-6.207 5.323"/><path fill="#757575" d="M53.116 52.62q-.393 0-.789-.052l-11.27-1.48c-1.69-.221-3.181-1.135-4.094-2.507a5.54 5.54 0 0 1-.725-4.53l2.867-10.005c.626-2.304 2.26-5.018 4.264-7.08 2.347-2.418 4.84-3.59 7.02-3.305 2.18.287 4.285 2.063 5.93 5.005 1.402 2.509 2.28 5.553 2.292 7.943l.187 10.4a5.54 5.54 0 0 1-1.87 4.192 5.75 5.75 0 0 1-3.812 1.418m-.728-.515c1.555.204 3.097-.253 4.231-1.253a5.08 5.08 0 0 0 1.712-3.838l-.187-10.4c-.01-2.319-.867-5.276-2.233-7.72-1.57-2.81-3.554-4.503-5.583-4.77s-4.383.859-6.625 3.167c-1.95 2.009-3.54 4.645-4.15 6.88l-2.865 10.005a5.07 5.07 0 0 0 .664 4.146c.837 1.26 2.21 2.099 3.765 2.303z"/><path fill="#fff" d="M52.755 52.389 41.88 50.961c-3.248-.426-7.027.973-8.168 2.974l-3.502 6.382c-1.59 2.783-.916 7.57 3.598 8.162s12.021-3.12 14.782-5.75l6.448-5.994c1.988-1.89.964-3.92-2.283-4.346"/><path fill="#757575" d="M34.815 68.775q-.54 0-1.038-.064c-2.338-.307-3.46-1.644-3.99-2.712-.86-1.733-.771-4.062.22-5.797l3.5-6.378c.583-1.023 1.796-1.91 3.418-2.505 1.612-.59 3.382-.799 4.984-.589l10.876 1.428c1.819.239 3.06.984 3.406 2.045.282.865-.071 1.824-.994 2.701l-6.45 5.997c-2.676 2.549-9.367 5.873-13.932 5.874m5.867-17.656c-2.826 0-5.8 1.236-6.767 2.932l-3.5 6.379c-.92 1.609-1.003 3.762-.21 5.362.48.966 1.499 2.176 3.633 2.456 1.99.261 4.805-.325 7.927-1.65 2.698-1.146 5.251-2.693 6.663-4.038l6.45-5.996c.783-.745 1.092-1.532.87-2.216-.284-.87-1.414-1.517-3.024-1.728L41.85 51.192a9 9 0 0 0-1.167-.074"/><path fill="#fff" d="m67.239 19.113 5.68.745-.517 3.936-5.68-.745z"/><path fill="#757575" d="M72.436 24.054q-.016 0-.031-.002l-5.682-.745a.234.234 0 0 1-.201-.262l.517-3.938a.234.234 0 0 1 .262-.201l5.682.746a.234.234 0 0 1 .2.261l-.516 3.938a.233.233 0 0 1-.231.203m-5.42-1.18 5.218.685.456-3.475-5.219-.685z"/><path fill="#fff" d="m82.128 39.254-7.365-.966a1.106 1.106 0 0 0-1.24.953l-.022.167c-.08.606.347 1.161.953 1.24l7.365.967a1.106 1.106 0 0 0 1.24-.953l.022-.168a1.106 1.106 0 0 0-.953-1.24"/><path fill="#757575" d="M82 41.896q-.087 0-.176-.012l-7.369-.968a1.33 1.33 0 0 1-.888-.512 1.33 1.33 0 0 1-.266-.99l.022-.169c.096-.732.77-1.25 1.503-1.154l7.368.967c.356.047.671.229.889.513.218.283.313.635.266.99l-.022.168a1.34 1.34 0 0 1-1.328 1.166m-.115-.475a.875.875 0 0 0 .98-.752l.022-.168a.87.87 0 0 0-.753-.98l-7.368-.967a.875.875 0 0 0-.98.752l-.022.168a.87.87 0 0 0 .752.98z"/><path fill="#fff" d="m81.494 44.454-7.369-.967a1.107 1.107 0 0 0-1.241.954l-.022.167c-.08.607.347 1.163.954 1.242l7.368.966a1.107 1.107 0 0 0 1.242-.954l.022-.167a1.107 1.107 0 0 0-.954-1.241"/><path fill="#757575" d="M81.32 47.07a1 1 0 0 1-.175-.01l-7.369-.968a1.33 1.33 0 0 1-.888-.513 1.33 1.33 0 0 1-.267-.99l.022-.168a1.34 1.34 0 0 1 1.503-1.155l7.37.968c.732.096 1.25.77 1.154 1.503l-.022.168a1.34 1.34 0 0 1-1.328 1.165m-7.349-3.348a.87.87 0 0 0-.864.76l-.022.168a.87.87 0 0 0 .752.98l7.369.968a.874.874 0 0 0 .98-.753l.022-.168a.875.875 0 0 0-.752-.98l-7.37-.967a1 1 0 0 0-.114-.007z"/><path fill="#d9d9d9" d="M110.871 81.207c7.138 0 12.924-5.786 12.924-12.923s-5.786-12.923-12.924-12.923c-7.137 0-12.923 5.786-12.923 12.923s5.786 12.923 12.923 12.923"/><path fill="#b3b3b3" d="M113.418 55.612c.077 1.941-.054 3.966-.7 5.332-1.622 3.422-4.143 4.503-9.907 7.34-2.36 1.162-3.327 3.328-3.646 5.481a13 13 0 0 0 4.034 4.919c.389-1.627 1.124-3.437 2.494-4.951 3.422-3.783 8.645-.18 14.688-3.242 1.602-.812 2.651-2.155 3.328-3.69-.639-5.593-4.847-10.1-10.291-11.189"/><path fill="#e6e6e6" d="M19.501 27.858c5.916 0 10.711-4.796 10.711-10.712S25.417 6.435 19.501 6.435 8.79 11.23 8.79 17.146s4.795 10.712 10.711 10.712"/><path fill="#b3b3b3" d="M3.283 26.66c-.95 0-1.507-.21-1.695-.639-.27-.611.305-1.489 1.754-2.682 1.29-1.061 3.252-2.345 5.672-3.713a.233.233 0 0 1 .23.406c-2.397 1.355-4.335 2.623-5.605 3.668-1.746 1.436-1.685 1.996-1.624 2.133.073.167.703.93 5.906-.441 3.638-.96 8.293-2.653 13.108-4.771s9.21-4.403 12.375-6.437c4.528-2.907 4.39-3.887 4.318-4.054-.06-.136-.427-.556-2.63-.25-1.603.221-3.816.78-6.4 1.615a.233.233 0 1 1-.144-.444c2.61-.843 4.85-1.408 6.48-1.634 1.833-.254 2.854-.082 3.121.525.216.49-.105 1.144-.982 1.996-.772.751-1.953 1.639-3.51 2.639-3.185 2.046-7.603 4.344-12.44 6.471s-9.516 3.83-13.177 4.795c-1.79.472-3.242.742-4.317.803a8 8 0 0 1-.44.013"/><path fill="#fff" d="m66.059 18.958 1.518.2-2.76 21.036-1.518-.2z"/><path fill="#757575" d="m64.846 40.462-.03-.002-1.52-.199a.234.234 0 0 1-.2-.262l2.762-21.047a.23.23 0 0 1 .262-.2l1.519.199a.233.233 0 0 1 .2.262L65.078 40.26a.23.23 0 0 1-.23.202zm-1.258-.633 1.057.138 2.702-20.584-1.056-.139z"/><path fill="#fff" d="M65.278 43.916a2.837 2.837 0 1 0 0-5.674 2.837 2.837 0 0 0 0 5.674"/><path fill="#757575" d="M65.284 44.15q-.202 0-.406-.027a3.05 3.05 0 0 1-2.035-1.174 3.05 3.05 0 0 1-.61-2.27 3.05 3.05 0 0 1 1.175-2.035 3.05 3.05 0 0 1 2.27-.609 3.074 3.074 0 0 1 2.644 3.444 3.05 3.05 0 0 1-1.174 2.035 3.05 3.05 0 0 1-1.864.636m-.011-5.675a2.58 2.58 0 0 0-1.581.54 2.6 2.6 0 0 0-.996 1.725c-.09.69.093 1.373.517 1.925a2.6 2.6 0 0 0 1.726.996c.69.09 1.373-.093 1.925-.517a2.6 2.6 0 0 0 .995-1.726 2.607 2.607 0 0 0-2.587-2.943"/></svg>