<svg xmlns="http://www.w3.org/2000/svg" width="131" height="119" fill="none" viewBox="0 0 131 119"><path fill="#fff" d="m86.395 46.647 3.677-1.488c.518-.21 1.11.041 1.319.56l.403.996a3 3 0 0 1-1.654 3.9 3 3 0 0 1-3.9-1.653l-.404-.997a1.013 1.013 0 0 1 .56-1.319"/><path fill="#757575" d="M89.018 51.074c-.428 0-.855-.086-1.26-.258a3.2 3.2 0 0 1-1.734-1.762l-.403-.996a1.24 1.24 0 0 1 .008-.954 1.24 1.24 0 0 1 .68-.669l3.677-1.487a1.24 1.24 0 0 1 .953.008c.307.13.545.371.67.68l.402.996a3.2 3.2 0 0 1-.02 2.472 3.2 3.2 0 0 1-1.762 1.733 3.2 3.2 0 0 1-1.212.237m1.436-5.75a.8.8 0 0 0-.293.056l-3.676 1.488a.775.775 0 0 0-.488.716q-.001.155.057.3l.403.996c.277.684.803 1.219 1.483 1.507s1.43.294 2.114.018a2.766 2.766 0 0 0 1.525-3.597l-.403-.997a.78.78 0 0 0-.722-.487"/><path fill="#b3b3b3" d="M40.907 84.187v-.017l-.003.009-.002-.009v.017q-.33 1.197-1.525 1.71 1.195.515 1.525 1.712v.017l.002-.009.002.008v-.016q.33-1.197 1.525-1.711-1.195-.514-1.524-1.71m-21.86 17.595v-.016l-.002.008-.003-.008v.016q-.33 1.197-1.524 1.711 1.195.514 1.524 1.711v.017l.003-.009.002.009v-.017q.33-1.197 1.524-1.711-1.194-.514-1.524-1.711M17.52 10.179v-.017l-.002.008-.003-.008v.016q-.33 1.197-1.524 1.711 1.195.515 1.524 1.711v.017l.003-.009.002.009V13.6q.33-1.196 1.525-1.71-1.195-.515-1.525-1.712M106.194.016V0l-.002.008-.003-.008v.017q-.33 1.196-1.524 1.71 1.195.516 1.524 1.711v.017l.003-.008.002.008v-.017q.33-1.196 1.525-1.71-1.195-.515-1.525-1.711M38.182 105.113v-.034l-.005.018-.005-.018v.034q-.66 2.393-3.049 3.422 2.39 1.03 3.05 3.422v.034l.004-.018.005.018v-.034q.66-2.393 3.049-3.422-2.39-1.03-3.05-3.422m-17.485-27.78v-.034l-.005.017-.005-.017v.034q-.66 2.391-3.049 3.421 2.39 1.03 3.05 3.422v.034l.004-.017.005.017v-.034q.66-2.393 3.049-3.422-2.39-1.03-3.05-3.421m100.564-65.41v-.034l-.004.018-.005-.018v.034q-.66 2.393-3.049 3.422 2.39 1.03 3.049 3.422v.034l.005-.018.004.018v-.034q.66-2.393 3.05-3.422-2.39-1.03-3.05-3.422"/><path fill="#757575" d="m17.518 48.273-8.86 4.066a2.846 2.846 0 0 1-3.982-2.049L.286 27.52a2.846 2.846 0 0 1 2.936-3.383l9.736.481z"/><path fill="#757575" d="M7.47 52.833c-.482 0-.964-.114-1.408-.343a3.06 3.06 0 0 1-1.615-2.155L.057 27.564a3.06 3.06 0 0 1 .698-2.602 3.06 3.06 0 0 1 2.477-1.057l9.736.48a.23.23 0 0 1 .218.19l4.56 23.654a.23.23 0 0 1-.131.256l-8.86 4.066a3.1 3.1 0 0 1-1.285.283M3.078 24.368c-.758 0-1.47.323-1.97.9a2.6 2.6 0 0 0-.592 2.207l4.39 22.771c.153.793.652 1.46 1.37 1.829.719.37 1.552.388 2.286.051l8.693-3.989-4.491-23.295-9.553-.471z"/><path fill="#fff" d="M93.658 28.918c-15.846 6.46-58.676 17.703-71.765 21.081a3.737 3.737 0 0 1-4.604-2.911L13.01 24.89a3.737 3.737 0 0 1 2.932-4.371c23.943-4.81 48.706-10.966 76.473-9.511 8.183.428 15.247 2.688 15.949 6.324.516 2.678-6.285 8.151-14.706 11.585"/><path fill="#757575" d="M20.948 50.354c-.74 0-1.466-.21-2.111-.618a3.93 3.93 0 0 1-1.777-2.604l-4.28-22.197a3.98 3.98 0 0 1 3.116-4.644c2.997-.602 6.067-1.238 9.036-1.852C46.16 14.045 68.108 9.5 92.428 10.776c4.17.218 8.023.92 10.849 1.973 3.13 1.168 4.968 2.737 5.316 4.54.269 1.395-1.182 3.432-4.086 5.736-2.838 2.251-6.76 4.478-10.761 6.109-15.873 6.472-58.966 17.78-71.795 21.09a4 4 0 0 1-1.003.13m63.076-39.33c-20.974 0-40.267 3.995-58.997 7.872-2.97.614-6.04 1.25-9.04 1.852a3.513 3.513 0 0 0-2.748 4.099l4.279 22.196a3.47 3.47 0 0 0 1.568 2.299 3.47 3.47 0 0 0 2.748.43c12.822-3.309 55.889-14.61 71.735-21.07 3.962-1.616 7.843-3.818 10.648-6.044 2.681-2.126 4.145-4.1 3.917-5.282-.315-1.634-2.051-3.083-5.021-4.19-2.783-1.038-6.587-1.729-10.71-1.945a160 160 0 0 0-8.379-.218z"/><path fill="#757575" d="M29.54 17.771s6.084 7.606 21.097 4.692c8.709-1.69 9.508-4.827 12.22-7.156s5.765-3.853 5.765-3.853-5.111-4.99-19.586-3.67C38.123 8.779 29.54 17.77 29.54 17.77"/><path fill="#757575" d="M44.07 23.36q-1.588.001-3.09-.169c-2.396-.271-4.622-.866-6.617-1.769-3.41-1.542-4.941-3.426-5.005-3.505a.234.234 0 0 1 .014-.307c.021-.023 2.203-2.294 5.694-4.653 2.05-1.386 4.146-2.533 6.23-3.408 2.61-1.097 5.206-1.77 7.72-1.998 3.317-.303 6.417-.297 9.213.017 2.243.252 4.297.701 6.106 1.336 3.1 1.087 4.397 2.33 4.45 2.383a.233.233 0 0 1-.058.376c-.03.015-3.06 1.539-5.717 3.82-.594.51-1.091 1.057-1.617 1.634-1.813 1.991-3.868 4.247-10.711 5.575-2.294.445-4.507.668-6.611.668m-14.213-5.577c.64.716 2.267 2.119 4.726 3.227 1.95.878 4.127 1.457 6.472 1.72 2.936.33 6.145.162 9.537-.496 2.997-.581 5.31-1.387 7.068-2.463 1.543-.944 2.48-1.973 3.387-2.968.536-.589 1.043-1.145 1.659-1.673 2.2-1.89 4.65-3.266 5.501-3.721-.507-.399-1.797-1.288-4.065-2.078-1.776-.619-3.793-1.056-5.997-1.302-2.757-.307-5.814-.311-9.088-.013-2.463.225-5.011.885-7.574 1.961-2.054.863-4.122 1.993-6.146 3.36-2.94 1.986-4.939 3.907-5.48 4.446"/><path fill="#fff" d="M57.62 20.215s4.21-1.558 8.207-3.978c5.793-3.508 6.69-5.059 6.69-5.059l-6.99-1.56s-.723 2.146-2.626 5.043c-2.495 3.8-5.282 5.554-5.282 5.554"/><path fill="#757575" d="M57.62 20.448a.234.234 0 0 1-.125-.43c.027-.018 2.776-1.777 5.212-5.485 1.864-2.839 2.593-4.968 2.6-4.989a.233.233 0 0 1 .272-.153l6.99 1.56a.234.234 0 0 1 .15.344c-.037.066-.993 1.643-6.77 5.142-3.97 2.404-8.206 3.982-8.248 3.997a.2.2 0 0 1-.081.015m8.057-10.557c-.224.598-.991 2.477-2.58 4.898-1.422 2.164-2.924 3.664-3.974 4.567 1.586-.672 4.136-1.837 6.583-3.32 2.933-1.775 4.572-3.032 5.431-3.774.496-.427.796-.738.97-.937z"/><path fill="#fff" d="m33.631 56.664-15.788 3.043c-1.24.24-2.211-.767-1.714-1.774l11.028-22.324c.34-.69 1.061-1.207 1.91-1.371l32.011-6.171c.851-.165 1.412.654.85 1.24l-23.94 25.04c-1.119 1.169-2.662 1.99-4.357 2.316"/><path fill="#757575" d="M17.474 59.977c-.576 0-1.099-.237-1.423-.663a1.39 1.39 0 0 1-.131-1.484l11.028-22.324c.375-.76 1.151-1.318 2.076-1.497l32.01-6.17c.52-.101 1.02.107 1.243.518.198.364.129.79-.18 1.113l-23.94 25.038c-1.15 1.203-2.742 2.05-4.482 2.385l-15.788 3.043q-.21.041-.413.04m43.822-31.698a1 1 0 0 0-.173.017l-32.01 6.171c-.783.15-1.436.616-1.747 1.245L16.338 58.036a.92.92 0 0 0 .084.995c.287.377.828.553 1.377.447l15.787-3.044c1.646-.317 3.15-1.116 4.233-2.249l23.94-25.038c.169-.176.208-.383.108-.567-.088-.16-.292-.3-.572-.3"/><path fill="#e6e6e6" d="M92.415 11.009a158 158 0 0 0-6.137-.202 55.7 55.7 0 0 1 3.74 19.51 109 109 0 0 0 3.64-1.399c8.421-3.434 15.222-8.907 14.706-11.585-.701-3.636-7.765-5.895-15.949-6.324"/><path fill="#757575" d="M90.019 30.55a.23.23 0 0 1-.206-.124.23.23 0 0 1-.028-.107 55.8 55.8 0 0 0-3.724-19.429.233.233 0 0 1 .22-.317c2.06.028 4.128.096 6.146.202 4.17.219 8.023.92 10.849 1.974 3.131 1.167 4.969 2.737 5.316 4.54.269 1.395-1.181 3.432-4.086 5.735-2.838 2.252-6.76 4.479-10.76 6.11-1.068.435-2.295.906-3.648 1.401a.2.2 0 0 1-.08.014m-3.4-19.505a56.2 56.2 0 0 1 3.629 18.939 107 107 0 0 0 3.322-1.283c3.961-1.615 7.842-3.817 10.648-6.042 2.68-2.127 4.145-4.101 3.917-5.283-.315-1.633-2.051-3.082-5.021-4.19-2.783-1.038-6.587-1.728-10.71-1.945-1.9-.1-3.845-.166-5.785-.196"/><path fill="#e6e6e6" d="M20.692 48.697S39.24 44.014 45.574 43.9c.532-.01 2.105.328 2.105.328l7.983-8.35s-2.646-.13-3.524-.053c-7.032.616-27.727 5.345-27.727 5.345z"/><path fill="#757575" d="M20.692 48.93a.233.233 0 0 1-.21-.337l3.72-7.527a.23.23 0 0 1 .156-.124c.207-.047 20.791-4.739 27.76-5.35.883-.078 3.447.048 3.556.053a.234.234 0 0 1 .157.395l-7.983 8.349a.23.23 0 0 1-.218.067c-.43-.093-1.637-.33-2.052-.323-6.235.112-24.644 4.743-24.829 4.79a.2.2 0 0 1-.057.007m3.878-7.557-3.446 6.976c2.983-.74 18.735-4.58 24.446-4.682.466-.01 1.638.224 2.03.306l7.538-7.884c-.81-.034-2.361-.087-2.98-.032-6.675.585-25.96 4.946-27.588 5.315"/><path fill="#fff" d="m97.108 75.866-5.77 2.815s-2.986-6.126-6.868-9.224-15.617-4.614-15.617-4.614l-1.374 6.346s6.717 1.076 10.063 3.059c4.567 2.707 6.575 8.81 6.575 8.81s-6.392-2.104-10.122-1.563-8.682 3.75-8.682 3.75l3.137 6.69s5.149-3.418 9.642-2.123 6.96 3.82 8.946 5.161c2.251 1.52 6.914-.245 8.803-1.127 1.888-.881 7.377-2.403 7.377-2.403l-6.11-15.578"/><path fill="#757575" d="M89.4 95.802c-.938 0-1.812-.176-2.492-.635-.456-.308-.94-.68-1.454-1.074-1.78-1.366-3.994-3.067-7.427-4.057-1.245-.359-3.358-.552-6.35.567a17 17 0 0 0-3.098 1.527.234.234 0 0 1-.34-.096l-3.137-6.69a.234.234 0 0 1 .085-.294 37 37 0 0 1 2.963-1.684c2.284-1.166 4.24-1.873 5.812-2.101 3.205-.466 8.233.958 9.773 1.43a21.6 21.6 0 0 0-1.4-2.919c-.964-1.674-2.6-3.956-4.912-5.327-3.269-1.937-9.914-3.019-9.98-3.03a.234.234 0 0 1-.192-.28l1.373-6.345a.233.233 0 0 1 .259-.182 80 80 0 0 1 6.374 1.149c4.572 1.025 7.721 2.207 9.359 3.514 2.03 1.62 3.807 4.064 4.94 5.83a40 40 0 0 1 1.887 3.265l5.563-2.715a.234.234 0 0 1 .32.124l6.11 15.579a.232.232 0 0 1-.154.31c-.055.015-5.493 1.526-7.342 2.39-.777.362-3.91 1.742-6.54 1.742zm-13.47-6.513c.739 0 1.49.087 2.227.299 3.517 1.013 5.77 2.744 7.581 4.135.507.39.987.757 1.43 1.056.924.624 2.39.725 4.359.303 1.864-.4 3.569-1.145 4.215-1.447 1.676-.782 6.059-2.035 7.165-2.347l-5.924-15.102-5.543 2.704a.23.23 0 0 1-.178.01.23.23 0 0 1-.134-.118c-.03-.06-3.008-6.115-6.803-9.143-3.503-2.795-13.688-4.312-15.29-4.536l-1.276 5.896c.542.094 1.93.348 3.553.748 2.805.691 4.942 1.465 6.349 2.299 2.403 1.424 4.09 3.78 5.083 5.505 1.072 1.864 1.574 3.37 1.594 3.434a.234.234 0 0 1-.167.3.23.23 0 0 1-.127-.005c-.016-.005-1.614-.529-3.645-.98-2.672-.593-4.874-.792-6.37-.575-3.252.472-7.516 3.044-8.417 3.607l2.937 6.264a18 18 0 0 1 2.955-1.428c1.188-.445 2.773-.88 4.426-.88"/><path fill="#fff" d="M90.155 85.354s-3.525-1.683-6.038-2.295z"/><path fill="#757575" d="M90.155 85.587a.2.2 0 0 1-.1-.023c-.035-.016-3.533-1.68-5.993-2.278a.234.234 0 0 1 .11-.454c2.508.61 6.048 2.294 6.083 2.311a.233.233 0 0 1-.1.444"/><path fill="#fff" d="M99.554 73.913s-1.017-4.978 1.418-9.278 10.317-8.75 10.317-8.75l2.891 4.336s-5.051 3.242-6.672 5.92c-1.099 1.816-.118 6.203-.118 6.203z"/><path fill="#757575" d="M99.554 74.146a.23.23 0 0 1-.228-.187c-.01-.052-.259-1.291-.209-3.08.046-1.652.37-4.097 1.652-6.36 1.026-1.812 3.092-3.851 6.138-6.061a51 51 0 0 1 4.268-2.777.233.233 0 0 1 .309.074l2.891 4.336a.23.23 0 0 1 .034.177.23.23 0 0 1-.102.149c-.05.032-5.025 3.244-6.599 5.845-1.038 1.715-.1 5.988-.09 6.03q.01.047.002.093a.23.23 0 0 1-.184.188l-7.835 1.568a.2.2 0 0 1-.047.005m11.663-17.95c-1.206.705-7.874 4.726-10.042 8.554-1.231 2.175-1.545 4.534-1.59 6.13a15.5 15.5 0 0 0 .159 2.757l7.37-1.475c-.19-.952-.804-4.492.194-6.141.687-1.135 2.033-2.49 4.001-4.028a42 42 0 0 1 2.547-1.838z"/><path fill="#fff" d="m111.417 75.56-3.228-3.66s-3.618-.914-7.404.237c-2.216.673-6.02 3.108-6.02 3.108s1.784 1.913 3.501 5.787 1.997 12.372 1.997 12.372l5.929-.898s1.934 5.466 1.772 7.364-2.123 6.646-2.123 6.646l5.297 2.02s3.527-5.719 4.074-9.217c.547-3.496-.528-12.643-.931-15.098-.404-2.456-2.863-8.66-2.863-8.66z"/><path fill="#757575" d="M111.138 108.768a.2.2 0 0 1-.083-.015l-5.298-2.019a.235.235 0 0 1-.133-.307c.02-.047 1.951-4.737 2.107-6.577.14-1.635-1.366-6.125-1.696-7.085l-5.737.87a.233.233 0 0 1-.268-.224c-.003-.084-.299-8.498-1.978-12.285-1.343-3.03-2.849-5.068-3.458-5.722a.233.233 0 0 1 .045-.356c.156-.1 3.856-2.46 6.078-3.135 3.805-1.156 7.379-.278 7.529-.24a.23.23 0 0 1 .118.072l3.228 3.66q.027.03.042.069c.101.254 2.474 6.256 2.877 8.708.225 1.37.591 4.352.824 7.178.215 2.59.407 6.08.108 7.995-.231 1.474-.993 3.49-2.265 5.989a52 52 0 0 1-1.841 3.313.24.24 0 0 1-.085.082.24.24 0 0 1-.114.029m-4.991-2.385 4.892 1.865c.576-.96 3.46-5.883 3.943-8.965.519-3.32-.468-12.207-.931-15.025-.379-2.304-2.63-8.052-2.835-8.574l-3.152-3.575c-.513-.114-3.815-.781-7.211.251-1.85.562-4.879 2.405-5.732 2.937.504.597 1.945 2.453 3.358 5.64.722 1.628 1.281 4.221 1.662 7.708a72 72 0 0 1 .345 4.49l5.671-.86a.23.23 0 0 1 .255.153c.08.225 1.949 5.537 1.785 7.462-.144 1.697-1.656 5.52-2.05 6.493"/><path fill="#fff" d="M110.988 88.874s-3.275.223-4.796 3.631z"/><path fill="#757575" d="M106.192 92.739a.234.234 0 0 1-.213-.329c.814-1.825 2.125-2.753 3.081-3.209 1.037-.495 1.877-.557 1.912-.56a.24.24 0 0 1 .226.13.233.233 0 0 1-.193.337c-.013 0-.804.062-1.761.523-1.279.615-2.234 1.615-2.838 2.97a.23.23 0 0 1-.213.138z"/><path fill="#fff" d="M122.689 85.317c4.542-2.34 6.224-8.12 3.757-12.91s-8.149-6.776-12.691-4.437c-4.543 2.34-6.225 8.12-3.758 12.91s8.15 6.776 12.692 4.437"/><path fill="#757575" d="M118.63 86.525a9.5 9.5 0 0 1-3.146-.542c-2.453-.857-4.477-2.635-5.699-5.004-2.522-4.897-.793-10.829 3.857-13.224 2.254-1.162 4.849-1.328 7.308-.47 2.453.859 4.477 2.636 5.698 5.005 1.222 2.37 1.494 5.05.768 7.546-.727 2.5-2.369 4.517-4.624 5.679a9.05 9.05 0 0 1-4.162 1.01m-.826-19.315a8.6 8.6 0 0 0-3.949.959c-4.42 2.277-6.06 7.928-3.655 12.595 1.166 2.264 3.097 3.96 5.438 4.778 2.336.816 4.801.659 6.94-.444s3.698-3.017 4.389-5.394c.693-2.38.432-4.938-.734-7.201-1.167-2.264-3.098-3.96-5.438-4.778a9 9 0 0 0-2.991-.515"/><path fill="#757575" d="M113.748 67.962c-4.495 2.316-6.187 8.002-3.829 12.762 2.854 2.083 6.612 2.325 10.654.91 2.877-1.006 5.563-3.033 7.004-4.7a10.1 10.1 0 0 0-1.136-4.537c-2.468-4.79-8.15-6.775-12.693-4.435"/><path fill="#757575" d="M115.71 82.76q-.47 0-.929-.037c-1.877-.15-3.559-.76-4.999-1.81a.23.23 0 0 1-.072-.085c-1.168-2.358-1.406-5.01-.67-7.469.738-2.465 2.372-4.456 4.601-5.605 4.649-2.395 10.484-.36 13.007 4.536a10.4 10.4 0 0 1 1.162 4.642.24.24 0 0 1-.057.155c-1.306 1.51-3.95 3.665-7.104 4.768-1.72.602-3.377.905-4.939.905m-5.607-2.19c1.36.978 2.946 1.547 4.715 1.688 1.763.14 3.673-.143 5.677-.843 2.83-.99 5.461-2.993 6.847-4.566a10 10 0 0 0-1.109-4.345c-2.405-4.668-7.958-6.612-12.378-4.334-2.115 1.09-3.666 2.98-4.368 5.324-.697 2.327-.477 4.837.616 7.076"/><path fill="#fff" d="M120.769 83.578a2.37 2.37 0 0 0 1.253-1.702l.317-.163s-.479-1.212-.545-1.339a2.377 2.377 0 0 0-3.203-1.025c-1.168.602-1.574 2.01-1.025 3.204.151.328.545 1.339.545 1.339l.546-.282a2.37 2.37 0 0 0 2.112-.032"/><path fill="#757575" d="M118.11 84.125a.23.23 0 0 1-.217-.149c-.004-.01-.393-1.007-.54-1.326a2.78 2.78 0 0 1-.142-1.99 2.54 2.54 0 0 1 1.272-1.519 2.615 2.615 0 0 1 3.518 1.126c.067.13.474 1.156.555 1.36a.233.233 0 0 1-.11.294l-.218.111a2.6 2.6 0 0 1-1.352 1.754 2.6 2.6 0 0 1-2.213.084l-.446.23a.23.23 0 0 1-.107.026zm.546-.749q.053 0 .101.023a2.13 2.13 0 0 0 1.906-.03 2.13 2.13 0 0 0 1.129-1.534.3.3 0 0 1 .042-.098.24.24 0 0 1 .081-.069l.129-.067a41 41 0 0 0-.457-1.121 2.13 2.13 0 0 0-1.254-1.06 2.13 2.13 0 0 0-1.636.135c-.503.26-.872.7-1.04 1.242a2.32 2.32 0 0 0 .12 1.657c.108.234.329.789.456 1.111l.317-.163a.23.23 0 0 1 .106-.026"/><path fill="#fff" d="M120.225 85.18a2.379 2.379 0 1 0 0-4.757 2.379 2.379 0 0 0 0 4.758"/><path fill="#757575" d="M120.228 85.415a2.62 2.62 0 0 1-2.325-1.417 2.615 2.615 0 0 1 1.126-3.518 2.615 2.615 0 0 1 3.518 1.125c.32.62.378 1.328.166 1.993a2.6 2.6 0 0 1-1.292 1.526 2.6 2.6 0 0 1-1.193.29m-.007-4.758a2.148 2.148 0 0 0-1.903 3.128 2.15 2.15 0 0 0 2.89.924 2.15 2.15 0 0 0 .924-2.89 2.15 2.15 0 0 0-1.911-1.162M100.082 68.31c-.289 0-.457-.069-.477-.077a.235.235 0 0 1-.123-.307.233.233 0 0 1 .304-.123c.018.007.31.114.821-.044.493-.153 1.285-.59 2.249-1.807.777-.98 1.103-2.006.97-3.049-.1-.781-.435-1.284-.439-1.29a.235.235 0 0 1 .062-.323.23.23 0 0 1 .323.06c.016.024.394.584.513 1.469.109.811.012 2.064-1.064 3.422-1.403 1.769-2.535 2.068-3.139 2.068"/><path fill="#e6e6e6" d="m70.59 64.596-1.419 7.552s-3.448-.478-4.172-.534-2.558.383-4.099.083-2.48-.905-2.394-1.924 2.247-11.923 2.433-12.787c.248-1.15.915-1.14 1.619-.988.702.152 1.445 1.944 2.305 3.878.697 1.566 1.112 3.519 1.536 3.878.424.36 4.191.842 4.191.842"/><path fill="#757575" d="m69.171 72.382-.032-.002c-.034-.005-3.45-.479-4.158-.534-.231-.017-.615.023-1.06.07-.856.089-2.027.212-3.066.01-.834-.162-1.474-.41-1.903-.735-.5-.379-.727-.862-.678-1.437.085-1.012 2.233-11.869 2.437-12.817.13-.605.384-.98.775-1.148.358-.153.768-.095 1.121-.019.73.159 1.342 1.466 2.28 3.586l.19.425c.305.688.556 1.444.777 2.111.248.749.505 1.523.696 1.685.238.198 2.256.556 4.07.789a.235.235 0 0 1 .2.274l-1.42 7.552a.234.234 0 0 1-.228.19m-4.32-1.007q.09 0 .166.006c.624.049 3.188.399 3.966.506l1.332-7.091c-1.1-.146-3.66-.518-4.067-.864-.278-.235-.489-.841-.837-1.894-.218-.656-.465-1.4-.761-2.067l-.19-.427c-.696-1.574-1.417-3.202-1.952-3.318-.282-.06-.601-.11-.839-.008-.242.104-.406.371-.502.818-.203.945-2.344 11.758-2.429 12.758-.069.812.673 1.376 2.206 1.674.97.189 2.055.075 2.928-.016.396-.042.724-.076.98-.076"/><path fill="#e6e6e6" d="M67.39 83.156s-3.891 2.658-4.325 2.748-4.49-1.385-6.294-1.131c-1.805.254-2.762 1.06-2.876 1.588s.348 4.772 2.055 6.247 4.655 1.836 5.943 2.115c1.288.278 3.347.494 4.112.153.764-.342 1.723-1.792 2.438-2.328.714-.536 2.584-1.513 2.584-1.513-1.243-3.818-2.458-6.555-3.637-7.878"/><path fill="#757575" d="M64.752 95.284q-.287 0-.621-.02c-.724-.043-1.58-.16-2.288-.314q-.279-.059-.66-.13c-1.452-.276-3.882-.737-5.386-2.036-.96-.83-1.5-2.416-1.785-3.6-.315-1.314-.414-2.559-.346-2.873.148-.686 1.25-1.514 3.071-1.77 1.228-.172 3.338.393 4.879.805.59.158 1.26.337 1.403.329.295-.083 2.4-1.457 4.238-2.712a.233.233 0 0 1 .305.038c1.16 1.3 2.365 3.904 3.685 7.962a.234.234 0 0 1-.114.279c-.019.01-1.861.974-2.552 1.493-.28.21-.61.58-.958.972-.508.571-1.034 1.163-1.525 1.381-.291.13-.743.196-1.347.196zm-7.51-10.308q-.239 0-.44.028c-1.671.235-2.587.978-2.68 1.406-.098.452.334 4.599 1.98 6.02 1.409 1.218 3.762 1.664 5.168 1.931.257.05.48.091.672.133 1.406.304 3.323.455 3.966.168.4-.178.913-.756 1.367-1.266.364-.41.709-.797 1.026-1.035.6-.45 1.955-1.182 2.441-1.44-1.207-3.68-2.348-6.184-3.395-7.454-1.08.735-3.815 2.578-4.236 2.666-.189.04-.55-.05-1.616-.336-1.25-.335-3.066-.821-4.254-.821"/><path fill="#e6e6e6" d="m109.815 56.118 3.679 4.957s2.031-1.065 2.208-1.204 1.771.412 2.975.437 2.709-.21 3.143-.323.539-1.092.024-1.236l-2.279-.639s.991-.76 1.666-1.012 2.935-1.07 3.137-1.308c.302-.355-.058-2.353-1.16-3.96-.797-1.162-2.416-2.25-2.923-2.359-.508-.11-3.963.854-4.838 1.491-.876.637-2.127 2.742-2.884 3.375s-2.747 1.781-2.747 1.781z"/><path fill="#757575" d="M113.494 61.309a.23.23 0 0 1-.188-.094l-3.678-4.957a.23.23 0 0 1-.041-.187.24.24 0 0 1 .039-.09.2.2 0 0 1 .073-.065c.019-.011 1.981-1.145 2.714-1.758.325-.272.763-.854 1.226-1.47.573-.761 1.166-1.548 1.67-1.914.902-.657 4.413-1.663 5.024-1.53.627.135 2.285 1.314 3.067 2.454a8.1 8.1 0 0 1 1.14 2.524c.102.4.307 1.366.006 1.72-.162.19-.936.524-2.959 1.273l-.275.102c-.38.143-.878.464-1.218.7l1.813.508c.322.09.519.4.516.808-.003.356-.175.783-.544.88-.493.127-2.029.353-3.207.33-.668-.014-1.429-.18-2.039-.312-.315-.068-.703-.153-.825-.149-.312.205-1.88 1.03-2.205 1.2a.23.23 0 0 1-.109.027m-3.336-5.12 3.404 4.587c.919-.484 1.889-1.007 1.997-1.089.16-.125.41-.079 1.173.087.591.128 1.326.288 1.95.3 1.216.026 2.695-.215 3.079-.315.091-.023.193-.206.195-.43 0-.051-.006-.308-.174-.355-.489-.136-2.279-.639-2.279-.639a.233.233 0 0 1-.079-.41c.041-.031 1.026-.784 1.725-1.045l.276-.103c.63-.233 2.54-.94 2.768-1.14.053-.08.099-.514-.11-1.32a7.7 7.7 0 0 0-1.067-2.354c-.773-1.127-2.35-2.17-2.781-2.263-.142-.03-.927.095-2.165.461-1.17.347-2.122.726-2.486.99-.448.326-1.019 1.085-1.571 1.818-.48.638-.934 1.241-1.3 1.547-.619.518-2.007 1.35-2.554 1.673z"/><path fill="#757575" d="M116.47 53.303a.232.232 0 0 1-.232-.26.24.24 0 0 1 .087-.156c.131-.104 1.292-1.017 1.636-1.165.581-.25 3.584-1.587 3.614-1.6a.233.233 0 1 1 .19.426c-.03.013-3.036 1.351-3.619 1.602-.216.093-1.054.726-1.531 1.103a.23.23 0 0 1-.145.05m.858 1.532a.233.233 0 0 1-.125-.43c.15-.095 1.477-.927 1.809-1.07.584-.252 3.8-1.583 3.832-1.596a.233.233 0 1 1 .178.43c-.032.014-3.245 1.344-3.826 1.594-.253.109-1.345.785-1.745 1.036a.23.23 0 0 1-.124.036zm1.225 1.756a.234.234 0 0 1-.232-.26.23.23 0 0 1 .087-.156c.131-.104 1.292-1.018 1.635-1.166.587-.253 3.703-1.44 3.835-1.491a.233.233 0 1 1 .166.436c-.032.012-3.239 1.235-3.816 1.484-.217.093-1.054.726-1.531 1.102a.23.23 0 0 1-.145.05z"/><path fill="#e6e6e6" d="m106.046 104.526-1.323 2.925c-.153.339-1.382 1.479-1.792 2.028s-1.341 2.761-1.356 3.076.686.388 1.014.22 2.074-1.86 2.074-1.86.397 2.58.326 2.91c-.071.329-1.471 2.627-1.526 2.88s.869 1.064 1.756 1.256c2.307.5 3.92.096 4.377-.177.457-.272 1.381-2.598 1.578-3.51.198-.913-.281-3.205-.193-3.611.087-.405 1.371-3.392 1.371-3.392-1.852-1.458-4.033-2.074-6.306-2.745"/><path fill="#757575" d="M107.351 118.433c-.638 0-1.374-.069-2.182-.244-.855-.185-2.041-1.039-1.934-1.533.03-.139.229-.5.709-1.351.311-.549.78-1.379.817-1.531.031-.174-.1-1.276-.262-2.379-.549.525-1.535 1.449-1.804 1.587-.321.164-.848.149-1.128-.031a.45.45 0 0 1-.226-.407c.014-.282.46-1.326.549-1.533.128-.296.567-1.29.853-1.673.193-.257.549-.63.894-.991.359-.375.804-.842.873-.992l1.323-2.925a.23.23 0 0 1 .115-.116.23.23 0 0 1 .163-.012l.19.056c2.242.661 4.359 1.284 6.195 2.729a.234.234 0 0 1 .07.276c-.513 1.192-1.297 3.068-1.358 3.349-.027.124.036.646.091 1.106.102.855.23 1.919.103 2.505-.186.86-1.115 3.321-1.687 3.662-.378.225-1.214.448-2.364.448m-3.651-1.701c.089.197.802.835 1.569 1.001 2.193.475 3.782.105 4.208-.149.293-.175 1.221-2.213 1.47-3.359.11-.51-.018-1.574-.11-2.351-.084-.696-.125-1.068-.084-1.26.081-.373 1.024-2.593 1.313-3.269-1.732-1.311-3.754-1.908-5.891-2.537l-1.239 2.739c-.096.212-.427.565-.96 1.123-.336.351-.683.714-.859.949-.405.541-1.259 2.623-1.307 2.934.081.073.459.124.673.014.205-.104 1.303-1.127 2.018-1.819a.24.24 0 0 1 .237-.054q.061.022.104.071a.25.25 0 0 1 .052.115c.095.615.398 2.65.323 2.995-.041.189-.308.675-.866 1.661-.261.463-.583 1.033-.651 1.197z"/><path fill="#757575" d="M104.776 117.807a.23.23 0 0 1-.118-.032.3.3 0 0 1-.068-.06.2.2 0 0 1-.04-.082.2.2 0 0 1-.005-.091.2.2 0 0 1 .029-.086c.015-.025 1.47-2.514 1.678-3.005.158-.373.108-1.234.075-1.535a.236.236 0 0 1 .207-.257.233.233 0 0 1 .257.207c.014.123.124 1.218-.109 1.768-.22.518-1.644 2.954-1.704 3.058a.23.23 0 0 1-.202.116zm1.726.374a.234.234 0 0 1-.209-.336c.013-.026 1.261-2.567 1.473-3.065.158-.373.108-1.235.075-1.535a.23.23 0 0 1 .12-.23.233.233 0 0 1 .344.179c.014.123.124 1.218-.109 1.769-.217.51-1.432 2.984-1.484 3.089a.23.23 0 0 1-.209.13zm1.499.083a.234.234 0 0 1-.205-.344c.014-.026 1.392-2.593 1.602-3.088.134-.315-.01-1.076-.133-1.481a.234.234 0 0 1 .447-.135c.037.124.358 1.226.115 1.798-.218.514-1.563 3.02-1.62 3.127a.23.23 0 0 1-.206.123"/><path fill="#fff" d="M69.921 30.632a3.033 3.033 0 1 0 0-6.065 3.033 3.033 0 0 0 0 6.065"/><path fill="#757575" d="M69.914 30.867a3.24 3.24 0 0 1-1.824-.562 3.25 3.25 0 0 1-1.377-2.087 3.25 3.25 0 0 1 .503-2.45 3.25 3.25 0 0 1 2.086-1.376 3.25 3.25 0 0 1 2.45.502 3.24 3.24 0 0 1 1.376 2.087 3.25 3.25 0 0 1-.502 2.449 3.25 3.25 0 0 1-2.087 1.377q-.313.06-.625.06m.012-6.068q-.267 0-.535.052c-.734.141-1.37.56-1.79 1.18a2.78 2.78 0 0 0-.43 2.098 2.8 2.8 0 0 0 1.18 1.79 2.78 2.78 0 0 0 2.1.43 2.78 2.78 0 0 0 1.788-1.18 2.78 2.78 0 0 0 .43-2.1 2.78 2.78 0 0 0-1.18-1.788 2.8 2.8 0 0 0-1.563-.482"/><path fill="#e6e6e6" d="M80.357 37.194a1.17 1.17 0 0 1-1.138-.424c-.023-.029-2.306-2.919-4.594-4.922-2.15-1.883-4.871-2.607-4.898-2.614a1.167 1.167 0 0 1 .581-2.26c.133.035 3.273.858 5.854 3.119 2.454 2.149 4.792 5.11 4.89 5.235a1.167 1.167 0 0 1-.694 1.867"/><path fill="#757575" d="M80.133 37.449c-.424 0-.829-.193-1.098-.535-.022-.029-2.287-2.896-4.565-4.89-2.1-1.84-4.776-2.557-4.803-2.564a1.403 1.403 0 0 1-1.004-1.705 1.4 1.4 0 0 1 1.703-1.006c.134.034 3.327.872 5.95 3.168 2.469 2.163 4.82 5.14 4.92 5.267.23.294.334.66.29 1.032a1.404 1.404 0 0 1-1.392 1.234zM70.02 27.171a.935.935 0 0 0-.904.7.935.935 0 0 0 .67 1.137c.028.007 2.8.743 4.993 2.664 2.31 2.023 4.601 4.924 4.624 4.954a.93.93 0 0 0 1.311.156.93.93 0 0 0 .35-.623.93.93 0 0 0-.194-.688c-.098-.124-2.424-3.07-4.86-5.204-2.54-2.224-5.629-3.034-5.76-3.067a1 1 0 0 0-.23-.03z"/><path fill="#fff" d="M78.536 34.121a3 3 0 0 1 4.227.303l.704.813c.367.422.32 1.063-.102 1.429l-2.998 2.598a1.014 1.014 0 0 1-1.43-.102l-.704-.813a3 3 0 0 1 .303-4.227"/><path fill="#757575" d="M79.675 39.738c-.349 0-.696-.145-.942-.429l-.704-.812a3.2 3.2 0 0 1-.78-2.345 3.2 3.2 0 0 1 1.105-2.21 3.233 3.233 0 0 1 4.555.325l.704.813c.45.52.394 1.308-.126 1.758l-2.996 2.597a1.24 1.24 0 0 1-.816.304m.792-6.118a2.75 2.75 0 0 0-1.807.674 2.766 2.766 0 0 0-.279 3.897l.704.813a.78.78 0 0 0 1.1.078l2.997-2.597a.78.78 0 0 0 .078-1.1l-.704-.812a2.76 2.76 0 0 0-2.09-.952z"/><path fill="#757575" d="M82.056 38.171c1.21-1.048 1.92-2.212 1.583-2.6s-1.59.148-2.8 1.196-1.918 2.212-1.582 2.6 1.59-.147 2.8-1.196"/><path fill="#757575" d="M79.599 39.736c-.27 0-.429-.098-.523-.207-.166-.191-.268-.576.188-1.326.312-.512.815-1.081 1.418-1.603.602-.523 1.238-.94 1.788-1.175.807-.345 1.174-.19 1.34.002.5.577-.43 1.91-1.606 2.93-.603.522-1.238.94-1.788 1.175-.348.148-.614.204-.817.204m3.69-4.05c-.135 0-.345.043-.636.167-.507.217-1.099.607-1.666 1.099-.568.492-1.038 1.022-1.325 1.493-.275.452-.29.713-.234.778s.317.087.804-.121c.507-.217 1.1-.607 1.667-1.099 1.303-1.129 1.713-2.093 1.558-2.271-.023-.026-.078-.046-.169-.046"/><path fill="#e6e6e6" d="M90.365 105.42a12.2 12.2 0 0 1-4.18-1.781 12.4 12.4 0 0 1-4.055-4.474 12 12 0 0 1-1.371-6.185c.273-5.63 3.203-12.641 6.035-19.421 1.348-3.224 2.62-6.27 3.514-8.964 2.558-7.708-1.075-13.53-1.112-13.589a1.167 1.167 0 0 1 1.966-1.256c.045.07 1.11 1.757 1.803 4.514a19.5 19.5 0 0 1 .589 4.916 20 20 0 0 1-1.031 6.15c-.922 2.777-2.21 5.862-3.575 9.128-2.756 6.594-5.605 13.414-5.858 18.635-.167 3.442 1.474 6.659 4.39 8.605a9.85 9.85 0 0 0 4.518 1.619c1.71.16 3.384-.142 4.978-.897 1.762-.835 2.918-2.216 3.533-4.224.428-1.396.575-3.031.449-5a1.167 1.167 0 0 1 2.328-.148c.145 2.254-.034 4.162-.546 5.832-.807 2.633-2.41 4.533-4.765 5.649a11.85 11.85 0 0 1-7.61.891"/><path fill="#757575" d="M92.876 105.923c-.853 0-1.71-.092-2.56-.275a12.4 12.4 0 0 1-4.26-1.814 12.6 12.6 0 0 1-4.132-4.56 12.2 12.2 0 0 1-1.398-6.305c.275-5.67 3.212-12.7 6.053-19.499 1.345-3.221 2.616-6.263 3.507-8.948 2.513-7.575-1.052-13.333-1.087-13.39a1.402 1.402 0 0 1 1.48-2.12c.366.08.678.298.88.613.045.072 1.13 1.79 1.831 4.583.409 1.627.61 3.298.597 4.975a20.2 20.2 0 0 1-1.043 6.22c-.925 2.787-2.215 5.875-3.581 9.145-2.748 6.577-5.589 13.377-5.84 18.558-.164 3.359 1.439 6.499 4.286 8.399a9.6 9.6 0 0 0 4.41 1.581c1.667.156 3.301-.138 4.856-.875 1.7-.806 2.815-2.141 3.41-4.082.42-1.369.564-2.977.44-4.916a1.4 1.4 0 0 1 .345-1.014 1.4 1.4 0 0 1 .962-.472c.373-.024.733.098 1.014.345s.449.589.472.962c.147 2.283-.035 4.218-.556 5.916-.827 2.697-2.471 4.646-4.888 5.791a12.1 12.1 0 0 1-5.199 1.183zm-2.7-56.478a.935.935 0 0 0-.785 1.436c.039.058 3.73 5.974 1.138 13.787-.897 2.702-2.17 5.751-3.52 8.98-2.825 6.763-5.746 13.754-6.017 19.343a11.74 11.74 0 0 0 1.344 6.065 12.1 12.1 0 0 0 3.978 4.389 11.9 11.9 0 0 0 4.1 1.746c.817.177 1.64.265 2.46.265 1.712 0 3.407-.383 5.001-1.138 2.293-1.087 3.854-2.939 4.642-5.507.503-1.643.679-3.523.536-5.749a.93.93 0 0 0-.315-.641.93.93 0 0 0-.676-.23.93.93 0 0 0-.641.314.93.93 0 0 0-.231.677c.128 1.996-.022 3.66-.458 5.082-.636 2.074-1.832 3.502-3.657 4.367-1.632.773-3.348 1.083-5.1.918a10.1 10.1 0 0 1-4.625-1.657c-2.985-1.991-4.665-5.285-4.494-8.81.256-5.262 3.113-12.1 5.875-18.713 1.363-3.263 2.65-6.344 3.57-9.113a19.8 19.8 0 0 0 1.019-6.078 19.4 19.4 0 0 0-.582-4.857c-.684-2.721-1.729-4.377-1.773-4.446a.93.93 0 0 0-.788-.43m-16.224-6.687a.233.233 0 0 1-.023-.466l1.598-.16a.233.233 0 1 1 .046.464l-1.598.16zm1.887 5.27a.232.232 0 0 1-.23-.27.23.23 0 0 1 .093-.152l1.304-.938a.233.233 0 0 1 .273.379l-1.304.938a.23.23 0 0 1-.136.044m4.27 3.623a.232.232 0 0 1-.213-.33l.66-1.464a.233.233 0 1 1 .425.192l-.66 1.464a.23.23 0 0 1-.213.138m15.224-8.055-.035-.002-1.589-.236a.233.233 0 0 1-.196-.265.233.233 0 0 1 .265-.196l1.589.235a.233.233 0 0 1-.034.464m-2.035-4.982a.233.233 0 0 1-.086-.45l1.494-.59a.233.233 0 1 1 .172.433l-1.494.59a.2.2 0 0 1-.086.017m-2.759-3.888a.233.233 0 0 1-.183-.378l.999-1.258a.233.233 0 1 1 .365.29l-.998 1.258a.23.23 0 0 1-.183.088"/></svg>