<svg viewBox="0 0 24 24" fill="currentColor" xmlns="http://www.w3.org/2000/svg">
<path d="M6.75 2V2.366C7.886 2.25 9.284 2.25 10.989 2.25H13.011C14.716 2.25 16.114 2.25 17.25 2.366V2C17.25 1.586 17.586 1.25 18 1.25C18.414 1.25 18.75 1.586 18.75 2V2.635C19.555 2.863 20.233 3.234 20.799 3.844C21.576 4.685 21.922 5.748 22.088 7.08C22.25 8.384 22.25 10.057 22.25 12.19V12.81C22.25 14.943 22.25 16.616 22.088 17.92C21.922 19.252 21.576 20.315 20.799 21.156C20.013 22.005 19.007 22.39 17.749 22.573C16.531 22.75 14.974 22.75 13.011 22.75H10.989C9.026 22.75 7.469 22.75 6.251 22.573C4.993 22.39 3.987 22.005 3.202 21.156C2.424 20.315 2.078 19.252 1.912 17.92C1.75 16.616 1.75 14.944 1.75 12.81V12.19C1.75 10.056 1.75 8.384 1.912 7.08C2.078 5.748 2.424 4.685 3.202 3.844C3.766 3.234 4.445 2.863 5.25 2.635V2C5.25 1.586 5.586 1.25 6 1.25C6.414 1.25 6.75 1.586 6.75 2ZM3.29 8.72C3.251 9.683 3.25 10.836 3.25 12.243V12.757C3.25 14.955 3.251 16.534 3.401 17.735C3.548 18.921 3.828 19.624 4.303 20.137C4.769 20.641 5.397 20.933 6.467 21.089C7.565 21.248 9.012 21.25 11.05 21.25H12.95C14.988 21.25 16.435 21.248 17.533 21.089C18.603 20.933 19.231 20.641 19.697 20.137C20.171 19.624 20.452 18.921 20.599 17.735C20.749 16.534 20.75 14.955 20.75 12.757V12.243C20.75 10.836 20.749 9.683 20.71 8.72C20.643 8.74 20.573 8.75 20.5 8.75H3.5C3.427 8.75 3.357 8.74 3.29 8.72ZM5.279 4.206C4.871 4.368 4.562 4.583 4.303 4.863C3.83 5.374 3.55 6.076 3.402 7.256C3.434 7.252 3.467 7.25 3.5 7.25H20.5C20.533 7.25 20.566 7.252 20.598 7.256C20.451 6.076 20.17 5.374 19.697 4.863C19.438 4.583 19.129 4.368 18.721 4.206C18.632 4.52 18.343 4.75 18 4.75C17.586 4.75 17.25 4.414 17.25 4V3.875C16.189 3.752 14.818 3.75 12.95 3.75H11.05C9.182 3.75 7.811 3.752 6.75 3.875V4C6.75 4.414 6.414 4.75 6 4.75C5.657 4.75 5.368 4.52 5.279 4.206ZM11.995 12H12.005C12.557 12 13.005 12.448 13.005 13C13.005 13.552 12.557 14 12.005 14H11.995C11.443 14 10.995 13.552 10.995 13C10.995 12.448 11.443 12 11.995 12ZM11.995 16H12.005C12.557 16 13.005 16.448 13.005 17C13.005 17.552 12.557 18 12.005 18H11.995C11.443 18 10.995 17.552 10.995 17C10.995 16.448 11.443 16 11.995 16ZM15.991 12H16C16.552 12 17 12.448 17 13C17 13.552 16.552 14 16 14H15.991C15.439 14 14.991 13.552 14.991 13C14.991 12.448 15.439 12 15.991 12ZM8 12H8.009C8.561 12 9.009 12.448 9.009 13C9.009 13.552 8.561 14 8.009 14H8C7.448 14 7 13.552 7 13C7 12.448 7.448 12 8 12ZM8 16H8.009C8.561 16 9.009 16.448 9.009 17C9.009 17.552 8.561 18 8.009 18H8C7.448 18 7 17.552 7 17C7 16.448 7.448 16 8 16Z" fill="currentColor"/>
</svg>
