<svg width="24" height="24" viewBox="0 0 24 24" fill="none" xmlns="http://www.w3.org/2000/svg">
  <path
    d="M22.042 7.01797L11.542 18.018C11.401 18.166 11.205 18.25 11 18.25C10.795 18.25 10.599 18.166 10.458 18.018L6.95697 14.351C6.67097 14.052 6.68297 13.577 6.98197 13.291C7.28197 13.005 7.75697 13.016 8.04297 13.316L11 16.414L20.958 5.98197C21.243 5.68297 21.718 5.67097 22.018 5.95697C22.317 6.24297 22.329 6.71797 22.042 7.01797ZM17.042 7.01797L10.98 13.37C10.693 13.669 10.219 13.68 9.91897 13.394C9.61997 13.108 9.60897 12.633 9.89497 12.334L15.958 5.98197C16.243 5.68297 16.718 5.67097 17.018 5.95697C17.317 6.24297 17.329 6.71797 17.042 7.01797ZM3.04297 13.316L5.99997 16.414L6.48197 15.909C6.76797 15.61 7.24197 15.599 7.54197 15.885C7.84097 16.171 7.85297 16.646 7.56697 16.945L6.54297 18.018C6.40097 18.166 6.20497 18.25 5.99997 18.25C5.79497 18.25 5.59897 18.166 5.45697 18.018L1.95697 14.351C1.67097 14.052 1.68297 13.577 1.98197 13.291C2.28197 13.005 2.75697 13.016 3.04297 13.316Z"
    fill="currentColor"
  />
</svg>

