<svg viewBox="0 0 24 24" fill="currentColor" xmlns="http://www.w3.org/2000/svg">
<path d="M19.7442 18.1957C19.7442 17.9669 19.7317 17.8261 19.7123 17.7378C19.7082 17.719 19.7025 17.7055 19.6992 17.6953C19.6891 17.6921 19.6757 17.687 19.6575 17.683C19.5693 17.6637 19.4285 17.6512 19.1997 17.6512H4.80033C4.57153 17.6512 4.43071 17.6637 4.34248 17.683C4.32382 17.6871 4.3101 17.6921 4.29996 17.6953C4.29671 17.7054 4.2918 17.7192 4.2877 17.7378C4.26832 17.8261 4.25581 17.9669 4.25581 18.1957V19.1997C4.25581 19.4285 4.26832 19.5693 4.2877 19.6575C4.2917 19.6757 4.29676 19.6891 4.29996 19.6992C4.31012 19.7025 4.32367 19.7082 4.34248 19.7123C4.43071 19.7317 4.57153 19.7442 4.80033 19.7442H19.1997C19.4285 19.7442 19.5693 19.7317 19.6575 19.7123C19.6759 19.7083 19.6891 19.7024 19.6992 19.6992C19.7024 19.6891 19.7083 19.6759 19.7123 19.6575C19.7317 19.5693 19.7442 19.4285 19.7442 19.1997V18.1957ZM19.7442 11.498C19.7442 11.2692 19.7317 11.1284 19.7123 11.0402C19.7082 11.0214 19.7025 11.0078 19.6992 10.9976C19.6891 10.9944 19.6757 10.9894 19.6575 10.9854C19.5693 10.966 19.4285 10.9535 19.1997 10.9535H4.80033C4.57153 10.9535 4.43071 10.966 4.34248 10.9854C4.32382 10.9895 4.3101 10.9944 4.29996 10.9976C4.29671 11.0078 4.2918 11.0215 4.2877 11.0402C4.26832 11.1284 4.25581 11.2692 4.25581 11.498V12.502C4.25581 12.7308 4.26832 12.8716 4.2877 12.9598C4.2917 12.978 4.29676 12.9915 4.29996 13.0015C4.31012 13.0048 4.32367 13.0105 4.34248 13.0146C4.43071 13.034 4.57153 13.0465 4.80033 13.0465H19.1997C19.4285 13.0465 19.5693 13.034 19.6575 13.0146C19.6759 13.0106 19.6891 13.0048 19.6992 13.0015C19.7024 12.9915 19.7083 12.9782 19.7123 12.9598C19.7317 12.8716 19.7442 12.7308 19.7442 12.502V11.498ZM19.7442 4.80033C19.7442 4.57153 19.7317 4.43071 19.7123 4.34248C19.7082 4.32367 19.7025 4.31012 19.6992 4.29996C19.6891 4.29676 19.6757 4.2917 19.6575 4.2877C19.5693 4.26832 19.4285 4.25581 19.1997 4.25581H4.80033C4.57153 4.25581 4.43071 4.26832 4.34248 4.2877C4.32382 4.2918 4.3101 4.29671 4.29996 4.29996C4.29671 4.3101 4.2918 4.32382 4.2877 4.34248C4.26832 4.43071 4.25581 4.57153 4.25581 4.80033V5.80432L4.26481 6.08639C4.27042 6.16098 4.27802 6.21812 4.2877 6.26217C4.2917 6.28038 4.29676 6.2938 4.29996 6.30387C4.31012 6.30714 4.32367 6.31282 4.34248 6.31695C4.43071 6.33633 4.57153 6.34884 4.80033 6.34884H19.1997C19.4285 6.34884 19.5693 6.33633 19.6575 6.31695C19.6759 6.31292 19.6891 6.30709 19.6992 6.30387C19.7024 6.29378 19.7083 6.28052 19.7123 6.26217C19.7317 6.17394 19.7442 6.03312 19.7442 5.80432V4.80033ZM21 19.1997C21 19.4557 20.9875 19.7049 20.9387 19.9273C20.8882 20.1568 20.7908 20.3966 20.5937 20.5937C20.3966 20.7908 20.1568 20.8882 19.9273 20.9387C19.7049 20.9875 19.4557 21 19.1997 21H4.80033C4.54431 21 4.29512 20.9875 4.07267 20.9387C3.84322 20.8882 3.60344 20.7908 3.40634 20.5937C3.20924 20.3966 3.11177 20.1568 3.06132 19.9273C3.01245 19.7049 3 19.4557 3 19.1997V18.1957C3 17.9397 3.01245 17.6905 3.06132 17.468C3.11177 17.2386 3.20924 16.9988 3.40634 16.8017C3.60344 16.6046 3.84322 16.5071 4.07267 16.4567C4.29512 16.4078 4.54431 16.3953 4.80033 16.3953H19.1997C19.4557 16.3953 19.7049 16.4078 19.9273 16.4567C20.1568 16.5071 20.3966 16.6046 20.5937 16.8017C20.7908 16.9988 20.8882 17.2386 20.9387 17.468C20.9875 17.6905 21 17.9397 21 18.1957V19.1997ZM21 12.502C21 12.758 20.9875 13.0072 20.9387 13.2297C20.8882 13.4591 20.7908 13.6989 20.5937 13.896C20.3966 14.0931 20.1568 14.1906 19.9273 14.241C19.7049 14.2899 19.4557 14.3023 19.1997 14.3023H4.80033C4.54431 14.3023 4.29512 14.2899 4.07267 14.241C3.84322 14.1906 3.60344 14.0931 3.40634 13.896C3.20924 13.6989 3.11177 13.4591 3.06132 13.2297C3.01245 13.0072 3 12.758 3 12.502V11.498C3 11.242 3.01245 10.9928 3.06132 10.7703C3.11177 10.5409 3.20924 10.3011 3.40634 10.104C3.60344 9.90692 3.84322 9.80944 4.07267 9.75899C4.29512 9.71013 4.54431 9.69767 4.80033 9.69767H19.1997C19.4557 9.69767 19.7049 9.71013 19.9273 9.75899C20.1568 9.80944 20.3966 9.90691 20.5937 10.104C20.7908 10.3011 20.8882 10.5409 20.9387 10.7703C20.9875 10.9928 21 11.242 21 11.498V12.502ZM21 5.80432C21 6.06034 20.9875 6.30953 20.9387 6.53198C20.8882 6.76143 20.7908 7.00121 20.5937 7.19831C20.3966 7.39541 20.1568 7.49288 19.9273 7.54333C19.7049 7.5922 19.4557 7.60465 19.1997 7.60465H4.80033C4.54431 7.60465 4.29512 7.5922 4.07267 7.54333C3.84322 7.49288 3.60344 7.39541 3.40634 7.19831C3.20924 7.00121 3.11177 6.76144 3.06132 6.53198C3.02466 6.3651 3.00826 6.1832 3.00245 5.99482L3 5.80432V4.80033C3 4.54431 3.01245 4.29512 3.06132 4.07267C3.11177 3.84322 3.20924 3.60344 3.40634 3.40634C3.60344 3.20924 3.84322 3.11177 4.07267 3.06132C4.29512 3.01245 4.54431 3 4.80033 3H19.1997C19.4557 3 19.7049 3.01245 19.9273 3.06132C20.1568 3.11177 20.3966 3.20924 20.5937 3.40634C20.7908 3.60344 20.8882 3.84322 20.9387 4.07267C20.9875 4.29512 21 4.54431 21 4.80033V5.80432Z" fill="currentColor"/>
</svg>
