<svg width="24" height="24" viewBox="0 0 24 24" fill="none" xmlns="http://www.w3.org/2000/svg">
  <path
    d="M13.877 19.8506C14.2355 19.5066 14.8053 19.5185 15.1494 19.877C15.4935 20.2355 15.4815 20.8052 15.1231 21.1494C14.3161 21.9241 13.2123 22.4004 12 22.4004C10.8634 22.4004 9.82197 21.9818 9.03128 21.291L8.87698 21.1494L8.8135 21.082C8.5182 20.7346 8.52813 20.2131 8.85061 19.877C9.17329 19.5409 9.69446 19.5091 10.0537 19.79L10.1231 19.8506L10.3125 20.0156C10.7717 20.3802 11.3576 20.5996 12 20.5996C12.7343 20.5996 13.3954 20.313 13.877 19.8506ZM17.5996 9C17.5996 5.9072 15.0929 3.40039 12 3.40039C8.90723 3.40039 6.40042 5.90721 6.40042 9V13.8076C6.40037 14.8296 6.0797 15.7978 5.51956 16.5996H18.4805C17.9204 15.7978 17.5997 14.8296 17.5996 13.8076V9ZM19.4004 13.8076C19.4005 15.0656 20.166 16.1967 21.334 16.6641C21.7345 16.8243 21.9653 17.2464 21.8838 17.6699C21.8022 18.0936 21.4315 18.4004 21 18.4004H3.00003C2.5686 18.4004 2.19783 18.0936 2.11624 17.6699C2.0348 17.2464 2.26556 16.8243 2.66604 16.6641C3.83401 16.1967 4.59955 15.0656 4.59964 13.8076V9C4.59964 4.91309 7.91312 1.59961 12 1.59961C16.087 1.59961 19.4004 4.9131 19.4004 9V13.8076Z"
    fill="currentColor"
  />
</svg>
