<svg width="24" height="24" viewBox="0 0 24 24" fill="none" xmlns="http://www.w3.org/2000/svg">
<path d="M18.7158 7.58301C18.7158 6.80361 18.7147 6.30888 18.666 5.94727C18.6211 5.61313 18.5509 5.52857 18.5117 5.48926L18.5108 5.48828C18.4715 5.44911 18.3869 5.37895 18.0527 5.33398C17.6911 5.28537 17.1964 5.28418 16.417 5.28418H16.3086C15.8492 5.28418 15.4178 5.29444 15.0117 5.18359L14.8399 5.12793L14.667 5.05664C14.3356 4.9046 14.0637 4.66702 13.792 4.40137L13.5176 4.12793C13.0207 3.63101 12.7044 3.31756 12.4434 3.11328C12.26 2.96983 12.1579 2.92415 12.0986 2.90918L12.0518 2.90234H11.9483C11.9016 2.90584 11.801 2.92214 11.5567 3.11328C11.4261 3.21546 11.2813 3.34454 11.1074 3.51074L10.4824 4.12793C10.1575 4.4529 9.8597 4.76492 9.49415 4.97363L9.33302 5.05664C9.27649 5.08257 9.21916 5.10638 9.16115 5.12793H9.16017C8.70433 5.29696 8.21638 5.28418 7.69142 5.28418H7.58302C6.80362 5.28418 6.3089 5.28537 5.94728 5.33398C5.69649 5.36773 5.5863 5.41586 5.53029 5.4541L5.48927 5.48926C5.45016 5.52837 5.37914 5.61181 5.334 5.94727C5.28538 6.30889 5.28419 6.80361 5.28419 7.58301V7.69141C5.28419 8.21637 5.29697 8.70432 5.12794 9.16016V9.16113L5.05665 9.33301C4.90461 9.66446 4.66707 9.93629 4.40138 10.208L4.12794 10.4824C3.63102 10.9793 3.31756 11.2956 3.11329 11.5566C2.96983 11.74 2.92416 11.842 2.90919 11.9014L2.90236 11.9482C2.8998 11.9827 2.8998 12.0173 2.90236 12.0518L2.90919 12.0986C2.92416 12.1579 2.96984 12.26 3.11329 12.4434C3.31758 12.7044 3.63103 13.0207 4.12794 13.5176L4.40138 13.792C4.66704 14.0637 4.90461 14.3356 5.05665 14.667L5.12794 14.8398L5.18361 15.0117C5.29445 15.4177 5.28419 15.8491 5.28419 16.3086V16.417C5.28419 17.1964 5.28538 17.6911 5.334 18.0527C5.37897 18.3869 5.44913 18.4715 5.48829 18.5107L5.48927 18.5117L5.53029 18.5459C5.58628 18.5842 5.69646 18.6323 5.94728 18.666C6.30889 18.7146 6.80362 18.7158 7.58302 18.7158H7.69142C8.21636 18.7158 8.70433 18.703 9.16017 18.8721H9.15919C9.21895 18.8941 9.27722 18.9178 9.33302 18.9434L9.49415 19.0264C9.85961 19.2351 10.1573 19.547 10.4824 19.8721L11.1074 20.4893C11.2813 20.6555 11.4261 20.7845 11.5567 20.8867C11.8002 21.0773 11.9005 21.0941 11.9473 21.0977H12.0527L12.0986 21.0908C12.1579 21.0759 12.26 21.0302 12.4434 20.8867C12.7044 20.6824 13.0207 20.369 13.5176 19.8721L13.792 19.5986C14.0637 19.333 14.3357 19.0954 14.667 18.9434H14.668L14.8399 18.8721L15.0117 18.8174C15.4178 18.7065 15.8491 18.7158 16.3086 18.7158H16.417C17.1964 18.7158 17.6911 18.7146 18.0527 18.666C18.387 18.621 18.4715 18.5509 18.5108 18.5117L18.5117 18.5107L18.5459 18.4697C18.5842 18.4138 18.6323 18.3036 18.666 18.0527C18.7147 17.6911 18.7158 17.1964 18.7158 16.417V16.3086C18.7158 15.7837 18.7031 15.2957 18.8721 14.8398C18.8942 14.7801 18.9183 14.7229 18.9434 14.668V14.667L19.0264 14.5059C19.2351 14.1404 19.5471 13.8426 19.8721 13.5176L20.4893 12.8916C20.6552 12.718 20.7846 12.5738 20.8867 12.4434C21.0773 12.1998 21.0941 12.0995 21.0977 12.0527V11.9473C21.0941 11.9005 21.0773 11.8002 20.8867 11.5566C20.7845 11.4261 20.6555 11.2813 20.4893 11.1074L19.8721 10.4824C19.547 10.1573 19.2351 9.85959 19.0264 9.49414L18.9434 9.33301C18.9179 9.27748 18.8941 9.21961 18.8721 9.16016L18.8174 8.98828C18.7065 8.58219 18.7158 8.15098 18.7158 7.69141V7.58301ZM14.5996 12C14.5996 10.5641 13.436 9.40039 12 9.40039C10.5641 9.40039 9.4004 10.5641 9.4004 12C9.4004 13.4359 10.5641 14.5996 12 14.5996C13.436 14.5996 14.5996 13.4359 14.5996 12ZM16.4004 12C16.4004 14.4301 14.4301 16.4004 12 16.4004C9.56996 16.4004 7.59962 14.4301 7.59962 12C7.59962 9.56994 9.56996 7.59961 12 7.59961C14.4301 7.59961 16.4004 9.56994 16.4004 12ZM20.5156 7.69141C20.5156 8.18356 20.5235 8.36525 20.5401 8.45996L20.5596 8.53418L20.5606 8.53613L20.5801 8.58301L20.6182 8.64941C20.6735 8.72818 20.7969 8.86135 21.1445 9.20898L21.791 9.86523C21.9869 10.0705 22.1609 10.2635 22.3047 10.4473C22.6054 10.8317 22.8516 11.2677 22.8926 11.8125L22.9004 12C22.9004 12.0624 22.8973 12.1252 22.8926 12.1875C22.8516 12.7323 22.6054 13.1684 22.3047 13.5527C22.1609 13.7365 21.9869 13.9295 21.791 14.1348L21.1445 14.79C20.6811 15.2536 20.6169 15.337 20.5801 15.417C20.5723 15.434 20.5659 15.4495 20.5606 15.4639L20.5596 15.4658C20.5291 15.5482 20.5156 15.6523 20.5156 16.3086V16.417C20.5156 17.1454 20.5177 17.7826 20.4492 18.292C20.3862 18.7606 20.2529 19.2232 19.9326 19.6191L19.7842 19.7842C19.3549 20.2135 18.8273 20.3772 18.292 20.4492C17.7826 20.5177 17.1454 20.5156 16.417 20.5156H16.3086C15.6523 20.5156 15.5482 20.529 15.4658 20.5596L15.4639 20.5605C15.4494 20.5659 15.4332 20.5713 15.416 20.5791L15.417 20.5801C15.3571 20.6077 15.2953 20.6505 15.0733 20.8652L14.7901 21.1445C14.3254 21.6092 13.9204 22.017 13.5527 22.3047C13.1682 22.6056 12.7318 22.8508 12.1865 22.8916L12.1875 22.8926C12.0629 22.902 11.9371 22.902 11.8125 22.8926V22.8916C11.2677 22.8506 10.8317 22.6054 10.4473 22.3047C10.2635 22.1609 10.0705 21.9869 9.86525 21.791L9.209 21.1445C8.86136 20.7969 8.72819 20.6735 8.64943 20.6182L8.58302 20.5801C8.56656 20.5725 8.55095 20.566 8.53615 20.5605L8.53419 20.5596C8.45175 20.529 8.34774 20.5156 7.69142 20.5156H7.58302C6.85459 20.5156 6.21744 20.5177 5.70802 20.4492C5.23965 20.3862 4.77764 20.2526 4.38185 19.9326L4.21583 19.7842C3.7865 19.3549 3.62277 18.8273 3.55079 18.292C3.48232 17.7826 3.48439 17.1454 3.48439 16.417V16.3086C3.48439 15.8165 3.47652 15.6348 3.45997 15.54L3.44044 15.4658L3.41994 15.417C3.39242 15.3571 3.34983 15.2955 3.13478 15.0732L2.85548 14.79C2.39082 14.3254 1.98303 13.9204 1.69533 13.5527C1.43196 13.2161 1.21044 12.8399 1.13185 12.3857L1.10744 12.1865C1.09814 12.0624 1.09814 11.9376 1.10744 11.8135L1.13185 11.6143C1.21044 11.1601 1.43196 10.7839 1.69533 10.4473C1.98307 10.0795 2.39074 9.6737 2.85548 9.20898L3.13478 8.92676C3.34978 8.70454 3.39243 8.64285 3.41994 8.58301L3.44044 8.53418L3.45997 8.45996C3.47652 8.36523 3.48439 8.18354 3.48439 7.69141V7.58301C3.48439 6.85457 3.48232 6.21742 3.55079 5.70801C3.62277 5.17268 3.78652 4.64513 4.21583 4.21582L4.38185 4.06738C4.77765 3.74744 5.23966 3.61375 5.70802 3.55078C6.21744 3.48231 6.85458 3.48438 7.58302 3.48438H7.69142C8.3477 3.48438 8.45174 3.47097 8.53419 3.44043L8.58302 3.41992L8.64943 3.38184C8.72808 3.32659 8.8612 3.20327 9.209 2.85547L9.86525 2.20898C10.0705 2.01313 10.2635 1.83913 10.4473 1.69531C10.8319 1.39442 11.2683 1.14828 11.8135 1.10742L12 1.09961C12.0623 1.09961 12.1245 1.10277 12.1865 1.10742L12.3858 1.13184C12.8399 1.21042 13.2161 1.43195 13.5527 1.69531C13.9204 1.98302 14.3254 2.3908 14.7901 2.85547L15.0733 3.13477C15.2955 3.34982 15.3572 3.39241 15.417 3.41992L15.4658 3.44043L15.5401 3.45996C15.6348 3.4765 15.8165 3.48438 16.3086 3.48438H16.417C17.1454 3.48438 17.7826 3.48231 18.292 3.55078C18.8273 3.62275 19.3549 3.78649 19.7842 4.21582L19.9326 4.38184C20.2526 4.77763 20.3863 5.23964 20.4492 5.70801C20.5177 6.21743 20.5156 6.85458 20.5156 7.58301V7.69141Z" fill="#1E1E1E"/>
</svg>
